<svg width="75" height="49" viewBox="0 0 75 49" fill="none" xmlns="http://www.w3.org/2000/svg">
<rect x="7.87305" y="8.00391" width="58.0471" height="39.148" rx="7.33659" fill="#EDE5D8"/>
<path d="M44.5761 0.521484H28.898C26.7266 0.521484 25.025 2.6645 25.025 5.40014V6.39435H14.8965C10.5241 6.39435 6.96565 9.95142 6.96565 14.3252V39.8382C6.96565 42.1392 7.95649 44.208 9.52713 45.6578H1.01245C0.743931 45.6578 0.486404 45.7645 0.296533 45.9543C0.106662 46.1442 0 46.4017 0 46.6702C0 46.9388 0.106662 47.1963 0.296533 47.3862C0.486404 47.576 0.743931 47.6827 1.01245 47.6827H13.7909C14.1534 47.7333 14.5199 47.7691 14.8965 47.7691H59.2033C59.5792 47.7691 59.9464 47.7333 60.3089 47.6827H73.0745C73.343 47.6827 73.6005 47.576 73.7904 47.3862C73.9803 47.1963 74.087 46.9388 74.087 46.6702C74.087 46.4017 73.9803 46.1442 73.7904 45.9543C73.6005 45.7645 73.343 45.6578 73.0745 45.6578H64.5726C66.1433 44.208 67.1341 42.1392 67.1341 39.8382V22.1946C67.1361 22.1771 67.1429 22.1609 67.1449 22.144C67.1584 22.0414 67.151 21.9415 67.1341 21.845V14.3252C67.1341 9.95142 63.5757 6.39435 59.2033 6.39435H48.449V5.40014C48.449 2.6645 46.7481 0.521484 44.5761 0.521484ZM27.0499 5.40014C27.0499 3.85311 27.8963 2.54638 28.898 2.54638H44.5761C45.5777 2.54638 46.4241 3.85311 46.4241 5.40014V6.39435H27.0499V5.40014ZM60.1705 45.6578H13.9286C11.1322 45.1941 8.99055 42.7642 8.99055 39.8382V24.557C12.3721 26.4692 16.6602 26.7115 21.1264 26.783L33.2475 26.9774V27.3811C33.2485 28.3877 33.6489 29.3528 34.3607 30.0645C35.0724 30.7763 36.0375 31.1767 37.0441 31.1777H37.2021C38.2087 31.1767 39.1738 30.7763 39.8856 30.0645C40.5973 29.3528 40.9977 28.3877 40.9988 27.3811V27.1016L56.2597 27.346C56.6964 27.3527 57.1453 27.3602 57.6023 27.3602C59.2343 27.3602 60.9703 27.2684 62.6024 26.7459C63.5099 26.4611 64.359 26.0158 65.1092 25.4311V39.8382C65.1092 42.7642 62.9676 45.1941 60.1705 45.6578ZM65.1092 14.3252V21.9935C64.8676 23.3265 63.3881 24.3694 61.9855 24.8175C60.213 25.3845 58.2172 25.3528 56.2928 25.3211L40.9792 25.0761C40.8827 24.141 40.4434 23.2749 39.7458 22.6448C39.0483 22.0147 38.1421 21.6653 37.2021 21.6641H37.0441C35.1232 21.6641 33.535 23.0991 33.2853 24.9525L21.1595 24.7582C16.486 24.6839 12.0407 24.4254 8.99055 22.1487V14.3252C8.99055 11.0685 11.6398 8.41925 14.8965 8.41925H59.2033C62.46 8.41925 65.1092 11.0685 65.1092 14.3252Z" fill="#121212"/>
</svg>
