<svg width="312" height="181" viewBox="0 0 312 181" fill="none" xmlns="http://www.w3.org/2000/svg">
<g clip-path="url(#clip0_7592_7155)">
<rect y="-10" width="329" height="250" rx="12" fill="#E1ADF3"/>
<circle cx="155.938" cy="91.8288" r="55.4499" fill="white"/>
<path d="M129.107 105.196C127.318 105.196 125.724 104.867 124.323 104.209C122.931 103.551 121.826 102.644 121.008 101.489C120.19 100.333 119.764 99.0084 119.73 97.5153H125.045C125.104 98.5192 125.526 99.3332 126.31 99.9575C127.095 100.582 128.027 100.894 129.107 100.894C129.967 100.894 130.726 100.704 131.384 100.324C132.051 99.9364 132.569 99.4007 132.941 98.7174C133.32 98.0257 133.51 97.2327 133.51 96.3385C133.51 95.4274 133.316 94.626 132.928 93.9343C132.548 93.2426 132.021 92.7027 131.346 92.3146C130.671 91.9266 129.899 91.7283 129.031 91.7199C128.271 91.7199 127.533 91.876 126.816 92.1881C126.108 92.5002 125.555 92.9262 125.159 93.4661L120.287 92.593L121.514 78.927H137.357V83.4064H126.032L125.361 89.8978H125.513C125.968 89.2566 126.656 88.7252 127.575 88.3034C128.495 87.8816 129.524 87.6707 130.663 87.6707C132.224 87.6707 133.615 88.0377 134.839 88.7716C136.062 89.5055 137.028 90.5136 137.736 91.7958C138.445 93.0696 138.795 94.5375 138.787 96.1993C138.795 97.9455 138.39 99.4977 137.572 100.856C136.762 102.206 135.627 103.269 134.168 104.045C132.717 104.812 131.03 105.196 129.107 105.196ZM152.073 105.196C150.285 105.196 148.69 104.867 147.29 104.209C145.898 103.551 144.793 102.644 143.975 101.489C143.156 100.333 142.73 99.0084 142.697 97.5153H148.011C148.07 98.5192 148.492 99.3332 149.277 99.9575C150.061 100.582 150.993 100.894 152.073 100.894C152.933 100.894 153.693 100.704 154.351 100.324C155.017 99.9364 155.536 99.4007 155.907 98.7174C156.287 98.0257 156.476 97.2327 156.476 96.3385C156.476 95.4274 156.282 94.626 155.894 93.9343C155.515 93.2426 154.988 92.7027 154.313 92.3146C153.638 91.9266 152.866 91.7283 151.997 91.7199C151.238 91.7199 150.5 91.876 149.783 92.1881C149.074 92.5002 148.522 92.9262 148.125 93.4661L143.253 92.593L144.481 78.927H160.323V83.4064H148.998L148.327 89.8978H148.479C148.935 89.2566 149.622 88.7252 150.542 88.3034C151.461 87.8816 152.491 87.6707 153.629 87.6707C155.19 87.6707 156.582 88.0377 157.805 88.7716C159.028 89.5055 159.994 90.5136 160.703 91.7958C161.411 93.0696 161.762 94.5375 161.753 96.1993C161.762 97.9455 161.357 99.4977 160.538 100.856C159.728 102.206 158.594 103.269 157.134 104.045C155.684 104.812 153.996 105.196 152.073 105.196ZM179.759 99.9828V98.6162C179.759 97.5786 179.979 96.6253 180.417 95.7564C180.864 94.8791 181.51 94.1789 182.353 93.6559C183.205 93.1245 184.243 92.8587 185.466 92.8587C186.706 92.8587 187.748 93.1202 188.592 93.6433C189.444 94.1663 190.085 94.8665 190.515 95.7438C190.954 96.6127 191.173 97.5701 191.173 98.6162V99.9828C191.173 101.02 190.954 101.978 190.515 102.855C190.076 103.724 189.431 104.42 188.579 104.943C187.727 105.474 186.689 105.74 185.466 105.74C184.226 105.74 183.184 105.474 182.341 104.943C181.497 104.42 180.856 103.724 180.417 102.855C179.979 101.978 179.759 101.02 179.759 99.9828ZM183.442 98.6162V99.9828C183.442 100.582 183.585 101.147 183.872 101.678C184.167 102.21 184.698 102.476 185.466 102.476C186.234 102.476 186.757 102.214 187.035 101.691C187.322 101.168 187.465 100.599 187.465 99.9828V98.6162C187.465 98.0004 187.33 97.4267 187.06 96.8953C186.791 96.3638 186.259 96.0981 185.466 96.0981C184.707 96.0981 184.18 96.3638 183.884 96.8953C183.589 97.4267 183.442 98.0004 183.442 98.6162ZM166.46 85.1526V83.786C166.46 82.74 166.684 81.7825 167.131 80.9136C167.578 80.0363 168.223 79.3361 169.067 78.8131C169.919 78.2901 170.948 78.0286 172.154 78.0286C173.403 78.0286 174.449 78.2901 175.293 78.8131C176.136 79.3361 176.777 80.0363 177.216 80.9136C177.655 81.7825 177.874 82.74 177.874 83.786V85.1526C177.874 86.1987 177.65 87.1561 177.203 88.025C176.765 88.8939 176.119 89.5899 175.267 90.1129C174.424 90.6275 173.386 90.8848 172.154 90.8848C170.923 90.8848 169.881 90.6232 169.029 90.1002C168.185 89.5688 167.544 88.8728 167.106 88.0124C166.675 87.1435 166.46 86.1902 166.46 85.1526ZM170.168 83.786V85.1526C170.168 85.7684 170.311 86.3379 170.598 86.8609C170.893 87.3839 171.412 87.6454 172.154 87.6454C172.931 87.6454 173.458 87.3839 173.736 86.8609C174.023 86.3379 174.166 85.7684 174.166 85.1526V83.786C174.166 83.1702 174.031 82.5966 173.761 82.0651C173.491 81.5337 172.956 81.2679 172.154 81.2679C171.404 81.2679 170.885 81.5379 170.598 82.0778C170.311 82.6177 170.168 83.1871 170.168 83.786ZM168.131 104.842L185.947 78.927H189.262L171.446 104.842H168.131Z" fill="black"/>
<path d="M214.317 55.2925C217.896 53.1022 219.052 48.3971 216.515 45.0541C210.544 37.1851 203.081 30.5357 194.526 25.5006C185.972 20.4656 176.535 17.1681 166.757 15.7676C162.603 15.1726 159.05 18.4667 158.873 22.6595V22.6595C158.696 26.8522 161.966 30.3465 166.104 31.0451C173.39 32.2753 180.413 34.8276 186.818 38.5973C193.222 42.367 198.863 47.2679 203.475 53.0411C206.095 56.3197 210.737 57.4827 214.317 55.2925V55.2925Z" fill="#F5FCFF"/>
<path d="M155.984 22.5984C155.984 18.4019 152.573 14.9606 148.398 15.3795C134.288 16.7951 120.8 22.1389 109.503 30.8752C98.2051 39.6115 89.6399 51.321 84.72 64.6207C83.264 68.5566 85.7366 72.7232 89.7981 73.7789V73.7789C93.8596 74.8347 97.9639 72.3731 99.5178 68.4749C103.525 58.4212 110.165 49.5737 118.799 42.897C127.433 36.2202 137.667 32.0204 148.405 30.671C152.569 30.1478 155.984 26.7949 155.984 22.5984V22.5984Z" fill="#114EAE"/>
<path d="M215.226 56.823C218.861 54.7267 223.546 55.962 225.269 59.7886C229.477 69.1343 231.762 79.2601 231.955 89.5599C232.148 99.8597 230.244 110.064 226.389 119.561C224.811 123.449 220.176 124.859 216.465 122.901V122.901C212.753 120.942 211.382 116.357 212.862 112.43C215.574 105.239 216.905 97.5753 216.76 89.8447C216.616 82.1141 214.998 74.5061 212.019 67.421C210.392 63.5526 211.591 58.9193 215.226 56.823V56.823Z" fill="#8EBAFF"/>
<path d="M215.244 125.114C218.88 127.209 220.16 131.882 217.713 135.291C208.664 147.899 195.927 157.488 181.17 162.672C164.013 168.7 145.264 168.375 128.327 161.756C111.39 155.137 97.388 142.663 88.8643 126.6C81.5328 112.784 78.6724 97.1 80.5696 81.6966C81.0826 77.5316 85.1918 74.9645 89.2848 75.8907V75.8907C93.3778 76.8169 95.8943 80.888 95.4856 85.0645C94.3275 96.8989 96.6625 108.875 102.288 119.477C109.107 132.327 120.309 142.306 133.858 147.601C147.408 152.897 162.408 153.157 176.133 148.335C187.456 144.357 197.293 137.137 204.466 127.653C206.997 124.306 211.607 123.02 215.244 125.114V125.114Z" fill="#347AE9"/>
</g>
<rect x="0.5" y="0.5" width="311" height="180" stroke="#F0F0F2"/>
<defs>
<clipPath id="clip0_7592_7155">
<rect width="312" height="181" fill="white"/>
</clipPath>
</defs>
</svg>
