<svg width="544" height="282" viewBox="0 0 544 282" fill="none" xmlns="http://www.w3.org/2000/svg">
<g clip-path="url(#clip0_7462_7472)">
<rect x="0.521166" y="42.5212" width="363.95" height="288.027" rx="11.5082" fill="white"/>
<rect x="0.521166" y="42.5212" width="363.95" height="288.027" rx="11.5082" stroke="#EDE5D8" stroke-width="1.04233"/>
<path d="M29.3392 78.9956L32.3965 73.1189H34.6784L30.3965 80.9956V86H28.2908V81.0749L24 73.1189H26.2996L29.3392 78.9956ZM44.9434 81.1013C44.9434 81.9119 44.8376 82.6314 44.6262 83.2599C44.4147 83.8884 44.1064 84.42 43.7011 84.8546C43.2958 85.2834 42.8083 85.6123 42.2385 85.8414C41.6688 86.0646 41.0256 86.1762 40.309 86.1762C39.6394 86.1762 39.0256 86.0646 38.4676 85.8414C37.9096 85.6123 37.425 85.2834 37.0138 84.8546C36.6085 84.42 36.2943 83.8884 36.0711 83.2599C35.8479 82.6314 35.7363 81.9119 35.7363 81.1013C35.7363 80.0264 35.9213 79.116 36.2914 78.37C36.6673 77.6182 37.2018 77.0455 37.8949 76.652C38.588 76.2584 39.4133 76.0616 40.3707 76.0616C41.2694 76.0616 42.0623 76.2584 42.7495 76.652C43.4368 77.0455 43.9742 77.6182 44.3619 78.37C44.7495 79.1219 44.9434 80.0323 44.9434 81.1013ZM37.8685 81.1013C37.8685 81.812 37.9536 82.42 38.124 82.9251C38.3002 83.4302 38.5704 83.8179 38.9345 84.0881C39.2987 84.3524 39.7686 84.4846 40.3442 84.4846C40.9199 84.4846 41.3898 84.3524 41.7539 84.0881C42.1181 83.8179 42.3854 83.4302 42.5557 82.9251C42.726 82.42 42.8112 81.812 42.8112 81.1013C42.8112 80.3906 42.726 79.7885 42.5557 79.2951C42.3854 78.7959 42.1181 78.417 41.7539 78.1586C41.3898 77.8943 40.9169 77.7621 40.3354 77.7621C39.4779 77.7621 38.8523 78.0499 38.4588 78.6255C38.0652 79.2012 37.8685 80.0264 37.8685 81.1013ZM55.9748 76.2467V86H54.3449L54.0629 84.6872H53.9484C53.7428 85.022 53.4814 85.301 53.1642 85.5242C52.8471 85.7416 52.4946 85.9031 52.107 86.0088C51.7193 86.1204 51.3111 86.1762 50.8823 86.1762C50.1481 86.1762 49.5196 86.0529 48.9968 85.8062C48.4799 85.5536 48.0835 85.1659 47.8074 84.6432C47.5313 84.1204 47.3933 83.4449 47.3933 82.6167V76.2467H49.4726V82.2291C49.4726 82.9868 49.6253 83.5536 49.9308 83.9295C50.2421 84.3054 50.7237 84.4934 51.3757 84.4934C52.0042 84.4934 52.5034 84.3642 52.8735 84.1057C53.2435 83.8473 53.5049 83.4655 53.6576 82.9603C53.8162 82.4552 53.8955 81.8355 53.8955 81.1013V76.2467H55.9748ZM64.0371 76.0616C64.2016 76.0616 64.3807 76.0705 64.5746 76.0881C64.7684 76.1057 64.9358 76.1292 65.0768 76.1586L64.8829 78.0969C64.7596 78.0617 64.6069 78.0352 64.4248 78.0176C64.2486 78 64.09 77.9912 63.949 77.9912C63.579 77.9912 63.2265 78.0528 62.8917 78.1762C62.5569 78.2937 62.2603 78.4758 62.0019 78.7224C61.7434 78.9633 61.5408 79.2658 61.3939 79.6299C61.2471 79.9941 61.1737 80.417 61.1737 80.8987V86H59.0944V76.2467H60.7155L60.9974 77.9647H61.0944C61.2882 77.6182 61.529 77.301 61.8168 77.0132C62.1046 76.7254 62.4336 76.4963 62.8036 76.326C63.1795 76.1498 63.5907 76.0616 64.0371 76.0616ZM76.8753 76.0616C78.0324 76.0616 78.9605 76.4846 79.6595 77.3304C80.3643 78.1762 80.7167 79.4332 80.7167 81.1013C80.7167 82.2056 80.5523 83.1366 80.2233 83.8943C79.9003 84.6461 79.4451 85.2159 78.8577 85.6035C78.2762 85.9853 77.5978 86.1762 76.8225 86.1762C76.3291 86.1762 75.9003 86.1116 75.5361 85.9824C75.1719 85.8532 74.8606 85.6858 74.6022 85.4802C74.3437 85.2687 74.1264 85.0396 73.9502 84.7929H73.8269C73.8562 85.0279 73.8827 85.2893 73.9061 85.5771C73.9355 85.859 73.9502 86.1175 73.9502 86.3524V90.326H71.8709V76.2467H73.5625L73.8533 77.5947H73.9502C74.1323 77.3186 74.3526 77.0631 74.611 76.8282C74.8753 76.5932 75.1925 76.4082 75.5625 76.2731C75.9385 76.1321 76.3761 76.0616 76.8753 76.0616ZM76.3203 77.7533C75.7505 77.7533 75.2923 77.8678 74.9458 78.0969C74.6051 78.3201 74.3555 78.6578 74.1969 79.1101C74.0442 79.5624 73.9619 80.1292 73.9502 80.8106V81.1013C73.9502 81.8238 74.0236 82.4376 74.1705 82.9427C74.3232 83.442 74.5728 83.8238 74.9194 84.0881C75.2718 84.3465 75.7476 84.4758 76.3467 84.4758C76.8518 84.4758 77.2689 84.3377 77.5978 84.0617C77.9326 83.7856 78.1822 83.3921 78.3467 82.881C78.5112 82.37 78.5934 81.768 78.5934 81.0749C78.5934 80.0235 78.4054 79.207 78.0295 78.6255C77.6595 78.044 77.0897 77.7533 76.3203 77.7533ZM87.0874 76.0616C88.3209 76.0616 89.2519 76.3348 89.8803 76.881C90.5147 77.4273 90.8319 78.279 90.8319 79.4361V86H89.3605L88.964 84.6167H88.8936C88.6175 84.9692 88.3326 85.2599 88.0389 85.489C87.7452 85.7181 87.4046 85.8884 87.0169 86C86.6351 86.1175 86.1681 86.1762 85.616 86.1762C85.0345 86.1762 84.5147 86.0705 84.0565 85.859C83.5984 85.6417 83.2372 85.3128 82.9728 84.8722C82.7085 84.4317 82.5764 83.8737 82.5764 83.1982C82.5764 82.1938 82.9493 81.439 83.6953 80.9339C84.4471 80.4288 85.5808 80.1498 87.0962 80.0969L88.7878 80.0352V79.5242C88.7878 78.8487 88.6292 78.3671 88.3121 78.0793C88.0007 77.7915 87.5602 77.6476 86.9905 77.6476C86.5029 77.6476 86.0301 77.718 85.572 77.859C85.1138 78 84.6674 78.1733 84.2328 78.3788L83.5631 76.9163C84.0389 76.6637 84.5793 76.4581 85.1843 76.2995C85.7952 76.1409 86.4295 76.0616 87.0874 76.0616ZM88.779 81.3392L87.5191 81.3832C86.4853 81.4185 85.7599 81.5947 85.3429 81.9119C84.9259 82.2291 84.7173 82.6637 84.7173 83.2159C84.7173 83.6975 84.8612 84.0499 85.1491 84.2731C85.4369 84.4905 85.8157 84.5991 86.2856 84.5991C87.0022 84.5991 87.5955 84.3965 88.0654 83.9912C88.5411 83.58 88.779 82.978 88.779 82.185V81.3392ZM97.5109 84.5022C97.7811 84.5022 98.0483 84.4787 98.3127 84.4317C98.577 84.3789 98.8178 84.3172 99.0351 84.2467V85.815C98.8061 85.9148 98.5094 86 98.1453 86.0705C97.7811 86.141 97.4022 86.1762 97.0087 86.1762C96.4566 86.1762 95.9602 86.0852 95.5197 85.9031C95.0792 85.7151 94.7297 85.395 94.4712 84.9427C94.2128 84.4905 94.0836 83.8649 94.0836 83.0661V77.8238H92.7532V76.8987L94.1805 76.1674L94.8589 74.0793H96.1629V76.2467H98.9558V77.8238H96.1629V83.0396C96.1629 83.533 96.2862 83.9001 96.5329 84.141C96.7796 84.3818 97.1056 84.5022 97.5109 84.5022ZM103.238 72.2907V75.7357C103.238 76.094 103.227 76.4434 103.203 76.7841C103.186 77.1248 103.165 77.3891 103.141 77.5771H103.256C103.462 77.2364 103.714 76.9574 104.014 76.7401C104.313 76.5169 104.648 76.3495 105.018 76.2379C105.394 76.1263 105.793 76.0705 106.216 76.0705C106.962 76.0705 107.597 76.1967 108.119 76.4493C108.642 76.696 109.042 77.0807 109.318 77.6035C109.6 78.1263 109.741 78.8047 109.741 79.6388V86H107.67V80.0264C107.67 79.2687 107.514 78.7019 107.203 78.326C106.892 77.9442 106.41 77.7533 105.758 77.7533C105.13 77.7533 104.63 77.8854 104.26 78.1498C103.896 78.4082 103.635 78.7929 103.476 79.3039C103.318 79.8091 103.238 80.4258 103.238 81.1542V86H101.168V72.2907H103.238ZM121.257 84.5022C121.527 84.5022 121.795 84.4787 122.059 84.4317C122.323 84.3789 122.564 84.3172 122.781 84.2467V85.815C122.552 85.9148 122.256 86 121.892 86.0705C121.527 86.141 121.149 86.1762 120.755 86.1762C120.203 86.1762 119.707 86.0852 119.266 85.9031C118.825 85.7151 118.476 85.395 118.218 84.9427C117.959 84.4905 117.83 83.8649 117.83 83.0661V77.8238H116.499V76.8987L117.927 76.1674L118.605 74.0793H119.909V76.2467H122.702V77.8238H119.909V83.0396C119.909 83.533 120.033 83.9001 120.279 84.141C120.526 84.3818 120.852 84.5022 121.257 84.5022ZM133.549 81.1013C133.549 81.9119 133.443 82.6314 133.231 83.2599C133.02 83.8884 132.712 84.42 132.306 84.8546C131.901 85.2834 131.413 85.6123 130.844 85.8414C130.274 86.0646 129.631 86.1762 128.914 86.1762C128.245 86.1762 127.631 86.0646 127.073 85.8414C126.515 85.6123 126.03 85.2834 125.619 84.8546C125.214 84.42 124.9 83.8884 124.676 83.2599C124.453 82.6314 124.342 81.9119 124.342 81.1013C124.342 80.0264 124.527 79.116 124.897 78.37C125.272 77.6182 125.807 77.0455 126.5 76.652C127.193 76.2584 128.018 76.0616 128.976 76.0616C129.875 76.0616 130.668 76.2584 131.355 76.652C132.042 77.0455 132.579 77.6182 132.967 78.37C133.355 79.1219 133.549 80.0323 133.549 81.1013ZM126.474 81.1013C126.474 81.812 126.559 82.42 126.729 82.9251C126.905 83.4302 127.176 83.8179 127.54 84.0881C127.904 84.3524 128.374 84.4846 128.949 84.4846C129.525 84.4846 129.995 84.3524 130.359 84.0881C130.723 83.8179 130.991 83.4302 131.161 82.9251C131.331 82.42 131.416 81.812 131.416 81.1013C131.416 80.3906 131.331 79.7885 131.161 79.2951C130.991 78.7959 130.723 78.417 130.359 78.1586C129.995 77.8943 129.522 77.7621 128.941 77.7621C128.083 77.7621 127.458 78.0499 127.064 78.6255C126.67 79.2012 126.474 80.0264 126.474 81.1013ZM144.845 86.1762C143.923 86.1762 143.124 85.9971 142.448 85.6388C141.773 85.2805 141.253 84.7313 140.889 83.9912C140.525 83.2511 140.343 82.3113 140.343 81.1718C140.343 79.9853 140.542 79.0161 140.942 78.2643C141.341 77.5125 141.893 76.9574 142.598 76.5991C143.309 76.2408 144.122 76.0616 145.039 76.0616C145.62 76.0616 146.146 76.1204 146.616 76.2379C147.092 76.3495 147.494 76.4875 147.823 76.652L147.206 78.3084C146.848 78.1615 146.481 78.0382 146.105 77.9383C145.729 77.8385 145.368 77.7885 145.021 77.7885C144.451 77.7885 143.976 77.9148 143.594 78.1674C143.218 78.42 142.936 78.7959 142.748 79.2951C142.566 79.7944 142.475 80.4141 142.475 81.1542C142.475 81.8708 142.569 82.4758 142.757 82.9692C142.945 83.4567 143.224 83.8267 143.594 84.0793C143.964 84.326 144.419 84.4493 144.959 84.4493C145.494 84.4493 145.973 84.3847 146.396 84.2555C146.819 84.1263 147.218 83.9589 147.594 83.7533V85.5507C147.224 85.7621 146.827 85.9178 146.404 86.0176C145.982 86.1233 145.462 86.1762 144.845 86.1762ZM158.669 81.1013C158.669 81.9119 158.564 82.6314 158.352 83.2599C158.141 83.8884 157.832 84.42 157.427 84.8546C157.022 85.2834 156.534 85.6123 155.965 85.8414C155.395 86.0646 154.752 86.1762 154.035 86.1762C153.365 86.1762 152.752 86.0646 152.194 85.8414C151.636 85.6123 151.151 85.2834 150.74 84.8546C150.335 84.42 150.02 83.8884 149.797 83.2599C149.574 82.6314 149.462 81.9119 149.462 81.1013C149.462 80.0264 149.647 79.116 150.017 78.37C150.393 77.6182 150.928 77.0455 151.621 76.652C152.314 76.2584 153.139 76.0616 154.097 76.0616C154.995 76.0616 155.788 76.2584 156.476 76.652C157.163 77.0455 157.7 77.6182 158.088 78.37C158.476 79.1219 158.669 80.0323 158.669 81.1013ZM151.594 81.1013C151.594 81.812 151.68 82.42 151.85 82.9251C152.026 83.4302 152.296 83.8179 152.661 84.0881C153.025 84.3524 153.495 84.4846 154.07 84.4846C154.646 84.4846 155.116 84.3524 155.48 84.0881C155.844 83.8179 156.111 83.4302 156.282 82.9251C156.452 82.42 156.537 81.812 156.537 81.1013C156.537 80.3906 156.452 79.7885 156.282 79.2951C156.111 78.7959 155.844 78.417 155.48 78.1586C155.116 77.8943 154.643 77.7621 154.061 77.7621C153.204 77.7621 152.578 78.0499 152.185 78.6255C151.791 79.2012 151.594 80.0264 151.594 81.1013ZM172.221 76.0616C173.313 76.0616 174.135 76.3436 174.688 76.9075C175.246 77.4713 175.525 78.3759 175.525 79.6211V86H173.454V79.9912C173.454 79.2511 173.31 78.6931 173.022 78.3172C172.735 77.9412 172.297 77.7533 171.71 77.7533C170.887 77.7533 170.294 78.0176 169.93 78.5462C169.572 79.069 169.392 79.8296 169.392 80.8282V86H167.322V79.9912C167.322 79.4978 167.257 79.0866 167.128 78.7577C167.005 78.4229 166.814 78.1733 166.555 78.0088C166.297 77.8385 165.971 77.7533 165.577 77.7533C165.008 77.7533 164.552 77.8825 164.212 78.1409C163.877 78.3994 163.636 78.7812 163.489 79.2863C163.342 79.7856 163.269 80.3994 163.269 81.1277V86H161.199V76.2467H162.811L163.102 77.5595H163.216C163.416 77.2188 163.663 76.9398 163.956 76.7224C164.256 76.4992 164.588 76.3348 164.952 76.2291C165.316 76.1174 165.695 76.0616 166.088 76.0616C166.817 76.0616 167.431 76.1909 167.93 76.4493C168.429 76.7019 168.802 77.0896 169.049 77.6123H169.207C169.513 77.0837 169.939 76.6931 170.485 76.4405C171.031 76.1879 171.61 76.0616 172.221 76.0616ZM183.569 76.0616C184.726 76.0616 185.654 76.4846 186.353 77.3304C187.058 78.1762 187.411 79.4332 187.411 81.1013C187.411 82.2056 187.246 83.1366 186.917 83.8943C186.594 84.6461 186.139 85.2159 185.552 85.6035C184.97 85.9853 184.292 86.1762 183.516 86.1762C183.023 86.1762 182.594 86.1116 182.23 85.9824C181.866 85.8532 181.555 85.6858 181.296 85.4802C181.038 85.2687 180.82 85.0396 180.644 84.7929H180.521C180.55 85.0279 180.577 85.2893 180.6 85.5771C180.629 85.859 180.644 86.1175 180.644 86.3524V90.326H178.565V76.2467H180.256L180.547 77.5947H180.644C180.826 77.3186 181.047 77.0631 181.305 76.8282C181.569 76.5932 181.886 76.4082 182.256 76.2731C182.632 76.1321 183.07 76.0616 183.569 76.0616ZM183.014 77.7533C182.444 77.7533 181.986 77.8678 181.64 78.0969C181.299 78.3201 181.049 78.6578 180.891 79.1101C180.738 79.5624 180.656 80.1292 180.644 80.8106V81.1013C180.644 81.8238 180.718 82.4376 180.864 82.9427C181.017 83.442 181.267 83.8238 181.613 84.0881C181.966 84.3465 182.442 84.4758 183.041 84.4758C183.546 84.4758 183.963 84.3377 184.292 84.0617C184.627 83.7856 184.876 83.3921 185.041 82.881C185.205 82.37 185.287 81.768 185.287 81.0749C185.287 80.0235 185.099 79.207 184.723 78.6255C184.353 78.044 183.784 77.7533 183.014 77.7533ZM192.037 86H189.958V72.2907H192.037V86ZM197.218 76.2467V86H195.148V76.2467H197.218ZM196.196 72.511C196.513 72.511 196.786 72.5961 197.015 72.7665C197.25 72.9368 197.368 73.2305 197.368 73.6475C197.368 74.0587 197.25 74.3524 197.015 74.5286C196.786 74.6989 196.513 74.7841 196.196 74.7841C195.867 74.7841 195.588 74.6989 195.359 74.5286C195.136 74.3524 195.024 74.0587 195.024 73.6475C195.024 73.2305 195.136 72.9368 195.359 72.7665C195.588 72.5961 195.867 72.511 196.196 72.511ZM204.161 76.0616C205.395 76.0616 206.326 76.3348 206.954 76.881C207.589 77.4273 207.906 78.279 207.906 79.4361V86H206.435L206.038 84.6167H205.968C205.692 84.9692 205.407 85.2599 205.113 85.489C204.819 85.7181 204.479 85.8884 204.091 86C203.709 86.1175 203.242 86.1762 202.69 86.1762C202.109 86.1762 201.589 86.0705 201.131 85.859C200.672 85.6417 200.311 85.3128 200.047 84.8722C199.783 84.4317 199.65 83.8737 199.65 83.1982C199.65 82.1938 200.023 81.439 200.769 80.9339C201.521 80.4288 202.655 80.1498 204.17 80.0969L205.862 80.0352V79.5242C205.862 78.8487 205.703 78.3671 205.386 78.0793C205.075 77.7915 204.634 77.6476 204.064 77.6476C203.577 77.6476 203.104 77.718 202.646 77.859C202.188 78 201.741 78.1733 201.307 78.3788L200.637 76.9163C201.113 76.6637 201.653 76.4581 202.258 76.2995C202.869 76.1409 203.504 76.0616 204.161 76.0616ZM205.853 81.3392L204.593 81.3832C203.559 81.4185 202.834 81.5947 202.417 81.9119C202 82.2291 201.791 82.6637 201.791 83.2159C201.791 83.6975 201.935 84.0499 202.223 84.2731C202.511 84.4905 202.89 84.5991 203.36 84.5991C204.076 84.5991 204.669 84.3965 205.139 83.9912C205.615 83.58 205.853 82.978 205.853 82.185V81.3392ZM216.039 76.0616C217.137 76.0616 217.992 76.3465 218.603 76.9163C219.219 77.4802 219.528 78.3876 219.528 79.6388V86H217.457V80.0264C217.457 79.2687 217.302 78.7019 216.99 78.326C216.679 77.9442 216.197 77.7533 215.545 77.7533C214.6 77.7533 213.942 78.044 213.572 78.6255C213.208 79.207 213.025 80.0499 213.025 81.1542V86H210.955V76.2467H212.567L212.858 77.5683H212.973C213.184 77.2276 213.445 76.9486 213.757 76.7313C214.074 76.5081 214.426 76.3407 214.814 76.2291C215.208 76.1174 215.616 76.0616 216.039 76.0616ZM226.506 86.1762C225.584 86.1762 224.785 85.9971 224.11 85.6388C223.434 85.2805 222.914 84.7313 222.55 83.9912C222.186 83.2511 222.004 82.3113 222.004 81.1718C222.004 79.9853 222.204 79.0161 222.603 78.2643C223.003 77.5125 223.555 76.9574 224.26 76.5991C224.97 76.2408 225.784 76.0616 226.7 76.0616C227.282 76.0616 227.807 76.1204 228.277 76.2379C228.753 76.3495 229.155 76.4875 229.484 76.652L228.867 78.3084C228.509 78.1615 228.142 78.0382 227.766 77.9383C227.39 77.8385 227.029 77.7885 226.682 77.7885C226.113 77.7885 225.637 77.9148 225.255 78.1674C224.879 78.42 224.597 78.7959 224.409 79.2951C224.227 79.7944 224.136 80.4141 224.136 81.1542C224.136 81.8708 224.23 82.4758 224.418 82.9692C224.606 83.4567 224.885 83.8267 225.255 84.0793C225.625 84.326 226.08 84.4493 226.621 84.4493C227.155 84.4493 227.634 84.3847 228.057 84.2555C228.48 84.1263 228.879 83.9589 229.255 83.7533V85.5507C228.885 85.7621 228.489 85.9178 228.066 86.0176C227.643 86.1233 227.123 86.1762 226.506 86.1762ZM235.582 76.0616C236.451 76.0616 237.197 76.2408 237.82 76.5991C238.442 76.9574 238.921 77.4655 239.256 78.1233C239.591 78.7812 239.758 79.5683 239.758 80.4846V81.5947H233.247C233.27 82.5404 233.523 83.2687 234.005 83.7797C234.492 84.2907 235.174 84.5463 236.049 84.5463C236.671 84.5463 237.229 84.4875 237.723 84.37C238.222 84.2467 238.736 84.0675 239.265 83.8326V85.5154C238.777 85.7445 238.281 85.9119 237.776 86.0176C237.27 86.1233 236.665 86.1762 235.961 86.1762C235.003 86.1762 234.16 85.9912 233.432 85.6211C232.709 85.2452 232.143 84.6872 231.732 83.9471C231.326 83.207 231.124 82.2878 231.124 81.1894C231.124 80.0969 231.309 79.1689 231.679 78.4053C232.049 77.6417 232.569 77.0602 233.238 76.6608C233.908 76.2614 234.689 76.0616 235.582 76.0616ZM235.582 77.6211C234.93 77.6211 234.401 77.8326 233.996 78.2555C233.596 78.6784 233.361 79.2981 233.291 80.1145H237.732C237.726 79.627 237.643 79.1953 237.485 78.8194C237.332 78.4434 237.097 78.1498 236.78 77.9383C236.469 77.7269 236.069 77.6211 235.582 77.6211Z" fill="#2D2D2D"/>
<rect x="24.8802" y="115.939" width="315.232" height="40.2274" rx="11.1492" fill="#FAFAFA"/>
<rect x="24.8802" y="115.939" width="315.232" height="40.2274" rx="11.1492" stroke="#F0F0F2" stroke-width="1.76041"/>
<path d="M44.9938 127.088C43.2208 127.088 41.4876 127.614 40.0134 128.599C38.5392 129.584 37.3902 130.984 36.7117 132.622C36.0332 134.26 35.8557 136.062 36.2016 137.801C36.5474 139.54 37.4012 141.138 38.6549 142.391C39.9087 143.645 41.506 144.499 43.2449 144.845C44.9839 145.191 46.7863 145.013 48.4244 144.335C50.0624 143.656 51.4625 142.507 52.4475 141.033C53.4326 139.559 53.9583 137.825 53.9583 136.052C53.9583 134.875 53.7265 133.709 53.276 132.622C52.8254 131.534 52.1651 130.546 51.3327 129.714C50.5003 128.881 49.512 128.221 48.4244 127.77C47.3368 127.32 46.1711 127.088 44.9938 127.088ZM44.9938 143.224C43.5754 143.224 42.1889 142.803 41.0095 142.015C39.8301 141.227 38.9109 140.107 38.3681 138.797C37.8253 137.486 37.6833 136.044 37.96 134.653C38.2367 133.262 38.9198 131.984 39.9227 130.981C40.9257 129.978 42.2036 129.295 43.5947 129.019C44.9859 128.742 46.4278 128.884 47.7383 129.427C49.0487 129.97 50.1688 130.889 50.9568 132.068C51.7448 133.247 52.1654 134.634 52.1654 136.052C52.1654 137.954 51.4099 139.779 50.0649 141.124C48.72 142.468 46.8959 143.224 44.9938 143.224Z" fill="#3BC773"/>
<path fill-rule="evenodd" clip-rule="evenodd" d="M48.3878 133.507C48.7315 133.851 48.7315 134.408 48.3878 134.752L44.2802 138.86C43.9364 139.203 43.3791 139.203 43.0354 138.86L41.2749 137.099C40.9312 136.755 40.9312 136.198 41.2749 135.854C41.6187 135.511 42.176 135.511 42.5197 135.854L43.6578 136.992L47.143 133.507C47.4867 133.163 48.044 133.163 48.3878 133.507Z" fill="#3BC773"/>
<rect x="72.7363" y="128.424" width="224.293" height="15.2569" rx="7.62845" fill="#F0F0F2"/>
<rect x="24.8802" y="165.947" width="315.232" height="40.2274" rx="11.1492" fill="#FAFAFA"/>
<rect x="24.8802" y="165.947" width="315.232" height="40.2274" rx="11.1492" stroke="#F0F0F2" stroke-width="1.76041"/>
<path d="M44.9938 177.096C43.2208 177.096 41.4876 177.621 40.0134 178.606C38.5392 179.592 37.3902 180.992 36.7117 182.63C36.0332 184.268 35.8557 186.07 36.2016 187.809C36.5474 189.548 37.4012 191.145 38.6549 192.399C39.9087 193.653 41.506 194.507 43.2449 194.852C44.9839 195.198 46.7863 195.021 48.4244 194.342C50.0624 193.664 51.4625 192.515 52.4475 191.041C53.4326 189.566 53.9583 187.833 53.9583 186.06C53.9583 184.883 53.7265 183.717 53.276 182.63C52.8254 181.542 52.1651 180.554 51.3327 179.721C50.5003 178.889 49.512 178.229 48.4244 177.778C47.3368 177.328 46.1711 177.096 44.9938 177.096ZM44.9938 193.232C43.5754 193.232 42.1889 192.811 41.0095 192.023C39.8301 191.235 38.9109 190.115 38.3681 188.805C37.8253 187.494 37.6833 186.052 37.96 184.661C38.2367 183.27 38.9198 181.992 39.9227 180.989C40.9257 179.986 42.2036 179.303 43.5947 179.026C44.9859 178.75 46.4278 178.892 47.7383 179.435C49.0487 179.977 50.1688 180.897 50.9568 182.076C51.7448 183.255 52.1654 184.642 52.1654 186.06C52.1654 187.962 51.4099 189.786 50.0649 191.131C48.72 192.476 46.8959 193.232 44.9938 193.232Z" fill="#3BC773"/>
<path fill-rule="evenodd" clip-rule="evenodd" d="M48.3878 183.515C48.7315 183.859 48.7315 184.416 48.3878 184.76L44.2802 188.867C43.9364 189.211 43.3791 189.211 43.0354 188.867L41.2749 187.107C40.9312 186.763 40.9312 186.206 41.2749 185.862C41.6187 185.518 42.176 185.518 42.5197 185.862L43.6578 187L47.143 183.515C47.4867 183.171 48.044 183.171 48.3878 183.515Z" fill="#3BC773"/>
<rect x="72.7363" y="178.432" width="224.293" height="15.2569" rx="7.62845" fill="#F0F0F2"/>
<rect x="24.8802" y="215.954" width="315.232" height="40.2274" rx="11.1492" fill="#FAFAFA"/>
<rect x="24.8802" y="215.954" width="315.232" height="40.2274" rx="11.1492" stroke="#F0F0F2" stroke-width="1.76041"/>
<path d="M44.9938 227.104C43.2208 227.104 41.4876 227.629 40.0134 228.614C38.5392 229.599 37.3902 230.999 36.7117 232.637C36.0332 234.276 35.8557 236.078 36.2016 237.817C36.5474 239.556 37.4012 241.153 38.6549 242.407C39.9087 243.661 41.506 244.514 43.2449 244.86C44.9839 245.206 46.7863 245.029 48.4244 244.35C50.0624 243.672 51.4625 242.523 52.4475 241.048C53.4326 239.574 53.9583 237.841 53.9583 236.068C53.9583 234.891 53.7265 233.725 53.276 232.637C52.8254 231.55 52.1651 230.562 51.3327 229.729C50.5003 228.897 49.512 228.236 48.4244 227.786C47.3368 227.335 46.1711 227.104 44.9938 227.104ZM44.9938 243.24C43.5754 243.24 42.1889 242.819 41.0095 242.031C39.8301 241.243 38.9109 240.123 38.3681 238.812C37.8253 237.502 37.6833 236.06 37.96 234.669C38.2367 233.278 38.9198 232 39.9227 230.997C40.9257 229.994 42.2036 229.311 43.5947 229.034C44.9859 228.758 46.4278 228.9 47.7383 229.442C49.0487 229.985 50.1688 230.904 50.9568 232.084C51.7448 233.263 52.1654 234.65 52.1654 236.068C52.1654 237.97 51.4099 239.794 50.0649 241.139C48.72 242.484 46.8959 243.24 44.9938 243.24Z" fill="#3BC773"/>
<path fill-rule="evenodd" clip-rule="evenodd" d="M48.3878 233.523C48.7315 233.867 48.7315 234.424 48.3878 234.768L44.2802 238.875C43.9364 239.219 43.3791 239.219 43.0354 238.875L41.2749 237.115C40.9312 236.771 40.9312 236.214 41.2749 235.87C41.6187 235.526 42.176 235.526 42.5197 235.87L43.6578 237.008L47.143 233.523C47.4867 233.179 48.044 233.179 48.3878 233.523Z" fill="#3BC773"/>
<rect x="72.7363" y="228.439" width="224.293" height="15.2569" rx="7.62845" fill="#F0F0F2"/>
<rect x="24.8802" y="265.96" width="315.232" height="40.2274" rx="11.1492" fill="#FAFAFA"/>
<rect x="24.8802" y="265.96" width="315.232" height="40.2274" rx="11.1492" stroke="#F0F0F2" stroke-width="1.76041"/>
<path d="M44.9938 277.109C43.2208 277.109 41.4876 277.635 40.0134 278.62C38.5392 279.605 37.3902 281.005 36.7117 282.643C36.0332 284.281 35.8557 286.084 36.2016 287.823C36.5474 289.562 37.4012 291.159 38.6549 292.413C39.9087 293.666 41.506 294.52 43.2449 294.866C44.9839 295.212 46.7863 295.035 48.4244 294.356C50.0624 293.678 51.4625 292.529 52.4475 291.054C53.4326 289.58 53.9583 287.847 53.9583 286.074C53.9583 284.897 53.7265 283.731 53.276 282.643C52.8254 281.556 52.1651 280.567 51.3327 279.735C50.5003 278.903 49.512 278.242 48.4244 277.792C47.3368 277.341 46.1711 277.109 44.9938 277.109ZM44.9938 293.246C43.5754 293.246 42.1889 292.825 41.0095 292.037C39.8301 291.249 38.9109 290.129 38.3681 288.818C37.8253 287.508 37.6833 286.066 37.96 284.675C38.2367 283.284 38.9198 282.006 39.9227 281.003C40.9257 280 42.2036 279.317 43.5947 279.04C44.9859 278.763 46.4278 278.905 47.7383 279.448C49.0487 279.991 50.1688 280.91 50.9568 282.09C51.7448 283.269 52.1654 284.655 52.1654 286.074C52.1654 287.976 51.4099 289.8 50.0649 291.145C48.72 292.49 46.8959 293.246 44.9938 293.246Z" fill="#3BC773"/>
<path fill-rule="evenodd" clip-rule="evenodd" d="M48.3878 283.529C48.7315 283.872 48.7315 284.43 48.3878 284.773L44.2802 288.881C43.9364 289.225 43.3791 289.225 43.0354 288.881L41.2749 287.121C40.9312 286.777 40.9312 286.22 41.2749 285.876C41.6187 285.532 42.176 285.532 42.5197 285.876L43.6578 287.014L47.143 283.529C47.4867 283.185 48.044 283.185 48.3878 283.529Z" fill="#3BC773"/>
<rect x="72.7363" y="278.445" width="224.293" height="15.2569" rx="7.62845" fill="#F0F0F2"/>
<g filter="url(#filter0_d_7462_7472)">
<rect x="268" width="275.798" height="173.146" rx="12.0294" fill="#E6F8EF"/>
<rect x="268.88" y="0.880206" width="274.038" height="171.385" rx="11.1492" stroke="#1BA351" stroke-width="1.76041"/>
<g clip-path="url(#clip1_7462_7472)">
<path d="M427.646 44.4167L411.802 41.1387L391.042 44.4167L375.744 58.6214L394.32 81.5674L427.646 73.9188V44.4167Z" fill="white"/>
<path d="M405.898 28.9473C388.684 28.9473 374.68 42.9517 374.68 60.166C374.68 77.3803 388.684 91.3863 405.898 91.3863C423.113 91.3863 437.119 77.3803 437.119 60.166C437.119 42.9517 423.113 28.9473 405.898 28.9473ZM421.804 52.4749L403.068 71.211C402.646 71.6326 402.074 71.8694 401.478 71.8694C400.882 71.8694 400.31 71.6326 399.888 71.211L391.147 62.4704C390.929 62.2638 390.754 62.0155 390.634 61.7402C390.513 61.4649 390.449 61.1683 390.444 60.8677C390.44 60.5671 390.497 60.2688 390.61 59.9903C390.723 59.7119 390.891 59.4589 391.103 59.2464C391.316 59.0339 391.569 58.8661 391.847 58.7531C392.126 58.6401 392.424 58.5841 392.725 58.5883C393.025 58.5926 393.322 58.657 393.597 58.7779C393.873 58.8987 394.121 59.0736 394.327 59.292L401.479 66.4404L418.624 49.2935C418.832 49.0788 419.08 48.9076 419.354 48.7899C419.629 48.6721 419.924 48.6103 420.222 48.6078C420.521 48.6054 420.817 48.6624 421.093 48.7756C421.37 48.8888 421.621 49.0559 421.832 49.2672C422.043 49.4784 422.21 49.7296 422.323 50.006C422.436 50.2824 422.492 50.5786 422.49 50.8772C422.487 51.1758 422.425 51.4709 422.307 51.7452C422.189 52.0195 422.017 52.2676 421.802 52.4749H421.804Z" fill="#3BC773"/>
</g>
<path d="M329.98 125.851L334.386 117.383H337.674L331.504 128.732V135.943H328.47V128.847L322.287 117.383H325.601L329.98 125.851ZM352.248 128.885C352.248 130.053 352.096 131.09 351.791 131.995C351.486 132.901 351.042 133.667 350.458 134.293C349.874 134.911 349.172 135.385 348.351 135.715C347.53 136.036 346.603 136.197 345.57 136.197C344.605 136.197 343.721 136.036 342.917 135.715C342.113 135.385 341.415 134.911 340.822 134.293C340.238 133.667 339.785 132.901 339.464 131.995C339.142 131.09 338.981 130.053 338.981 128.885C338.981 127.336 339.248 126.024 339.781 124.949C340.323 123.866 341.093 123.041 342.092 122.474C343.09 121.907 344.28 121.623 345.659 121.623C346.954 121.623 348.097 121.907 349.087 122.474C350.077 123.041 350.852 123.866 351.41 124.949C351.969 126.033 352.248 127.344 352.248 128.885ZM342.054 128.885C342.054 129.909 342.176 130.785 342.422 131.513C342.676 132.241 343.065 132.799 343.59 133.188C344.115 133.569 344.792 133.76 345.621 133.76C346.45 133.76 347.128 133.569 347.652 133.188C348.177 132.799 348.562 132.241 348.808 131.513C349.053 130.785 349.176 129.909 349.176 128.885C349.176 127.861 349.053 126.993 348.808 126.282C348.562 125.563 348.177 125.017 347.652 124.645C347.128 124.264 346.446 124.073 345.608 124.073C344.373 124.073 343.471 124.488 342.904 125.317C342.337 126.147 342.054 127.336 342.054 128.885ZM367.927 121.89V135.943H365.578L365.172 134.052H365.007C364.711 134.534 364.334 134.936 363.877 135.258C363.42 135.571 362.912 135.804 362.353 135.956C361.795 136.117 361.207 136.197 360.589 136.197C359.531 136.197 358.625 136.02 357.872 135.664C357.127 135.3 356.556 134.742 356.158 133.988C355.76 133.235 355.561 132.262 355.561 131.068V121.89H358.558V130.51C358.558 131.602 358.778 132.418 359.218 132.96C359.666 133.502 360.36 133.772 361.3 133.772C362.205 133.772 362.925 133.586 363.458 133.214C363.991 132.841 364.368 132.291 364.588 131.563C364.816 130.836 364.931 129.943 364.931 128.885V121.89H367.927ZM374.592 117.383L374.782 117.662C374.63 118.28 374.431 118.94 374.186 119.643C373.949 120.345 373.69 121.048 373.411 121.75C373.132 122.452 372.848 123.117 372.561 123.743H370.402C370.521 123.244 370.644 122.719 370.77 122.169C370.897 121.61 371.02 121.052 371.139 120.493C371.257 119.926 371.363 119.38 371.456 118.855C371.549 118.322 371.63 117.831 371.697 117.383H374.592ZM384.354 121.623C384.591 121.623 384.85 121.636 385.129 121.661C385.408 121.687 385.649 121.72 385.852 121.763L385.573 124.556C385.395 124.505 385.175 124.467 384.913 124.441C384.659 124.416 384.431 124.403 384.227 124.403C383.694 124.403 383.186 124.492 382.704 124.67C382.222 124.839 381.794 125.102 381.422 125.457C381.049 125.804 380.757 126.24 380.546 126.765C380.334 127.289 380.228 127.899 380.228 128.593V135.943H377.232V121.89H379.568L379.975 124.365H380.114C380.394 123.866 380.741 123.409 381.155 122.994C381.57 122.579 382.044 122.249 382.577 122.004C383.119 121.75 383.711 121.623 384.354 121.623ZM394.054 121.623C395.306 121.623 396.381 121.881 397.278 122.397C398.175 122.914 398.865 123.646 399.348 124.594C399.83 125.542 400.071 126.676 400.071 127.996V129.596H390.689C390.723 130.958 391.087 132.008 391.781 132.744C392.484 133.48 393.465 133.849 394.727 133.849C395.624 133.849 396.428 133.764 397.139 133.595C397.858 133.417 398.599 133.159 399.36 132.82V135.245C398.658 135.575 397.943 135.816 397.215 135.969C396.487 136.121 395.615 136.197 394.6 136.197C393.22 136.197 392.005 135.931 390.956 135.397C389.915 134.856 389.098 134.052 388.506 132.985C387.922 131.919 387.63 130.594 387.63 129.012C387.63 127.438 387.896 126.1 388.43 125C388.963 123.9 389.712 123.062 390.677 122.486C391.642 121.911 392.767 121.623 394.054 121.623ZM394.054 123.87C393.114 123.87 392.352 124.175 391.769 124.784C391.193 125.394 390.854 126.286 390.753 127.463H397.151C397.143 126.76 397.024 126.138 396.796 125.597C396.576 125.055 396.237 124.632 395.78 124.327C395.332 124.022 394.756 123.87 394.054 123.87ZM415.699 121.623C417.477 121.623 418.818 122.017 419.724 122.804C420.638 123.591 421.095 124.818 421.095 126.485V135.943H418.975L418.403 133.95H418.302C417.904 134.458 417.493 134.877 417.07 135.207C416.647 135.537 416.156 135.783 415.598 135.943C415.047 136.113 414.375 136.197 413.579 136.197C412.741 136.197 411.992 136.045 411.332 135.74C410.672 135.427 410.151 134.953 409.77 134.318C409.39 133.684 409.199 132.88 409.199 131.906C409.199 130.459 409.737 129.371 410.811 128.644C411.895 127.916 413.528 127.514 415.712 127.438L418.149 127.349V126.612C418.149 125.639 417.921 124.945 417.464 124.53C417.015 124.116 416.38 123.908 415.56 123.908C414.857 123.908 414.176 124.01 413.516 124.213C412.855 124.416 412.212 124.666 411.586 124.962L410.621 122.854C411.307 122.491 412.085 122.194 412.957 121.966C413.837 121.737 414.751 121.623 415.699 121.623ZM418.137 129.228L416.321 129.291C414.832 129.342 413.786 129.596 413.186 130.053C412.585 130.51 412.284 131.136 412.284 131.932C412.284 132.626 412.491 133.133 412.906 133.455C413.321 133.768 413.867 133.925 414.544 133.925C415.576 133.925 416.431 133.633 417.108 133.049C417.794 132.456 418.137 131.589 418.137 130.446V129.228ZM428.268 135.943H425.271V116.189H428.268V135.943ZM435.529 135.943H432.533V116.189H435.529V135.943ZM455.994 131.932C455.994 132.854 455.77 133.633 455.321 134.268C454.873 134.902 454.217 135.385 453.353 135.715C452.499 136.036 451.449 136.197 450.205 136.197C449.223 136.197 448.377 136.125 447.666 135.981C446.963 135.846 446.299 135.634 445.673 135.347V132.77C446.341 133.083 447.09 133.354 447.92 133.582C448.758 133.811 449.549 133.925 450.294 133.925C451.276 133.925 451.982 133.772 452.414 133.468C452.846 133.155 453.061 132.74 453.061 132.224C453.061 131.919 452.973 131.648 452.795 131.411C452.626 131.166 452.304 130.916 451.83 130.662C451.365 130.4 450.679 130.087 449.773 129.723C448.885 129.367 448.136 129.012 447.526 128.656C446.917 128.301 446.456 127.873 446.143 127.374C445.829 126.866 445.673 126.219 445.673 125.432C445.673 124.188 446.164 123.244 447.145 122.601C448.136 121.949 449.443 121.623 451.068 121.623C451.932 121.623 452.744 121.712 453.506 121.89C454.276 122.059 455.029 122.309 455.766 122.639L454.826 124.886C454.191 124.606 453.552 124.378 452.909 124.2C452.274 124.014 451.627 123.921 450.967 123.921C450.197 123.921 449.608 124.039 449.202 124.276C448.804 124.513 448.605 124.852 448.605 125.292C448.605 125.622 448.703 125.901 448.897 126.13C449.092 126.358 449.426 126.587 449.9 126.815C450.383 127.044 451.051 127.327 451.906 127.666C452.744 127.988 453.468 128.326 454.077 128.682C454.695 129.029 455.169 129.456 455.499 129.964C455.829 130.472 455.994 131.128 455.994 131.932ZM464.817 121.623C466.07 121.623 467.145 121.881 468.042 122.397C468.939 122.914 469.629 123.646 470.111 124.594C470.594 125.542 470.835 126.676 470.835 127.996V129.596H461.453C461.487 130.958 461.851 132.008 462.545 132.744C463.247 133.48 464.229 133.849 465.49 133.849C466.387 133.849 467.191 133.764 467.902 133.595C468.622 133.417 469.362 133.159 470.124 132.82V135.245C469.422 135.575 468.706 135.816 467.978 135.969C467.251 136.121 466.379 136.197 465.363 136.197C463.984 136.197 462.769 135.931 461.72 135.397C460.679 134.856 459.862 134.052 459.269 132.985C458.686 131.919 458.394 130.594 458.394 129.012C458.394 127.438 458.66 126.1 459.193 125C459.727 123.9 460.476 123.062 461.44 122.486C462.405 121.911 463.531 121.623 464.817 121.623ZM464.817 123.87C463.878 123.87 463.116 124.175 462.532 124.784C461.957 125.394 461.618 126.286 461.517 127.463H467.915C467.907 126.76 467.788 126.138 467.56 125.597C467.339 125.055 467.001 124.632 466.544 124.327C466.095 124.022 465.52 123.87 464.817 123.87ZM479.43 133.785C479.819 133.785 480.204 133.751 480.585 133.684C480.966 133.607 481.313 133.519 481.626 133.417V135.677C481.296 135.821 480.868 135.943 480.344 136.045C479.819 136.146 479.273 136.197 478.706 136.197C477.91 136.197 477.195 136.066 476.561 135.804C475.926 135.533 475.422 135.072 475.05 134.42C474.677 133.768 474.491 132.867 474.491 131.716V124.162H472.574V122.829L474.631 121.775L475.608 118.767H477.487V121.89H481.512V124.162H477.487V131.678C477.487 132.389 477.665 132.918 478.02 133.265C478.376 133.612 478.846 133.785 479.43 133.785ZM487.06 130.281H484.812L484.203 117.383H487.669L487.06 130.281ZM484.051 134.369C484.051 133.675 484.228 133.188 484.584 132.909C484.948 132.621 485.392 132.478 485.917 132.478C486.433 132.478 486.873 132.621 487.237 132.909C487.601 133.188 487.783 133.675 487.783 134.369C487.783 135.046 487.601 135.537 487.237 135.842C486.873 136.138 486.433 136.286 485.917 136.286C485.392 136.286 484.948 136.138 484.584 135.842C484.228 135.537 484.051 135.046 484.051 134.369Z" fill="#121212"/>
</g>
<rect x="-1" y="202" width="366" height="88" fill="url(#paint0_linear_7462_7472)"/>
</g>
<defs>
<filter id="filter0_d_7462_7472" x="235.139" y="-30.5138" width="346.215" height="243.563" filterUnits="userSpaceOnUse" color-interpolation-filters="sRGB">
<feFlood flood-opacity="0" result="BackgroundImageFix"/>
<feColorMatrix in="SourceAlpha" type="matrix" values="0 0 0 0 0 0 0 0 0 0 0 0 0 0 0 0 0 0 127 0" result="hardAlpha"/>
<feOffset dx="2.34722" dy="4.69443"/>
<feGaussianBlur stdDeviation="17.6041"/>
<feColorMatrix type="matrix" values="0 0 0 0 0.0666667 0 0 0 0 0.14902 0 0 0 0 0.286275 0 0 0 0.12 0"/>
<feBlend mode="normal" in2="BackgroundImageFix" result="effect1_dropShadow_7462_7472"/>
<feBlend mode="normal" in="SourceGraphic" in2="effect1_dropShadow_7462_7472" result="shape"/>
</filter>
<linearGradient id="paint0_linear_7462_7472" x1="182" y1="202" x2="182" y2="290" gradientUnits="userSpaceOnUse">
<stop stop-color="#FFFEFB" stop-opacity="0"/>
<stop offset="1" stop-color="#FFFEFB"/>
</linearGradient>
<clipPath id="clip0_7462_7472">
<rect width="543.798" height="281.062" fill="white"/>
</clipPath>
<clipPath id="clip1_7462_7472">
<rect width="62.439" height="64" fill="white" transform="translate(374.68 28.166)"/>
</clipPath>
</defs>
</svg>
