<svg width="128" height="83" viewBox="0 0 128 83" fill="none" xmlns="http://www.w3.org/2000/svg">
<g clip-path="url(#clip0_7258_23005)">
<path d="M66.3312 59.8792L57.5645 63.8242L63.7012 69.0842L111.918 69.9609L122 61.6325L116.302 58.5642L95.2614 57.6875L66.3312 59.8792Z" fill="#347AE9"/>
<path d="M26.4422 43.6612L2.3337 51.9896L1.45703 56.373L6.71707 60.318L13.7305 59.4413L41.784 51.9896L71.1525 41.4695L75.5359 51.9896L73.3442 55.4963L74.6592 59.4413L80.7959 61.633L99.2061 56.373L106.219 50.2363L104.904 45.4146L100.521 43.6612L90.8777 12.101L92.1927 7.27929L89.5627 2.89592L82.5493 1.14258L67.6458 5.96428L61.5091 12.101V16.9227L65.0158 19.5527L68.9608 33.1411L26.4422 43.6612Z" fill="#F5FCFF"/>
<path d="M0.253987 53.2811C-0.855881 56.7326 1.84077 60.1726 5.05816 61.2211C9.17151 62.551 13.5093 60.909 15.8097 60.3971C34.1269 55.5342 53.0463 50.5012 70.4843 42.5208C71.7695 46.5316 72.953 49.9611 74.1488 53.1286C72.7619 54.1797 71.9869 56.1785 72.37 58.1668C57.556 59.5107 57.4376 61.2264 57.4639 62.3906C56.8397 63.1253 53.7196 70.4551 53.0542 71.9639C51.62 75.2181 53.6013 78.9589 57.0852 79.5848C79.0222 83.5316 101.683 83.9226 123.686 78.9483C124.471 78.7724 125.208 78.4273 125.845 77.9369C126.483 77.4466 127.005 76.823 127.377 76.1097C127.745 75.4032 127.955 74.6249 127.991 73.829C128.028 73.0331 127.89 72.2389 127.587 71.5019C127.138 70.3987 126.694 69.2935 126.255 68.1863C125.29 65.7667 124.293 63.2796 123.238 60.9406L123.236 60.8643C123.201 59.3538 121.699 58.2597 114.336 57.4751C110.54 57.0701 105.742 56.8378 100.455 56.7869C102.103 55.9751 103.806 55.1326 105.152 53.6861C106.991 51.7031 107.695 49.095 106.992 46.8796C106.309 44.7335 103.595 42.5261 101.264 42.4419C98.9186 32.2234 95.9321 22.1627 92.3222 12.3194C94.0308 10.2189 93.7284 6.47554 92.601 4.36013C91.4411 2.17283 89.0618 0.59131 86.2407 0.131934C83.7948 -0.271336 80.879 0.326551 78.611 0.893759C74.6598 1.8844 71.2496 3.22834 67.5527 5.2517C65.8028 6.21341 63.8093 7.43462 62.2918 9.2055C58.345 13.7773 59.8546 19.6081 63.8251 20.7969C64.9831 24.4543 66.1333 28.2907 67.273 32.0779C47.0908 36.9031 27.0441 42.2783 7.15516 48.1973C4.27529 49.0512 1.20342 50.3232 0.253987 53.2811ZM25.0349 45.7698C39.3353 41.7544 53.7132 38.0203 68.1602 34.5694C69.6207 35.7178 70.2633 37.9393 70.1836 39.7681C57.2263 45.782 43.3565 50.1312 29.5024 53.9798C28.9022 50.8455 27.3407 47.976 25.0349 45.7698ZM119.419 60.9327C115.623 62.125 104.896 63.8441 90.2681 64.1913C75.8714 64.5314 65.4802 63.4023 61.5133 62.3967C63.4472 61.8962 67.1976 61.2483 73.6569 60.6942C74.9088 62.1074 76.8568 63.0201 79.0634 63.1454C81.9827 63.3076 84.4514 62.3038 88.8015 61.094C90.6407 60.5838 92.4291 60.0832 94.2894 59.4371C107.502 59.2144 116.11 60.0736 119.419 60.9327ZM104.484 47.6757C104.896 48.9705 104.401 50.6283 103.225 51.896C102.202 52.9944 100.776 53.6975 99.2654 54.4409C98.344 54.8179 96.5968 56.1987 88.0966 58.5613C83.8588 59.7387 81.5961 60.6504 79.2115 60.5198C76.5876 60.3708 74.1005 58.492 75.1166 56.0689C75.6768 54.7329 76.5193 55.2536 76.9734 54.3129C77.4082 53.4135 76.9576 53.7852 73.7665 44.1111C80.2704 43.0013 86.4595 40.5054 91.9136 36.7926C93.2646 35.8721 95.124 34.8166 96.29 33.442C97.164 36.6541 97.9732 39.8794 98.7122 43.1117C92.1898 46.2721 87.44 47.7467 80.6247 49.4439C80.2863 49.5283 79.9953 49.7437 79.8157 50.0427C79.6361 50.3416 79.5826 50.6997 79.667 51.0381C79.7514 51.3765 79.9667 51.6676 80.2657 51.8472C80.5647 52.0268 80.9228 52.0803 81.2612 51.9959C88.4219 50.2119 93.3628 48.6689 100.348 45.242C100.506 45.2306 100.662 45.1982 100.809 45.1298C101.695 44.7213 104.053 46.3151 104.484 47.6757ZM66.1009 19.275C66.0249 19.0365 65.8824 18.8246 65.6902 18.6643C65.4979 18.504 65.2639 18.402 65.0156 18.3702C62.6109 18.0634 61.4221 14.2394 64.2862 10.922C65.5328 9.46762 67.2774 8.4051 68.8186 7.55823C72.3086 5.64796 75.5269 4.37941 79.251 3.44576C81.2717 2.93992 83.8421 2.40252 85.8155 2.72776C87.8327 3.05651 89.501 4.12781 90.2795 5.59624C91.0773 7.09184 91.1299 9.76306 90.1805 10.7388C90.1016 10.7388 90.0235 10.7423 89.9438 10.7563C83.8316 11.8381 76.7341 14.4804 68.8484 18.6096C67.6359 19.2452 68.0892 21.0905 69.4603 21.0905C69.6654 21.0905 69.8741 21.0415 70.0687 20.9398C77.5117 17.0421 84.1849 14.5287 89.9271 13.4442C90.9473 16.2347 91.9167 19.0434 92.835 21.869C86.3214 25.587 79.1633 28.1758 71.7712 29.447C70.9866 29.582 70.0968 29.7977 69.4656 30.2378C68.3785 26.6241 67.2555 22.8886 66.1009 19.275ZM17.8295 47.8194C19.9511 50.0944 21.6632 52.9059 22.4759 55.898C19.4847 56.7019 16.4058 57.5181 13.2656 58.3527C10.9485 58.9681 8.25713 59.4932 5.8717 58.7209C3.90445 58.08 2.15549 55.962 2.75952 54.0868C3.33462 52.2931 5.68234 51.3778 7.90471 50.7186C11.2028 49.7367 14.5148 48.7741 17.8295 47.8194Z" fill="#121212"/>
</g>
<defs>
<clipPath id="clip0_7258_23005">
<rect width="127.997" height="82.6126" fill="white"/>
</clipPath>
</defs>
</svg>
