<svg width="54" height="48" viewBox="0 0 54 48" fill="none" xmlns="http://www.w3.org/2000/svg">
<g id="Group 11">
<path id="Vector 24" d="M7.70959 33.9434L1.50732 34.7437V36.1442C2.441 36.4776 4.38838 37.1845 4.70849 37.3446C5.02861 37.5047 16.1794 36.8778 21.7147 36.5443L23.1152 34.7437C21.7814 34.5436 19.0737 34.1434 18.9137 34.1434C18.7536 34.1434 11.3776 34.0101 7.70959 33.9434Z" fill="#F5FCFF"/>
<path id="Vector 25" d="M38.5209 31.9434L33.519 32.7437L33.9192 33.9441C34.8529 34.2775 35.1997 35.1845 35.5198 35.3446C35.8399 35.5047 46.9906 34.8778 52.526 34.5443L52.9261 32.7437C51.5923 32.5436 49.885 32.1434 49.725 32.1434C49.5649 32.1434 42.1889 32.0101 38.5209 31.9434Z" fill="#8EBAFF"/>
<path id="Vector" d="M1.77454 34.192C1.10243 34.3846 0.947851 34.5341 0.858547 34.5822C0.83129 34.6181 0.499547 34.8157 0.500981 35.2285C0.501699 35.377 0.551551 35.5778 0.749884 35.7715C1.49767 38.5144 6.26663 40.5458 12.028 40.5458H12.1273C17.8768 40.5222 22.668 38.4703 23.4517 35.7381C23.9068 35.3573 23.8544 34.7683 23.3161 34.4377C23.0636 34.2784 22.6483 34.1378 22.1114 34.0145C20.2037 27.8299 17.5146 20.4769 15.1393 13.9828C14.3466 11.8162 13.5813 9.72313 12.8773 7.76383C14.6009 7.44176 14.9962 5.15033 13.454 4.32006C14.2071 3.54323 15.0439 2.79473 16.0377 2.22807C17.4332 1.43473 18.9775 1.15283 20.274 1.45482C21.8342 1.82028 23.0744 2.99701 24.3117 4.02777L24.6126 4.28205C25.4397 4.98393 26.1595 5.59005 27.3294 5.8949C27.4718 33.3682 27.366 31.685 27.5109 31.93C26.8345 32.7929 26.6906 34.0184 26.4611 34.9125C26.0881 36.3604 26.1702 37.7186 26.6989 38.8405C26.7269 38.9 26.7663 38.9488 26.8104 38.9922C26.6903 39.7374 26.4973 40.7112 26.3933 41.4209C24.216 41.8926 22.588 42.9664 20.6305 43.9164C18.2337 44.3461 17.2083 44.8787 17.2112 45.6932C17.2205 47.8573 26.4202 48 28.8314 48L29.0617 47.9996C32.1077 47.9871 34.9747 47.7841 37.1349 47.4276C40.4481 46.881 40.8921 46.1953 40.8899 45.5971C40.8864 44.7783 39.852 44.2532 37.4376 43.8451L37.2869 43.7783C35.8452 43.0094 34.6476 42.4341 33.1524 41.9471C31.1766 41.3012 29.2543 41.0691 27.5094 41.2463C27.6249 40.5433 27.772 39.7927 27.8749 39.1546C28.4807 39.1378 29.0624 39.1493 29.6958 39.132C29.7194 39.282 29.7306 39.4129 29.7424 39.5545C29.7646 39.8232 29.7901 40.1276 29.9124 40.5824C29.9303 40.6511 29.9616 40.7156 30.0046 40.7722C30.0475 40.8287 30.1012 40.8762 30.1626 40.9119C30.224 40.9476 30.2918 40.9707 30.3622 40.9801C30.4326 40.9894 30.5041 40.9847 30.5727 40.9663C30.6413 40.9479 30.7055 40.916 30.7617 40.8727C30.8179 40.8293 30.865 40.7752 30.9002 40.7135C30.9354 40.6519 30.958 40.5839 30.9668 40.5134C30.9756 40.4429 30.9704 40.3714 30.9514 40.303C30.8546 39.9419 30.8359 39.7209 30.8148 39.4649C30.8041 39.3258 30.7894 39.187 30.7706 39.0488C30.8542 38.995 30.9241 38.9172 30.9679 38.8193C31.4549 37.7326 31.55 36.6079 31.276 35.1707C31.0629 34.0518 30.7104 32.9518 30.2789 32.0451C30.2983 31.9418 30.2897 33.1408 30.1821 5.79376C30.2183 5.79878 30.2854 5.82496 30.4285 5.77547C32.7396 4.98106 33.69 2.86323 35.7652 2.18717C36.8982 1.81777 38.3026 1.96087 39.6192 2.57846C40.5905 3.03431 41.2923 3.86961 41.9892 4.68303C40.6676 5.51366 40.6884 7.8517 42.704 8.15978C40.4893 15.8564 37.0122 24.984 33.5936 32.0702C33.033 32.2323 32.4186 32.4726 32.4186 33.054C32.419 33.1964 32.4653 33.3883 32.6503 33.5733C33.349 36.091 37.7155 37.9539 42.987 37.9539H43.0781C48.4266 37.9324 52.7239 36.0903 53.4567 33.5436C53.8906 33.1652 53.8182 32.601 53.3157 32.2919C53.0862 32.1473 52.7118 32.0193 52.2279 31.9063C49.9218 24.4349 46.3956 15.1717 43.8402 8.0615C44.1225 7.96323 44.3803 7.81547 44.5905 7.61606C44.8548 7.36536 45.297 6.7449 45.2755 6.01039C45.2644 5.64636 45.1306 5.11018 44.5546 4.626C44.1745 4.30681 43.6164 4.21964 43.0752 4.29245C42.1847 3.27854 41.3845 2.21874 40.0762 1.60437C38.5153 0.872007 36.8225 0.711333 35.4317 1.16395C33.1069 1.92178 32.1525 3.98186 30.1782 4.71888L30.1688 2.46656C30.4149 2.26069 30.5813 1.98956 30.6405 1.68901C30.8671 0.53057 29.4892 -0.239447 28.2644 0.0679154C27.2405 0.320763 26.6889 1.16072 27.314 2.0742L27.3247 4.7734C25.4311 4.12891 23.4101 1.08433 20.519 0.407203C18.9625 0.044967 17.1344 0.367035 15.5051 1.29307C14.1487 2.06668 13.0483 3.15624 12.1517 4.13321C12.0254 4.16341 11.9035 4.21021 11.7895 4.27236C10.3079 4.64356 9.90871 7.12543 11.8515 7.70394C11.8465 7.71721 11.8375 7.72832 11.8336 7.74231C9.40804 16.2301 5.55722 26.3541 1.77454 34.192ZM32.8189 42.9699C35.3438 43.7923 36.7655 44.8238 37.1962 44.8934C37.85 45.0046 39.158 45.2531 39.7193 45.6078C38.912 46.1662 34.964 46.8993 29.0574 46.9237C23.1353 46.9423 19.1938 46.2462 18.3818 45.6946C18.6013 45.5537 19.1959 45.2764 20.698 44.9977C20.7134 45.0024 20.7277 45.0085 20.7439 45.0121C23.8157 45.6483 25.93 45.9231 28.1306 45.9231C29.9059 45.9231 31.7376 45.7441 34.1728 45.4317C34.3117 45.4106 34.4368 45.3361 34.5215 45.2239C34.6061 45.1118 34.6435 44.971 34.6257 44.8317C34.6079 44.6923 34.5363 44.5654 34.4262 44.4782C34.3161 44.3909 34.1762 44.3502 34.0365 44.3647C29.2105 44.9838 26.8129 45.0623 22.3754 44.2356C23.7049 43.5413 24.9928 42.8523 26.4281 42.5098C28.3056 42.0579 30.5153 42.2168 32.8189 42.9699ZM52.0891 32.9758C48.5277 33.876 37.6356 33.9205 34.0702 33.0472C37.6797 32.1445 48.555 32.11 52.0891 32.9755V32.9758ZM51.0329 31.6879C46.9031 31.089 38.8926 31.1381 34.9206 31.7862C38.0448 25.1888 41.1815 17.0026 43.3349 9.83144C45.7801 16.5744 48.895 24.8542 51.0329 31.6875V31.6879ZM30.1208 38.0425C30.1125 38.0425 30.1054 38.0389 30.0971 38.0396C29.2442 38.0837 28.5205 38.0511 27.5571 38.0912C27.173 37.0465 27.3054 35.9476 27.5026 35.1808C27.7203 34.3416 27.8613 33.196 28.377 32.5655C28.6037 32.2883 28.8773 32.1617 29.0362 32.1785C29.0714 32.1821 29.1542 32.1918 29.2385 32.3607C29.6628 33.2104 30.011 34.2795 30.219 35.3723C30.4228 36.4407 30.3948 37.262 30.1208 38.0425ZM29.539 1.33933C29.6552 1.47598 29.5354 1.62517 29.3834 1.70372C29.2952 1.74915 29.2213 1.81808 29.1698 1.9029C29.1184 1.98771 29.0914 2.0851 29.0918 2.18431L29.2098 31.1187C28.9674 31.0814 28.7421 31.1098 28.5086 31.1905L28.3892 1.88412C28.3885 1.7473 28.3358 1.61588 28.2418 1.5165C28.19 1.45804 28.1523 1.38847 28.1317 1.31315C28.4132 1.00687 29.2367 0.982477 29.539 1.33933ZM22.1939 35.1435C20.7446 35.5549 17.0914 35.9429 12.1349 35.963C7.29846 35.9824 3.55954 35.633 2.06756 35.2213C5.84378 34.173 18.4926 34.1213 22.1943 35.1435H22.1939ZM20.9164 33.7953C16.3999 33.1272 7.45877 33.1738 3.10297 33.9047C6.56036 26.6184 10.0353 17.5442 12.4046 9.62342C12.9768 11.2006 13.5515 12.7768 14.1286 14.3522C16.4311 20.6476 19.0281 27.7503 20.9164 33.7953Z" fill="#121212"/>
</g>
</svg>
