<svg width="44" height="48" viewBox="0 0 44 48" fill="none" xmlns="http://www.w3.org/2000/svg">
<g id="Group 1">
<path id="Vector 17" d="M7.1243 33.7327L1.72754 10.9464L8.32357 9.44727L11.6216 27.1366L12.8209 33.7327H7.1243Z" fill="white"/>
<path id="Vector 18" d="M12.2213 30.4327L9.52295 14.2424L25.7132 10.0449L36.2069 16.9408L27.812 32.2316L12.2213 30.4327Z" fill="#F5FCFF"/>
<path id="Vector" d="M18.6811 0.983601C13.3099 4.15045 8.11478 6.95753 3.52454 6.5955C3.18134 6.56878 2.83624 6.6109 2.50956 6.71941C2.18287 6.82792 1.88117 7.00062 1.62217 7.22736C1.36109 7.45315 1.14721 7.7283 0.992844 8.03702C0.838482 8.34575 0.74668 8.68195 0.722697 9.02627C0.230243 16.7264 1.0645 23.596 3.20146 29.444C4.44796 32.8574 6.3908 36.13 9.1409 39.4467C11.9442 42.8309 16.2654 45.6403 18.592 47.0149C19.0304 47.2751 19.5303 47.4133 20.0401 47.4152C20.2987 47.4152 20.5573 47.3777 20.8046 47.3035C28.8113 44.899 35.9216 38.7159 39.8237 30.7647C43.504 23.267 43.1862 14.872 42.9058 7.46571C42.8451 5.87667 41.3565 4.75609 39.6985 4.97796C33.2419 5.86243 26.7785 3.29223 21.2274 0.817967C20.4194 0.457434 19.4674 0.52038 18.6811 0.983601ZM8.35086 29.3151C8.21656 29.3152 8.08468 29.2792 7.96904 29.2109C7.8534 29.1426 7.75823 29.0445 7.6935 28.9268C4.88119 23.8231 3.70368 17.8417 4.37753 12.0844C4.38721 11.9853 4.41657 11.889 4.4639 11.8013C4.51123 11.7136 4.57557 11.6362 4.65316 11.5737C4.73076 11.5111 4.82005 11.4647 4.91581 11.4371C5.01157 11.4095 5.11186 11.4012 5.21084 11.4128C5.30982 11.4244 5.40548 11.4557 5.49224 11.5047C5.57901 11.5537 5.65512 11.6196 5.71614 11.6984C5.77715 11.7772 5.82187 11.8673 5.84762 11.9636C5.87337 12.0599 5.87964 12.1604 5.8661 12.2591C5.22899 17.7083 6.34357 23.3711 9.00672 28.2035C9.06942 28.3176 9.10136 28.4461 9.09936 28.5763C9.09736 28.7065 9.06149 28.8339 8.99533 28.9461C8.92916 29.0582 8.83497 29.1512 8.72198 29.2159C8.60898 29.2806 8.48107 29.3148 8.35086 29.3151ZM28.3833 22.3623C28.3833 26.4578 24.7578 29.6816 20.4351 29.6067C16.3088 29.528 12.9509 26.3401 12.9509 22.5002C12.9509 18.6025 16.4295 15.2543 20.7402 15.2543C24.9204 15.2543 28.3833 18.3612 28.3833 22.3623ZM10.4136 32.0659C10.3387 32.0659 10.0388 32.0599 10.1138 32.0599C10.0154 32.058 9.91829 32.0366 9.82809 31.9972C9.7379 31.9577 9.65635 31.9008 9.58814 31.8298C9.51993 31.7588 9.46638 31.6751 9.43054 31.5834C9.39469 31.4917 9.37726 31.3938 9.37925 31.2954C9.38675 30.8816 9.75251 30.5616 10.143 30.5608L10.4249 30.5668C10.8386 30.5766 11.1692 30.9191 11.1594 31.3336C11.1557 31.529 11.0755 31.7151 10.9361 31.8521C10.7966 31.989 10.6091 32.0658 10.4136 32.0659Z" fill="#121212"/>
</g>
</svg>
