<svg width="196" height="40" viewBox="0 0 196 40" fill="none" xmlns="http://www.w3.org/2000/svg">
<g clip-path="url(#clip0_6009_2604)">
<path d="M139.648 20.681V30.6797H137.094V8.51953H139.648V16.6567H139.865C140.254 15.7987 140.841 15.1139 141.624 14.6062C142.407 14.0985 143.45 13.8426 144.757 13.8426C145.888 13.8426 146.88 14.0689 147.732 14.5196C148.582 14.9702 149.245 15.659 149.718 16.5858C150.19 17.5127 150.426 18.6895 150.426 20.1182V30.6778H147.872V20.2913C147.872 18.9709 147.531 17.9496 146.848 17.2234C146.168 16.4993 145.223 16.1352 144.019 16.1352C143.182 16.1352 142.435 16.3123 141.773 16.6645C141.114 17.0188 140.595 17.5344 140.215 18.2113C139.837 18.8902 139.646 19.7108 139.646 20.679L139.648 20.681Z" fill="#121212"/>
<path d="M163.002 23.8847V14.0591H165.557V30.6797H163.002V27.8657H162.829C162.44 28.7099 161.833 29.4262 161.011 30.0126C160.188 30.601 159.149 30.8942 157.894 30.8942C156.855 30.8942 155.932 30.6659 155.123 30.2074C154.314 29.7489 153.681 29.0562 153.218 28.1294C152.756 27.2025 152.525 26.0316 152.525 24.6187V14.0591H155.08V24.4455C155.08 25.6577 155.42 26.6239 156.103 27.3462C156.784 28.0684 157.656 28.4285 158.716 28.4285C159.352 28.4285 159.999 28.2671 160.659 27.9424C161.318 27.6177 161.875 27.1198 162.325 26.4488C162.776 25.7778 163.002 24.9237 163.002 23.8847Z" fill="#121212"/>
<path d="M167.942 30.6797V8.51953H170.497V16.7H170.713C170.9 16.4107 171.162 16.0427 171.498 15.5901C171.833 15.1395 172.317 14.736 172.949 14.3779C173.58 14.0217 174.436 13.8426 175.519 13.8426C176.918 13.8426 178.152 14.1929 179.218 14.8915C180.285 15.5921 181.119 16.5839 181.717 17.8669C182.316 19.15 182.615 20.6652 182.615 22.4107C182.615 24.1562 182.316 25.6951 181.717 26.9821C181.119 28.2691 180.289 29.2648 179.228 29.9693C178.167 30.6719 176.945 31.0241 175.56 31.0241C174.491 31.0241 173.637 30.845 172.996 30.4888C172.354 30.1327 171.86 29.7253 171.514 29.2668C171.168 28.8083 170.9 28.4285 170.713 28.1254H170.41V30.6797H167.942ZM170.453 22.3694C170.453 23.6249 170.638 24.7309 171.004 25.6853C171.372 26.6417 171.91 27.3875 172.616 27.9247C173.323 28.4619 174.188 28.7315 175.214 28.7315C176.239 28.7315 177.174 28.4482 177.892 27.8814C178.61 27.3147 179.151 26.5511 179.515 25.5869C179.879 24.6246 180.062 23.5501 180.062 22.3674C180.062 21.1848 179.883 20.1438 179.527 19.2031C179.171 18.2625 178.632 17.5147 177.916 16.9637C177.197 16.4127 176.298 16.1352 175.216 16.1352C174.133 16.1352 173.305 16.3969 172.596 16.9204C171.89 17.4438 171.357 18.1719 170.995 19.1067C170.634 20.0414 170.453 21.1277 170.453 22.3694Z" fill="#121212"/>
<path d="M177.447 38.8227H139.922C129.722 38.8227 121.424 30.5241 121.424 20.3247V20.1279C121.424 9.9284 129.722 1.62988 139.922 1.62988H177.447C187.647 1.62988 195.945 9.9284 195.945 20.1279V20.3247C195.945 30.5241 187.647 38.8227 177.447 38.8227ZM139.922 4.3849C131.242 4.3849 124.179 11.4476 124.179 20.1279V20.3247C124.179 29.0049 131.242 36.0676 139.922 36.0676H177.447C186.127 36.0676 193.19 29.0049 193.19 20.3247V20.1279C193.19 11.4476 186.127 4.3849 177.447 4.3849H139.922Z" fill="#121212"/>
<path d="M22.235 10.7352C22.0146 8.88144 21.1251 7.44095 19.5626 6.41569C18.0001 5.39043 16.0854 4.87879 13.8165 4.87879C12.1575 4.87879 10.7072 5.14642 9.46943 5.68364C8.23164 6.22087 7.26738 6.95883 6.57862 7.8975C5.88987 8.83617 5.54549 9.90473 5.54549 11.1012C5.54549 12.1009 5.78557 12.9589 6.2677 13.6732C6.74983 14.3875 7.36774 14.9799 8.12537 15.4482C8.88104 15.9185 9.67409 16.3023 10.5045 16.6014C11.335 16.9005 12.0965 17.1406 12.7932 17.3236L16.599 18.3489C17.5751 18.6047 18.6633 18.9589 19.8657 19.4095C21.0681 19.8602 22.2212 20.4742 23.3252 21.2495C24.4292 22.0249 25.3403 23.0147 26.0606 24.223C26.7808 25.4312 27.1409 26.913 27.1409 28.6704C27.1409 30.6953 26.6135 32.5254 25.5587 34.1607C24.504 35.796 22.9651 37.0948 20.9461 38.0591C18.927 39.0233 16.477 39.5055 13.598 39.5055C10.9138 39.5055 8.59175 39.0725 6.63372 38.2067C4.67569 37.3408 3.13878 36.1325 2.02103 34.5838C0.905249 33.0351 0.273567 31.2345 0.125977 29.184H4.81148C4.93349 30.5989 5.41168 31.7678 6.24802 32.6888C7.08437 33.6097 8.14505 34.2926 9.43204 34.7393C10.719 35.184 12.1064 35.4083 13.5961 35.4083C15.3278 35.4083 16.8844 35.125 18.2638 34.5582C19.6433 33.9915 20.7355 33.1984 21.5404 32.1791C22.3452 31.1597 22.7486 29.9672 22.7486 28.6015C22.7486 27.3578 22.4003 26.3443 21.7057 25.5631C21.011 24.7818 20.0959 24.1482 18.9605 23.6602C17.825 23.1721 16.599 22.7451 15.2825 22.3791L10.6698 21.0606C7.74163 20.2183 5.42348 19.0179 3.71537 17.4555C2.00726 15.893 1.1532 13.8503 1.1532 11.3236C1.1532 9.22581 1.72388 7.39176 2.86525 5.82337C4.00662 4.25497 5.54352 3.03489 7.47794 2.16313C9.41236 1.29136 11.575 0.854492 13.966 0.854492C16.357 0.854492 18.5295 1.28546 20.4088 2.14542C22.2881 3.00538 23.7798 4.18019 24.8838 5.6679C25.9877 7.15758 26.5702 8.84602 26.6312 10.7371H22.2389L22.235 10.7352Z" fill="#121212"/>
<path d="M54.7421 24.6717C54.7421 26.9407 54.2422 28.8534 53.2445 30.4061C52.2468 31.9587 50.9755 33.1395 49.4288 33.9443C47.884 34.7492 46.2743 35.1526 44.5996 35.1526C41.9273 35.1526 39.737 34.271 38.0309 32.5078C36.3247 30.7446 35.4707 28.4146 35.4707 25.5179V1.75586H31.1729V25.7836C31.1729 28.7137 31.6963 31.1854 32.7432 33.1965C33.7901 35.2097 35.2306 36.7348 37.0647 37.7718C38.9007 38.8109 41.0004 39.3304 43.3678 39.3304C46.0874 39.3304 48.3898 38.6987 50.273 37.4353C52.1563 36.172 53.5338 34.5898 54.4016 32.6908H54.7401V38.8483H59.0379V1.75783H54.7401V24.6737L54.7421 24.6717Z" fill="#121212"/>
<path d="M70.6842 1.71045H66.168V38.8462H83.3967V34.7904H70.6842V1.71045Z" fill="#121212"/>
<path d="M116.144 19.4568C116.144 16.3495 115.709 13.6574 114.839 11.3786C113.969 9.10182 112.79 7.20873 111.301 5.7033C109.811 4.19788 108.132 3.08013 106.267 2.34612C104.399 1.61407 102.459 1.24805 100.448 1.24805C97.2443 1.24805 94.4223 2.07258 91.9841 3.72363C89.5459 5.37467 87.6371 7.6515 86.2616 10.558C84.886 13.4646 84.1973 16.7844 84.1973 20.5194C84.1973 24.2544 84.886 27.5821 86.2616 30.4552C87.6391 33.3283 89.5892 35.5736 92.1179 37.1932C94.6447 38.8108 97.6398 39.6196 101.101 39.6196C103.581 39.6196 105.773 39.2221 107.682 38.4251C109.589 37.6281 111.183 36.5694 112.464 35.2489C113.743 33.9285 114.666 32.488 115.229 30.9275L111.147 29.5992C110.681 30.7091 109.992 31.7284 109.083 32.6533C108.174 33.5802 107.054 34.3162 105.726 34.8632C104.397 35.4103 102.857 35.6838 101.101 35.6838C98.5253 35.6838 96.2957 35.0797 94.4125 33.8734C92.5292 32.6651 91.0769 30.9629 90.0537 28.7668C89.0933 26.7025 88.5837 24.3076 88.5266 21.5821H116.146V19.4568H116.144ZM88.5541 17.79C88.684 15.7217 89.1839 13.7991 90.0517 12.0182C91.0573 9.95784 92.4545 8.29893 94.2413 7.04342C96.0281 5.78792 98.0963 5.16018 100.448 5.16018C102.67 5.16018 104.63 5.71511 106.328 6.82696C108.026 7.93684 109.355 9.4462 110.313 11.355C111.271 13.2619 111.749 15.4088 111.749 17.79H88.5541Z" fill="#121212"/>
</g>
<defs>
<clipPath id="clip0_6009_2604">
<rect width="196" height="38.7671" fill="white" transform="translate(0 0.852539)"/>
</clipPath>
</defs>
</svg>
