<svg width="312" height="181" viewBox="0 0 312 181" fill="none" xmlns="http://www.w3.org/2000/svg">
<g clip-path="url(#clip0_2703_11603)">
<rect y="-10" width="329" height="250" rx="12" fill="#D0CBD5"/>
<circle cx="155.938" cy="91.8288" r="55.4499" fill="white"/>
<path d="M129.108 105.195C127.319 105.195 125.725 104.866 124.325 104.208C122.933 103.55 121.828 102.643 121.009 101.488C120.191 100.332 119.765 99.0075 119.731 97.5143H125.046C125.105 98.5182 125.527 99.3322 126.311 99.9565C127.096 100.581 128.028 100.893 129.108 100.893C129.968 100.893 130.727 100.703 131.385 100.323C132.052 99.9354 132.571 99.3997 132.942 98.7164C133.321 98.0247 133.511 97.2317 133.511 96.3375C133.511 95.4265 133.317 94.6251 132.929 93.9333C132.55 93.2416 132.022 92.7017 131.347 92.3137C130.673 91.9256 129.901 91.7274 129.032 91.7189C128.273 91.7189 127.534 91.875 126.817 92.1871C126.109 92.4992 125.556 92.9252 125.16 93.4651L120.288 92.592L121.516 78.926H137.358V83.4054H126.033L125.362 89.8968H125.514C125.97 89.2557 126.657 88.7242 127.577 88.3024C128.496 87.8806 129.525 87.6697 130.664 87.6697C132.225 87.6697 133.617 88.0367 134.84 88.7706C136.063 89.5045 137.029 90.5126 137.738 91.7948C138.446 93.0687 138.796 94.5365 138.788 96.1983C138.796 97.9445 138.391 99.4967 137.573 100.855C136.763 102.205 135.629 103.268 134.169 104.044C132.718 104.811 131.031 105.195 129.108 105.195ZM152.074 105.195C150.286 105.195 148.691 104.866 147.291 104.208C145.899 103.55 144.794 102.643 143.976 101.488C143.158 100.332 142.732 99.0075 142.698 97.5143H148.012C148.071 98.5182 148.493 99.3322 149.278 99.9565C150.062 100.581 150.994 100.893 152.074 100.893C152.935 100.893 153.694 100.703 154.352 100.323C155.018 99.9354 155.537 99.3997 155.908 98.7164C156.288 98.0247 156.478 97.2317 156.478 96.3375C156.478 95.4265 156.284 94.6251 155.896 93.9333C155.516 93.2416 154.989 92.7017 154.314 92.3137C153.639 91.9256 152.867 91.7274 151.998 91.7189C151.239 91.7189 150.501 91.875 149.784 92.1871C149.075 92.4992 148.523 92.9252 148.126 93.4651L143.255 92.592L144.482 78.926H160.324V83.4054H148.999L148.329 89.8968H148.481C148.936 89.2557 149.624 88.7242 150.543 88.3024C151.463 87.8806 152.492 87.6697 153.631 87.6697C155.191 87.6697 156.583 88.0367 157.806 88.7706C159.03 89.5045 159.995 90.5126 160.704 91.7948C161.413 93.0687 161.763 94.5365 161.754 96.1983C161.763 97.9445 161.358 99.4967 160.54 100.855C159.73 102.205 158.595 103.268 157.136 104.044C155.685 104.811 153.998 105.195 152.074 105.195ZM179.761 99.9818V98.6152C179.761 97.5776 179.98 96.6243 180.419 95.7555C180.866 94.8781 181.511 94.178 182.355 93.6549C183.207 93.1235 184.244 92.8578 185.467 92.8578C186.707 92.8578 187.749 93.1193 188.593 93.6423C189.445 94.1653 190.086 94.8655 190.516 95.7428C190.955 96.6117 191.174 97.5692 191.174 98.6152V99.9818C191.174 101.019 190.955 101.977 190.516 102.854C190.078 103.723 189.432 104.419 188.58 104.942C187.728 105.474 186.691 105.739 185.467 105.739C184.227 105.739 183.185 105.474 182.342 104.942C181.498 104.419 180.857 103.723 180.419 102.854C179.98 101.977 179.761 101.019 179.761 99.9818ZM183.443 98.6152V99.9818C183.443 100.581 183.586 101.146 183.873 101.677C184.168 102.209 184.7 102.475 185.467 102.475C186.235 102.475 186.758 102.213 187.036 101.69C187.323 101.167 187.467 100.598 187.467 99.9818V98.6152C187.467 97.9994 187.332 97.4257 187.062 96.8943C186.792 96.3628 186.26 96.0971 185.467 96.0971C184.708 96.0971 184.181 96.3628 183.886 96.8943C183.59 97.4257 183.443 97.9994 183.443 98.6152ZM166.461 85.1517V83.7851C166.461 82.739 166.685 81.7815 167.132 80.9127C167.579 80.0353 168.225 79.3352 169.068 78.8121C169.92 78.2891 170.949 78.0276 172.156 78.0276C173.404 78.0276 174.45 78.2891 175.294 78.8121C176.137 79.3352 176.778 80.0353 177.217 80.9127C177.656 81.7815 177.875 82.739 177.875 83.7851V85.1517C177.875 86.1977 177.652 87.1552 177.204 88.024C176.766 88.8929 176.12 89.5889 175.268 90.1119C174.425 90.6265 173.387 90.8838 172.156 90.8838C170.924 90.8838 169.882 90.6223 169.03 90.0993C168.187 89.5678 167.545 88.8718 167.107 88.0114C166.677 87.1425 166.461 86.1893 166.461 85.1517ZM170.169 83.7851V85.1517C170.169 85.7675 170.312 86.3369 170.599 86.8599C170.894 87.3829 171.413 87.6444 172.156 87.6444C172.932 87.6444 173.459 87.3829 173.737 86.8599C174.024 86.3369 174.168 85.7675 174.168 85.1517V83.7851C174.168 83.1692 174.033 82.5956 173.763 82.0641C173.493 81.5327 172.957 81.267 172.156 81.267C171.405 81.267 170.886 81.5369 170.599 82.0768C170.312 82.6167 170.169 83.1861 170.169 83.7851ZM168.132 104.841L185.948 78.926H189.263L171.447 104.841H168.132Z" fill="black"/>
<path d="M214.317 55.2915C217.897 53.1013 219.052 48.3962 216.515 45.0531C210.544 37.1842 203.081 30.5347 194.526 25.4997C185.972 20.4646 176.535 17.1671 166.757 15.7666C162.603 15.1716 159.051 18.4657 158.873 22.6585V22.6585C158.696 26.8512 161.966 30.3455 166.104 31.0441C173.39 32.2743 180.413 34.8266 186.818 38.5963C193.223 42.3661 198.863 47.267 203.475 53.0401C206.095 56.3187 210.737 57.4817 214.317 55.2915V55.2915Z" fill="#F5FCFF"/>
<path d="M155.984 22.5974C155.984 18.4009 152.574 14.9596 148.398 15.3786C134.288 16.7942 120.801 22.1379 109.503 30.8742C98.2054 39.6106 89.6401 51.32 84.7202 64.6198C83.2642 68.5556 85.7368 72.7222 89.7983 73.778V73.778C93.8598 74.8337 97.9641 72.3721 99.518 68.4739C103.526 58.4203 110.165 49.5728 118.799 42.896C127.434 36.2192 137.667 32.0194 148.405 30.67C152.569 30.1468 155.984 26.7939 155.984 22.5974V22.5974Z" fill="#114EAE"/>
<path d="M215.226 56.822C218.862 54.7257 223.546 55.9611 225.269 59.7876C229.477 69.1333 231.762 79.2591 231.955 89.5589C232.148 99.8587 230.244 110.063 226.39 119.56C224.811 123.448 220.176 124.858 216.465 122.9V122.9C212.753 120.941 211.382 116.356 212.862 112.429C215.574 105.238 216.906 97.5743 216.761 89.8437C216.616 82.1131 214.998 74.5051 212.019 67.42C210.392 63.5516 211.591 58.9183 215.226 56.822V56.822Z" fill="#8EBAFF"/>
<path d="M215.244 125.113C218.88 127.208 220.16 131.881 217.713 135.29C208.664 147.898 195.927 157.487 181.17 162.671C164.014 168.699 145.264 168.374 128.327 161.755C111.39 155.136 97.3883 142.662 88.8646 126.599C81.5331 112.783 78.6726 97.099 80.5698 81.6956C81.0828 77.5306 85.192 74.9636 89.285 75.8898V75.8898C93.378 76.816 95.8945 80.887 95.4858 85.0635C94.3278 96.8979 96.6628 108.874 102.289 119.476C109.107 132.327 120.309 142.305 133.859 147.6C147.408 152.896 162.408 153.156 176.133 148.334C187.456 144.356 197.293 137.136 204.466 127.652C206.997 124.305 211.607 123.019 215.244 125.113V125.113Z" fill="#347AE9"/>
</g>
<rect x="0.5" y="0.5" width="311" height="180" rx="15.5" stroke="#F0F0F2"/>
<defs>
<clipPath id="clip0_2703_11603">
<rect width="312" height="181" rx="16" fill="white"/>
</clipPath>
</defs>
</svg>
