<svg width="1200" height="627" viewBox="0 0 1200 627" fill="none" xmlns="http://www.w3.org/2000/svg">
<g clip-path="url(#clip0_68_2514)">
<path d="M1200 0H0V627H1200V0Z" fill="#FFFEFB"/>
<path d="M149.52 263V262.144L151.49 261.373C152.46 260.973 153.117 260.46 153.459 259.832C153.859 259.146 154.059 258.233 154.059 257.091V212.39C154.059 211.248 153.887 210.363 153.545 209.735C153.259 209.05 152.574 208.508 151.49 208.108L149.52 207.337V206.481H190.539L191.053 219.669H190.196L186.514 211.619C186 210.592 185.458 209.764 184.887 209.136C184.316 208.508 183.46 208.194 182.318 208.194H166.904V232.942H176.067C177.208 232.942 178.065 232.657 178.636 232.086C179.264 231.458 179.806 230.63 180.263 229.602L181.975 226.177H182.832V241.591H181.975L180.263 237.995C179.749 236.967 179.207 236.168 178.636 235.597C178.065 234.969 177.208 234.655 176.067 234.655H166.904V261.287H184.202C185.344 261.287 186.229 261.002 186.857 260.431C187.485 259.803 187.998 258.947 188.398 257.862L191.909 249.812H192.765L192.252 263H149.52ZM195.422 263V262.144L196.621 261.801C197.705 261.516 198.448 261.03 198.847 260.345C199.304 259.66 199.561 258.747 199.618 257.605V230.801C199.618 229.545 199.418 228.632 199.019 228.061C198.619 227.433 197.848 227.005 196.706 226.777L195.422 226.434V225.578L210.065 220.611L210.922 221.467L211.607 227.29C213.491 225.406 215.632 223.808 218.029 222.495C220.484 221.182 223.025 220.525 225.651 220.525C228.391 220.525 230.589 221.096 232.245 222.238C233.9 223.323 235.156 225.035 236.013 227.376C238.239 225.264 240.637 223.608 243.206 222.409C245.832 221.153 248.373 220.525 250.828 220.525C254.881 220.525 257.85 221.496 259.734 223.437C261.675 225.378 262.645 228.432 262.645 232.6V257.691C262.645 259.917 263.673 261.316 265.728 261.887L266.67 262.144V263H246.888V262.144L247.745 261.887C248.829 261.544 249.572 261.03 249.971 260.345C250.428 259.66 250.656 258.747 250.656 257.605V231.401C250.656 229.003 250.228 227.376 249.372 226.52C248.515 225.606 247.145 225.149 245.261 225.149C243.777 225.149 242.321 225.492 240.894 226.177C239.524 226.805 238.068 227.776 236.527 229.089C236.812 230.002 236.983 231.001 237.04 232.086C237.155 233.171 237.212 234.312 237.212 235.511V257.691C237.269 259.917 238.296 261.316 240.294 261.887L241.065 262.144V263H221.198V262.144L222.397 261.801C223.482 261.459 224.224 260.973 224.623 260.345C225.08 259.66 225.308 258.747 225.308 257.605V231.486C225.308 229.203 224.88 227.576 224.024 226.605C223.225 225.635 221.826 225.149 219.828 225.149C218.515 225.149 217.202 225.492 215.889 226.177C214.576 226.805 213.205 227.747 211.778 229.003V257.691C211.778 259.917 212.777 261.316 214.775 261.887L215.546 262.144V263H195.422ZM267.336 282.696V281.84L268.364 281.497C270.476 280.926 271.532 279.556 271.532 277.387V230.801C271.532 229.545 271.304 228.603 270.847 227.975C270.447 227.347 269.677 226.919 268.535 226.691L267.336 226.434V225.578L281.894 220.611L282.75 221.467L283.521 224.122C285.405 222.98 287.489 222.095 289.772 221.467C292.113 220.839 294.511 220.525 296.966 220.525C301.875 220.525 305.757 222.409 308.612 226.177C311.524 229.888 312.979 235.226 312.979 242.191C312.979 249.042 311.381 254.437 308.184 258.376C305.044 262.315 300.591 264.285 294.825 264.285C290.315 264.285 286.518 263.628 283.435 262.315V277.13C283.435 279.413 284.463 280.841 286.518 281.411L288.145 281.84V282.696H267.336ZM290.714 261.801C293.569 261.801 295.824 260.317 297.479 257.348C299.192 254.379 300.049 249.441 300.049 242.533C300.049 235.625 299.249 230.801 297.651 228.061C296.052 225.264 293.74 223.865 290.714 223.865C288.602 223.865 286.261 224.55 283.692 225.92V260.431C285.862 261.344 288.202 261.801 290.714 261.801ZM337.584 264.285C333.245 264.285 329.477 263.4 326.28 261.63C323.083 259.803 320.599 257.234 318.83 253.923C317.117 250.612 316.261 246.729 316.261 242.276C316.261 237.823 317.174 233.97 319.001 230.716C320.885 227.462 323.425 224.95 326.622 223.18C329.877 221.41 333.53 220.525 337.584 220.525C341.637 220.525 345.262 221.41 348.459 223.18C351.656 224.893 354.168 227.376 355.995 230.63C357.879 233.884 358.821 237.766 358.821 242.276C358.821 246.787 357.936 250.697 356.166 254.008C354.454 257.262 351.999 259.803 348.802 261.63C345.662 263.4 341.923 264.285 337.584 264.285ZM337.584 262.572C339.582 262.572 341.18 262.001 342.379 260.859C343.578 259.717 344.434 257.691 344.948 254.779C345.519 251.867 345.805 247.757 345.805 242.448C345.805 237.081 345.519 232.942 344.948 230.031C344.434 227.119 343.578 225.092 342.379 223.951C341.18 222.809 339.582 222.238 337.584 222.238C335.586 222.238 333.958 222.809 332.703 223.951C331.504 225.092 330.619 227.119 330.048 230.031C329.534 232.942 329.277 237.081 329.277 242.448C329.277 247.757 329.534 251.867 330.048 254.779C330.619 257.691 331.504 259.717 332.703 260.859C333.958 262.001 335.586 262.572 337.584 262.572ZM378.208 263.257L365.021 227.033C364.393 225.207 363.137 223.922 361.253 223.18L359.797 222.666V221.81H380.777V222.666L379.493 223.009C377.266 223.694 376.524 225.064 377.266 227.119L385.23 251.354L392.338 232.514L390.711 227.633C390.311 226.377 389.883 225.435 389.427 224.807C389.027 224.122 388.485 223.637 387.8 223.351L386.344 222.666V221.81H404.07V222.666L402.871 223.18C402.015 223.522 401.501 223.979 401.33 224.55C401.159 225.121 401.273 225.977 401.672 227.119L409.551 250.926L417.686 227.29C418.485 225.121 418.057 223.751 416.401 223.18L414.518 222.666V221.81H424.794V222.666L422.738 223.266C421.768 223.551 421.054 224.008 420.598 224.636C420.198 225.207 419.827 226.006 419.484 227.033L407.153 263.257H402.786L393.28 235.254L383.175 263.257H378.208ZM445.365 220.525C449.075 220.525 452.244 221.296 454.87 222.837C457.496 224.322 459.494 226.377 460.864 229.003C462.292 231.572 463.005 234.512 463.005 237.823C463.005 238.451 462.977 239.108 462.92 239.793C462.863 240.421 462.748 240.992 462.577 241.506H437.058C437.115 247.671 438.2 252.124 440.312 254.865C442.481 257.548 445.679 258.89 449.903 258.89C452.758 258.89 455.07 258.433 456.84 257.519C458.609 256.606 460.265 255.264 461.806 253.495L462.663 254.265C460.893 257.405 458.524 259.86 455.555 261.63C452.643 263.4 449.132 264.285 445.022 264.285C440.969 264.285 437.372 263.428 434.232 261.715C431.092 259.946 428.637 257.434 426.867 254.18C425.098 250.926 424.213 247.043 424.213 242.533C424.213 237.852 425.24 233.884 427.296 230.63C429.351 227.319 431.977 224.807 435.174 223.094C438.428 221.382 441.825 220.525 445.365 220.525ZM445.108 222.238C443.452 222.238 442.025 222.752 440.826 223.779C439.684 224.75 438.771 226.52 438.086 229.089C437.458 231.601 437.115 235.169 437.058 239.793H451.701C452.272 233.57 452.044 229.089 451.016 226.348C449.989 223.608 448.019 222.238 445.108 222.238ZM465.846 263V262.144L467.13 261.801C468.272 261.459 469.043 260.945 469.442 260.26C469.899 259.575 470.127 258.69 470.127 257.605V230.801C470.127 229.545 469.899 228.632 469.442 228.061C469.043 227.433 468.272 227.005 467.13 226.777L465.846 226.434V225.578L480.575 220.611L481.431 221.467L482.202 228.832V229.517C483.001 227.918 484.029 226.463 485.285 225.149C486.598 223.779 488.025 222.666 489.567 221.81C491.165 220.953 492.735 220.525 494.276 220.525C496.446 220.525 498.101 221.125 499.243 222.324C500.385 223.522 500.956 225.035 500.956 226.862C500.956 228.803 500.385 230.316 499.243 231.401C498.159 232.428 496.845 232.942 495.304 232.942C492.906 232.942 490.794 231.743 488.967 229.346L488.796 229.174C488.225 228.375 487.568 227.947 486.826 227.89C486.084 227.776 485.399 228.118 484.771 228.917C484.2 229.431 483.715 230.059 483.315 230.801C482.973 231.486 482.63 232.286 482.288 233.199V257.091C482.288 259.375 483.287 260.802 485.285 261.373L488.025 262.144V263H465.846ZM512.494 216.072C510.553 216.072 508.898 215.473 507.527 214.274C506.214 213.018 505.558 211.448 505.558 209.564C505.558 207.623 506.214 206.053 507.527 204.854C508.898 203.655 510.553 203.056 512.494 203.056C514.435 203.056 516.062 203.655 517.375 204.854C518.689 206.053 519.345 207.623 519.345 209.564C519.345 211.448 518.689 213.018 517.375 214.274C516.062 215.473 514.435 216.072 512.494 216.072ZM502.389 263V262.144L503.588 261.801C504.73 261.459 505.501 260.945 505.9 260.26C506.357 259.575 506.585 258.661 506.585 257.519V230.716C506.585 229.517 506.357 228.632 505.9 228.061C505.501 227.433 504.73 227.005 503.588 226.777L502.389 226.52V225.663L518.061 220.611L518.917 221.467L518.66 233.627V257.605C518.66 258.747 518.86 259.66 519.259 260.345C519.716 261.03 520.487 261.544 521.572 261.887L522.428 262.144V263H502.389ZM524.792 263V262.144L525.991 261.801C527.989 261.23 528.988 259.832 528.988 257.605V230.801C528.988 229.545 528.788 228.632 528.389 228.061C527.989 227.433 527.218 227.005 526.077 226.777L524.792 226.434V225.578L539.436 220.611L540.292 221.467L540.977 226.605C542.975 224.835 545.23 223.38 547.742 222.238C550.254 221.096 552.737 220.525 555.192 220.525C558.96 220.525 561.843 221.553 563.841 223.608C565.897 225.663 566.924 228.803 566.924 233.028V257.691C566.924 259.917 568.009 261.316 570.178 261.887L570.949 262.144V263H550.739V262.144L551.853 261.801C553.851 261.173 554.85 259.774 554.85 257.605V230.288C554.85 226.634 553.023 224.807 549.369 224.807C546.857 224.807 544.117 226.063 541.148 228.575V257.691C541.148 259.917 542.147 261.316 544.145 261.887L544.916 262.144V263H524.792ZM591.541 248.185C587.601 248.185 584.262 247.529 581.521 246.216V249.127C581.521 250.897 582.406 251.953 584.176 252.296L600.275 255.293C602.959 255.807 605.385 256.492 607.554 257.348C609.724 258.147 611.465 259.318 612.778 260.859C614.091 262.343 614.748 264.399 614.748 267.025C614.748 269.822 613.834 272.391 612.007 274.732C610.181 277.13 607.469 279.042 603.872 280.469C600.333 281.954 595.908 282.696 590.599 282.696C586.032 282.696 582.406 282.211 579.723 281.24C577.04 280.327 575.127 279.128 573.986 277.644C572.901 276.159 572.359 274.589 572.359 272.934C572.359 270.878 573.044 268.795 574.414 266.682C575.841 264.627 577.582 262.971 579.637 261.715C577.868 261.03 576.583 260.146 575.784 259.061C574.985 257.976 574.585 256.806 574.585 255.55C574.585 254.408 574.87 253.352 575.441 252.381C576.069 251.354 576.812 250.326 577.668 249.298L580.494 245.702C576.326 243.304 574.242 239.536 574.242 234.398C574.242 230.288 575.698 226.948 578.61 224.379C581.579 221.81 585.917 220.525 591.626 220.525C594.538 220.525 597.078 220.868 599.248 221.553C601.474 222.238 603.301 223.208 604.728 224.464C606.555 224.179 608.268 223.722 609.867 223.094C611.522 222.409 613.006 221.496 614.32 220.354L615.518 221.21V225.578H605.842C607.897 227.861 608.925 230.801 608.925 234.398C608.925 238.394 607.44 241.706 604.472 244.332C601.56 246.901 597.25 248.185 591.541 248.185ZM591.455 246.473C593.739 246.473 595.394 245.531 596.422 243.647C597.507 241.763 598.049 238.623 598.049 234.227C598.049 229.831 597.507 226.748 596.422 224.978C595.394 223.151 593.796 222.238 591.626 222.238C589.514 222.238 587.915 223.18 586.831 225.064C585.746 226.891 585.204 230.002 585.204 234.398C585.204 238.794 585.689 241.905 586.66 243.732C587.687 245.559 589.286 246.473 591.455 246.473ZM578.695 270.193C578.695 273.562 579.723 276.102 581.778 277.815C583.891 279.527 587.202 280.384 591.712 280.384C596.45 280.384 600.019 279.613 602.416 278.072C604.814 276.53 606.013 274.361 606.013 271.563C606.013 269.965 605.414 268.68 604.215 267.71C603.073 266.739 601.103 265.997 598.306 265.483L582.806 262.572C582.349 262.458 581.893 262.343 581.436 262.229C580.637 263.371 579.98 264.656 579.466 266.083C578.952 267.567 578.695 268.937 578.695 270.193ZM634.331 263V262.144L635.445 261.887C636.529 261.601 637.386 261.116 638.014 260.431C638.642 259.689 638.956 258.747 638.956 257.605C638.956 255.493 638.956 253.409 638.956 251.354C639.013 249.241 639.041 247.129 639.041 245.017V223.522H634.246V222.58L636.13 222.238C637.272 222.124 638.099 221.724 638.613 221.039C639.127 220.354 639.498 219.412 639.726 218.213C640.297 215.987 641.125 214.046 642.21 212.39C643.352 210.677 644.636 209.107 646.063 207.68C648.233 205.625 650.516 204.198 652.914 203.398C655.369 202.542 657.767 202.114 660.108 202.114C662.391 202.114 664.475 202.599 666.359 203.57C668.243 204.483 669.185 206.024 669.185 208.194C669.185 209.735 668.728 210.963 667.815 211.876C666.901 212.732 665.617 213.161 663.961 213.161C662.591 213.161 661.335 212.79 660.193 212.047C659.051 211.305 657.938 209.992 656.853 208.108L655.655 206.652C655.027 205.853 654.399 205.482 653.771 205.539C653.143 205.539 652.686 205.996 652.4 206.909C652.001 208.907 651.687 211.248 651.458 213.931C651.287 216.615 651.202 219.241 651.202 221.81H660.793V223.522H651.202V257.434C651.202 259.603 652.343 261.002 654.627 261.63L656.768 262.144V263H634.331ZM682.748 264.285C678.409 264.285 674.642 263.4 671.444 261.63C668.247 259.803 665.764 257.234 663.994 253.923C662.282 250.612 661.425 246.729 661.425 242.276C661.425 237.823 662.339 233.97 664.166 230.716C666.049 227.462 668.59 224.95 671.787 223.18C675.041 221.41 678.695 220.525 682.748 220.525C686.802 220.525 690.427 221.41 693.624 223.18C696.821 224.893 699.333 227.376 701.16 230.63C703.044 233.884 703.986 237.766 703.986 242.276C703.986 246.787 703.101 250.697 701.331 254.008C699.618 257.262 697.163 259.803 693.966 261.63C690.826 263.4 687.087 264.285 682.748 264.285ZM682.748 262.572C684.746 262.572 686.345 262.001 687.544 260.859C688.743 259.717 689.599 257.691 690.113 254.779C690.684 251.867 690.969 247.757 690.969 242.448C690.969 237.081 690.684 232.942 690.113 230.031C689.599 227.119 688.743 225.092 687.544 223.951C686.345 222.809 684.746 222.238 682.748 222.238C680.75 222.238 679.123 222.809 677.867 223.951C676.668 225.092 675.783 227.119 675.212 230.031C674.699 232.942 674.442 237.081 674.442 242.448C674.442 247.757 674.699 251.867 675.212 254.779C675.783 257.691 676.668 259.717 677.867 260.859C679.123 262.001 680.75 262.572 682.748 262.572ZM721.485 264.285C719.259 264.285 717.203 263.856 715.319 263C713.492 262.144 712.037 260.773 710.952 258.89C709.924 256.948 709.439 254.408 709.496 251.268L709.753 229.26C709.753 227.947 709.525 227.005 709.068 226.434C708.611 225.863 707.898 225.463 706.927 225.235L705.9 224.893V224.036L721.228 221.039L722.084 221.895L721.656 234.055V254.693C721.656 256.52 722.17 257.862 723.198 258.718C724.282 259.575 725.624 260.003 727.223 260.003C728.821 260.003 730.248 259.774 731.504 259.318C732.76 258.861 734.016 258.176 735.272 257.262L735.615 229.346C735.615 228.033 735.415 227.119 735.015 226.605C734.616 226.034 733.874 225.635 732.789 225.406L731.932 225.149V224.293L746.919 221.039L747.775 221.895L747.518 234.055V257.262C747.518 258.518 747.689 259.489 748.032 260.174C748.374 260.859 749.116 261.43 750.258 261.887L751.115 262.144V263L736.129 263.856L735.358 258.804C733.474 260.345 731.419 261.658 729.192 262.743C727.023 263.771 724.454 264.285 721.485 264.285ZM753.146 263V262.144L754.344 261.801C756.343 261.23 757.342 259.832 757.342 257.605V230.801C757.342 229.545 757.142 228.632 756.742 228.061C756.343 227.433 755.572 227.005 754.43 226.777L753.146 226.434V225.578L767.789 220.611L768.645 221.467L769.331 226.605C771.329 224.835 773.584 223.38 776.096 222.238C778.608 221.096 781.091 220.525 783.546 220.525C787.314 220.525 790.197 221.553 792.195 223.608C794.25 225.663 795.278 228.803 795.278 233.028V257.691C795.278 259.917 796.363 261.316 798.532 261.887L799.303 262.144V263H779.093V262.144L780.206 261.801C782.204 261.173 783.203 259.774 783.203 257.605V230.288C783.203 226.634 781.376 224.807 777.723 224.807C775.211 224.807 772.47 226.063 769.502 228.575V257.691C769.502 259.917 770.501 261.316 772.499 261.887L773.27 262.144V263H753.146ZM819.38 264.285C816.012 264.285 812.986 263.542 810.303 262.058C807.62 260.517 805.479 258.176 803.881 255.036C802.339 251.839 801.568 247.757 801.568 242.79C801.568 237.766 802.453 233.627 804.223 230.373C805.993 227.062 808.334 224.607 811.245 223.009C814.157 221.353 817.325 220.525 820.751 220.525C822.749 220.525 824.661 220.725 826.488 221.125C828.315 221.524 829.942 222.124 831.369 222.923V211.79C831.369 210.592 831.169 209.707 830.77 209.136C830.427 208.565 829.657 208.165 828.458 207.937L826.831 207.594V206.738L842.416 202.97L843.358 203.741L843.016 215.73V257.605C843.016 258.747 843.215 259.689 843.615 260.431C844.015 261.116 844.757 261.601 845.842 261.887L846.612 262.144V263L831.969 263.942L831.198 260.859C829.657 261.887 827.887 262.715 825.889 263.343C823.948 263.971 821.778 264.285 819.38 264.285ZM824.347 261.116C826.745 261.116 828.943 260.402 830.941 258.975V224.978C828.829 223.608 826.659 222.923 824.433 222.923C821.693 222.923 819.352 224.521 817.411 227.719C815.47 230.858 814.499 235.825 814.499 242.619C814.499 249.413 815.413 254.208 817.24 257.006C819.066 259.746 821.436 261.116 824.347 261.116ZM870.466 220.525C874.177 220.525 877.345 221.296 879.971 222.837C882.598 224.322 884.596 226.377 885.966 229.003C887.393 231.572 888.107 234.512 888.107 237.823C888.107 238.451 888.078 239.108 888.021 239.793C887.964 240.421 887.85 240.992 887.679 241.506H862.159C862.217 247.671 863.301 252.124 865.414 254.865C867.583 257.548 870.78 258.89 875.005 258.89C877.859 258.89 880.171 258.433 881.941 257.519C883.711 256.606 885.366 255.264 886.908 253.495L887.764 254.265C885.994 257.405 883.625 259.86 880.657 261.63C877.745 263.4 874.234 264.285 870.123 264.285C866.07 264.285 862.473 263.428 859.334 261.715C856.194 259.946 853.739 257.434 851.969 254.18C850.199 250.926 849.314 247.043 849.314 242.533C849.314 237.852 850.342 233.884 852.397 230.63C854.452 227.319 857.078 224.807 860.276 223.094C863.53 221.382 866.926 220.525 870.466 220.525ZM870.209 222.238C868.554 222.238 867.126 222.752 865.927 223.779C864.786 224.75 863.872 226.52 863.187 229.089C862.559 231.601 862.217 235.169 862.159 239.793H876.803C877.374 233.57 877.146 229.089 876.118 226.348C875.09 223.608 873.121 222.238 870.209 222.238ZM890.947 263V262.144L892.232 261.801C893.374 261.459 894.144 260.945 894.544 260.26C895.001 259.575 895.229 258.69 895.229 257.605V230.801C895.229 229.545 895.001 228.632 894.544 228.061C894.144 227.433 893.374 227.005 892.232 226.777L890.947 226.434V225.578L905.676 220.611L906.533 221.467L907.303 228.832V229.517C908.103 227.918 909.13 226.463 910.386 225.149C911.699 223.779 913.127 222.666 914.668 221.81C916.267 220.953 917.836 220.525 919.378 220.525C921.547 220.525 923.203 221.125 924.345 222.324C925.487 223.522 926.057 225.035 926.057 226.862C926.057 228.803 925.487 230.316 924.345 231.401C923.26 232.428 921.947 232.942 920.406 232.942C918.008 232.942 915.895 231.743 914.069 229.346L913.897 229.174C913.326 228.375 912.67 227.947 911.928 227.89C911.186 227.776 910.5 228.118 909.872 228.917C909.302 229.431 908.816 230.059 908.417 230.801C908.074 231.486 907.732 232.286 907.389 233.199V257.091C907.389 259.375 908.388 260.802 910.386 261.373L913.127 262.144V263H890.947ZM941.298 264.285C938.501 264.285 935.989 263.942 933.762 263.257C931.536 262.629 929.481 261.83 927.597 260.859L927.682 250.669H928.539L931.45 255.807C932.706 258.09 934.076 259.803 935.561 260.945C937.102 262.029 939.043 262.572 941.384 262.572C944.124 262.572 946.322 261.972 947.978 260.773C949.69 259.518 950.547 257.862 950.547 255.807C950.547 253.923 949.947 252.381 948.748 251.182C947.549 249.984 945.323 248.899 942.069 247.928L938.472 246.815C934.99 245.787 932.249 244.189 930.251 242.02C928.253 239.85 927.254 237.195 927.254 234.055C927.254 230.288 928.738 227.091 931.707 224.464C934.676 221.838 938.929 220.525 944.467 220.525C946.693 220.525 948.777 220.782 950.718 221.296C952.716 221.753 954.629 222.466 956.455 223.437L955.942 232.685H955.085L952.088 227.376C951.003 225.492 949.919 224.179 948.834 223.437C947.806 222.638 946.236 222.238 944.124 222.238C942.183 222.238 940.356 222.78 938.643 223.865C936.931 224.95 936.074 226.491 936.074 228.489C936.074 230.43 936.788 231.972 938.215 233.113C939.7 234.255 941.869 235.311 944.724 236.282L948.577 237.395C952.688 238.651 955.628 240.392 957.397 242.619C959.167 244.788 960.052 247.414 960.052 250.497C960.052 254.665 958.397 258.005 955.085 260.517C951.831 263.029 947.235 264.285 941.298 264.285ZM995.846 264.285C992.193 264.285 989.338 263.371 987.283 261.544C985.285 259.717 984.286 256.806 984.286 252.809V223.522H978.377V222.666L980.432 222.324C982.202 221.924 983.715 221.353 984.971 220.611C986.284 219.869 987.568 218.87 988.824 217.614L995.846 209.821H996.703L996.446 221.81H1006.04V223.522H996.36V254.351C996.36 256.349 996.788 257.862 997.645 258.89C998.558 259.917 999.7 260.431 1001.07 260.431C1002.27 260.431 1003.33 260.146 1004.24 259.575C1005.15 258.947 1006.07 258.119 1006.98 257.091L1007.84 257.948C1006.69 259.889 1005.12 261.43 1003.13 262.572C1001.13 263.714 998.701 264.285 995.846 264.285ZM1030.51 264.285C1026.17 264.285 1022.4 263.4 1019.2 261.63C1016 259.803 1013.52 257.234 1011.75 253.923C1010.04 250.612 1009.18 246.729 1009.18 242.276C1009.18 237.823 1010.1 233.97 1011.92 230.716C1013.81 227.462 1016.35 224.95 1019.54 223.18C1022.8 221.41 1026.45 220.525 1030.51 220.525C1034.56 220.525 1038.18 221.41 1041.38 223.18C1044.58 224.893 1047.09 227.376 1048.92 230.63C1050.8 233.884 1051.74 237.766 1051.74 242.276C1051.74 246.787 1050.86 250.697 1049.09 254.008C1047.38 257.262 1044.92 259.803 1041.72 261.63C1038.58 263.4 1034.84 264.285 1030.51 264.285ZM1030.51 262.572C1032.5 262.572 1034.1 262.001 1035.3 260.859C1036.5 259.717 1037.36 257.691 1037.87 254.779C1038.44 251.867 1038.73 247.757 1038.73 242.448C1038.73 237.081 1038.44 232.942 1037.87 230.031C1037.36 227.119 1036.5 225.092 1035.3 223.951C1034.1 222.809 1032.5 222.238 1030.51 222.238C1028.51 222.238 1026.88 222.809 1025.62 223.951C1024.43 225.092 1023.54 227.119 1022.97 230.031C1022.46 232.942 1022.2 237.081 1022.2 242.448C1022.2 247.757 1022.46 251.867 1022.97 254.779C1023.54 257.691 1024.43 259.717 1025.62 260.859C1026.88 262.001 1028.51 262.572 1030.51 262.572ZM147.64 353V352.144L148.839 351.801C150.837 351.23 151.836 349.832 151.836 347.605V320.801C151.836 319.545 151.636 318.632 151.237 318.061C150.837 317.433 150.066 317.005 148.924 316.777L147.64 316.434V315.578L162.283 310.611L163.14 311.467L163.825 316.605C165.823 314.835 168.078 313.38 170.59 312.238C173.102 311.096 175.585 310.525 178.04 310.525C181.808 310.525 184.691 311.553 186.689 313.608C188.744 315.663 189.772 318.803 189.772 323.028V347.691C189.772 349.917 190.857 351.316 193.026 351.887L193.797 352.144V353H173.587V352.144L174.7 351.801C176.699 351.173 177.698 349.774 177.698 347.605V320.288C177.698 316.634 175.871 314.807 172.217 314.807C169.705 314.807 166.965 316.063 163.996 318.575V347.691C163.996 349.917 164.995 351.316 166.993 351.887L167.764 352.144V353H147.64ZM207.721 354.285C204.41 354.285 201.612 353.343 199.329 351.459C197.102 349.575 195.989 346.863 195.989 343.323C195.989 340.64 197.359 338.185 200.1 335.959C202.84 333.675 207.15 331.962 213.03 330.821C213.944 330.649 214.971 330.478 216.113 330.307C217.255 330.078 218.454 329.85 219.71 329.622V322.857C219.71 318.974 219.225 316.263 218.254 314.721C217.341 313.123 215.885 312.324 213.887 312.324C212.517 312.324 211.432 312.78 210.633 313.694C209.833 314.55 209.32 316.063 209.091 318.232L208.92 319.174C208.806 321.629 208.206 323.427 207.122 324.569C206.037 325.711 204.695 326.282 203.097 326.282C201.612 326.282 200.385 325.825 199.414 324.912C198.444 323.998 197.959 322.771 197.959 321.23C197.959 318.889 198.758 316.919 200.356 315.321C202.012 313.722 204.181 312.523 206.865 311.724C209.548 310.925 212.459 310.525 215.599 310.525C220.68 310.525 224.591 311.781 227.331 314.293C230.129 316.748 231.527 320.773 231.527 326.368V345.293C231.527 347.862 232.726 349.146 235.124 349.146H237.008L237.779 349.832C236.694 351.202 235.495 352.258 234.182 353C232.926 353.742 231.128 354.113 228.787 354.113C226.275 354.113 224.277 353.542 222.793 352.401C221.366 351.202 220.424 349.632 219.967 347.691C218.254 349.518 216.484 351.087 214.657 352.401C212.888 353.657 210.576 354.285 207.721 354.285ZM212.945 349.061C214.087 349.061 215.143 348.804 216.113 348.29C217.141 347.719 218.34 346.863 219.71 345.721V331.334C219.139 331.449 218.568 331.563 217.997 331.677C217.426 331.791 216.77 331.905 216.028 332.02C213.401 332.705 211.289 333.875 209.691 335.531C208.149 337.129 207.379 339.298 207.379 342.039C207.379 344.379 207.921 346.149 209.006 347.348C210.09 348.49 211.403 349.061 212.945 349.061ZM255.623 353.257L240.466 316.862C239.667 314.921 238.297 313.637 236.356 313.009L235.157 312.666V311.81H257.336V312.666L255.795 313.009C253.568 313.58 252.883 315.064 253.739 317.462L262.731 341.354L271.123 317.633C271.58 316.491 271.694 315.549 271.466 314.807C271.237 314.065 270.552 313.522 269.411 313.18L267.27 312.666V311.81H279.687V312.666L277.203 313.266C276.119 313.551 275.262 313.979 274.634 314.55C274.063 315.121 273.578 315.977 273.178 317.119L260.59 353.257H255.623ZM290.7 306.072C288.759 306.072 287.103 305.473 285.733 304.274C284.42 303.018 283.764 301.448 283.764 299.564C283.764 297.623 284.42 296.053 285.733 294.854C287.103 293.655 288.759 293.056 290.7 293.056C292.641 293.056 294.268 293.655 295.581 294.854C296.894 296.053 297.551 297.623 297.551 299.564C297.551 301.448 296.894 303.018 295.581 304.274C294.268 305.473 292.641 306.072 290.7 306.072ZM280.595 353V352.144L281.794 351.801C282.936 351.459 283.706 350.945 284.106 350.26C284.563 349.575 284.791 348.661 284.791 347.519V320.716C284.791 319.517 284.563 318.632 284.106 318.061C283.706 317.433 282.936 317.005 281.794 316.777L280.595 316.52V315.663L296.266 310.611L297.123 311.467L296.866 323.627V347.605C296.866 348.747 297.065 349.66 297.465 350.345C297.922 351.03 298.692 351.544 299.777 351.887L300.634 352.144V353H280.595ZM321.666 338.185C317.727 338.185 314.387 337.529 311.647 336.216V339.127C311.647 340.897 312.532 341.953 314.301 342.296L330.401 345.293C333.084 345.807 335.51 346.492 337.68 347.348C339.849 348.147 341.59 349.318 342.903 350.859C344.216 352.343 344.873 354.399 344.873 357.025C344.873 359.822 343.96 362.391 342.133 364.732C340.306 367.13 337.594 369.042 333.997 370.469C330.458 371.954 326.033 372.696 320.724 372.696C316.157 372.696 312.532 372.211 309.848 371.24C307.165 370.327 305.253 369.128 304.111 367.644C303.026 366.159 302.484 364.589 302.484 362.934C302.484 360.878 303.169 358.795 304.539 356.682C305.966 354.627 307.708 352.971 309.763 351.715C307.993 351.03 306.708 350.146 305.909 349.061C305.11 347.976 304.71 346.806 304.71 345.55C304.71 344.408 304.996 343.352 305.567 342.381C306.195 341.354 306.937 340.326 307.793 339.298L310.619 335.702C306.452 333.304 304.368 329.536 304.368 324.398C304.368 320.288 305.824 316.948 308.735 314.379C311.704 311.81 316.043 310.525 321.752 310.525C324.663 310.525 327.204 310.868 329.373 311.553C331.6 312.238 333.427 313.208 334.854 314.464C336.681 314.179 338.393 313.722 339.992 313.094C341.647 312.409 343.132 311.496 344.445 310.354L345.644 311.21V315.578H335.967C338.022 317.861 339.05 320.801 339.05 324.398C339.05 328.394 337.566 331.706 334.597 334.332C331.685 336.901 327.375 338.185 321.666 338.185ZM321.58 336.473C323.864 336.473 325.52 335.531 326.547 333.647C327.632 331.763 328.174 328.623 328.174 324.227C328.174 319.831 327.632 316.748 326.547 314.978C325.52 313.151 323.921 312.238 321.752 312.238C319.639 312.238 318.041 313.18 316.956 315.064C315.871 316.891 315.329 320.002 315.329 324.398C315.329 328.794 315.814 331.905 316.785 333.732C317.812 335.559 319.411 336.473 321.58 336.473ZM308.821 360.193C308.821 363.562 309.848 366.102 311.904 367.815C314.016 369.527 317.327 370.384 321.837 370.384C326.576 370.384 330.144 369.613 332.542 368.072C334.939 366.53 336.138 364.361 336.138 361.563C336.138 359.965 335.539 358.68 334.34 357.71C333.198 356.739 331.229 355.997 328.431 355.483L312.931 352.572C312.475 352.458 312.018 352.343 311.561 352.229C310.762 353.371 310.105 354.656 309.592 356.083C309.078 357.567 308.821 358.937 308.821 360.193ZM358.145 354.285C354.834 354.285 352.036 353.343 349.753 351.459C347.526 349.575 346.413 346.863 346.413 343.323C346.413 340.64 347.783 338.185 350.523 335.959C353.264 333.675 357.574 331.962 363.454 330.821C364.368 330.649 365.395 330.478 366.537 330.307C367.679 330.078 368.878 329.85 370.134 329.622V322.857C370.134 318.974 369.648 316.263 368.678 314.721C367.764 313.123 366.309 312.324 364.311 312.324C362.94 312.324 361.856 312.78 361.056 313.694C360.257 314.55 359.743 316.063 359.515 318.232L359.344 319.174C359.23 321.629 358.63 323.427 357.545 324.569C356.461 325.711 355.119 326.282 353.521 326.282C352.036 326.282 350.809 325.825 349.838 324.912C348.868 323.998 348.382 322.771 348.382 321.23C348.382 318.889 349.182 316.919 350.78 315.321C352.436 313.722 354.605 312.523 357.288 311.724C359.972 310.925 362.883 310.525 366.023 310.525C371.104 310.525 375.015 311.781 377.755 314.293C380.553 316.748 381.951 320.773 381.951 326.368V345.293C381.951 347.862 383.15 349.146 385.548 349.146H387.432L388.203 349.832C387.118 351.202 385.919 352.258 384.606 353C383.35 353.742 381.552 354.113 379.211 354.113C376.699 354.113 374.701 353.542 373.217 352.401C371.789 351.202 370.847 349.632 370.391 347.691C368.678 349.518 366.908 351.087 365.081 352.401C363.311 353.657 360.999 354.285 358.145 354.285ZM363.369 349.061C364.51 349.061 365.566 348.804 366.537 348.29C367.565 347.719 368.764 346.863 370.134 345.721V331.334C369.563 331.449 368.992 331.563 368.421 331.677C367.85 331.791 367.194 331.905 366.451 332.02C363.825 332.705 361.713 333.875 360.114 335.531C358.573 337.129 357.802 339.298 357.802 342.039C357.802 344.379 358.345 346.149 359.429 347.348C360.514 348.49 361.827 349.061 363.369 349.061ZM404.808 354.285C401.154 354.285 398.3 353.371 396.245 351.544C394.247 349.717 393.247 346.806 393.247 342.809V313.522H387.339V312.666L389.394 312.324C391.164 311.924 392.677 311.353 393.933 310.611C395.246 309.869 396.53 308.87 397.786 307.614L404.808 299.821H405.664L405.408 311.81H414.999V313.522H405.322V344.351C405.322 346.349 405.75 347.862 406.606 348.89C407.52 349.917 408.662 350.431 410.032 350.431C411.231 350.431 412.287 350.146 413.2 349.575C414.114 348.947 415.027 348.119 415.941 347.091L416.797 347.948C415.655 349.889 414.085 351.43 412.087 352.572C410.089 353.714 407.663 354.285 404.808 354.285ZM439.296 310.525C443.007 310.525 446.175 311.296 448.801 312.837C451.428 314.322 453.426 316.377 454.796 319.003C456.223 321.572 456.937 324.512 456.937 327.823C456.937 328.451 456.908 329.108 456.851 329.793C456.794 330.421 456.68 330.992 456.508 331.506H430.989C431.046 337.671 432.131 342.124 434.243 344.865C436.413 347.548 439.61 348.89 443.835 348.89C446.689 348.89 449.001 348.433 450.771 347.519C452.541 346.606 454.196 345.264 455.738 343.495L456.594 344.265C454.824 347.405 452.455 349.86 449.486 351.63C446.575 353.4 443.064 354.285 438.953 354.285C434.9 354.285 431.303 353.428 428.163 351.715C425.023 349.946 422.569 347.434 420.799 344.18C419.029 340.926 418.144 337.043 418.144 332.533C418.144 327.852 419.172 323.884 421.227 320.63C423.282 317.319 425.908 314.807 429.105 313.094C432.36 311.382 435.756 310.525 439.296 310.525ZM439.039 312.238C437.383 312.238 435.956 312.752 434.757 313.779C433.615 314.75 432.702 316.52 432.017 319.089C431.389 321.601 431.046 325.169 430.989 329.793H445.633C446.204 323.57 445.975 319.089 444.948 316.348C443.92 313.608 441.951 312.238 439.039 312.238ZM477.256 353V352.144L478.283 351.801C480.339 351.116 481.366 349.689 481.366 347.519V301.705C481.366 300.563 481.138 299.707 480.681 299.136C480.224 298.508 479.425 298.051 478.283 297.766L477.17 297.509V296.652L492.841 292.97L493.869 293.741L493.526 305.73V335.017C493.526 337.129 493.526 339.241 493.526 341.354C493.583 343.409 493.612 345.464 493.612 347.519C493.612 348.661 493.84 349.603 494.297 350.345C494.754 351.03 495.524 351.544 496.609 351.887L497.722 352.144V353H477.256ZM521.569 310.525C525.28 310.525 528.448 311.296 531.074 312.837C533.7 314.322 535.699 316.377 537.069 319.003C538.496 321.572 539.21 324.512 539.21 327.823C539.21 328.451 539.181 329.108 539.124 329.793C539.067 330.421 538.953 330.992 538.781 331.506H513.262C513.319 337.671 514.404 342.124 516.516 344.865C518.686 347.548 521.883 348.89 526.107 348.89C528.962 348.89 531.274 348.433 533.044 347.519C534.814 346.606 536.469 345.264 538.011 343.495L538.867 344.265C537.097 347.405 534.728 349.86 531.759 351.63C528.848 353.4 525.337 354.285 521.226 354.285C517.173 354.285 513.576 353.428 510.436 351.715C507.296 349.946 504.841 347.434 503.072 344.18C501.302 340.926 500.417 337.043 500.417 332.533C500.417 327.852 501.445 323.884 503.5 320.63C505.555 317.319 508.181 314.807 511.378 313.094C514.632 311.382 518.029 310.525 521.569 310.525ZM521.312 312.238C519.656 312.238 518.229 312.752 517.03 313.779C515.888 314.75 514.975 316.52 514.29 319.089C513.662 321.601 513.319 325.169 513.262 329.793H527.906C528.477 323.57 528.248 319.089 527.221 316.348C526.193 313.608 524.223 312.238 521.312 312.238ZM560.718 338.185C556.779 338.185 553.439 337.529 550.699 336.216V339.127C550.699 340.897 551.584 341.953 553.354 342.296L569.453 345.293C572.136 345.807 574.563 346.492 576.732 347.348C578.901 348.147 580.643 349.318 581.956 350.859C583.269 352.343 583.925 354.399 583.925 357.025C583.925 359.822 583.012 362.391 581.185 364.732C579.358 367.13 576.646 369.042 573.05 370.469C569.51 371.954 565.086 372.696 559.776 372.696C555.209 372.696 551.584 372.211 548.901 371.24C546.218 370.327 544.305 369.128 543.163 367.644C542.079 366.159 541.536 364.589 541.536 362.934C541.536 360.878 542.221 358.795 543.591 356.682C545.019 354.627 546.76 352.971 548.815 351.715C547.045 351.03 545.761 350.146 544.962 349.061C544.162 347.976 543.763 346.806 543.763 345.55C543.763 344.408 544.048 343.352 544.619 342.381C545.247 341.354 545.989 340.326 546.846 339.298L549.671 335.702C545.504 333.304 543.42 329.536 543.42 324.398C543.42 320.288 544.876 316.948 547.787 314.379C550.756 311.81 555.095 310.525 560.804 310.525C563.716 310.525 566.256 310.868 568.425 311.553C570.652 312.238 572.479 313.208 573.906 314.464C575.733 314.179 577.446 313.722 579.044 313.094C580.7 312.409 582.184 311.496 583.497 310.354L584.696 311.21V315.578H575.019C577.075 317.861 578.102 320.801 578.102 324.398C578.102 328.394 576.618 331.706 573.649 334.332C570.738 336.901 566.427 338.185 560.718 338.185ZM560.633 336.473C562.916 336.473 564.572 335.531 565.6 333.647C566.684 331.763 567.227 328.623 567.227 324.227C567.227 319.831 566.684 316.748 565.6 314.978C564.572 313.151 562.973 312.238 560.804 312.238C558.692 312.238 557.093 313.18 556.008 315.064C554.924 316.891 554.381 320.002 554.381 324.398C554.381 328.794 554.867 331.905 555.837 333.732C556.865 335.559 558.463 336.473 560.633 336.473ZM547.873 360.193C547.873 363.562 548.901 366.102 550.956 367.815C553.068 369.527 556.38 370.384 560.89 370.384C565.628 370.384 569.196 369.613 571.594 368.072C573.992 366.53 575.191 364.361 575.191 361.563C575.191 359.965 574.591 358.68 573.392 357.71C572.25 356.739 570.281 355.997 567.483 355.483L551.984 352.572C551.527 352.458 551.07 352.343 550.613 352.229C549.814 353.371 549.158 354.656 548.644 356.083C548.13 357.567 547.873 358.937 547.873 360.193ZM597.197 354.285C593.886 354.285 591.089 353.343 588.805 351.459C586.578 349.575 585.465 346.863 585.465 343.323C585.465 340.64 586.835 338.185 589.576 335.959C592.316 333.675 596.626 331.962 602.506 330.821C603.42 330.649 604.448 330.478 605.589 330.307C606.731 330.078 607.93 329.85 609.186 329.622V322.857C609.186 318.974 608.701 316.263 607.73 314.721C606.817 313.123 605.361 312.324 603.363 312.324C601.993 312.324 600.908 312.78 600.109 313.694C599.309 314.55 598.796 316.063 598.567 318.232L598.396 319.174C598.282 321.629 597.682 323.427 596.598 324.569C595.513 325.711 594.171 326.282 592.573 326.282C591.089 326.282 589.861 325.825 588.891 324.912C587.92 323.998 587.435 322.771 587.435 321.23C587.435 318.889 588.234 316.919 589.833 315.321C591.488 313.722 593.658 312.523 596.341 311.724C599.024 310.925 601.936 310.525 605.076 310.525C610.157 310.525 614.067 311.781 616.807 314.293C619.605 316.748 621.004 320.773 621.004 326.368V345.293C621.004 347.862 622.202 349.146 624.6 349.146H626.484L627.255 349.832C626.17 351.202 624.971 352.258 623.658 353C622.402 353.742 620.604 354.113 618.263 354.113C615.751 354.113 613.753 353.542 612.269 352.401C610.842 351.202 609.9 349.632 609.443 347.691C607.73 349.518 605.96 351.087 604.134 352.401C602.364 353.657 600.052 354.285 597.197 354.285ZM602.421 349.061C603.563 349.061 604.619 348.804 605.589 348.29C606.617 347.719 607.816 346.863 609.186 345.721V331.334C608.615 331.449 608.044 331.563 607.473 331.677C606.902 331.791 606.246 331.905 605.504 332.02C602.878 332.705 600.765 333.875 599.167 335.531C597.625 337.129 596.855 339.298 596.855 342.039C596.855 344.379 597.397 346.149 598.482 347.348C599.566 348.49 600.879 349.061 602.421 349.061ZM627.847 353V352.144L628.874 351.801C630.93 351.116 631.957 349.689 631.957 347.519V301.705C631.957 300.563 631.729 299.707 631.272 299.136C630.815 298.508 630.016 298.051 628.874 297.766L627.761 297.509V296.652L643.432 292.97L644.46 293.741L644.117 305.73V335.017C644.117 337.129 644.117 339.241 644.117 341.354C644.174 343.409 644.203 345.464 644.203 347.519C644.203 348.661 644.431 349.603 644.888 350.345C645.345 351.03 646.115 351.544 647.2 351.887L648.313 352.144V353H627.847ZM689.125 354.285C685.243 354.285 681.703 353.457 678.506 351.801C675.366 350.088 672.854 347.634 670.97 344.437C669.143 341.182 668.23 337.215 668.23 332.533C668.23 327.909 669.229 323.97 671.227 320.716C673.282 317.405 675.994 314.893 679.362 313.18C682.788 311.41 686.527 310.525 690.58 310.525C693.892 310.525 696.689 311.068 698.973 312.152C701.256 313.237 702.997 314.664 704.196 316.434C705.395 318.147 705.995 319.945 705.995 321.829C705.995 323.427 705.509 324.683 704.539 325.597C703.568 326.453 702.312 326.881 700.771 326.881C699.115 326.881 697.774 326.282 696.746 325.083C695.719 323.884 695.119 322.314 694.948 320.373C694.891 319.117 694.919 318.061 695.033 317.205C695.148 316.291 695.148 315.378 695.033 314.464C694.805 313.494 694.434 312.866 693.92 312.58C693.463 312.238 692.807 312.067 691.951 312.067C688.468 312.067 685.756 313.58 683.815 316.605C681.931 319.631 680.989 324.455 680.989 331.078C680.989 336.844 682.046 341.268 684.158 344.351C686.327 347.377 689.638 348.89 694.091 348.89C696.775 348.89 698.944 348.404 700.6 347.434C702.255 346.463 703.854 345.007 705.395 343.066L706.252 343.751C704.824 347.12 702.626 349.717 699.658 351.544C696.689 353.371 693.178 354.285 689.125 354.285ZM707.193 353V352.144L708.22 351.801C710.275 351.116 711.303 349.689 711.303 347.519V301.79C711.303 300.592 711.103 299.707 710.704 299.136C710.304 298.565 709.533 298.137 708.392 297.851L707.107 297.509V296.652L722.179 292.97L723.549 293.741L723.206 305.815V316.52C725.204 314.864 727.345 313.465 729.629 312.324C731.97 311.125 734.539 310.525 737.336 310.525C741.047 310.525 743.987 311.581 746.156 313.694C748.383 315.806 749.496 319.06 749.496 323.456V347.605C749.496 348.747 749.725 349.66 750.181 350.345C750.638 351.03 751.437 351.544 752.579 351.887L753.264 352.144V353H733.226V352.144L734.253 351.887C736.308 351.202 737.336 349.746 737.336 347.519V320.63C737.336 318.347 736.936 316.777 736.137 315.92C735.395 315.064 734.053 314.636 732.112 314.636C730.856 314.636 729.486 314.893 728.002 315.406C726.518 315.863 725.005 316.691 723.463 317.89V347.691C723.463 349.917 724.491 351.344 726.546 351.972L727.231 352.144V353H707.193ZM767.184 354.285C763.873 354.285 761.076 353.343 758.792 351.459C756.566 349.575 755.452 346.863 755.452 343.323C755.452 340.64 756.822 338.185 759.563 335.959C762.303 333.675 766.613 331.962 772.494 330.821C773.407 330.649 774.435 330.478 775.576 330.307C776.718 330.078 777.917 329.85 779.173 329.622V322.857C779.173 318.974 778.688 316.263 777.717 314.721C776.804 313.123 775.348 312.324 773.35 312.324C771.98 312.324 770.895 312.78 770.096 313.694C769.297 314.55 768.783 316.063 768.554 318.232L768.383 319.174C768.269 321.629 767.669 323.427 766.585 324.569C765.5 325.711 764.158 326.282 762.56 326.282C761.076 326.282 759.848 325.825 758.878 324.912C757.907 323.998 757.422 322.771 757.422 321.23C757.422 318.889 758.221 316.919 759.82 315.321C761.475 313.722 763.645 312.523 766.328 311.724C769.011 310.925 771.923 310.525 775.063 310.525C780.144 310.525 784.054 311.781 786.795 314.293C789.592 316.748 790.991 320.773 790.991 326.368V345.293C790.991 347.862 792.19 349.146 794.587 349.146H796.471L797.242 349.832C796.157 351.202 794.958 352.258 793.645 353C792.389 353.742 790.591 354.113 788.25 354.113C785.738 354.113 783.74 353.542 782.256 352.401C780.829 351.202 779.887 349.632 779.43 347.691C777.717 349.518 775.948 351.087 774.121 352.401C772.351 353.657 770.039 354.285 767.184 354.285ZM772.408 349.061C773.55 349.061 774.606 348.804 775.576 348.29C776.604 347.719 777.803 346.863 779.173 345.721V331.334C778.602 331.449 778.031 331.563 777.46 331.677C776.889 331.791 776.233 331.905 775.491 332.02C772.865 332.705 770.752 333.875 769.154 335.531C767.612 337.129 766.842 339.298 766.842 342.039C766.842 344.379 767.384 346.149 768.469 347.348C769.553 348.49 770.867 349.061 772.408 349.061ZM797.834 353V352.144L798.861 351.801C800.917 351.116 801.944 349.689 801.944 347.519V301.705C801.944 300.563 801.716 299.707 801.259 299.136C800.803 298.508 800.003 298.051 798.861 297.766L797.748 297.509V296.652L813.419 292.97L814.447 293.741L814.104 305.73V335.017C814.104 337.129 814.104 339.241 814.104 341.354C814.162 343.409 814.19 345.464 814.19 347.519C814.19 348.661 814.418 349.603 814.875 350.345C815.332 351.03 816.103 351.544 817.187 351.887L818.301 352.144V353H797.834ZM820.909 353V352.144L821.937 351.801C823.992 351.116 825.02 349.689 825.02 347.519V301.705C825.02 300.563 824.792 299.707 824.335 299.136C823.878 298.508 823.079 298.051 821.937 297.766L820.824 297.509V296.652L836.495 292.97L837.523 293.741L837.18 305.73V335.017C837.18 337.129 837.18 339.241 837.18 341.354C837.237 343.409 837.266 345.464 837.266 347.519C837.266 348.661 837.494 349.603 837.951 350.345C838.407 351.03 839.178 351.544 840.263 351.887L841.376 352.144V353H820.909ZM865.223 310.525C868.933 310.525 872.102 311.296 874.728 312.837C877.354 314.322 879.352 316.377 880.722 319.003C882.15 321.572 882.863 324.512 882.863 327.823C882.863 328.451 882.835 329.108 882.778 329.793C882.721 330.421 882.606 330.992 882.435 331.506H856.916C856.973 337.671 858.058 342.124 860.17 344.865C862.339 347.548 865.536 348.89 869.761 348.89C872.616 348.89 874.928 348.433 876.698 347.519C878.467 346.606 880.123 345.264 881.664 343.495L882.521 344.265C880.751 347.405 878.382 349.86 875.413 351.63C872.501 353.4 868.99 354.285 864.88 354.285C860.827 354.285 857.23 353.428 854.09 351.715C850.95 349.946 848.495 347.434 846.725 344.18C844.956 340.926 844.071 337.043 844.071 332.533C844.071 327.852 845.098 323.884 847.154 320.63C849.209 317.319 851.835 314.807 855.032 313.094C858.286 311.382 861.683 310.525 865.223 310.525ZM864.966 312.238C863.31 312.238 861.883 312.752 860.684 313.779C859.542 314.75 858.629 316.52 857.944 319.089C857.316 321.601 856.973 325.169 856.916 329.793H871.559C872.13 323.57 871.902 319.089 870.874 316.348C869.847 313.608 867.877 312.238 864.966 312.238ZM885.704 353V352.144L886.903 351.801C888.901 351.23 889.9 349.832 889.9 347.605V320.801C889.9 319.545 889.7 318.632 889.3 318.061C888.901 317.433 888.13 317.005 886.988 316.777L885.704 316.434V315.578L900.347 310.611L901.204 311.467L901.889 316.605C903.887 314.835 906.142 313.38 908.654 312.238C911.166 311.096 913.649 310.525 916.104 310.525C919.872 310.525 922.755 311.553 924.753 313.608C926.808 315.663 927.836 318.803 927.836 323.028V347.691C927.836 349.917 928.921 351.316 931.09 351.887L931.861 352.144V353H911.651V352.144L912.764 351.801C914.762 351.173 915.761 349.774 915.761 347.605V320.288C915.761 316.634 913.935 314.807 910.281 314.807C907.769 314.807 905.029 316.063 902.06 318.575V347.691C902.06 349.917 903.059 351.316 905.057 351.887L905.828 352.144V353H885.704ZM952.452 338.185C948.513 338.185 945.173 337.529 942.433 336.216V339.127C942.433 340.897 943.318 341.953 945.088 342.296L961.187 345.293C963.87 345.807 966.297 346.492 968.466 347.348C970.635 348.147 972.377 349.318 973.69 350.859C975.003 352.343 975.659 354.399 975.659 357.025C975.659 359.822 974.746 362.391 972.919 364.732C971.092 367.13 968.38 369.042 964.784 370.469C961.244 371.954 956.82 372.696 951.51 372.696C946.943 372.696 943.318 372.211 940.635 371.24C937.952 370.327 936.039 369.128 934.897 367.644C933.813 366.159 933.27 364.589 933.27 362.934C933.27 360.878 933.955 358.795 935.325 356.682C936.753 354.627 938.494 352.971 940.549 351.715C938.779 351.03 937.495 350.146 936.696 349.061C935.896 347.976 935.497 346.806 935.497 345.55C935.497 344.408 935.782 343.352 936.353 342.381C936.981 341.354 937.723 340.326 938.58 339.298L941.405 335.702C937.238 333.304 935.154 329.536 935.154 324.398C935.154 320.288 936.61 316.948 939.522 314.379C942.49 311.81 946.829 310.525 952.538 310.525C955.45 310.525 957.99 310.868 960.159 311.553C962.386 312.238 964.213 313.208 965.64 314.464C967.467 314.179 969.18 313.722 970.778 313.094C972.434 312.409 973.918 311.496 975.231 310.354L976.43 311.21V315.578H966.753C968.809 317.861 969.836 320.801 969.836 324.398C969.836 328.394 968.352 331.706 965.383 334.332C962.472 336.901 958.161 338.185 952.452 338.185ZM952.367 336.473C954.65 336.473 956.306 335.531 957.334 333.647C958.418 331.763 958.961 328.623 958.961 324.227C958.961 319.831 958.418 316.748 957.334 314.978C956.306 313.151 954.707 312.238 952.538 312.238C950.426 312.238 948.827 313.18 947.742 315.064C946.658 316.891 946.115 320.002 946.115 324.398C946.115 328.794 946.601 331.905 947.571 333.732C948.599 335.559 950.197 336.473 952.367 336.473ZM939.607 360.193C939.607 363.562 940.635 366.102 942.69 367.815C944.802 369.527 948.114 370.384 952.624 370.384C957.362 370.384 960.93 369.613 963.328 368.072C965.726 366.53 966.925 364.361 966.925 361.563C966.925 359.965 966.325 358.68 965.126 357.71C963.984 356.739 962.015 355.997 959.217 355.483L943.718 352.572C943.261 352.458 942.804 352.343 942.347 352.229C941.548 353.371 940.892 354.656 940.378 356.083C939.864 357.567 939.607 358.937 939.607 360.193ZM998.006 310.525C1001.72 310.525 1004.89 311.296 1007.51 312.837C1010.14 314.322 1012.14 316.377 1013.51 319.003C1014.93 321.572 1015.65 324.512 1015.65 327.823C1015.65 328.451 1015.62 329.108 1015.56 329.793C1015.5 330.421 1015.39 330.992 1015.22 331.506H989.7C989.757 337.671 990.842 342.124 992.954 344.865C995.123 347.548 998.32 348.89 1002.55 348.89C1005.4 348.89 1007.71 348.433 1009.48 347.519C1011.25 346.606 1012.91 345.264 1014.45 343.495L1015.3 344.265C1013.53 347.405 1011.17 349.86 1008.2 351.63C1005.29 353.4 1001.77 354.285 997.664 354.285C993.611 354.285 990.014 353.428 986.874 351.715C983.734 349.946 981.279 347.434 979.509 344.18C977.74 340.926 976.855 337.043 976.855 332.533C976.855 327.852 977.882 323.884 979.938 320.63C981.993 317.319 984.619 314.807 987.816 313.094C991.07 311.382 994.467 310.525 998.006 310.525ZM997.75 312.238C996.094 312.238 994.667 312.752 993.468 313.779C992.326 314.75 991.413 316.52 990.727 319.089C990.1 321.601 989.757 325.169 989.7 329.793H1004.34C1004.91 323.57 1004.69 319.089 1003.66 316.348C1002.63 313.608 1000.66 312.238 997.75 312.238ZM1033.3 354.285C1030.5 354.285 1027.99 353.942 1025.77 353.257C1023.54 352.629 1021.48 351.83 1019.6 350.859L1019.69 340.669H1020.54L1023.45 345.807C1024.71 348.09 1026.08 349.803 1027.56 350.945C1029.11 352.029 1031.05 352.572 1033.39 352.572C1036.13 352.572 1038.33 351.972 1039.98 350.773C1041.69 349.518 1042.55 347.862 1042.55 345.807C1042.55 343.923 1041.95 342.381 1040.75 341.182C1039.55 339.984 1037.33 338.899 1034.07 337.928L1030.48 336.815C1026.99 335.787 1024.25 334.189 1022.26 332.02C1020.26 329.85 1019.26 327.195 1019.26 324.055C1019.26 320.288 1020.74 317.091 1023.71 314.464C1026.68 311.838 1030.93 310.525 1036.47 310.525C1038.7 310.525 1040.78 310.782 1042.72 311.296C1044.72 311.753 1046.63 312.466 1048.46 313.437L1047.95 322.685H1047.09L1044.09 317.376C1043.01 315.492 1041.92 314.179 1040.84 313.437C1039.81 312.638 1038.24 312.238 1036.13 312.238C1034.19 312.238 1032.36 312.78 1030.65 313.865C1028.94 314.95 1028.08 316.491 1028.08 318.489C1028.08 320.43 1028.79 321.972 1030.22 323.113C1031.7 324.255 1033.87 325.311 1036.73 326.282L1040.58 327.395C1044.69 328.651 1047.63 330.392 1049.4 332.619C1051.17 334.788 1052.06 337.414 1052.06 340.497C1052.06 344.665 1050.4 348.005 1047.09 350.517C1043.84 353.029 1039.24 354.285 1033.3 354.285Z" fill="#121212"/>
<mask id="mask0_68_2514" style="mask-type:luminance" maskUnits="userSpaceOnUse" x="463" y="525" width="275" height="55">
<path d="M737.919 525H463.081V579.36H737.919V525Z" fill="white"/>
</mask>
<g mask="url(#mask0_68_2514)">
<path d="M658.899 552.805V566.826H655.317V535.752H658.899V547.162H659.203C659.749 545.959 660.571 544.999 661.67 544.287C662.768 543.575 664.23 543.216 666.062 543.216C667.649 543.216 669.04 543.534 670.235 544.165C671.427 544.797 672.357 545.763 673.019 547.063C673.681 548.362 674.012 550.013 674.012 552.016V566.823H670.431V552.259C670.431 550.407 669.953 548.975 668.996 547.957C668.041 546.941 666.716 546.431 665.028 546.431C663.855 546.431 662.806 546.679 661.879 547.173C660.955 547.67 660.226 548.393 659.694 549.342C659.164 550.294 658.896 551.445 658.896 552.802L658.899 552.805Z" fill="#121212"/>
<path d="M691.649 557.297V543.52H695.231V566.826H691.649V562.88H691.406C690.86 564.063 690.01 565.068 688.857 565.89C687.703 566.715 686.246 567.126 684.486 567.126C683.029 567.126 681.735 566.806 680.6 566.163C679.466 565.52 678.578 564.549 677.929 563.249C677.281 561.95 676.958 560.308 676.958 558.327V543.52H680.54V558.084C680.54 559.784 681.017 561.138 681.975 562.151C682.929 563.164 684.152 563.669 685.639 563.669C686.53 563.669 687.438 563.442 688.363 562.987C689.287 562.532 690.068 561.834 690.7 560.893C691.332 559.952 691.649 558.754 691.649 557.297Z" fill="#121212"/>
<path d="M698.575 566.826V535.752H702.157V547.223H702.46C702.723 546.817 703.09 546.301 703.561 545.667C704.031 545.035 704.709 544.469 705.595 543.967C706.481 543.467 707.681 543.216 709.199 543.216C711.161 543.216 712.891 543.707 714.387 544.687C715.882 545.669 717.052 547.06 717.891 548.859C718.73 550.658 719.149 552.783 719.149 555.231C719.149 557.678 718.73 559.836 717.891 561.641C717.052 563.445 715.888 564.842 714.4 565.83C712.913 566.815 711.199 567.309 709.257 567.309C707.759 567.309 706.561 567.057 705.661 566.558C704.762 566.059 704.069 565.487 703.584 564.844C703.098 564.202 702.723 563.669 702.46 563.244H702.035V566.826H698.575ZM702.096 555.173C702.096 556.933 702.356 558.484 702.869 559.822C703.385 561.163 704.138 562.209 705.129 562.963C706.119 563.716 707.334 564.094 708.771 564.094C710.209 564.094 711.52 563.697 712.527 562.902C713.534 562.107 714.293 561.036 714.803 559.684C715.314 558.335 715.57 556.828 715.57 555.17C715.57 553.512 715.319 552.052 714.82 550.733C714.32 549.414 713.564 548.365 712.56 547.593C711.553 546.82 710.292 546.431 708.774 546.431C707.256 546.431 706.095 546.798 705.101 547.532C704.111 548.266 703.363 549.287 702.855 550.598C702.35 551.908 702.096 553.432 702.096 555.173Z" fill="#121212"/>
<path d="M711.902 578.243H659.283C644.981 578.243 633.345 566.606 633.345 552.304V552.028C633.345 537.726 644.981 526.09 659.283 526.09H711.902C726.204 526.09 737.841 537.726 737.841 552.028V552.304C737.841 566.606 726.204 578.243 711.902 578.243ZM659.283 529.953C647.111 529.953 637.208 539.857 637.208 552.028V552.304C637.208 564.476 647.111 574.38 659.283 574.38H711.902C724.074 574.38 733.978 564.476 733.978 552.304V552.028C733.978 539.857 724.074 529.953 711.902 529.953H659.283Z" fill="#121212"/>
<path d="M494.259 538.859C493.95 536.26 492.703 534.24 490.512 532.802C488.321 531.364 485.636 530.647 482.454 530.647C480.128 530.647 478.094 531.022 476.359 531.775C474.623 532.529 473.271 533.564 472.305 534.88C471.339 536.196 470.856 537.694 470.856 539.372C470.856 540.774 471.193 541.977 471.869 542.979C472.545 543.98 473.411 544.811 474.474 545.468C475.533 546.127 476.646 546.665 477.81 547.085C478.974 547.504 480.042 547.841 481.019 548.097L486.356 549.535C487.725 549.894 489.251 550.391 490.937 551.022C492.623 551.654 494.24 552.515 495.788 553.602C497.336 554.69 498.613 556.078 499.623 557.772C500.633 559.466 501.138 561.544 501.138 564.008C501.138 566.848 500.399 569.414 498.919 571.707C497.44 574 495.283 575.821 492.451 577.173C489.62 578.525 486.185 579.202 482.148 579.202C478.384 579.202 475.128 578.594 472.382 577.38C469.637 576.166 467.481 574.472 465.914 572.3C464.35 570.129 463.464 567.604 463.257 564.728H469.827C469.998 566.712 470.669 568.352 471.841 569.643C473.014 570.934 474.501 571.892 476.306 572.518C478.111 573.142 480.056 573.456 482.145 573.456C484.573 573.456 486.756 573.059 488.69 572.264C490.625 571.47 492.156 570.358 493.285 568.928C494.413 567.499 494.979 565.827 494.979 563.912C494.979 562.168 494.491 560.747 493.517 559.651C492.542 558.556 491.259 557.667 489.667 556.983C488.075 556.298 486.356 555.7 484.51 555.186L478.042 553.338C473.936 552.157 470.685 550.473 468.29 548.282C465.895 546.091 464.697 543.227 464.697 539.684C464.697 536.742 465.497 534.171 467.098 531.971C468.698 529.772 470.853 528.061 473.566 526.839C476.279 525.616 479.311 525.004 482.664 525.004C486.016 525.004 489.063 525.608 491.698 526.814C494.333 528.02 496.425 529.667 497.973 531.753C499.521 533.842 500.338 536.21 500.423 538.862H494.264L494.259 538.859Z" fill="#121212"/>
<path d="M539.841 558.401C539.841 561.583 539.141 564.265 537.742 566.442C536.343 568.619 534.56 570.275 532.391 571.403C530.225 572.532 527.968 573.098 525.619 573.098C521.872 573.098 518.801 571.861 516.409 569.389C514.016 566.916 512.819 563.649 512.819 559.588V526.268H506.792V559.96C506.792 564.069 507.526 567.535 508.994 570.355C510.462 573.178 512.482 575.316 515.054 576.77C517.628 578.227 520.573 578.956 523.892 578.956C527.706 578.956 530.934 578.07 533.575 576.299C536.216 574.527 538.147 572.308 539.364 569.646H539.839V578.28H545.865V526.27H539.839V558.404L539.841 558.401Z" fill="#121212"/>
<path d="M562.195 526.205H555.862V578.278H580.021V572.591H562.195V526.205Z" fill="#121212"/>
<path d="M625.94 551.089C625.94 546.732 625.331 542.957 624.111 539.762C622.892 536.569 621.239 533.915 619.15 531.804C617.061 529.693 614.707 528.126 612.091 527.096C609.473 526.07 606.752 525.557 603.932 525.557C599.439 525.557 595.482 526.713 592.064 529.028C588.645 531.343 585.968 534.536 584.039 538.611C582.11 542.687 581.145 547.342 581.145 552.58C581.145 557.817 582.11 562.483 584.039 566.512C585.971 570.541 588.704 573.689 592.25 575.96C595.793 578.228 599.994 579.362 604.848 579.362C608.325 579.362 611.399 578.805 614.075 577.687C616.749 576.57 618.984 575.085 620.781 573.234C622.574 571.382 623.869 569.362 624.658 567.174L618.935 565.312C618.281 566.868 617.314 568.297 616.039 569.594C614.764 570.894 613.195 571.926 611.333 572.693C609.47 573.46 607.309 573.844 604.848 573.844C601.236 573.844 598.109 572.996 595.469 571.305C592.828 569.611 590.791 567.224 589.357 564.144C588.01 561.25 587.295 557.891 587.215 554.07H625.943V551.089H625.94ZM587.254 548.752C587.436 545.852 588.137 543.156 589.354 540.659C590.764 537.77 592.723 535.444 595.229 533.683C597.734 531.923 600.634 531.042 603.932 531.042C607.047 531.042 609.796 531.821 612.177 533.38C614.558 534.936 616.421 537.052 617.765 539.729C619.109 542.403 619.779 545.413 619.779 548.752H587.254Z" fill="#121212"/>
</g>
<rect x="422" y="504" width="356" height="104" fill="#FFFEFB"/>
<g clip-path="url(#clip1_68_2514)">
<path d="M604.167 539.063C603.86 536.458 602.608 534.438 600.415 533C598.222 531.561 595.534 530.841 592.346 530.841C590.016 530.841 587.981 531.218 586.242 531.973C584.504 532.727 583.151 533.762 582.182 535.083C581.214 536.402 580.73 537.902 580.73 539.579C580.73 540.983 581.067 542.187 581.744 543.189C582.42 544.192 583.29 545.022 584.351 545.682C585.413 546.343 586.526 546.88 587.692 547.3C588.858 547.72 589.928 548.057 590.904 548.314L596.248 549.753C597.617 550.114 599.147 550.609 600.835 551.243C602.522 551.876 604.14 552.738 605.692 553.826C607.243 554.915 608.521 556.305 609.532 558.001C610.543 559.697 611.049 561.777 611.049 564.246C611.049 567.089 610.308 569.659 608.826 571.954C607.344 574.249 605.186 576.076 602.351 577.426C599.516 578.78 596.077 579.456 592.033 579.456C588.264 579.456 585.004 578.849 582.255 577.632C579.505 576.415 577.347 574.72 575.78 572.545C574.212 570.371 573.324 567.843 573.121 564.966H579.7C579.872 566.953 580.543 568.592 581.717 569.887C582.891 571.181 584.381 572.139 586.189 572.764C587.997 573.39 589.944 573.703 592.035 573.703C594.467 573.703 596.652 573.305 598.588 572.508C600.524 571.711 602.057 570.598 603.188 569.167C604.32 567.736 604.884 566.062 604.884 564.144C604.884 562.398 604.394 560.975 603.418 559.879C602.442 558.782 601.158 557.891 599.564 557.207C597.97 556.522 596.25 555.923 594.4 555.407L587.925 553.556C583.814 552.374 580.559 550.686 578.16 548.493C575.761 546.3 574.563 543.43 574.563 539.884C574.563 536.936 575.362 534.364 576.964 532.162C578.566 529.961 580.725 528.247 583.439 527.022C586.154 525.797 589.192 525.185 592.549 525.185C595.905 525.185 598.957 525.789 601.594 526.995C604.231 528.204 606.325 529.852 607.877 531.943C609.428 534.035 610.244 536.407 610.332 539.06H604.164L604.167 539.063Z" fill="black"/>
<path d="M649.808 558.63C649.808 561.818 649.107 564.5 647.706 566.683C646.304 568.865 644.518 570.521 642.349 571.649C640.18 572.781 637.92 573.345 635.569 573.345C631.816 573.345 628.743 572.107 626.347 569.633C623.951 567.159 622.752 563.885 622.752 559.817V526.455H616.719V560.189C616.719 564.302 617.454 567.771 618.923 570.598C620.391 573.422 622.416 575.565 624.991 577.022C627.567 578.48 630.517 579.21 633.841 579.21C637.66 579.21 640.894 578.322 643.536 576.549C646.181 574.776 648.112 572.553 649.335 569.887H649.808V578.533H655.842V526.458H649.808V558.632V558.63Z" fill="black"/>
<path d="M672.191 526.391H665.853V578.531H690.041V572.834H672.191V526.391Z" fill="black"/>
<path d="M736.019 551.307C736.019 546.945 735.409 543.165 734.187 539.967C732.967 536.768 731.309 534.112 729.22 531.999C727.128 529.886 724.772 528.316 722.151 527.287C719.53 526.26 716.805 525.744 713.98 525.744C709.482 525.744 705.521 526.902 702.098 529.218C698.674 531.534 695.994 534.733 694.063 538.811C692.132 542.893 691.164 547.554 691.164 552.796C691.164 558.039 692.13 562.714 694.063 566.747C695.997 570.783 698.736 573.933 702.285 576.207C705.834 578.477 710.038 579.614 714.898 579.614C718.377 579.614 721.458 579.055 724.136 577.937C726.813 576.819 729.052 575.332 730.849 573.479C732.646 571.625 733.941 569.603 734.732 567.41L729.003 565.546C728.348 567.105 727.38 568.536 726.104 569.833C724.826 571.133 723.256 572.168 721.392 572.936C719.527 573.703 717.361 574.088 714.901 574.088C711.285 574.088 708.153 573.241 705.51 571.545C702.865 569.849 700.824 567.458 699.391 564.374C698.043 561.475 697.329 558.113 697.246 554.289H736.024V551.304L736.019 551.307ZM697.281 548.966C697.463 546.065 698.163 543.363 699.386 540.863C700.798 537.969 702.758 535.642 705.267 533.879C707.776 532.117 710.68 531.234 713.98 531.234C717.099 531.234 719.851 532.015 722.237 533.575C724.622 535.134 726.487 537.252 727.832 539.932C729.177 542.609 729.849 545.623 729.849 548.966H697.283H697.281Z" fill="black"/>
<path d="M540.141 577.675H489.141C475.279 577.675 464 566.396 464 552.534V552.267C464 538.405 475.279 527.126 489.141 527.126H540.141C554.003 527.126 565.282 538.405 565.282 552.267V552.534C565.282 566.396 554.003 577.675 540.141 577.675ZM540.141 530.871H489.141C477.343 530.871 467.744 540.469 467.744 552.267V552.534C467.744 564.332 477.343 573.931 489.141 573.931H540.141C551.939 573.931 561.538 564.332 561.538 552.534V552.267C561.538 540.469 551.939 530.871 540.141 530.871Z" fill="black"/>
<path d="M490.304 562.847C496.074 562.847 500.751 558.17 500.751 552.401C500.751 546.631 496.074 541.954 490.304 541.954C484.535 541.954 479.857 546.631 479.857 552.401C479.857 558.17 484.535 562.847 490.304 562.847Z" fill="black"/>
<path d="M488.395 554.658C490.999 554.658 493.11 552.547 493.11 549.943C493.11 547.339 490.999 545.228 488.395 545.228C485.791 545.228 483.68 547.339 483.68 549.943C483.68 552.547 485.791 554.658 488.395 554.658Z" fill="white"/>
<path d="M538.981 562.847C544.75 562.847 549.428 558.17 549.428 552.401C549.428 546.631 544.75 541.954 538.981 541.954C533.211 541.954 528.534 546.631 528.534 552.401C528.534 558.17 533.211 562.847 538.981 562.847Z" fill="black"/>
<path d="M537.072 554.658C539.676 554.658 541.787 552.547 541.787 549.943C541.787 547.339 539.676 545.228 537.072 545.228C534.468 545.228 532.356 547.339 532.356 549.943C532.356 552.547 534.468 554.658 537.072 554.658Z" fill="white"/>
</g>
</g>
<defs>
<clipPath id="clip0_68_2514">
<rect width="1200" height="627" fill="white"/>
</clipPath>
<clipPath id="clip1_68_2514">
<rect width="272" height="54.8279" fill="white" transform="translate(464 525)"/>
</clipPath>
</defs>
</svg>
