<svg width="65" height="48" viewBox="0 0 65 48" fill="none" xmlns="http://www.w3.org/2000/svg">
<g id="People" clip-path="url(#clip0_7185_24149)">
<path id="Vector 35" d="M0.841797 24.9779L3.36773 21.0487L8.70027 14.3129L23.2946 12.6289L24.9785 23.8553L24.6979 31.9944L22.1719 33.6784L18.5234 34.5204L19.0847 40.6949L5.61301 37.6076L4.49037 30.5911L2.2451 28.3458L0.841797 24.9779Z" fill="#D8997C"/>
<path id="Vector 36" d="M46.5893 23.8555H36.2049V25.2588L35.6436 30.03L37.3275 38.1691L40.9761 41.537V45.4663L53.3251 46.8696L51.3605 33.9592L53.3251 31.9946L53.8864 27.504L46.5893 23.8555Z" fill="#9F604A"/>
<g id="Vector">
<path d="M20.6602 26.3064C20.5226 26.1561 20.3344 26.0619 20.1317 26.0418C19.9289 26.0217 19.7259 26.077 19.5614 26.1973C19.397 26.3175 19.2827 26.4942 19.2404 26.6935C19.1981 26.8928 19.2308 27.1007 19.3322 27.2774C19.8928 28.2567 21.4619 28.1182 22.1681 27.2796C22.7888 26.5436 22.6867 25.6349 22.6376 25.198C22.451 23.5429 22.0603 21.9174 21.4746 20.3582C21.4363 20.2565 21.3784 20.1632 21.3041 20.0839C21.2298 20.0045 21.1406 19.9405 21.0416 19.8956C20.9426 19.8507 20.8357 19.8258 20.7271 19.8222C20.6184 19.8186 20.5101 19.8364 20.4084 19.8747C20.3066 19.9129 20.2134 19.9708 20.134 20.0451C20.0546 20.1194 19.9907 20.2086 19.9458 20.3076C19.9008 20.4066 19.8759 20.5135 19.8723 20.6221C19.8687 20.7308 19.8865 20.8391 19.9248 20.9409C20.4627 22.3719 20.8215 23.8641 20.9929 25.3833C21.0359 25.7657 21.0371 26.0537 20.9035 26.212C20.8633 26.2556 20.7463 26.2981 20.6602 26.3064ZM18.2707 29.3133C18.2179 29.4084 18.1845 29.5129 18.1721 29.6209C18.1598 29.729 18.1689 29.8384 18.1988 29.9429C18.2288 30.0474 18.2791 30.145 18.3468 30.2301C18.4145 30.3152 18.4983 30.3861 18.5935 30.4388C19.4448 30.9062 20.444 31.0262 21.3819 30.7737C21.5919 30.7144 21.7701 30.5745 21.8775 30.3846C21.9849 30.1946 22.0129 29.9698 21.9555 29.7593C21.898 29.5487 21.7597 29.3694 21.5706 29.2603C21.3815 29.1513 21.1571 29.1213 20.946 29.177C20.4243 29.3142 19.8699 29.2475 19.3957 28.9905C19.3006 28.9376 19.196 28.9039 19.0879 28.8915C18.9798 28.8791 18.8703 28.8882 18.7657 28.9182C18.6611 28.9483 18.5635 28.9987 18.4785 29.0666C18.3934 29.1345 18.3226 29.2185 18.2702 29.3138L18.2707 29.3133Z" fill="#121212"/>
<path d="M5.50809 8.75717L5.04464 6.54752C4.99827 6.33402 4.86936 6.14751 4.68602 6.02869C4.50268 5.90986 4.27979 5.86835 4.06597 5.91321C3.85215 5.95807 3.66475 6.08567 3.54463 6.26816C3.42451 6.45066 3.38143 6.67325 3.42478 6.88738L3.76298 8.49841C3.11195 8.334 2.31968 8.19993 1.53182 8.22531C1.31248 8.23251 1.10499 8.32652 0.954962 8.48669C0.804939 8.64685 0.724669 8.86004 0.731809 9.07938C0.740297 9.29817 0.834634 9.50481 0.994387 9.65454C1.15414 9.80428 1.36645 9.88506 1.58533 9.87938C2.14533 9.86283 2.7594 9.95717 3.32877 10.0979C0.447119 12.3257 -0.468737 15.1859 0.216504 18.4179C0.503401 19.774 1.06671 21.0904 1.63719 22.3417C-0.154257 24.1293 0.0691939 26.7765 1.59471 28.5525L1.71389 28.6915C2.3114 29.3911 2.92657 30.1106 3.9114 30.5012C4.42064 33.8843 4.64519 34.5547 4.85154 37.4882C4.85698 37.5982 4.88431 37.706 4.93194 37.8053C4.97957 37.9045 5.04653 37.9933 5.12891 38.0664C5.21128 38.1395 5.30742 38.1954 5.41167 38.2308C5.51593 38.2663 5.6262 38.2806 5.73605 38.2729C5.8459 38.2652 5.95311 38.2356 6.05139 38.1859C6.14967 38.1363 6.23705 38.0675 6.30841 37.9836C6.37977 37.8998 6.43367 37.8025 6.46697 37.6975C6.50026 37.5926 6.51228 37.482 6.5023 37.3723C6.28051 34.2137 6.02064 33.4805 5.47333 29.7486C5.44936 29.5842 5.37643 29.4308 5.26405 29.3084C5.15168 29.1859 5.00505 29.1002 4.84326 29.0623C3.98037 28.8598 3.47388 28.2038 2.85044 27.4739C2.09844 26.5983 1.83582 25.4612 2.16575 24.505C2.44713 23.6879 3.22285 23.0088 4.03057 22.7814C4.33416 22.7665 4.63639 22.8311 4.90726 22.969C5.38947 23.2245 5.78616 23.7867 5.89374 24.3081C5.8816 24.3357 5.87167 24.3632 5.85678 24.3908C5.75136 24.5833 5.72674 24.8098 5.7883 25.0205C5.84986 25.2311 5.99257 25.4087 6.18505 25.5141C6.49678 25.6852 6.86864 25.6322 7.12243 25.4126C7.24933 25.3492 7.36133 25.2543 7.44354 25.129C9.04354 22.6849 10.4411 19.3199 10.3329 16.4118C12.4113 16.2628 14.3881 15.8347 16.3826 15.4739C17.3481 15.3001 17.464 15.3955 19.1202 14.5779C19.3398 14.4708 20.0504 13.8347 20.5492 13.1594C21.0877 13.4987 21.6791 13.7552 22.2937 13.929C23.8993 17.9213 24.5779 21.9848 24.5475 27.4214C24.5387 29.0435 24.3909 30.7197 23.3762 31.9897C21.8915 33.849 18.5128 34.2534 16.5553 32.8063C16.4678 32.7417 16.3686 32.6949 16.2631 32.6687C16.1576 32.6425 16.048 32.6373 15.9405 32.6534C15.833 32.6696 15.7298 32.7067 15.6366 32.7628C15.5435 32.8188 15.4623 32.8927 15.3977 32.9801C15.3331 33.0675 15.2864 33.1668 15.2602 33.2722C15.234 33.3777 15.2288 33.4873 15.2449 33.5948C15.261 33.7023 15.2982 33.8056 15.3542 33.8987C15.4103 33.9918 15.4841 34.073 15.5715 34.1376C16.2342 34.6275 16.9966 34.9619 17.7983 35.1539C18.0863 36.5961 18.2022 39.2008 18.2204 40.158C18.2246 40.3746 18.3135 40.5809 18.4681 40.7327C18.6228 40.8844 18.8307 40.9695 19.0474 40.9696H19.0634C19.2828 40.9654 19.4916 40.8742 19.6437 40.7161C19.7959 40.558 19.8791 40.346 19.875 40.1266C19.8651 39.5848 19.7602 36.8041 19.5241 35.3481C21.4959 35.3299 23.4689 34.526 24.6689 33.0231C26.003 31.3536 26.1928 29.2592 26.2027 27.4303C26.2314 22.1547 25.614 18.105 24.1641 14.179C26.6264 14.1552 28.777 12.6706 29.8044 10.7279C31.3238 7.85731 30.392 3.93124 27.6813 1.79C25.2339 -0.140482 21.624 -0.547106 18.4841 0.753859C15.464 2.00903 13.6697 4.41455 12.1801 6.82834C11.2035 8.4173 7.85291 7.65097 5.70836 8.65455C5.6394 8.68655 5.57595 8.72406 5.50809 8.75717ZM20.9415 2.70862C20.9556 2.63748 20.9836 2.56984 21.0239 2.50959C21.0643 2.44934 21.1162 2.39767 21.1766 2.35756C21.237 2.31745 21.3048 2.28971 21.376 2.27591C21.4472 2.26211 21.5204 2.26254 21.5914 2.27717C24.5481 2.87469 27.1015 5.22172 27.9456 8.11772C27.9659 8.18728 27.9723 8.26015 27.9644 8.33217C27.9565 8.40419 27.9345 8.47396 27.8997 8.53749C27.8649 8.60102 27.8179 8.65706 27.7614 8.70242C27.7049 8.74778 27.64 8.78158 27.5704 8.80186C27.5009 8.82215 27.428 8.82854 27.356 8.82066C27.284 8.81279 27.2142 8.7908 27.1507 8.75596C27.0871 8.72113 27.0311 8.67412 26.9857 8.61762C26.9404 8.56112 26.9066 8.49624 26.8863 8.42669C26.1536 5.91358 23.9384 3.87717 21.3729 3.35855C21.2295 3.32955 21.1035 3.24479 21.0226 3.12292C20.9417 3.00104 20.9125 2.85201 20.9415 2.70862Z" fill="#121212"/>
</g>
<g id="Vector_2">
<path d="M52.9717 47.4771C52.6165 47.4771 52.3501 47.2107 52.3057 46.8555C51.9949 42.1937 51.551 36.8659 50.663 32.7813C50.6186 32.5149 50.7074 32.2042 50.9738 32.071C51.9061 31.4938 52.4833 31.0498 52.7941 30.295C53.0161 29.7623 53.0161 28.7855 52.7497 28.2971C52.7053 28.2083 52.6165 28.1195 52.5277 28.0751C52.2169 28.0308 51.8618 28.2083 51.4622 28.3859C51.329 28.3859 45.424 32.1154 37.8764 23.9905C37.2104 25.2781 36.4557 26.4324 36.3225 27.8088C36.0561 30.5614 36.3669 33.3585 37.2992 35.978C38.0984 38.2423 39.2083 39.7962 40.6291 40.551C41.4726 40.9949 42.5382 41.0837 43.4705 40.8174C44.0033 40.6398 44.7137 40.2846 45.1133 39.5298C45.2908 39.219 45.6904 39.0858 46.0012 39.219C46.312 39.3966 46.4452 39.7962 46.312 40.107C45.8236 41.0393 44.9801 41.7497 43.9145 42.0605C42.6714 42.4601 41.2062 42.3269 40.0519 41.7053C35.9229 39.5298 34.5466 32.3818 35.0349 27.6756C35.2569 25.6333 36.4113 24.2569 37.1216 22.5254C37.2992 22.0814 37.9208 21.9926 38.2316 22.3478C40.1851 24.6565 45.3797 29.7623 50.7962 27.2316C51.4178 26.9208 52.0393 26.61 52.7941 26.7432C54.348 27.0096 54.6588 29.4515 54.0372 30.7834C53.5933 31.8046 52.8829 32.3818 52.0837 32.9145C52.9273 37.0435 53.3269 42.1937 53.6821 46.7223C53.7265 47.0775 53.4157 47.3883 53.0605 47.4327L52.9717 47.4771Z" fill="#121212"/>
<path d="M37.388 34.2465C37.2104 32.9145 38.4092 31.849 38.1872 31.0498C38.0984 30.6946 38.276 30.3394 38.6312 30.2063C38.9863 30.1175 39.3415 30.295 39.4747 30.6502C39.9187 32.071 38.6312 33.1809 38.72 34.0689C38.72 34.2021 38.8532 34.3353 38.942 34.3797C39.2527 34.2021 39.6523 34.3353 39.8299 34.646C40.0075 34.9568 39.9187 35.3564 39.5635 35.534C38.6312 36.0668 37.5212 35.312 37.388 34.2465ZM39.2971 37.9759C38.9419 37.8427 38.7644 37.4875 38.8976 37.1323C39.0307 36.7771 39.3859 36.5996 39.7411 36.7327C39.9631 36.8215 40.1851 36.7771 40.3627 36.644C40.6735 36.422 41.0731 36.4664 41.295 36.7771C41.517 37.0879 41.4726 37.4875 41.1619 37.7095C40.6291 38.1091 39.9187 38.1979 39.2971 37.9759ZM40.9399 46.0563C40.5403 46.0563 40.2739 45.7455 40.2739 45.3903C40.3183 43.7476 40.3627 43.57 40.4071 41.9717C40.4071 41.6165 40.7179 41.3057 41.0731 41.3057C41.4282 41.3057 41.739 41.6165 41.739 41.9717C41.6946 43.6144 41.6502 43.792 41.6058 45.3903C41.6058 45.7455 41.295 46.0563 40.9399 46.0563Z" fill="#121212"/>
<path d="M59.7201 31.5826C59.0542 29.1851 57.2338 28.1196 57.1894 28.0752C56.3459 27.498 56.0795 27.1428 55.9463 25.9885C55.8131 25.0561 55.5023 24.3014 54.792 23.6354C54.5256 23.369 54.5256 22.9694 54.792 22.703C55.0584 22.4367 55.4579 22.4367 55.7243 22.703C56.5679 23.5466 57.0563 24.5678 57.2339 25.8109C57.367 26.6545 57.4114 26.6101 58.033 27.054C59.4537 28.0752 60.5193 29.5403 60.9633 31.183C61.0521 31.5382 60.8745 31.8934 60.5193 31.9822C60.1641 32.1598 59.8089 31.9378 59.7201 31.5826Z" fill="#121212"/>
<path d="M63.1832 27.6312C59.6757 25.7221 60.0309 25.8553 59.4093 25.8109C58.699 25.8109 58.255 25.7221 57.3226 25.1005C56.3903 24.479 55.5467 23.7686 54.792 22.9694C54.5256 22.703 54.5256 22.3035 54.792 22.0371C55.0584 21.7707 55.4579 21.7707 55.7243 22.0371C56.4347 22.7474 57.1894 23.4134 58.033 23.9906C58.7434 24.479 58.9654 24.479 59.4093 24.479C60.4305 24.5234 60.3417 24.5678 63.8047 26.4325C64.1155 26.6101 64.2487 27.0096 64.0711 27.3204C63.9379 27.6756 63.5383 27.8088 63.1832 27.6312Z" fill="#121212"/>
<path d="M54.9252 8.85089C52.7497 8.6289 50.4854 10.0496 49.3754 12.2695C48.9314 13.1131 48.7094 14.0455 48.5763 14.9334C48.1323 14.667 47.9991 14.3562 47.9103 14.2674C47.4663 13.6015 47.0223 12.8467 45.7348 12.7579C45.0688 12.7135 44.4028 12.9355 43.8257 13.3351C43.2929 13.7347 42.6269 13.6903 42.2273 13.2019C41.4282 12.2695 40.407 11.5592 39.3415 11.204C37.0772 10.4492 34.5909 11.2484 33.3478 13.1131C32.5042 14.4006 32.4154 16.2209 33.0814 17.6417C33.3477 18.1745 33.2146 18.796 32.815 19.1956C30.7727 21.1935 31.0391 24.4346 33.481 25.9885C34.6797 26.7433 36.1892 26.3437 36.944 25.1449L36.9884 25.1005C37.4324 24.3902 38.3203 24.3014 38.8531 24.8785C40.3182 26.3881 42.3161 28.2528 44.8912 28.83C46.5783 29.2295 48.3099 29.0076 49.8638 28.83C50.7517 28.7412 51.5065 28.164 52.0837 28.0308C52.3057 27.9864 52.5277 27.9864 52.8384 28.2972C53.1492 28.6524 53.2824 29.2295 53.1492 29.7179C53.016 30.2063 52.6609 30.6947 52.1725 30.9611L51.9061 31.0943C51.5065 31.3162 50.9737 31.5826 50.7073 32.1598C50.3966 32.8258 50.5742 33.5805 50.7073 34.0245C50.9737 34.9569 51.1957 36.4664 51.4621 37.4876C51.5509 37.8427 51.9061 38.0203 52.2169 37.9759C52.5721 37.9315 52.7941 37.6208 52.7497 37.2656C52.6165 36.0668 52.7497 34.3797 53.238 33.4029C53.5488 32.737 54.3036 32.1154 54.792 31.4494C56.0795 29.5847 55.6799 25.9885 55.2803 23.7686C57.2782 23.0582 58.3882 21.2823 59.3205 19.4176C59.9865 18.0857 60.5637 16.6205 60.5193 15.111C60.4749 12.0919 57.6778 9.11728 54.9252 8.85089ZM37.6544 15.333C37.2992 15.2886 36.8996 15.3774 36.5444 15.6438C36.2336 15.9102 36.0116 16.221 35.9228 16.6205C35.8784 16.8425 35.7009 17.0201 35.4789 17.0201C35.2125 17.0201 34.9905 16.7981 35.0349 16.5317C35.2125 15.2886 36.5 14.3118 37.7431 14.5338C37.9651 14.5782 38.1427 14.8002 38.0983 15.0222C38.0983 15.1998 37.8763 15.3774 37.6544 15.333ZM56.7011 17.9525L56.5679 18.0857C56.3903 18.2633 56.1239 18.2633 55.9463 18.0857C55.7687 17.9081 55.7687 17.6417 55.9463 17.4641L56.0351 17.3753C56.2127 17.1977 56.4791 17.1977 56.6567 17.3753C56.8343 17.5085 56.8343 17.7749 56.7011 17.9525ZM56.6567 16.3097C56.4347 16.3097 56.2571 16.1322 56.2127 15.9102C56.0795 14.5782 55.1027 13.3351 53.8596 12.8467C53.6376 12.7579 53.5044 12.4915 53.5932 12.2695C53.682 12.0475 53.9484 11.9143 54.1704 12.0031C55.7687 12.5803 56.9231 14.1342 57.1006 15.8214C57.145 16.0878 56.9231 16.3097 56.6567 16.3097Z" fill="#121212"/>
</g>
</g>
<defs>
<clipPath id="clip0_7185_24149">
<rect width="64.5517" height="48" fill="white"/>
</clipPath>
</defs>
</svg>
