<svg width="48" height="48" viewBox="0 0 48 48" fill="none" xmlns="http://www.w3.org/2000/svg">
<g id="Plant">
<path id="Vector 122" d="M0.297852 16.2316L0.595681 14.8914L3.57397 12.9555L8.78599 12.2109L12.3599 12.9555L17.1252 15.0403L19.8057 16.9762L21.7416 23.8263L21.1459 24.7198L19.8057 23.8263L16.9763 24.8687L14.5937 24.273L12.8067 22.635L11.7643 21.1458L10.1262 21.5926L7.74358 22.0393L5.36095 21.5926L2.53157 19.9545L0.297852 16.2316Z" fill="#FCF4FF"/>
<path id="Vector 123" d="M26.0601 15.0414L29.0384 16.5305L29.3362 21.5936L30.2297 20.8491L30.8254 17.424L32.9102 13.8501L32.6123 11.3185L31.7188 8.04239L32.1656 4.31952L30.5275 2.97929L25.4644 3.12821L23.5285 1.49015L21.4437 0.298828L19.9546 1.19232L20.2524 3.27712L22.1883 6.85107L21.5927 9.23371L22.3372 12.0631L26.0601 15.0414Z" fill="#F3D7FD"/>
<path id="Vector 124" d="M34.8461 20.2526L36.782 16.9764L38.8668 15.1895L40.5049 15.6362L42.5897 16.3808L44.6745 15.6362L46.3126 16.3808L46.7593 18.9123L44.5256 21.4439L41.5473 24.4222L40.6538 27.6983L38.2712 28.5918L34.8461 29.1874L34.6972 28.145L34.1016 24.4222L34.8461 20.2526Z" fill="#E1ADF3"/>
<g id="Union">
<path d="M0.2654 17.0859C0.998358 18.6436 1.92371 19.9019 3.01466 20.8258C5.11495 22.6041 7.96399 23.092 10.1039 22.04C10.1723 22.0061 10.2419 21.9705 10.3123 21.9345L10.3383 21.9212C11.2613 21.4473 11.6714 21.3273 12.1262 22.3283C13.2657 24.845 16.6043 25.963 19.0435 24.7306C19.0959 24.7042 19.1426 24.6676 19.1808 24.6232C19.2191 24.5787 19.2482 24.5271 19.2665 24.4713C19.2848 24.4156 19.292 24.3568 19.2876 24.2983C19.2832 24.2398 19.2673 24.1827 19.2409 24.1303C19.2144 24.078 19.1779 24.0313 19.1334 23.9931C19.0889 23.9548 19.0373 23.9257 18.9816 23.9074C18.9258 23.889 18.867 23.8819 18.8085 23.8863C18.75 23.8907 18.6929 23.9066 18.6406 23.933C17.6747 24.4215 16.4754 24.4739 15.3525 24.0781C14.2536 23.6909 13.3744 22.9189 12.9401 21.9599C12.8588 21.7809 12.7689 21.5915 12.6396 21.4155C11.7464 20.1953 10.6096 20.7778 9.93026 21.1266L9.91446 21.1347C9.84539 21.17 9.77707 21.205 9.70927 21.238C7.60064 22.2747 5.11764 21.4357 3.59186 20.1437C2.58519 19.2917 1.76169 18.1671 1.07371 16.7053C0.58646 15.6712 1.12732 14.4305 2.21856 14.0725C8.90692 11.8775 11.4688 12.743 16.4414 15.1935L16.4421 15.1938C17.305 15.6193 18.1976 16.0595 18.833 16.7553C19.6934 17.6977 20.0273 19.0579 20.3215 20.2578L21.2484 24.0346C21.2766 24.1497 21.3494 24.2488 21.4508 24.3102C21.5521 24.3717 21.6737 24.3903 21.7888 24.362C21.9039 24.3338 22.003 24.261 22.0644 24.1597C22.1258 24.0583 22.1445 23.9367 22.1162 23.8216L21.1894 20.0452C20.3325 16.5537 19.5704 15.7397 16.8363 14.3921L16.8349 14.3914C14.9075 13.4415 12.914 12.4591 10.7183 12.0928C7.60451 11.5734 4.53329 12.3728 1.94009 13.2234C0.338369 13.7491 -0.449986 15.567 0.2654 17.0859Z" fill="#121212"/>
<path d="M21.2573 8.99659C21.0339 10.436 21.6409 12.0443 22.8811 13.2987C23.9591 14.3896 25.3051 15.0904 26.607 15.7683L26.6105 15.7701C26.7151 15.8204 26.8351 15.828 26.9452 15.7914C27.0553 15.7547 27.1468 15.6767 27.2004 15.5737C27.254 15.4708 27.2654 15.351 27.2322 15.2398C27.199 15.1286 27.1239 15.0347 27.0227 14.9779L27.0181 14.9755C25.7779 14.3294 24.4959 13.6615 23.5163 12.6706C22.4748 11.6169 21.9602 10.2945 22.1404 9.13359C22.1807 8.87333 22.255 8.61057 22.3312 8.34091C22.464 7.87152 22.6026 7.38124 22.5782 6.84686C22.5305 5.80833 21.911 5.00746 21.3118 4.23281C21.1522 4.03004 20.9975 3.82348 20.8478 3.61332C20.3436 2.89108 19.954 1.62948 20.6682 1.08564C21.2368 0.652301 22.1895 1.00463 22.8373 1.57617C23.0485 1.76239 23.2523 1.97074 23.4599 2.18295C23.9835 2.71806 24.5312 3.27782 25.281 3.56955C26.2425 3.94359 27.3006 3.78623 28.2882 3.63936C29.3899 3.47552 30.4037 3.32474 31.0976 3.93944C31.79 4.55267 31.799 5.69873 31.6843 6.5526C31.6574 6.75452 31.6247 6.95748 31.5918 7.16101L31.5857 7.19889C31.242 9.31497 31.41 9.86238 32.0691 11.157C32.7934 12.5813 32.7571 12.9184 31.9601 14.1612L31.8276 14.3697C30.616 16.2973 29.9581 18.6126 29.9751 20.8892C29.9759 21.0072 30.0233 21.12 30.107 21.2032C30.1907 21.2863 30.3038 21.333 30.4218 21.333H30.4248C30.4835 21.3326 30.5416 21.3206 30.5957 21.2978C30.6498 21.2749 30.6988 21.2416 30.74 21.1998C30.7812 21.158 30.8138 21.1085 30.8359 21.054C30.8579 20.9996 30.869 20.9414 30.8686 20.8827C30.8528 18.7743 31.4621 16.6303 32.5841 14.8451L32.7121 14.6434C33.0376 14.1359 33.4061 13.5608 33.4692 12.8788C33.5425 12.0818 33.1956 11.4009 32.8658 10.7535C32.6824 10.3935 32.5042 10.0438 32.4065 9.69024C32.205 8.96083 32.3329 8.17227 32.4658 7.35356C32.5023 7.12827 32.5392 6.90069 32.5698 6.67143C32.7759 5.13851 32.4715 3.96238 31.6897 3.27023C30.686 2.3815 29.3955 2.57211 28.1479 2.75706C25.8361 3.09986 25.4061 2.89526 24.0986 1.5583C23.8851 1.33999 23.6644 1.11454 23.4285 0.906353C22.5368 0.118892 21.123 -0.383547 20.1267 0.374726C19.0114 1.22443 19.2884 2.94112 20.1154 4.125C20.2724 4.34971 20.4413 4.56791 20.6081 4.78342C21.1402 5.47077 21.6511 6.13073 21.6856 6.88736C21.7032 7.27722 21.5903 7.6781 21.4703 8.10251C21.3889 8.38962 21.3053 8.68625 21.2573 8.99659Z" fill="#121212"/>
<path d="M18.4528 47.1226C18.4528 47.2411 18.4999 47.3547 18.5837 47.4385C18.6674 47.5223 18.7811 47.5694 18.8996 47.5694H35.1241C35.2426 47.5694 35.3562 47.5223 35.44 47.4385C35.5238 47.3547 35.5709 47.2411 35.5709 47.1226C35.5709 47.0041 35.5238 46.8905 35.44 46.8067C35.3562 46.7229 35.2426 46.6759 35.1241 46.6759H31.7366C31.9314 46.5049 32.0725 46.2811 32.1428 46.0317L35.2036 34.95C35.441 34.0902 34.795 33.2399 33.9015 33.2399H30.7439C32.5866 32.45 33.6555 31.7305 34.5973 29.6502C35.2202 29.361 35.9862 29.3353 36.7807 29.3086C37.6963 29.2779 38.6497 29.2459 39.4656 28.8079L39.4659 28.8077C39.9576 28.5439 40.5691 28.2157 40.9654 27.6577C41.3189 27.1602 41.434 26.5937 41.5453 26.0459L41.5456 26.0443L41.546 26.0423C41.5995 25.7786 41.65 25.5291 41.7258 25.2956C42.0489 24.2937 42.8727 23.5056 43.5545 22.9308C43.7589 22.7581 43.9684 22.5898 44.1778 22.4217L44.1939 22.4087L44.1951 22.4078C44.8386 21.8907 45.5041 21.3561 46.0512 20.6923C47.7601 18.62 47.2872 16.4334 45.7521 15.5697C45.1967 15.2576 44.5861 15.1846 44.0355 15.3657C43.7527 15.4583 43.5028 15.6075 43.2724 15.7451C42.9752 15.9227 42.7105 16.0808 42.4498 16.0727C42.1551 16.0622 41.8791 15.8335 41.5695 15.5768C41.3616 15.4045 41.1386 15.2196 40.8844 15.0797C40.1464 14.6741 39.1853 14.6845 38.3121 15.1077C37.4969 15.5033 36.9033 16.1615 36.4774 16.6907C34.3587 19.3217 33.3753 22.7545 33.7791 26.1081C33.7933 26.2257 33.8535 26.3329 33.9467 26.4061C34.0399 26.4793 34.1584 26.5125 34.276 26.4984C34.3937 26.4842 34.5009 26.4239 34.5741 26.3307C34.6473 26.2376 34.6805 26.1191 34.6663 26.0014C34.2964 22.9308 35.234 19.6598 37.1729 17.2512C37.7191 16.5728 38.1909 16.1597 38.7019 15.9116C39.3056 15.6188 39.976 15.6001 40.4538 15.8627C40.6335 15.9615 40.8095 16.1072 40.9947 16.2607C41.3866 16.5853 41.8201 16.9444 42.4185 16.9656C42.9356 16.9841 43.3597 16.733 43.7317 16.5114L43.732 16.5112C43.9344 16.3904 44.1258 16.2761 44.3139 16.2148C45.0898 15.9598 45.9919 16.6639 46.1825 17.4811C46.3734 18.2966 46.0744 19.2598 45.362 20.1241C44.8744 20.7156 44.2746 21.1976 43.6399 21.7076L43.6343 21.7121C42.5079 22.6175 41.341 23.5795 40.8752 25.021C40.7859 25.2974 40.7286 25.5782 40.6731 25.8503L40.6697 25.8668C40.4183 27.1052 40.2682 27.3637 39.0429 28.0207C38.4124 28.3594 37.6029 28.3871 36.7464 28.4159L36.7444 28.416C36.1705 28.4356 35.5848 28.4557 35.0276 28.5738C35.1477 28.2367 35.2639 27.8725 35.3845 27.4947C35.9829 25.6199 36.6873 23.413 38.4884 22.5514C38.5413 22.526 38.5887 22.4905 38.6279 22.4469C38.6671 22.4032 38.6973 22.3522 38.7168 22.2969C38.7363 22.2416 38.7447 22.1829 38.7415 22.1243C38.7384 22.0657 38.7237 22.0084 38.6984 21.9554C38.673 21.9025 38.6375 21.8551 38.5938 21.8159C38.5502 21.7767 38.4992 21.7465 38.4439 21.727C38.3885 21.7075 38.3299 21.6991 38.2713 21.7023C38.2127 21.7054 38.1553 21.7201 38.1024 21.7455C36.2124 22.6494 35.3394 24.7047 34.7351 26.5959L34.622 26.9524L34.6219 26.9528C34.0947 28.6157 33.5497 30.3352 32.2736 31.3794C31.663 31.8785 30.9268 32.1918 30.1468 32.523C29.6429 32.7375 29.1243 32.9611 28.6317 33.2399H26.5439C26.4488 32.9409 26.3465 32.6441 26.2372 32.35C26.4616 30.7759 27.1172 29.234 27.7789 27.6777C28.1497 26.8056 28.5224 25.9289 28.8223 25.0395C30.4917 20.0913 29.9359 14.4335 27.3362 9.90437C27.2756 9.8048 27.1786 9.73283 27.0657 9.70382C26.9529 9.6748 26.8331 9.69102 26.7321 9.74903C26.631 9.80705 26.5566 9.90226 26.5247 10.0143C26.4929 10.1264 26.5061 10.2465 26.5615 10.349C29.0356 14.6595 29.5645 20.0446 27.9762 24.7538C27.6794 25.6334 27.3184 26.4804 26.9561 27.3303C26.4651 28.4821 25.9719 29.6394 25.6329 30.8906C24.5467 28.5267 23.1246 26.525 21.8534 25.0144C18.8936 21.4987 15.2232 18.6591 11.6738 15.913L11.6715 15.9113C11.5778 15.8388 11.4591 15.8065 11.3416 15.8215C11.224 15.8365 11.1173 15.8975 11.0448 15.9913C10.9722 16.085 10.9399 16.2037 10.9549 16.3212C10.9699 16.4387 11.031 16.5455 11.1247 16.618C16.8782 21.0691 22.7013 25.6315 25.3249 32.4578C25.2935 32.7175 25.2728 32.9784 25.263 33.2399H21.0171C20.1597 33.2399 19.5208 34.0273 19.6948 34.8654L21.9976 45.9468C22.0577 46.2294 22.2074 46.4851 22.4244 46.6759H18.8996C18.7811 46.6759 18.6674 46.7229 18.5837 46.8067C18.4999 46.8905 18.4528 47.0041 18.4528 47.1226Z" fill="#121212"/>
</g>
</g>
</svg>
