<svg width="56" height="48" viewBox="0 0 56 48" fill="none" xmlns="http://www.w3.org/2000/svg">
<g id="Scaling" clip-path="url(#clip0_7185_24177)">
<path id="Vector 31" d="M1.37939 43.8626V3.31088L4.13801 0.828125L51.0346 5.24192L53.7932 7.44881L54.3449 38.6212L52.4139 41.9316L4.13801 46.8971L1.37939 43.8626Z" fill="#F5FCFF"/>
<g id="Vector">
<path d="M12.1184 21.8263C11.9927 21.9813 11.9337 22.1798 11.9544 22.3783C11.9751 22.5768 12.0738 22.7589 12.2288 22.8846C12.3837 23.0103 12.5823 23.0693 12.7808 23.0486C12.9792 23.0279 13.1614 22.9292 13.2871 22.7743C17.6397 17.4115 23.6916 13.4852 30.3584 11.6811C30.8961 12.8568 31.4318 14.0264 31.9308 15.1188C32.7835 13.4205 34.2506 11.2151 35.1027 9.51684C33.1767 8.3517 30.7251 8.11496 28.5202 7.66405L29.7239 10.2973C22.8505 12.2118 16.616 16.2845 12.1184 21.8263Z" fill="#121212"/>
<path d="M1.16593 36.5789C0.966389 36.5789 0.775025 36.6582 0.633932 36.7993C0.492839 36.9404 0.413574 37.1317 0.413574 37.3313V42.8229C0.413574 44.2208 0.960283 45.4838 1.95238 46.3785C2.80354 47.1459 3.88643 47.5552 5.04555 47.5552C5.21608 47.5552 5.38913 47.5462 5.56317 47.5281L51.4636 42.7793C53.3144 42.5877 54.7654 40.6577 54.7654 38.3841V20.1115C54.7654 19.9119 54.6862 19.7206 54.5451 19.5795C54.404 19.4384 54.2126 19.3591 54.0131 19.3591C53.8135 19.3591 53.6222 19.4384 53.4811 19.5795C53.34 19.7206 53.2607 19.9119 53.2607 20.1115V38.3841C53.2607 39.8461 52.3669 41.1733 51.3091 41.2826L5.40818 46.0315C4.48329 46.1273 3.61658 45.8529 2.96053 45.261C2.28843 44.6551 1.91828 43.7894 1.91828 42.8229V37.3313C1.91828 37.1317 1.83901 36.9404 1.69792 36.7993C1.55683 36.6582 1.36546 36.5789 1.16593 36.5789ZM0.413574 4.82168V33.6974C0.413574 33.897 0.492839 34.0883 0.633932 34.2294C0.775025 34.3705 0.966389 34.4498 1.16593 34.4498C1.36546 34.4498 1.55683 34.3705 1.69792 34.2294C1.83901 34.0883 1.91828 33.897 1.91828 33.6974V4.82218C1.91828 3.85516 2.28843 2.98946 2.96003 2.38356C3.61608 1.79171 4.48329 1.51686 5.40818 1.61316L51.3091 6.362C52.3674 6.47134 53.2602 7.79848 53.2602 9.26055V16.8172C53.2602 17.0167 53.3395 17.2081 53.4806 17.3492C53.6217 17.4903 53.813 17.5695 54.0126 17.5695C54.2121 17.5695 54.4035 17.4903 54.5446 17.3492C54.6857 17.2081 54.7649 17.0167 54.7649 16.8172V9.26055C54.7649 6.98745 53.3149 5.05692 51.4636 4.86532L5.56317 0.116477C4.21094 -0.022457 2.92944 0.385321 1.95188 1.26607C0.960283 2.16087 0.413574 3.42331 0.413574 4.82168Z" fill="#121212"/>
<path d="M35.8941 13.341L42.4617 13.0399L43.6204 38.3134L37.0528 38.6145L35.8941 13.341Z" fill="#114EAE"/>
<path d="M23.5366 22.6947L30.1043 22.3936L30.861 38.8988L24.2933 39.2L23.5366 22.6947Z" fill="#347AE9"/>
<path d="M10.3572 29.8458L16.9249 29.5446L17.3507 38.8288L10.7831 39.1301L10.3572 29.8458Z" fill="#8EBAFF"/>
<path d="M53.2693 21.0202L53.2602 16.1445L54.7663 16.2728V20.4642L53.2693 21.0202Z" fill="#121212"/>
<path d="M0.427866 37.5719L0.413574 33.017L1.92479 32.8246V37.5078L0.427866 37.5719Z" fill="#121212"/>
</g>
</g>
<defs>
<clipPath id="clip0_7185_24177">
<rect width="55.1724" height="48" fill="white"/>
</clipPath>
</defs>
</svg>
