<svg width="405" height="226" viewBox="0 0 405 226" fill="none" xmlns="http://www.w3.org/2000/svg">
<path d="M74.3025 33.2147C73.5664 26.9801 70.5707 22.1474 65.3219 18.7037C60.0731 15.2599 53.6402 13.5381 46.0102 13.5381C40.435 13.5381 35.5638 14.4406 31.4032 16.2457C27.2426 18.0508 24.0037 20.5279 21.6865 23.69C19.3694 26.8457 18.2108 30.4366 18.2108 34.4501C18.2108 37.8106 19.0173 40.691 20.6368 43.0914C22.2562 45.4917 24.3365 47.476 26.8777 49.0571C29.4189 50.6381 32.0817 51.9247 34.8725 52.9297C37.6633 53.9346 40.2237 54.7411 42.5601 55.3556L55.3493 58.7994C58.6266 59.6635 62.2879 60.8477 66.3269 62.3647C70.3659 63.8817 74.2385 65.9429 77.9511 68.5481C81.6637 71.1533 84.7233 74.4818 87.1429 78.54C89.5625 82.5982 90.7722 87.5781 90.7722 93.4862C90.7722 100.29 88.9992 106.442 85.453 111.934C81.9069 117.426 76.7413 121.798 69.9563 125.03C63.1713 128.269 54.9396 129.889 45.2613 129.889C36.2423 129.889 28.4395 128.436 21.8593 125.523C15.2791 122.611 10.1135 118.552 6.36257 113.348C2.6116 108.144 0.486474 102.096 0 95.2081H15.7464C16.1561 99.964 17.7627 103.888 20.5727 106.986C23.3828 110.084 26.9481 112.376 31.2752 113.873C35.6022 115.371 40.2622 116.12 45.2677 116.12C51.0862 116.12 56.3158 115.166 60.9501 113.259C65.5844 111.351 69.2521 108.689 71.9598 105.264C74.6674 101.84 76.018 97.8325 76.018 93.243C76.018 89.0632 74.8466 85.6578 72.5103 83.0334C70.1739 80.409 67.1014 78.2775 63.2864 76.6389C59.4715 75.0002 55.3556 73.5664 50.9262 72.331L35.4294 67.9016C25.5911 65.0723 17.8011 61.0333 12.0595 55.7845C6.31778 50.5357 3.45014 43.6675 3.45014 35.1798C3.45014 28.1259 5.36403 21.9681 9.19822 16.7001C13.0324 11.4321 18.198 7.32911 24.695 4.39747C31.192 1.46582 38.4635 0 46.4967 0C54.5299 0 61.8334 1.44661 68.1448 4.33345C74.4562 7.22669 79.4681 11.1697 83.1807 16.1753C86.8933 21.1808 88.8455 26.8585 89.0568 33.2083H74.2961L74.3025 33.2147Z" fill="#1C1C1C"/>
<path d="M183.536 80.0438C183.536 87.6737 181.859 94.0939 178.505 99.3171C175.151 104.54 170.875 108.502 165.684 111.204C160.493 113.911 155.084 115.262 149.457 115.262C140.477 115.262 133.122 112.298 127.387 106.377C121.651 100.456 118.784 92.6217 118.784 82.8858V3.04004H104.343V83.7755C104.343 93.6202 106.104 101.922 109.618 108.688C113.132 115.448 117.977 120.575 124.141 124.063C130.306 127.552 137.366 129.299 145.322 129.299C154.463 129.299 162.202 127.174 168.526 122.93C174.856 118.686 179.478 113.367 182.403 106.985H183.536V127.68H197.977V3.04645H183.536V80.0502V80.0438Z" fill="#1C1C1C"/>
<path d="M237.104 2.88696H221.934V127.674H279.824V114.04H237.104V2.88696Z" fill="#1C1C1C"/>
<path d="M389.865 62.5184C389.865 52.0784 388.406 43.0338 385.481 35.3783C382.562 27.7227 378.593 21.3666 373.594 16.3098C368.589 11.253 362.949 7.49562 356.676 5.03125C350.403 2.57327 343.881 1.33789 337.121 1.33789C326.355 1.33789 316.875 4.10951 308.682 9.65275C300.489 15.196 294.075 22.8516 289.453 32.6131C284.832 42.381 282.515 53.5378 282.515 66.0837C282.515 78.6297 284.825 89.8186 289.453 99.4713C294.081 109.13 300.636 116.671 309.13 122.112C317.624 127.546 327.686 130.266 339.317 130.266C347.645 130.266 355.019 128.929 361.426 126.253C367.833 123.577 373.191 120.018 377.492 115.582C381.794 111.147 384.892 106.307 386.787 101.059L373.076 96.5972C371.507 100.329 369.19 103.753 366.137 106.858C363.077 109.969 359.32 112.446 354.858 114.283C350.397 116.12 345.212 117.042 339.323 117.042C330.669 117.042 323.174 115.013 316.849 110.955C310.519 106.896 305.635 101.174 302.204 93.7936C298.978 86.8549 297.269 78.8089 297.07 69.6555H389.878V62.512L389.865 62.5184ZM297.154 56.9175C297.589 49.9725 299.266 43.5075 302.191 37.5226C305.571 30.5967 310.263 25.0279 316.267 20.8097C322.271 16.5914 329.223 14.4791 337.121 14.4791C344.585 14.4791 351.172 16.3482 356.881 20.0799C362.591 23.8117 367.052 28.8813 370.272 35.2951C373.492 41.7024 375.098 48.9163 375.098 56.9175H297.16H297.154Z" fill="#1C1C1C"/>
<path d="M11.8206 158.306H18.9646L35.6846 204.97L52.2526 158.306H59.4726L39.9406 212.266H31.3526L11.8206 158.306ZM55.8513 192.126C55.8513 179.358 63.0713 171.074 74.3193 171.074C83.2113 171.074 91.1153 176.926 91.7233 191.214L91.7993 194.102H62.6153C63.2233 202.31 67.4033 207.098 74.3193 207.098C78.5753 207.098 82.5273 204.59 84.3513 200.334L91.1913 200.866C88.8353 208.466 81.9953 213.178 74.3193 213.178C63.0713 213.178 55.8513 204.894 55.8513 192.126ZM62.7673 188.478H84.8073C83.7433 180.042 79.1833 177.154 74.3193 177.154C67.9353 177.154 63.8313 181.334 62.7673 188.478ZM96.1093 171.986H101.961L102.113 178.978C104.165 173.506 108.953 171.074 114.501 171.074C123.697 171.074 128.105 177.838 128.105 186.35V212.266H121.721V188.174C121.721 180.726 119.213 176.698 113.133 176.698C106.749 176.698 102.493 180.726 102.493 188.174V212.266H96.1093V171.986ZM137.368 162.866H143.752V171.986H154.468V177.61H143.752V201.55C143.752 204.894 145.348 206.642 148.54 206.642H154.316V212.266H148.54C141.32 212.266 137.368 208.39 137.368 201.55V177.61H131.44V171.986H137.368V162.866ZM189.864 212.266H183.784V205.578C181.656 210.822 177.02 213.178 171.7 213.178C162.732 213.178 158.324 206.414 158.324 197.902V171.986H164.708V196.002C164.708 203.526 167.216 207.554 173.068 207.554C179.3 207.554 183.48 203.526 183.48 196.002V171.986H189.864V212.266ZM197.039 171.986H202.663L202.891 179.358C204.259 174.342 207.223 171.986 212.467 171.986H216.419V177.61H212.467C206.311 177.61 203.423 181.334 203.423 188.25V212.266H197.039V171.986ZM216.25 192.126C216.25 179.358 223.47 171.074 234.718 171.074C243.61 171.074 251.514 176.926 252.122 191.214L252.198 194.102H223.014C223.622 202.31 227.802 207.098 234.718 207.098C238.974 207.098 242.926 204.59 244.75 200.334L251.59 200.866C249.234 208.466 242.394 213.178 234.718 213.178C223.47 213.178 216.25 204.894 216.25 192.126ZM223.166 188.478H245.206C244.142 180.042 239.582 177.154 234.718 177.154C228.334 177.154 224.23 181.334 223.166 188.478ZM271.791 212.266V158.306H278.327V181.942H304.699V158.306H311.235V212.266H304.699V188.326H278.327V212.266H271.791ZM349.372 212.266H343.292V205.578C341.164 210.822 336.528 213.178 331.208 213.178C322.24 213.178 317.832 206.414 317.832 197.902V171.986H324.216V196.002C324.216 203.526 326.724 207.554 332.576 207.554C338.808 207.554 342.988 203.526 342.988 196.002V171.986H349.372V212.266ZM355.434 158.306H361.818V177.306C364.022 173.506 368.81 171.074 374.206 171.074C384.694 171.074 391.23 179.206 391.23 192.126C391.23 205.046 384.694 213.178 374.206 213.178C368.582 213.178 363.718 210.594 361.438 206.49L361.21 212.266H355.434V158.306ZM361.21 192.126C361.21 201.322 365.77 207.098 372.914 207.098C379.982 207.098 384.542 201.322 384.542 192.126C384.542 182.778 379.982 176.85 372.914 176.85C365.77 176.85 361.21 182.778 361.21 192.126Z" fill="#1C1C1C"/>
</svg>
