<svg width="131" height="44" viewBox="0 0 131 44" fill="none" xmlns="http://www.w3.org/2000/svg">
<g clip-path="url(#clip0_2384_274)">
<path d="M67.0924 6.73126C66.9452 5.48435 66.3461 4.51781 65.2963 3.82906C64.2466 3.14032 62.96 2.79594 61.434 2.79594C60.3189 2.79594 59.3447 2.97645 58.5126 3.33747C57.6804 3.69848 57.0327 4.19392 56.5692 4.82634C56.1058 5.45747 55.8741 6.17566 55.8741 6.97834C55.8741 7.65045 56.0354 8.22653 56.3593 8.70661C56.6832 9.18668 57.0992 9.58354 57.6075 9.89974C58.1157 10.216 58.6483 10.4733 59.2064 10.6743C59.7646 10.8753 60.2767 11.0366 60.744 11.1595L63.3018 11.8482C63.9572 12.021 64.6895 12.2579 65.4973 12.5613C66.3051 12.8647 67.0796 13.2769 67.8222 13.7979C68.5647 14.319 69.1766 14.9847 69.6605 15.7963C70.1444 16.608 70.3864 17.604 70.3864 18.7856C70.3864 20.1464 70.0318 21.3767 69.3225 22.4751C68.6133 23.5735 67.5802 24.4479 66.2232 25.0944C64.8662 25.7422 63.2199 26.066 61.2842 26.066C59.4804 26.066 57.9198 25.7754 56.6038 25.193C55.2878 24.6105 54.2546 23.7988 53.5044 22.758C52.7543 21.7172 52.3292 20.5074 52.2319 19.13H55.3812C55.4631 20.0811 55.7845 20.8659 56.3465 21.4855C56.9085 22.1051 57.6216 22.5634 58.487 22.863C59.3524 23.1626 60.2844 23.3123 61.2855 23.3123C62.4492 23.3123 63.4951 23.1216 64.422 22.7401C65.3488 22.3586 66.0824 21.826 66.6239 21.1411C67.1654 20.4562 67.4355 19.6548 67.4355 18.7369C67.4355 17.901 67.2013 17.2199 66.734 16.695C66.2667 16.1701 65.6522 15.7438 64.8892 15.4161C64.1262 15.0884 63.3031 14.8016 62.4172 14.5545L59.3178 13.6686C57.3502 13.1028 55.7922 12.295 54.6438 11.2452C53.4955 10.1955 52.922 8.82182 52.922 7.12428C52.922 5.71351 53.3047 4.48196 54.0716 3.42836C54.8384 2.37476 55.8715 1.55416 57.1709 0.967826C58.4703 0.381497 59.9246 0.0883331 61.5313 0.0883331C63.1379 0.0883331 64.5986 0.377656 65.8609 0.955024C67.1232 1.53367 68.1256 2.32227 68.8681 3.32338C69.6106 4.3245 70.001 5.46003 70.0433 6.72999H67.0912L67.0924 6.73126Z" fill="#1C1C1C"/>
<path d="M88.9389 16.0972C88.9389 17.6232 88.6035 18.9072 87.9327 19.9518C87.2619 20.9965 86.4067 21.7889 85.3685 22.3292C84.3302 22.8707 83.2484 23.1408 82.1232 23.1408C80.327 23.1408 78.8561 22.5481 77.709 21.3639C76.562 20.1797 75.9885 18.6128 75.9885 16.6656V0.696426H73.1003V16.8435C73.1003 18.8125 73.4524 20.4729 74.1552 21.826C74.858 23.1779 75.8272 24.2034 77.06 24.9011C78.2928 25.5988 79.7049 25.9483 81.2962 25.9483C83.1243 25.9483 84.672 25.5232 85.9369 24.6745C87.203 23.8257 88.1273 22.7619 88.7123 21.4855H88.9389V25.6244H91.827V0.697708H88.9389V16.0985V16.0972Z" fill="#1C1C1C"/>
<path d="M99.653 0.665703H96.6189V25.6231H108.197V22.8963H99.653V0.665703Z" fill="#1C1C1C"/>
<path d="M130.205 12.592C130.205 10.504 129.913 8.69509 129.328 7.16397C128.744 5.63286 127.95 4.36163 126.951 3.35027C125.949 2.33892 124.822 1.58744 123.567 1.09457C122.312 0.602972 121.008 0.355896 119.656 0.355896C117.503 0.355896 115.607 0.910219 113.968 2.01887C112.329 3.12752 111.047 4.65863 110.122 6.61093C109.198 8.56451 108.735 10.7959 108.735 13.3051C108.735 15.8143 109.197 18.052 110.122 19.9826C111.048 21.9144 112.359 23.4225 114.058 24.5106C115.756 25.5975 117.769 26.1416 120.095 26.1416C121.761 26.1416 123.235 25.874 124.517 25.3389C125.798 24.8038 126.87 24.092 127.73 23.2048C128.59 22.3176 129.21 21.3498 129.589 20.3001L126.847 19.4078C126.533 20.1541 126.07 20.839 125.459 21.4599C124.847 22.0821 124.096 22.5775 123.203 22.9449C122.311 23.3124 121.274 23.4967 120.096 23.4967C118.366 23.4967 116.866 23.0909 115.602 22.2792C114.335 21.4676 113.359 20.3231 112.673 18.847C112.027 17.4593 111.685 15.8501 111.646 14.0194H130.207V12.5907L130.205 12.592ZM111.662 11.4718C111.749 10.0828 112.085 8.78982 112.67 7.59284C113.346 6.20767 114.284 5.0939 115.485 4.25025C116.686 3.4066 118.076 2.98414 119.656 2.98414C121.149 2.98414 122.466 3.35795 123.608 4.10431C124.75 4.85066 125.642 5.86457 126.286 7.14733C126.93 8.4288 127.251 9.87158 127.251 11.4718H111.664H111.662Z" fill="#1C1C1C"/>
<path d="M36.4459 25.2134H12.0338C5.39858 25.2134 0 19.8149 0 13.1796V13.0516C0 6.41634 5.39858 1.01775 12.0338 1.01775H36.4459C43.0811 1.01775 48.4797 6.41634 48.4797 13.0516V13.1796C48.4797 19.8149 43.0811 25.2134 36.4459 25.2134ZM36.4459 2.81003H12.0338C6.38689 2.81003 1.79227 7.40465 1.79227 13.0516V13.1796C1.79227 18.8265 6.38689 23.4212 12.0338 23.4212H36.4459C42.0928 23.4212 46.6874 18.8265 46.6874 13.1796V13.0516C46.6874 7.40465 42.0928 2.81003 36.4459 2.81003Z" fill="#1C1C1C"/>
<path d="M12.5908 18.116C15.3524 18.116 17.5912 15.8773 17.5912 13.1156C17.5912 10.3539 15.3524 8.11516 12.5908 8.11516C9.82911 8.11516 7.59033 10.3539 7.59033 13.1156C7.59033 15.8773 9.82911 18.116 12.5908 18.116Z" fill="#1C1C1C"/>
<path d="M11.6767 14.1961C12.9232 14.1961 13.9336 13.1856 13.9336 11.9391C13.9336 10.6926 12.9232 9.68211 11.6767 9.68211C10.4302 9.68211 9.41968 10.6926 9.41968 11.9391C9.41968 13.1856 10.4302 14.1961 11.6767 14.1961Z" fill="white"/>
<path d="M35.8903 18.116C38.652 18.116 40.8908 15.8773 40.8908 13.1156C40.8908 10.3539 38.652 8.11516 35.8903 8.11516C33.1287 8.11516 30.8899 10.3539 30.8899 13.1156C30.8899 15.8773 33.1287 18.116 35.8903 18.116Z" fill="#1C1C1C"/>
<path d="M34.9762 14.1961C36.2227 14.1961 37.2332 13.1856 37.2332 11.9391C37.2332 10.6926 36.2227 9.68211 34.9762 9.68211C33.7297 9.68211 32.7192 10.6926 32.7192 11.9391C32.7192 13.1856 33.7297 14.1961 34.9762 14.1961Z" fill="white"/>
</g>
<path d="M41.6645 43V42.84L41.9525 42.744C42.1658 42.6693 42.3098 42.568 42.3845 42.44C42.4592 42.312 42.4965 42.1413 42.4965 41.928C42.5072 41.288 42.5125 40.6427 42.5125 39.992C42.5125 39.3413 42.5125 38.6907 42.5125 38.04V37.4C42.5125 36.76 42.5125 36.12 42.5125 35.48C42.5125 34.8293 42.5072 34.184 42.4965 33.544C42.4965 33.3307 42.4645 33.16 42.4005 33.032C42.3472 32.904 42.2192 32.8027 42.0165 32.728L41.6645 32.6V32.44H49.4085L49.5205 35.096H49.3605L48.4485 33.416C48.3418 33.2133 48.2192 33.0533 48.0805 32.936C47.9418 32.8187 47.7498 32.76 47.5045 32.76H44.9285C44.9178 33.5173 44.9125 34.2907 44.9125 35.08C44.9125 35.8693 44.9125 36.6533 44.9125 37.432H46.5765C46.8218 37.432 47.0032 37.3787 47.1205 37.272C47.2378 37.1653 47.3498 37.0107 47.4565 36.808L47.7925 36.2H47.9525V39H47.7925L47.4405 38.392C47.3338 38.2 47.2218 38.0453 47.1045 37.928C46.9978 37.8107 46.8218 37.752 46.5765 37.752H44.9125C44.9125 38.4987 44.9125 39.2133 44.9125 39.896C44.9125 40.568 44.9178 41.2293 44.9285 41.88C44.9285 42.296 45.1312 42.568 45.5365 42.696L46.0165 42.84V43H41.6645ZM52.4774 43.24C51.6667 43.24 50.9627 43.0747 50.3654 42.744C49.768 42.4027 49.304 41.9227 48.9734 41.304C48.6534 40.6853 48.4934 39.96 48.4934 39.128C48.4934 38.296 48.664 37.576 49.0054 36.968C49.3574 36.36 49.832 35.8907 50.4294 35.56C51.0374 35.2293 51.72 35.064 52.4774 35.064C53.2347 35.064 53.912 35.2293 54.5094 35.56C55.1067 35.88 55.576 36.344 55.9174 36.952C56.2694 37.56 56.4454 38.2853 56.4454 39.128C56.4454 39.9707 56.28 40.7013 55.9494 41.32C55.6294 41.928 55.1707 42.4027 54.5734 42.744C53.9867 43.0747 53.288 43.24 52.4774 43.24ZM52.4774 42.92C52.8507 42.92 53.1494 42.8133 53.3734 42.6C53.5974 42.3867 53.7574 42.008 53.8534 41.464C53.96 40.92 54.0134 40.152 54.0134 39.16C54.0134 38.1573 53.96 37.384 53.8534 36.84C53.7574 36.296 53.5974 35.9173 53.3734 35.704C53.1494 35.4907 52.8507 35.384 52.4774 35.384C52.104 35.384 51.8 35.4907 51.5654 35.704C51.3414 35.9173 51.176 36.296 51.0694 36.84C50.9734 37.384 50.9254 38.1573 50.9254 39.16C50.9254 40.152 50.9734 40.92 51.0694 41.464C51.176 42.008 51.3414 42.3867 51.5654 42.6C51.8 42.8133 52.104 42.92 52.4774 42.92ZM56.1481 43V42.84L56.3881 42.776C56.6015 42.712 56.7455 42.616 56.8201 42.488C56.9055 42.36 56.9481 42.1947 56.9481 41.992V36.984C56.9481 36.7493 56.9055 36.5787 56.8201 36.472C56.7455 36.3547 56.6015 36.2747 56.3881 36.232L56.1481 36.168V36.008L58.9001 35.08L59.0601 35.24L59.2041 36.616V36.744C59.3535 36.4453 59.5455 36.1733 59.7801 35.928C60.0255 35.672 60.2921 35.464 60.5801 35.304C60.8788 35.144 61.1721 35.064 61.4601 35.064C61.8655 35.064 62.1748 35.176 62.3881 35.4C62.6015 35.624 62.7081 35.9067 62.7081 36.248C62.7081 36.6107 62.6015 36.8933 62.3881 37.096C62.1855 37.288 61.9401 37.384 61.6521 37.384C61.2041 37.384 60.8095 37.16 60.4681 36.712L60.4361 36.68C60.3295 36.5307 60.2068 36.4507 60.0681 36.44C59.9295 36.4187 59.8015 36.4827 59.6841 36.632C59.5775 36.728 59.4868 36.8453 59.4121 36.984C59.3481 37.112 59.2841 37.2613 59.2201 37.432V41.896C59.2201 42.3227 59.4068 42.5893 59.7801 42.696L60.2921 42.84V43H56.1481ZM64.727 43V42.84L65.063 42.712C65.287 42.6267 65.4257 42.5253 65.479 42.408C65.543 42.28 65.575 42.1093 65.575 41.896V33.544C65.575 33.3307 65.543 33.16 65.479 33.032C65.415 32.904 65.2763 32.8027 65.063 32.728L64.727 32.6V32.44H68.807V32.6L68.519 32.728C68.3163 32.8027 68.1777 32.9093 68.103 33.048C68.0283 33.176 67.991 33.3467 67.991 33.56V42.68H70.455C70.8497 42.68 71.1377 42.584 71.319 42.392C71.511 42.2 71.6923 41.9227 71.863 41.56L72.487 40.216H72.647L72.503 43H64.727ZM74.6716 43.24C74.053 43.24 73.5303 43.064 73.1036 42.712C72.6876 42.36 72.4796 41.8533 72.4796 41.192C72.4796 40.6907 72.7356 40.232 73.2476 39.816C73.7596 39.3893 74.565 39.0693 75.6636 38.856C75.8343 38.824 76.0263 38.792 76.2396 38.76C76.453 38.7173 76.677 38.6747 76.9116 38.632V37.368C76.9116 36.6427 76.821 36.136 76.6396 35.848C76.469 35.5493 76.197 35.4 75.8236 35.4C75.5676 35.4 75.365 35.4853 75.2156 35.656C75.0663 35.816 74.9703 36.0987 74.9276 36.504L74.8956 36.68C74.8743 37.1387 74.7623 37.4747 74.5596 37.688C74.357 37.9013 74.1063 38.008 73.8076 38.008C73.5303 38.008 73.301 37.9227 73.1196 37.752C72.9383 37.5813 72.8476 37.352 72.8476 37.064C72.8476 36.6267 72.997 36.2587 73.2956 35.96C73.605 35.6613 74.0103 35.4373 74.5116 35.288C75.013 35.1387 75.557 35.064 76.1436 35.064C77.093 35.064 77.8236 35.2987 78.3356 35.768C78.8583 36.2267 79.1196 36.9787 79.1196 38.024V41.56C79.1196 42.04 79.3436 42.28 79.7916 42.28H80.1436L80.2876 42.408C80.085 42.664 79.861 42.8613 79.6156 43C79.381 43.1387 79.045 43.208 78.6076 43.208C78.1383 43.208 77.765 43.1013 77.4876 42.888C77.221 42.664 77.045 42.3707 76.9596 42.008C76.6396 42.3493 76.309 42.6427 75.9676 42.888C75.637 43.1227 75.205 43.24 74.6716 43.24ZM75.6476 42.264C75.861 42.264 76.0583 42.216 76.2396 42.12C76.4316 42.0133 76.6556 41.8533 76.9116 41.64V38.952C76.805 38.9733 76.6983 38.9947 76.5916 39.016C76.485 39.0373 76.3623 39.0587 76.2236 39.08C75.733 39.208 75.3383 39.4267 75.0396 39.736C74.7516 40.0347 74.6076 40.44 74.6076 40.952C74.6076 41.3893 74.709 41.72 74.9116 41.944C75.1143 42.1573 75.3596 42.264 75.6476 42.264ZM82.5844 43.048L80.1204 36.28C80.003 35.9387 79.7684 35.6987 79.4164 35.56L79.1444 35.464V35.304H83.0644V35.464L82.8244 35.528C82.4084 35.656 82.2697 35.912 82.4084 36.296L83.8964 40.824L85.2244 37.304L84.9204 36.392C84.8457 36.1573 84.7657 35.9813 84.6804 35.864C84.6057 35.736 84.5044 35.6453 84.3764 35.592L84.1044 35.464V35.304H87.4164V35.464L87.1924 35.56C87.0324 35.624 86.9364 35.7093 86.9044 35.816C86.8724 35.9227 86.8937 36.0827 86.9684 36.296L88.4404 40.744L89.9604 36.328C90.1097 35.9227 90.0297 35.6667 89.7204 35.56L89.3684 35.464V35.304H91.2884V35.464L90.9044 35.576C90.723 35.6293 90.5897 35.7147 90.5044 35.832C90.4297 35.9387 90.3604 36.088 90.2964 36.28L87.9924 43.048H87.1764L85.4004 37.816L83.5124 43.048H82.5844ZM93.3208 43V42.84L93.6088 42.744C93.8221 42.6693 93.9661 42.568 94.0408 42.44C94.1154 42.312 94.1528 42.1413 94.1528 41.928C94.1634 41.288 94.1688 40.6427 94.1688 39.992C94.1688 39.3413 94.1688 38.6907 94.1688 38.04V37.4C94.1688 36.76 94.1688 36.12 94.1688 35.48C94.1688 34.8293 94.1634 34.184 94.1528 33.544C94.1528 33.3307 94.1208 33.16 94.0568 33.032C94.0034 32.904 93.8754 32.8027 93.6728 32.728L93.3208 32.6V32.44H101.065L101.177 35.096H101.017L100.105 33.416C99.9981 33.2133 99.8754 33.0533 99.7368 32.936C99.5981 32.8187 99.4061 32.76 99.1608 32.76H96.5848C96.5741 33.5173 96.5688 34.2907 96.5688 35.08C96.5688 35.8693 96.5688 36.6533 96.5688 37.432H98.2328C98.4781 37.432 98.6594 37.3787 98.7768 37.272C98.8941 37.1653 99.0061 37.0107 99.1128 36.808L99.4488 36.2H99.6088V39H99.4488L99.0968 38.392C98.9901 38.2 98.8781 38.0453 98.7608 37.928C98.6541 37.8107 98.4781 37.752 98.2328 37.752H96.5688C96.5688 38.4987 96.5688 39.2133 96.5688 39.896C96.5688 40.568 96.5741 41.2293 96.5848 41.88C96.5848 42.296 96.7874 42.568 97.1927 42.696L97.6727 42.84V43H93.3208ZM102.474 34.232C102.112 34.232 101.802 34.12 101.546 33.896C101.301 33.6613 101.178 33.368 101.178 33.016C101.178 32.6533 101.301 32.36 101.546 32.136C101.802 31.912 102.112 31.8 102.474 31.8C102.837 31.8 103.141 31.912 103.386 32.136C103.632 32.36 103.754 32.6533 103.754 33.016C103.754 33.368 103.632 33.6613 103.386 33.896C103.141 34.12 102.837 34.232 102.474 34.232ZM100.586 43V42.84L100.81 42.776C101.024 42.712 101.168 42.616 101.242 42.488C101.328 42.36 101.37 42.1893 101.37 41.976V36.968C101.37 36.744 101.328 36.5787 101.242 36.472C101.168 36.3547 101.024 36.2747 100.81 36.232L100.586 36.184V36.024L103.514 35.08L103.674 35.24L103.626 37.512V41.992C103.626 42.2053 103.664 42.376 103.738 42.504C103.824 42.632 103.968 42.728 104.17 42.792L104.33 42.84V43H100.586ZM104.039 43V42.84L104.279 42.776C104.492 42.712 104.636 42.616 104.711 42.488C104.796 42.36 104.839 42.1947 104.839 41.992V36.984C104.839 36.7493 104.796 36.5787 104.711 36.472C104.636 36.3547 104.492 36.2747 104.279 36.232L104.039 36.168V36.008L106.791 35.08L106.951 35.24L107.095 36.616V36.744C107.244 36.4453 107.436 36.1733 107.671 35.928C107.916 35.672 108.183 35.464 108.471 35.304C108.769 35.144 109.063 35.064 109.351 35.064C109.756 35.064 110.065 35.176 110.279 35.4C110.492 35.624 110.599 35.9067 110.599 36.248C110.599 36.6107 110.492 36.8933 110.279 37.096C110.076 37.288 109.831 37.384 109.543 37.384C109.095 37.384 108.7 37.16 108.359 36.712L108.327 36.68C108.22 36.5307 108.097 36.4507 107.959 36.44C107.82 36.4187 107.692 36.4827 107.575 36.632C107.468 36.728 107.377 36.8453 107.303 36.984C107.239 37.112 107.175 37.2613 107.111 37.432V41.896C107.111 42.3227 107.297 42.5893 107.671 42.696L108.183 42.84V43H104.039ZM110.101 43V42.84L110.325 42.776C110.528 42.7227 110.667 42.632 110.741 42.504C110.827 42.376 110.875 42.2053 110.885 41.992V36.984C110.885 36.7493 110.848 36.5787 110.773 36.472C110.699 36.3547 110.555 36.2747 110.341 36.232L110.101 36.168V36.008L112.837 35.08L112.997 35.24L113.125 36.328C113.477 35.976 113.877 35.6773 114.325 35.432C114.784 35.1867 115.259 35.064 115.749 35.064C116.261 35.064 116.672 35.1707 116.981 35.384C117.291 35.5867 117.525 35.9067 117.685 36.344C118.101 35.9493 118.549 35.64 119.029 35.416C119.52 35.1813 119.995 35.064 120.453 35.064C121.211 35.064 121.765 35.2453 122.117 35.608C122.48 35.9707 122.661 36.5413 122.661 37.32V42.008C122.661 42.424 122.853 42.6853 123.237 42.792L123.413 42.84V43H119.717V42.84L119.877 42.792C120.08 42.728 120.219 42.632 120.293 42.504C120.379 42.376 120.421 42.2053 120.421 41.992V37.096C120.421 36.648 120.341 36.344 120.181 36.184C120.021 36.0133 119.765 35.928 119.413 35.928C119.136 35.928 118.864 35.992 118.597 36.12C118.341 36.2373 118.069 36.4187 117.781 36.664C117.835 36.8347 117.867 37.0213 117.877 37.224C117.899 37.4267 117.909 37.64 117.909 37.864V42.008C117.92 42.424 118.112 42.6853 118.485 42.792L118.629 42.84V43H114.917V42.84L115.141 42.776C115.344 42.712 115.483 42.6213 115.557 42.504C115.643 42.376 115.685 42.2053 115.685 41.992V37.112C115.685 36.6853 115.605 36.3813 115.445 36.2C115.296 36.0187 115.035 35.928 114.661 35.928C114.416 35.928 114.171 35.992 113.925 36.12C113.68 36.2373 113.424 36.4133 113.157 36.648V42.008C113.157 42.424 113.344 42.6853 113.717 42.792L113.861 42.84V43H110.101ZM125.807 43.24C125.284 43.24 124.815 43.176 124.399 43.048C123.983 42.9307 123.599 42.7813 123.247 42.6L123.263 40.696H123.423L123.967 41.656C124.201 42.0827 124.457 42.4027 124.735 42.616C125.023 42.8187 125.385 42.92 125.823 42.92C126.335 42.92 126.745 42.808 127.055 42.584C127.375 42.3493 127.535 42.04 127.535 41.656C127.535 41.304 127.423 41.016 127.199 40.792C126.975 40.568 126.559 40.3653 125.951 40.184L125.279 39.976C124.628 39.784 124.116 39.4853 123.743 39.08C123.369 38.6747 123.183 38.1787 123.183 37.592C123.183 36.888 123.46 36.2907 124.015 35.8C124.569 35.3093 125.364 35.064 126.399 35.064C126.815 35.064 127.204 35.112 127.567 35.208C127.94 35.2933 128.297 35.4267 128.639 35.608L128.543 37.336H128.383L127.823 36.344C127.62 35.992 127.417 35.7467 127.215 35.608C127.023 35.4587 126.729 35.384 126.335 35.384C125.972 35.384 125.631 35.4853 125.311 35.688C124.991 35.8907 124.831 36.1787 124.831 36.552C124.831 36.9147 124.964 37.2027 125.231 37.416C125.508 37.6293 125.913 37.8267 126.447 38.008L127.167 38.216C127.935 38.4507 128.484 38.776 128.815 39.192C129.145 39.5973 129.311 40.088 129.311 40.664C129.311 41.4427 129.001 42.0667 128.383 42.536C127.775 43.0053 126.916 43.24 125.807 43.24Z" fill="#1C1C1C"/>
<defs>
<clipPath id="clip0_2384_274">
<rect width="130.196" height="26.244" fill="white"/>
</clipPath>
</defs>
</svg>
