<svg width="1200" height="936" viewBox="0 0 1200 936" fill="none" xmlns="http://www.w3.org/2000/svg">
<g clip-path="url(#clip0_2420_204)">
<rect width="1200" height="936" rx="8" fill="#E6E9E7"/>
<rect x="59" y="223" width="1082" height="20" rx="10" fill="white"/>
<rect x="59" y="223" width="1082" height="20" rx="10" fill="white"/>
<rect x="59" y="223" width="780.094" height="20" rx="10" fill="white"/>
<rect x="59" y="223" width="780.094" height="20" rx="10" fill="black"/>
<path d="M433.59 172.7V175.22H426.96V194H424.38V175.22H417.75V172.7H433.59ZM437.144 172.7H439.664V180.26C440.564 178.52 442.424 177.74 444.404 177.74C447.704 177.74 449.774 180.08 449.774 183.77V194H447.254V184.67C447.254 181.64 446.144 180.14 443.864 180.14C441.344 180.14 439.664 181.73 439.664 184.67V194H437.144V172.7ZM453.546 186.05C453.546 181.01 456.396 177.74 460.836 177.74C464.346 177.74 467.466 180.05 467.706 185.69L467.736 186.83H456.216C456.456 190.07 458.106 191.96 460.836 191.96C462.516 191.96 464.076 190.97 464.796 189.29L467.496 189.5C466.566 192.5 463.866 194.36 460.836 194.36C456.396 194.36 453.546 191.09 453.546 186.05ZM456.276 184.61H464.976C464.556 181.28 462.756 180.14 460.836 180.14C458.316 180.14 456.696 181.79 456.276 184.61ZM490.117 183.44C489.787 181.37 488.047 180.14 486.157 180.14C483.217 180.14 481.507 182.36 481.507 186.05C481.507 189.74 483.217 191.96 486.157 191.96C488.137 191.96 489.877 190.64 490.237 188.36L492.907 188.54C492.397 192.14 489.517 194.36 486.157 194.36C481.717 194.36 478.867 191.09 478.867 186.05C478.867 181.01 481.717 177.74 486.157 177.74C489.397 177.74 492.337 179.84 492.757 183.26L490.117 183.44ZM496.237 182.78C496.867 179.69 499.357 177.74 502.747 177.74C506.827 177.74 509.137 180.14 509.137 184.4V190.79C509.137 191.45 509.437 191.78 510.097 191.78H510.757V194H509.677C508.057 194 506.647 193.49 506.647 191.54C505.957 193.01 504.217 194.36 501.697 194.36C498.517 194.36 495.967 192.68 495.967 189.83C495.967 186.56 498.427 185.72 501.967 185.06L506.617 184.13C506.587 181.46 505.297 180.14 502.747 180.14C500.737 180.14 499.387 181.16 498.907 182.99L496.237 182.78ZM498.607 189.83C498.607 191.09 499.687 192.14 502.027 192.14C504.607 192.11 506.677 190.31 506.677 186.59V186.38L502.927 187.04C500.557 187.46 498.607 187.61 498.607 189.83ZM514.378 198.5V178.1H516.658L516.748 180.47C517.618 178.7 519.328 177.74 521.638 177.74C526.378 177.74 528.508 181.67 528.508 186.05C528.508 190.43 526.378 194.36 521.638 194.36C519.418 194.36 517.798 193.49 516.898 191.84V198.5H514.378ZM516.628 186.05C516.628 189.02 517.978 191.96 521.218 191.96C524.488 191.96 525.808 189.08 525.808 186.05C525.808 183.02 524.488 180.14 521.218 180.14C517.978 180.14 516.628 183.08 516.628 186.05ZM542.198 174.5H544.718V178.1H548.948V180.32H544.718V189.77C544.718 191.09 545.348 191.78 546.608 191.78H548.888V194H546.608C543.758 194 542.198 192.47 542.198 189.77V180.32H539.858V178.1H542.198V174.5ZM552.124 182.78C552.754 179.69 555.244 177.74 558.634 177.74C562.714 177.74 565.024 180.14 565.024 184.4V190.79C565.024 191.45 565.324 191.78 565.984 191.78H566.644V194H565.564C563.944 194 562.534 193.49 562.534 191.54C561.844 193.01 560.104 194.36 557.584 194.36C554.404 194.36 551.854 192.68 551.854 189.83C551.854 186.56 554.314 185.72 557.854 185.06L562.504 184.13C562.474 181.46 561.184 180.14 558.634 180.14C556.624 180.14 555.274 181.16 554.794 182.99L552.124 182.78ZM554.494 189.83C554.494 191.09 555.574 192.14 557.914 192.14C560.494 192.11 562.564 190.31 562.564 186.59V186.38L558.814 187.04C556.444 187.46 554.494 187.61 554.494 189.83ZM570.5 172.7H573.02V180.2C573.89 178.7 575.78 177.74 577.91 177.74C582.05 177.74 584.63 180.95 584.63 186.05C584.63 191.15 582.05 194.36 577.91 194.36C575.69 194.36 573.77 193.34 572.87 191.72L572.78 194H570.5V172.7ZM572.78 186.05C572.78 189.68 574.58 191.96 577.4 191.96C580.19 191.96 581.99 189.68 581.99 186.05C581.99 182.36 580.19 180.02 577.4 180.02C574.58 180.02 572.78 182.36 572.78 186.05ZM588.829 172.7H591.349V190.79C591.349 191.45 591.679 191.78 592.339 191.78H593.719V194H591.949C590.089 194 588.829 192.74 588.829 190.91V172.7ZM596.442 186.05C596.442 181.01 599.292 177.74 603.732 177.74C607.242 177.74 610.362 180.05 610.602 185.69L610.632 186.83H599.112C599.352 190.07 601.002 191.96 603.732 191.96C605.412 191.96 606.972 190.97 607.692 189.29L610.392 189.5C609.462 192.5 606.762 194.36 603.732 194.36C599.292 194.36 596.442 191.09 596.442 186.05ZM599.172 184.61H607.872C607.452 181.28 605.652 180.14 603.732 180.14C601.212 180.14 599.592 181.79 599.172 184.61ZM622.754 178.1H625.274V194H622.754V178.1ZM622.694 175.61V172.73H625.334V175.61H622.694ZM639.628 183.02C639.268 181.22 637.498 180.14 635.728 180.14C633.958 180.14 632.518 181.04 632.518 182.57C632.518 184.13 634.588 184.76 636.328 185.12C639.928 185.81 642.568 186.8 642.568 189.95C642.568 193.04 639.388 194.36 636.358 194.36C632.608 194.36 629.728 192.29 629.488 188.99L632.128 188.81C632.458 190.73 633.988 191.96 636.358 191.96C637.918 191.96 639.928 191.45 639.928 189.8C639.928 187.91 637.678 187.7 635.878 187.28C632.968 186.62 629.878 185.78 629.878 182.69C629.878 179.66 632.338 177.74 635.998 177.74C639.148 177.74 641.758 179.75 642.268 182.84L639.628 183.02ZM654.686 172.7H657.206V190.79C657.206 191.45 657.536 191.78 658.196 191.78H659.576V194H657.806C655.946 194 654.686 192.74 654.686 190.91V172.7ZM669.589 194.36C665.179 194.36 662.299 191.12 662.299 186.05C662.299 180.98 665.179 177.74 669.589 177.74C673.969 177.74 676.849 180.98 676.849 186.05C676.849 191.12 673.969 194.36 669.589 194.36ZM664.939 186.05C664.939 189.74 666.649 191.96 669.589 191.96C672.499 191.96 674.209 189.74 674.209 186.05C674.209 182.36 672.499 180.14 669.589 180.14C666.649 180.14 664.939 182.36 664.939 186.05ZM680.489 182.78C681.119 179.69 683.609 177.74 686.999 177.74C691.079 177.74 693.389 180.14 693.389 184.4V190.79C693.389 191.45 693.689 191.78 694.349 191.78H695.009V194H693.929C692.309 194 690.899 193.49 690.899 191.54C690.209 193.01 688.469 194.36 685.949 194.36C682.769 194.36 680.219 192.68 680.219 189.83C680.219 186.56 682.679 185.72 686.219 185.06L690.869 184.13C690.839 181.46 689.549 180.14 686.999 180.14C684.989 180.14 683.639 181.16 683.159 182.99L680.489 182.78ZM682.859 189.83C682.859 191.09 683.939 192.14 686.279 192.14C688.859 192.11 690.929 190.31 690.929 186.59V186.38L687.179 187.04C684.809 187.46 682.859 187.61 682.859 189.83ZM711.712 172.7V194H709.432L709.342 191.72C708.442 193.34 706.522 194.36 704.302 194.36C700.162 194.36 697.582 191.15 697.582 186.05C697.582 180.95 700.162 177.74 704.302 177.74C706.432 177.74 708.322 178.7 709.192 180.2V172.7H711.712ZM700.222 186.05C700.222 189.68 702.022 191.96 704.812 191.96C707.632 191.96 709.432 189.68 709.432 186.05C709.432 182.36 707.632 180.02 704.812 180.02C702.022 180.02 700.222 182.36 700.222 186.05ZM715.993 178.1H718.513V194H715.993V178.1ZM715.933 175.61V172.73H718.573V175.61H715.933ZM723.278 178.1H725.588L725.648 180.86C726.458 178.7 728.348 177.74 730.538 177.74C734.168 177.74 735.908 180.41 735.908 183.77V194H733.388V184.49C733.388 181.55 732.398 179.96 729.998 179.96C727.478 179.96 725.798 181.55 725.798 184.49V194H723.278V178.1ZM746.7 193.16C742.59 193.16 739.68 189.98 739.68 185.45C739.68 180.92 742.56 177.74 746.67 177.74C748.83 177.74 750.66 178.85 751.38 180.62V178.1H753.78V192.44C753.78 196.64 750.9 198.86 746.76 198.86C743.37 198.86 740.85 197.03 740.13 194.24L742.77 194.06C743.4 195.56 744.78 196.46 746.76 196.46C749.55 196.46 751.26 195.26 751.26 193.01V190.4C750.48 192.08 748.71 193.16 746.7 193.16ZM742.32 185.45C742.32 188.72 744.06 190.76 746.85 190.76C749.52 190.76 751.26 188.72 751.29 185.45C751.35 182.18 749.61 180.14 746.85 180.14C744.06 180.14 742.32 182.18 742.32 185.45ZM757.981 190.73H761.191V194H757.981V190.73ZM764.416 190.73H767.626V194H764.416V190.73ZM770.851 190.73H774.061V194H770.851V190.73Z" fill="black"/>
<g filter="url(#filter0_d_2420_204)">
<rect x="59" y="279" width="1081.92" height="491.96" rx="22.5792" fill="white"/>
<path d="M92.8019 338.954C93.4017 342.13 95.6243 344.246 99.2934 344.246C102.257 344.246 104.233 343.082 104.197 340.789C104.197 338.496 102.222 337.085 97.5647 335.92C93.0489 334.827 89.415 332.745 89.415 328.723C89.415 324.384 92.943 321.667 98.0234 321.667C103.456 321.667 107.126 325.054 107.655 329.817L103.774 330.029C103.351 327.065 101.163 325.125 97.9528 325.125C95.2715 325.125 93.3311 326.536 93.3664 328.758C93.3664 331.475 96.6122 332.286 99.6462 333.098C104.55 334.333 108.149 336.661 108.149 340.507C108.149 345.199 103.915 347.704 99.0818 347.704C93.4017 347.704 89.3092 344.352 88.8858 339.201L92.8019 338.954ZM111.524 322.232H115.264V331.122C116.358 329.041 118.474 328.159 120.768 328.159C124.648 328.159 127.083 330.946 127.083 335.25V347.28H123.343V336.591C123.343 333.204 122.214 331.475 119.709 331.475C116.993 331.475 115.264 333.274 115.264 336.591V347.28H111.524V322.232ZM130.821 334.192C131.562 330.417 134.526 328.159 138.83 328.159C143.91 328.159 146.697 330.981 146.697 336.097V343.047C146.697 343.999 147.121 344.352 147.861 344.352H148.602V347.28H147.438C145.745 347.316 143.451 347.034 143.275 344.388C142.428 346.187 140.347 347.704 137.242 347.704C133.467 347.704 130.504 345.693 130.504 342.377C130.504 338.637 133.291 337.543 137.595 336.732L142.958 335.673C142.922 332.675 141.546 331.193 138.83 331.193C136.642 331.193 135.196 332.322 134.702 334.439L130.821 334.192ZM134.385 342.306C134.385 343.682 135.584 344.811 138.054 344.811C140.841 344.776 143.028 342.8 143.028 338.778V338.531L139.041 339.237C136.466 339.695 134.385 339.942 134.385 342.306ZM151.774 328.582H155.196L155.302 332.11C155.972 329.711 157.383 328.582 159.782 328.582H161.582V331.651H159.747C156.819 331.651 155.514 333.274 155.514 336.379V347.28H151.774V328.582ZM163.174 337.931C163.174 332.004 166.666 328.159 172.1 328.159C176.58 328.159 180.355 331.158 180.531 337.79L180.567 338.99H167.125C167.372 342.482 169.171 344.529 172.1 344.529C173.934 344.529 175.628 343.435 176.368 341.636L180.284 341.918C179.191 345.481 175.91 347.704 172.1 347.704C166.666 347.704 163.174 343.858 163.174 337.931ZM167.196 336.203H176.615C176.192 332.639 174.216 331.334 172.1 331.334C169.383 331.334 167.619 333.133 167.196 336.203ZM200.994 322.232C208.826 322.232 213.236 326.748 213.236 334.791C213.236 342.8 208.932 347.28 201.205 347.28H192.95V322.232H200.994ZM196.76 343.788H200.994C206.568 343.788 209.32 340.824 209.32 334.791C209.32 328.688 206.568 325.724 200.994 325.724H196.76V343.788ZM216.287 328.582H220.027V347.28H216.287V328.582ZM216.216 325.83V322.267H220.133V325.83H216.216ZM235.823 334.474C235.435 332.463 233.565 331.263 231.625 331.263C229.72 331.263 228.167 332.251 228.167 333.909C228.203 335.603 230.355 336.273 232.331 336.661C236.987 337.508 239.951 338.743 239.951 342.412C239.951 346.081 236.282 347.704 232.295 347.704C227.532 347.704 224.11 345.305 223.828 341.389L227.674 341.142C228.062 343.259 229.685 344.599 232.26 344.599C233.953 344.599 236.07 343.999 236.07 342.235C236.035 340.224 233.671 339.978 231.66 339.519C227.674 338.672 224.287 337.578 224.287 334.015C224.287 330.381 227.25 328.159 231.907 328.159C235.964 328.159 239.069 330.522 239.669 334.262L235.823 334.474ZM244.697 324.348H248.436V328.582H253.376V331.616H248.436V341.918C248.436 343.435 249.177 344.211 250.624 344.211H253.34V347.28H250.236C246.637 347.28 244.697 345.411 244.697 341.918V331.616H241.839V328.582H244.697V324.348ZM256.868 328.582H260.29L260.396 332.11C261.067 329.711 262.478 328.582 264.877 328.582H266.676V331.651H264.841C261.913 331.651 260.608 333.274 260.608 336.379V347.28H256.868V328.582ZM270.499 328.582H274.238V347.28H270.499V328.582ZM270.428 325.83V322.267H274.344V325.83H270.428ZM278.134 322.232H281.874V331.087C282.932 329.288 285.12 328.159 287.554 328.159C292.423 328.159 295.457 331.934 295.457 337.931C295.457 343.929 292.423 347.704 287.554 347.704C284.978 347.704 282.791 346.504 281.733 344.599L281.627 347.28H278.134V322.232ZM281.592 337.931C281.592 341.953 283.532 344.493 286.601 344.493C289.6 344.493 291.576 341.953 291.576 337.931C291.576 333.839 289.635 331.263 286.601 331.263C283.532 331.263 281.592 333.839 281.592 337.931ZM314.313 347.28H310.82L310.785 344.211C309.762 346.681 307.645 347.704 305.211 347.704C301.083 347.704 298.931 344.705 298.931 340.613V328.582H302.671V339.448C302.671 342.765 303.658 344.564 306.199 344.564C308.88 344.564 310.573 342.765 310.573 339.448V328.582H314.313V347.28ZM320.635 324.348H324.375V328.582H329.314V331.616H324.375V341.918C324.375 343.435 325.116 344.211 326.562 344.211H329.279V347.28H326.174C322.576 347.28 320.635 345.411 320.635 341.918V331.616H317.777V328.582H320.635V324.348ZM332.807 328.582H336.546V347.28H332.807V328.582ZM332.736 325.83V322.267H336.652V325.83H332.736ZM349.274 347.704C343.876 347.704 340.348 343.894 340.348 337.931C340.348 331.969 343.876 328.159 349.274 328.159C354.636 328.159 358.164 331.969 358.164 337.931C358.164 343.894 354.636 347.704 349.274 347.704ZM344.229 337.931C344.229 342.024 346.098 344.458 349.274 344.458C352.449 344.458 354.283 342.024 354.283 337.931C354.283 333.839 352.449 331.404 349.274 331.404C346.098 331.404 344.229 333.839 344.229 337.931ZM361.756 328.582H365.178L365.284 331.722C366.236 329.217 368.424 328.159 370.964 328.159C375.162 328.159 377.314 331.158 377.314 335.25V347.28H373.575V336.414C373.575 333.098 372.551 331.299 369.941 331.299C367.224 331.299 365.495 333.098 365.495 336.414V347.28H361.756V328.582Z" fill="black"/>
<path d="M318.286 709.419C311.285 712.872 304.023 715.771 296.568 718.086L287.726 689.623C293.691 687.771 299.5 685.452 305.101 682.689L318.286 709.419Z" fill="#FF6163"/>
<path d="M342.576 694.384C336.363 699.11 329.787 703.341 322.91 707.037L308.801 680.784C314.302 677.827 319.562 674.443 324.533 670.662L342.576 694.384Z" fill="#00BF6D"/>
<path d="M379.091 654.176C370.864 667.474 360.595 679.395 348.66 689.5L329.401 666.755C338.948 658.67 347.163 649.134 353.745 638.495L379.091 654.176Z" fill="#E3A4EE"/>
<path d="M312.366 439.363C331.402 447.737 348.475 460.002 362.486 475.37C376.497 490.738 387.137 508.869 393.72 528.596C400.304 548.323 402.685 569.209 400.712 589.912C398.738 610.615 392.454 630.675 382.262 648.803L356.282 634.197C364.435 619.694 369.463 603.646 371.042 587.084C372.62 570.522 370.715 553.813 365.448 538.031C360.182 522.249 351.67 507.745 340.461 495.45C329.252 483.156 315.594 473.344 300.365 466.645L312.366 439.363Z" fill="#FDDF8D"/>
<path d="M289.059 720.205C266.266 725.996 242.426 726.311 219.488 721.123C196.55 715.935 175.165 705.392 157.082 690.356C139 675.32 124.732 656.218 115.447 634.611C106.161 613.005 102.121 589.507 103.657 566.04C105.193 542.573 112.26 519.802 124.283 499.59C136.305 479.378 152.94 462.298 172.828 449.747C192.716 437.196 215.292 429.529 238.71 427.375C262.129 425.221 285.725 428.64 307.569 437.352L296.527 465.036C279.052 458.066 260.175 455.331 241.441 457.054C222.706 458.778 204.645 464.911 188.735 474.952C172.824 484.993 159.516 498.657 149.898 514.826C140.281 530.996 134.626 549.213 133.398 567.986C132.169 586.76 135.401 605.558 142.83 622.843C150.258 640.129 161.672 655.41 176.138 667.439C190.604 679.468 207.712 687.902 226.062 692.053C244.413 696.203 263.485 695.951 281.719 691.318L289.059 720.205Z" fill="#1A6FE0"/>
<g clip-path="url(#clip1_2420_204)">
<rect x="443.944" y="417.298" width="661.931" height="64.1312" stroke="#E6E6E6" stroke-width="1.4112"/>
<path d="M503.95 456.683L509.971 439.984H512.7L518.721 456.683H516.51L514.84 451.932H507.831L506.161 456.683H503.95ZM508.513 449.957H514.158L511.336 441.748L508.513 449.957ZM521.095 439.984H523.07V454.167C523.07 454.684 523.329 454.943 523.846 454.943H524.928V456.683H523.541C522.082 456.683 521.095 455.696 521.095 454.261V439.984ZM526.75 450.451C526.75 446.499 528.984 443.936 532.465 443.936C535.217 443.936 537.663 445.747 537.851 450.168L537.875 451.062H528.843C529.031 453.602 530.325 455.084 532.465 455.084C533.782 455.084 535.005 454.308 535.57 452.991L537.686 453.155C536.957 455.507 534.841 456.966 532.465 456.966C528.984 456.966 526.75 454.402 526.75 450.451ZM528.89 449.322H535.711C535.381 446.711 533.97 445.817 532.465 445.817C530.489 445.817 529.219 447.111 528.89 449.322ZM547.837 444.218H550.26L545.956 450.309L550.471 456.683H548.072L544.709 451.838L541.346 456.683H538.923L543.486 450.286L539.158 444.218H541.581L544.709 448.781L547.837 444.218ZM559.62 439.984H562.442L567.781 454.473L573.097 439.984H575.919V456.683H573.896V444.03L569.122 456.683H566.417L561.643 444.03V456.683H559.62V439.984ZM584.443 456.966C580.986 456.966 578.728 454.425 578.728 450.451C578.728 446.476 580.986 443.936 584.443 443.936C587.877 443.936 590.135 446.476 590.135 450.451C590.135 454.425 587.877 456.966 584.443 456.966ZM580.798 450.451C580.798 453.344 582.138 455.084 584.443 455.084C586.725 455.084 588.065 453.344 588.065 450.451C588.065 447.558 586.725 445.817 584.443 445.817C582.138 445.817 580.798 447.558 580.798 450.451ZM593.01 444.218H594.75L594.821 446.499C595.244 444.947 596.161 444.218 597.784 444.218H599.007V445.958H597.784C595.879 445.958 594.985 447.111 594.985 449.251V456.683H593.01V444.218ZM606.006 456.025C602.784 456.025 600.502 453.532 600.502 449.98C600.502 446.429 602.76 443.936 605.982 443.936C607.676 443.936 609.111 444.806 609.675 446.193V444.218H611.557V455.46C611.557 458.753 609.299 460.494 606.053 460.494C603.395 460.494 601.42 459.059 600.855 456.872L602.925 456.73C603.419 457.906 604.501 458.612 606.053 458.612C608.24 458.612 609.581 457.671 609.581 455.907V453.861C608.97 455.178 607.582 456.025 606.006 456.025ZM602.572 449.98C602.572 452.544 603.936 454.143 606.124 454.143C608.217 454.143 609.581 452.544 609.605 449.98C609.652 447.417 608.287 445.817 606.124 445.817C603.936 445.817 602.572 447.417 602.572 449.98ZM614.748 447.887C615.242 445.464 617.194 443.936 619.852 443.936C623.05 443.936 624.862 445.817 624.862 449.157V454.167C624.862 454.684 625.097 454.943 625.614 454.943H626.132V456.683H625.285C624.015 456.683 622.909 456.284 622.909 454.755C622.368 455.907 621.004 456.966 619.029 456.966C616.535 456.966 614.536 455.649 614.536 453.414C614.536 450.85 616.465 450.192 619.24 449.674L622.886 448.945C622.862 446.852 621.851 445.817 619.852 445.817C618.276 445.817 617.218 446.617 616.841 448.052L614.748 447.887ZM616.606 453.414C616.606 454.402 617.453 455.225 619.287 455.225C621.31 455.202 622.933 453.79 622.933 450.874V450.709L619.993 451.227C618.135 451.556 616.606 451.674 616.606 453.414ZM628.657 444.218H630.468L630.515 446.382C631.15 444.688 632.632 443.936 634.349 443.936C637.195 443.936 638.559 446.029 638.559 448.663V456.683H636.583V449.228C636.583 446.923 635.807 445.676 633.926 445.676C631.95 445.676 630.633 446.923 630.633 449.228V456.683H628.657V444.218Z" fill="#212023"/>
<path d="M1060.08 444.001C1059.67 442.864 1058.69 442.217 1057.39 442.217C1055.31 442.217 1054.02 444.02 1053.77 447.313C1054.51 446.039 1055.77 445.314 1057.29 445.314C1060.04 445.314 1061.9 447.313 1061.9 450.175C1061.9 453.213 1059.88 455.114 1057 455.114C1055.78 455.114 1054.55 454.683 1053.53 453.624C1052.53 452.605 1052.04 450.841 1052.04 448.666C1052.04 444.491 1053.37 440.571 1057.39 440.571C1059.51 440.571 1061.21 441.727 1061.84 443.864L1060.08 444.001ZM1053.88 450.175C1053.84 452.096 1055.16 453.468 1057.04 453.468C1058.86 453.468 1060.14 452.096 1060.14 450.175C1060.14 448.293 1058.92 446.98 1057.18 446.98C1055.28 446.98 1053.9 448.293 1053.88 450.175ZM1069.66 455.114C1066.29 455.114 1064.15 452.311 1064.15 447.862C1064.15 443.374 1066.29 440.571 1069.66 440.571C1073.05 440.571 1075.19 443.374 1075.19 447.862C1075.19 452.311 1073.05 455.114 1069.66 455.114ZM1065.92 447.862C1065.92 451.449 1067.27 453.468 1069.66 453.468C1072.07 453.468 1073.43 451.449 1073.43 447.862C1073.43 444.256 1072.07 442.217 1069.66 442.217C1067.27 442.217 1065.92 444.256 1065.92 447.862ZM1087.97 440.571H1089.83L1079.68 455.036H1077.81L1087.97 440.571ZM1077.17 444.256C1077.17 442.354 1078.42 440.865 1079.99 440.865C1081.56 440.865 1082.81 442.354 1082.81 444.256C1082.81 446.137 1081.56 447.627 1079.99 447.627C1078.42 447.627 1077.17 446.137 1077.17 444.256ZM1078.66 444.256C1078.66 445.412 1079.17 446.137 1079.99 446.137C1080.81 446.137 1081.34 445.412 1081.34 444.256C1081.34 443.099 1080.81 442.354 1079.99 442.354C1079.17 442.354 1078.66 443.099 1078.66 444.256ZM1084.73 451.41C1084.73 449.528 1085.99 448.038 1087.55 448.038C1089.12 448.038 1090.38 449.528 1090.38 451.41C1090.38 453.311 1089.12 454.8 1087.55 454.8C1085.99 454.8 1084.73 453.311 1084.73 451.41ZM1086.22 451.41C1086.22 452.566 1086.73 453.311 1087.55 453.311C1088.38 453.311 1088.91 452.566 1088.91 451.41C1088.91 450.253 1088.38 449.528 1087.55 449.528C1086.73 449.528 1086.22 450.253 1086.22 451.41Z" fill="#212023"/>
<circle cx="474.05" cy="449.363" r="7.84" fill="#1A6FE0"/>
<rect x="443.944" y="480.018" width="661.931" height="62.1712" stroke="#E6E6E6" stroke-width="1.4112"/>
<path d="M509.298 502.472C514.426 502.472 517.319 505.483 517.319 510.845C517.319 516.184 514.496 519.171 509.439 519.171H504.124V502.472H509.298ZM506.147 517.195H509.298C513.226 517.195 515.202 515.079 515.202 510.845C515.202 506.564 513.226 504.448 509.298 504.448H506.147V517.195ZM519.792 510.375C520.286 507.952 522.238 506.423 524.895 506.423C528.094 506.423 529.905 508.305 529.905 511.645V516.655C529.905 517.172 530.14 517.431 530.658 517.431H531.175V519.171H530.329C529.058 519.171 527.953 518.771 527.953 517.243C527.412 518.395 526.048 519.453 524.072 519.453C521.579 519.453 519.58 518.136 519.58 515.902C519.58 513.338 521.509 512.68 524.284 512.162L527.93 511.433C527.906 509.34 526.895 508.305 524.895 508.305C523.32 508.305 522.261 509.105 521.885 510.539L519.792 510.375ZM521.65 515.902C521.65 516.89 522.496 517.713 524.331 517.713C526.354 517.689 527.977 516.278 527.977 513.362V513.197L525.037 513.715C523.178 514.044 521.65 514.161 521.65 515.902ZM533.701 506.706H535.512L535.559 508.869C536.194 507.176 537.676 506.423 539.393 506.423C542.239 506.423 543.603 508.517 543.603 511.151V519.171H541.627V511.715C541.627 509.41 540.851 508.164 538.969 508.164C536.994 508.164 535.677 509.41 535.677 511.715V519.171H533.701V506.706ZM547.367 506.706H549.343V519.171H547.367V506.706ZM547.32 504.753V502.495H549.39V504.753H547.32ZM552.333 512.938C552.333 508.987 554.568 506.423 558.049 506.423C560.801 506.423 563.247 508.234 563.435 512.656L563.458 513.55H554.427C554.615 516.09 555.908 517.572 558.049 517.572C559.366 517.572 560.589 516.796 561.153 515.479L563.27 515.643C562.541 517.995 560.424 519.453 558.049 519.453C554.568 519.453 552.333 516.89 552.333 512.938ZM554.474 511.809H561.294C560.965 509.199 559.554 508.305 558.049 508.305C556.073 508.305 554.803 509.599 554.474 511.809ZM566.454 502.472H568.43V516.655C568.43 517.172 568.689 517.431 569.206 517.431H570.288V519.171H568.9C567.442 519.171 566.454 518.183 566.454 516.749V502.472ZM592.566 513.667C591.955 517.172 589.673 519.547 585.816 519.547C581.018 519.547 578.266 515.69 578.266 510.845C578.266 505.976 580.995 502.096 585.816 502.096C589.368 502.096 591.696 504.307 592.425 507.599L590.285 507.74C589.744 505.388 588.121 504.071 585.816 504.071C582.006 504.071 580.383 507.223 580.383 510.845C580.383 514.444 582.029 517.572 585.816 517.572C588.262 517.572 589.909 516.114 590.403 513.526L592.566 513.667ZM594.922 510.375C595.416 507.952 597.368 506.423 600.026 506.423C603.225 506.423 605.036 508.305 605.036 511.645V516.655C605.036 517.172 605.271 517.431 605.789 517.431H606.306V519.171H605.459C604.189 519.171 603.084 518.771 603.084 517.243C602.543 518.395 601.179 519.453 599.203 519.453C596.71 519.453 594.711 518.136 594.711 515.902C594.711 513.338 596.639 512.68 599.415 512.162L603.06 511.433C603.037 509.34 602.025 508.305 600.026 508.305C598.45 508.305 597.392 509.105 597.016 510.539L594.922 510.375ZM596.78 515.902C596.78 516.89 597.627 517.713 599.462 517.713C601.484 517.689 603.107 516.278 603.107 513.362V513.197L600.167 513.715C598.309 514.044 596.78 514.161 596.78 515.902ZM608.832 506.706H610.572L610.643 508.987C611.066 507.435 611.983 506.706 613.606 506.706H614.829V508.446H613.606C611.701 508.446 610.807 509.599 610.807 511.739V519.171H608.832V506.706ZM618.715 503.883H620.69V506.706H624.007V508.446H620.69V515.855C620.69 516.89 621.184 517.431 622.172 517.431H623.959V519.171H622.172C619.938 519.171 618.715 517.972 618.715 515.855V508.446H616.88V506.706H618.715V503.883ZM625.627 512.938C625.627 508.987 627.861 506.423 631.342 506.423C634.094 506.423 636.54 508.234 636.728 512.656L636.752 513.55H627.72C627.908 516.09 629.202 517.572 631.342 517.572C632.659 517.572 633.882 516.796 634.447 515.479L636.563 515.643C635.834 517.995 633.718 519.453 631.342 519.453C627.861 519.453 625.627 516.89 625.627 512.938ZM627.767 511.809H634.588C634.258 509.199 632.847 508.305 631.342 508.305C629.366 508.305 628.096 509.599 627.767 511.809ZM639.633 506.706H641.373L641.444 508.987C641.867 507.435 642.785 506.706 644.407 506.706H645.63V508.446H644.407C642.502 508.446 641.609 509.599 641.609 511.739V519.171H639.633V506.706Z" fill="#212023"/>
<circle cx="474.05" cy="510.125" r="7.84" fill="#FDDF8D"/>
<path d="M1056.98 508.683C1058.29 508.703 1059.86 508.095 1059.86 506.292C1059.86 505.077 1058.76 504.313 1056.98 504.313C1055.52 504.313 1054.51 505.018 1054.33 506.135L1052.57 506.018C1052.82 504.058 1054.64 502.666 1056.98 502.666C1059.72 502.666 1061.64 504.156 1061.64 506.292C1061.64 507.841 1060.76 508.879 1059.07 509.369C1061.01 509.938 1062.11 511.271 1062.11 513.074C1062.11 515.504 1059.99 517.209 1056.98 517.209C1054.19 517.209 1052.17 515.602 1052.06 513.309L1053.8 513.191C1053.96 514.897 1055.58 515.563 1056.98 515.563C1058.62 515.563 1060.35 514.818 1060.35 512.937C1060.35 511.075 1058.62 510.271 1056.98 510.31L1055.9 510.33V508.664L1056.98 508.683ZM1069.66 517.209C1066.29 517.209 1064.15 514.407 1064.15 509.957C1064.15 505.469 1066.29 502.666 1069.66 502.666C1073.05 502.666 1075.19 505.469 1075.19 509.957C1075.19 514.407 1073.05 517.209 1069.66 517.209ZM1065.92 509.957C1065.92 513.544 1067.27 515.563 1069.66 515.563C1072.07 515.563 1073.43 513.544 1073.43 509.957C1073.43 506.351 1072.07 504.313 1069.66 504.313C1067.27 504.313 1065.92 506.351 1065.92 509.957ZM1087.97 502.666H1089.83L1079.68 517.131H1077.81L1087.97 502.666ZM1077.17 506.351C1077.17 504.45 1078.42 502.96 1079.99 502.96C1081.56 502.96 1082.81 504.45 1082.81 506.351C1082.81 508.233 1081.56 509.722 1079.99 509.722C1078.42 509.722 1077.17 508.233 1077.17 506.351ZM1078.66 506.351C1078.66 507.507 1079.17 508.233 1079.99 508.233C1080.81 508.233 1081.34 507.507 1081.34 506.351C1081.34 505.195 1080.81 504.45 1079.99 504.45C1079.17 504.45 1078.66 505.195 1078.66 506.351ZM1084.73 513.505C1084.73 511.623 1085.99 510.134 1087.55 510.134C1089.12 510.134 1090.38 511.623 1090.38 513.505C1090.38 515.406 1089.12 516.896 1087.55 516.896C1085.99 516.896 1084.73 515.406 1084.73 513.505ZM1086.22 513.505C1086.22 514.661 1086.73 515.406 1087.55 515.406C1088.38 515.406 1088.91 514.661 1088.91 513.505C1088.91 512.349 1088.38 511.623 1087.55 511.623C1086.73 511.623 1086.22 512.349 1086.22 513.505Z" fill="#212023"/>
<rect x="443.944" y="540.778" width="661.931" height="66.0912" stroke="#E6E6E6" stroke-width="1.4112"/>
<path d="M505.861 578.055C506.284 580.313 507.883 581.842 510.518 581.842C512.658 581.842 514.093 580.995 514.093 579.325C514.093 577.632 512.634 576.597 509.295 575.75C506.566 575.068 504.097 573.728 504.097 571.046C504.097 568.224 506.355 566.46 509.553 566.46C513.128 566.46 515.504 568.694 515.857 571.776L513.74 571.917C513.434 569.823 511.835 568.436 509.53 568.436C507.625 568.436 506.214 569.447 506.214 571.046C506.214 573.069 508.636 573.634 510.753 574.222C513.787 575.068 516.21 576.574 516.21 579.114C516.21 582.218 513.387 583.818 510.353 583.818C506.707 583.818 504.026 581.583 503.744 578.197L505.861 578.055ZM524.428 583.818C520.971 583.818 518.713 581.278 518.713 577.303C518.713 573.328 520.971 570.788 524.428 570.788C527.862 570.788 530.12 573.328 530.12 577.303C530.12 581.278 527.862 583.818 524.428 583.818ZM520.783 577.303C520.783 580.196 522.123 581.936 524.428 581.936C526.71 581.936 528.05 580.196 528.05 577.303C528.05 574.41 526.71 572.669 524.428 572.669C522.123 572.669 520.783 574.41 520.783 577.303ZM532.995 587.064V571.07H534.782L534.853 572.928C535.535 571.54 536.876 570.788 538.687 570.788C542.403 570.788 544.073 573.869 544.073 577.303C544.073 580.737 542.403 583.818 538.687 583.818C536.946 583.818 535.676 583.136 534.97 581.842V587.064H532.995ZM534.759 577.303C534.759 579.631 535.817 581.936 538.357 581.936C540.921 581.936 541.956 579.678 541.956 577.303C541.956 574.927 540.921 572.669 538.357 572.669C535.817 572.669 534.759 574.974 534.759 577.303ZM546.592 566.836H548.568V572.763C549.274 571.399 550.732 570.788 552.284 570.788C554.871 570.788 556.494 572.622 556.494 575.515V583.536H554.518V576.221C554.518 573.845 553.648 572.669 551.861 572.669C549.885 572.669 548.568 573.916 548.568 576.221V583.536H546.592V566.836ZM560.259 571.07H562.234V583.536H560.259V571.07ZM560.212 569.118V566.86H562.281V569.118H560.212ZM565.436 574.739C565.93 572.317 567.882 570.788 570.54 570.788C573.739 570.788 575.55 572.669 575.55 576.009V581.019C575.55 581.536 575.785 581.795 576.303 581.795H576.82V583.536H575.973C574.703 583.536 573.598 583.136 573.598 581.607C573.057 582.759 571.693 583.818 569.717 583.818C567.224 583.818 565.225 582.501 565.225 580.266C565.225 577.703 567.153 577.044 569.929 576.527L573.574 575.797C573.551 573.704 572.539 572.669 570.54 572.669C568.964 572.669 567.906 573.469 567.53 574.904L565.436 574.739ZM567.294 580.266C567.294 581.254 568.141 582.077 569.976 582.077C571.998 582.054 573.621 580.643 573.621 577.726V577.561L570.681 578.079C568.823 578.408 567.294 578.526 567.294 580.266ZM592.019 566.836C595.523 566.836 597.71 568.789 597.71 571.893C597.71 573.845 596.37 575.327 594.888 575.75C596.511 576.009 597.24 576.856 597.405 578.62L597.875 583.536H595.829L595.405 578.832C595.264 577.303 594.253 576.809 591.807 576.809H587.714V583.536H585.692V566.836H592.019ZM587.714 574.833H592.019C594.3 574.833 595.594 573.775 595.594 571.846C595.594 569.917 594.323 568.812 592.019 568.812H587.714V574.833ZM600.091 577.303C600.091 573.351 602.326 570.788 605.807 570.788C608.558 570.788 611.004 572.599 611.193 577.021L611.216 577.914H602.184C602.373 580.454 603.666 581.936 605.807 581.936C607.124 581.936 608.347 581.16 608.911 579.843L611.028 580.008C610.299 582.36 608.182 583.818 605.807 583.818C602.326 583.818 600.091 581.254 600.091 577.303ZM602.232 576.174H609.052C608.723 573.563 607.312 572.669 605.807 572.669C603.831 572.669 602.561 573.963 602.232 576.174ZM612.251 571.07H614.368L618.107 581.419L621.753 571.07H623.846L618.789 585.111C618.319 586.452 617.425 587.064 616.014 587.064H614.391V585.323H615.826C616.437 585.323 616.79 585.064 617.025 584.453L617.472 583.3H616.814L612.251 571.07ZM626.248 571.07H628.059L628.106 573.234C628.741 571.54 630.223 570.788 631.94 570.788C634.786 570.788 636.15 572.881 636.15 575.515V583.536H634.174V576.08C634.174 573.775 633.398 572.528 631.516 572.528C629.541 572.528 628.224 573.775 628.224 576.08V583.536H626.248V571.07ZM644.509 583.818C641.051 583.818 638.794 581.278 638.794 577.303C638.794 573.328 641.051 570.788 644.509 570.788C647.943 570.788 650.201 573.328 650.201 577.303C650.201 581.278 647.943 583.818 644.509 583.818ZM640.863 577.303C640.863 580.196 642.204 581.936 644.509 581.936C646.79 581.936 648.131 580.196 648.131 577.303C648.131 574.41 646.79 572.669 644.509 572.669C642.204 572.669 640.863 574.41 640.863 577.303ZM653.19 566.836H655.166V581.019C655.166 581.536 655.425 581.795 655.942 581.795H657.024V583.536H655.636C654.178 583.536 653.19 582.548 653.19 581.113V566.836ZM669.923 566.836V583.536H668.136L668.065 581.748C667.36 583.018 665.854 583.818 664.114 583.818C660.868 583.818 658.845 581.301 658.845 577.303C658.845 573.304 660.868 570.788 664.114 570.788C665.784 570.788 667.265 571.54 667.948 572.716V566.836H669.923ZM660.915 577.303C660.915 580.149 662.326 581.936 664.514 581.936C666.724 581.936 668.136 580.149 668.136 577.303C668.136 574.41 666.724 572.575 664.514 572.575C662.326 572.575 660.915 574.41 660.915 577.303ZM680.852 574.927C680.57 573.516 679.182 572.669 677.794 572.669C676.407 572.669 675.278 573.375 675.278 574.574C675.278 575.797 676.901 576.291 678.265 576.574C681.087 577.115 683.157 577.891 683.157 580.36C683.157 582.783 680.664 583.818 678.288 583.818C675.348 583.818 673.09 582.195 672.902 579.608L674.972 579.467C675.231 580.972 676.43 581.936 678.288 581.936C679.511 581.936 681.087 581.536 681.087 580.243C681.087 578.761 679.323 578.596 677.912 578.267C675.63 577.75 673.208 577.091 673.208 574.669C673.208 572.293 675.137 570.788 678.006 570.788C680.476 570.788 682.522 572.364 682.922 574.786L680.852 574.927Z" fill="#212023"/>
<circle cx="474.05" cy="574.803" r="7.84" fill="#E3A4EE"/>
<path d="M1075.22 567.892V569.538H1069.07L1068.5 573.752C1069.14 572.968 1070.38 572.537 1071.58 572.537C1074.26 572.537 1076.16 574.556 1076.16 577.339C1076.16 580.142 1074.12 582.121 1071.32 582.121C1068.54 582.121 1066.46 580.514 1066.26 578.221L1068.03 578.103C1068.24 579.612 1069.65 580.475 1071.32 580.475C1073.16 580.475 1074.4 579.181 1074.4 577.339C1074.4 575.379 1073.14 574.144 1071.14 574.144C1069.85 574.144 1068.77 574.732 1068.32 575.712H1066.5L1067.58 567.892H1075.22ZM1089.08 567.578H1090.94L1080.79 582.043H1078.92L1089.08 567.578ZM1078.28 571.263C1078.28 569.362 1079.53 567.872 1081.1 567.872C1082.67 567.872 1083.92 569.362 1083.92 571.263C1083.92 573.144 1082.67 574.634 1081.1 574.634C1079.53 574.634 1078.28 573.144 1078.28 571.263ZM1079.77 571.263C1079.77 572.419 1080.28 573.144 1081.1 573.144C1081.92 573.144 1082.45 572.419 1082.45 571.263C1082.45 570.106 1081.92 569.362 1081.1 569.362C1080.28 569.362 1079.77 570.106 1079.77 571.263ZM1085.84 578.417C1085.84 576.535 1087.1 575.046 1088.67 575.046C1090.23 575.046 1091.49 576.535 1091.49 578.417C1091.49 580.318 1090.23 581.808 1088.67 581.808C1087.1 581.808 1085.84 580.318 1085.84 578.417ZM1087.33 578.417C1087.33 579.573 1087.84 580.318 1088.67 580.318C1089.49 580.318 1090.02 579.573 1090.02 578.417C1090.02 577.26 1089.49 576.535 1088.67 576.535C1087.84 576.535 1087.33 577.26 1087.33 578.417Z" fill="#212023"/>
<rect x="443.944" y="605.458" width="661.931" height="64.1312" stroke="#E6E6E6" stroke-width="1.4112"/>
<path d="M504.124 629.478H506.946L512.285 643.966L517.601 629.478H520.423V646.177H518.4V633.524L513.626 646.177H510.921L506.147 633.524V646.177H504.124V629.478ZM524.467 633.712H526.443V646.177H524.467V633.712ZM524.42 631.76V629.502H526.49V631.76H524.42ZM538.254 637.898C537.995 636.275 536.631 635.311 535.149 635.311C532.844 635.311 531.503 637.052 531.503 639.945C531.503 642.838 532.844 644.578 535.149 644.578C536.701 644.578 538.065 643.543 538.348 641.756L540.441 641.897C540.041 644.719 537.783 646.46 535.149 646.46C531.668 646.46 529.434 643.896 529.434 639.945C529.434 635.993 531.668 633.43 535.149 633.43C537.689 633.43 539.994 635.076 540.323 637.757L538.254 637.898ZM542.728 629.478H544.703V635.405C545.409 634.041 546.867 633.43 548.419 633.43C551.007 633.43 552.63 635.264 552.63 638.157V646.177H550.654V638.863C550.654 636.487 549.784 635.311 547.996 635.311C546.02 635.311 544.703 636.558 544.703 638.863V646.177H542.728V629.478ZM555.6 637.381C556.094 634.958 558.046 633.43 560.704 633.43C563.902 633.43 565.713 635.311 565.713 638.651V643.661C565.713 644.178 565.949 644.437 566.466 644.437H566.984V646.177H566.137C564.867 646.177 563.761 645.778 563.761 644.249C563.22 645.401 561.856 646.46 559.881 646.46C557.387 646.46 555.388 645.142 555.388 642.908C555.388 640.344 557.317 639.686 560.092 639.168L563.738 638.439C563.714 636.346 562.703 635.311 560.704 635.311C559.128 635.311 558.069 636.111 557.693 637.546L555.6 637.381ZM557.458 642.908C557.458 643.896 558.305 644.719 560.139 644.719C562.162 644.696 563.785 643.284 563.785 640.368V640.203L560.845 640.721C558.987 641.05 557.458 641.168 557.458 642.908ZM568.687 639.945C568.687 635.993 570.922 633.43 574.402 633.43C577.154 633.43 579.6 635.241 579.789 639.662L579.812 640.556H570.78C570.969 643.096 572.262 644.578 574.402 644.578C575.72 644.578 576.943 643.802 577.507 642.485L579.624 642.649C578.895 645.001 576.778 646.46 574.402 646.46C570.922 646.46 568.687 643.896 568.687 639.945ZM570.827 638.816H577.648C577.319 636.205 575.908 635.311 574.402 635.311C572.427 635.311 571.157 636.605 570.827 638.816ZM582.808 629.478H584.784V643.661C584.784 644.178 585.043 644.437 585.56 644.437H586.642V646.177H585.254C583.796 646.177 582.808 645.19 582.808 643.755V629.478ZM606.474 629.478V631.454H601.276V646.177H599.253V631.454H594.055V629.478H606.474ZM617.674 646.177H615.792V644.108C615.134 645.73 613.699 646.46 612.052 646.46C609.277 646.46 607.913 644.366 607.913 641.732V633.712H609.889V641.144C609.889 643.473 610.665 644.719 612.476 644.719C614.404 644.719 615.698 643.473 615.698 641.144V633.712H617.674V646.177ZM621.442 633.712H623.182L623.253 635.993C623.676 634.441 624.593 633.712 626.216 633.712H627.439V635.452H626.216C624.311 635.452 623.417 636.605 623.417 638.745V646.177H621.442V633.712ZM629.733 633.712H631.544L631.591 635.876C632.226 634.182 633.708 633.43 635.425 633.43C638.271 633.43 639.635 635.523 639.635 638.157V646.177H637.66V638.722C637.66 636.417 636.883 635.17 635.002 635.17C633.026 635.17 631.709 636.417 631.709 638.722V646.177H629.733V633.712ZM642.279 639.945C642.279 635.993 644.513 633.43 647.994 633.43C650.746 633.43 653.192 635.241 653.38 639.662L653.404 640.556H644.372C644.56 643.096 645.854 644.578 647.994 644.578C649.311 644.578 650.535 643.802 651.099 642.485L653.216 642.649C652.487 645.001 650.37 646.46 647.994 646.46C644.513 646.46 642.279 643.896 642.279 639.945ZM644.419 638.816H651.24C650.911 636.205 649.5 635.311 647.994 635.311C646.019 635.311 644.749 636.605 644.419 638.816ZM656.285 633.712H658.026L658.096 635.993C658.52 634.441 659.437 633.712 661.06 633.712H662.283V635.452H661.06C659.155 635.452 658.261 636.605 658.261 638.745V646.177H656.285V633.712Z" fill="#212023"/>
<circle cx="474.05" cy="639.483" r="7.84" fill="#00BF6D"/>
<path d="M1048.64 634.141C1049.02 631.574 1050.84 629.672 1053.62 629.672C1056.17 629.672 1058.05 631.358 1058.05 633.632C1058.05 635.65 1056.44 637.022 1054.35 638.336C1053.23 638.963 1050.54 640.864 1050.49 642.256H1058.17V643.902H1048.39C1048.39 639.747 1051.37 638.238 1053.74 636.728C1055.21 635.788 1056.29 634.71 1056.29 633.632C1056.29 632.279 1055.19 631.319 1053.62 631.319C1051.94 631.319 1050.78 632.377 1050.41 634.259L1048.64 634.141ZM1060.27 641.766H1062.37V643.902H1060.27V641.766ZM1073.42 629.986V631.632H1067.27L1066.7 635.846C1067.35 635.062 1068.58 634.631 1069.78 634.631C1072.46 634.631 1074.36 636.65 1074.36 639.433C1074.36 642.236 1072.33 644.216 1069.52 644.216C1066.74 644.216 1064.66 642.608 1064.47 640.315L1066.23 640.198C1066.45 641.707 1067.86 642.569 1069.52 642.569C1071.37 642.569 1072.6 641.276 1072.6 639.433C1072.6 637.473 1071.35 636.238 1069.35 636.238C1068.05 636.238 1066.98 636.826 1066.52 637.806H1064.7L1065.78 629.986H1073.42ZM1087.28 629.672H1089.14L1078.99 644.137H1077.13L1087.28 629.672ZM1076.48 633.357C1076.48 631.456 1077.74 629.966 1079.3 629.966C1080.87 629.966 1082.13 631.456 1082.13 633.357C1082.13 635.239 1080.87 636.728 1079.3 636.728C1077.74 636.728 1076.48 635.239 1076.48 633.357ZM1077.97 633.357C1077.97 634.514 1078.48 635.239 1079.3 635.239C1080.13 635.239 1080.66 634.514 1080.66 633.357C1080.66 632.201 1080.13 631.456 1079.3 631.456C1078.48 631.456 1077.97 632.201 1077.97 633.357ZM1084.05 640.511C1084.05 638.63 1085.3 637.14 1086.87 637.14C1088.44 637.14 1089.69 638.63 1089.69 640.511C1089.69 642.412 1088.44 643.902 1086.87 643.902C1085.3 643.902 1084.05 642.412 1084.05 640.511ZM1085.54 640.511C1085.54 641.668 1086.05 642.412 1086.87 642.412C1087.69 642.412 1088.22 641.668 1088.22 640.511C1088.22 639.355 1087.69 638.63 1086.87 638.63C1086.05 638.63 1085.54 639.355 1085.54 640.511Z" fill="#212023"/>
<rect x="443.944" y="668.178" width="661.931" height="64.1312" stroke="#E6E6E6" stroke-width="1.4112"/>
<path d="M504.124 691.57H514.614V693.545H506.147V698.931H514.331V700.86H506.147V706.293H514.802V708.269H504.124V691.57ZM518.013 695.803H519.824L519.871 697.897C520.459 696.391 521.753 695.521 523.47 695.521C525.281 695.521 526.575 696.462 527.116 698.132C527.656 696.462 528.95 695.521 530.902 695.521C533.419 695.521 534.877 697.238 534.877 700.249V708.269H532.901V700.813C532.901 698.555 532.008 697.261 530.502 697.261C528.55 697.261 527.421 698.579 527.421 700.813V708.269H525.446V700.813C525.446 698.602 524.552 697.261 523.07 697.261C521.141 697.261 519.989 698.602 519.989 700.813V708.269H518.013V695.803ZM538.18 695.803H539.991L540.038 697.897C540.626 696.391 541.92 695.521 543.636 695.521C545.448 695.521 546.741 696.462 547.282 698.132C547.823 696.462 549.117 695.521 551.069 695.521C553.585 695.521 555.044 697.238 555.044 700.249V708.269H553.068V700.813C553.068 698.555 552.174 697.261 550.669 697.261C548.717 697.261 547.588 698.579 547.588 700.813V708.269H545.612V700.813C545.612 698.602 544.718 697.261 543.237 697.261C541.308 697.261 540.156 698.602 540.156 700.813V708.269H538.18V695.803ZM558.012 699.472C558.506 697.05 560.458 695.521 563.115 695.521C566.314 695.521 568.125 697.403 568.125 700.742V705.752C568.125 706.27 568.36 706.528 568.878 706.528H569.395V708.269H568.549C567.278 708.269 566.173 707.869 566.173 706.34C565.632 707.493 564.268 708.551 562.292 708.551C559.799 708.551 557.8 707.234 557.8 705C557.8 702.436 559.729 701.777 562.504 701.26L566.15 700.531C566.126 698.437 565.115 697.403 563.115 697.403C561.54 697.403 560.481 698.202 560.105 699.637L558.012 699.472ZM559.87 705C559.87 705.987 560.716 706.811 562.551 706.811C564.574 706.787 566.197 705.376 566.197 702.459V702.295L563.257 702.812C561.398 703.141 559.87 703.259 559.87 705ZM591.556 702.765C590.944 706.27 588.663 708.645 584.805 708.645C580.007 708.645 577.256 704.788 577.256 699.943C577.256 695.074 579.984 691.193 584.805 691.193C588.357 691.193 590.685 693.404 591.415 696.697L589.274 696.838C588.733 694.486 587.11 693.169 584.805 693.169C580.995 693.169 579.372 696.321 579.372 699.943C579.372 703.541 581.019 706.669 584.805 706.669C587.252 706.669 588.898 705.211 589.392 702.624L591.556 702.765ZM599.415 708.551C595.958 708.551 593.7 706.011 593.7 702.036C593.7 698.061 595.958 695.521 599.415 695.521C602.849 695.521 605.107 698.061 605.107 702.036C605.107 706.011 602.849 708.551 599.415 708.551ZM595.77 702.036C595.77 704.929 597.11 706.669 599.415 706.669C601.697 706.669 603.038 704.929 603.038 702.036C603.038 699.143 601.697 697.403 599.415 697.403C597.11 697.403 595.77 699.143 595.77 702.036ZM608.097 691.57H610.072V705.752C610.072 706.27 610.331 706.528 610.849 706.528H611.93V708.269H610.543C609.085 708.269 608.097 707.281 608.097 705.846V691.57ZM614.758 691.57H616.733V705.752C616.733 706.27 616.992 706.528 617.509 706.528H618.591V708.269H617.204C615.745 708.269 614.758 707.281 614.758 705.846V691.57ZM621.419 695.803H623.394V708.269H621.419V695.803ZM621.372 693.851V691.593H623.441V693.851H621.372ZM626.816 695.803H628.627L628.674 697.967C629.309 696.274 630.791 695.521 632.508 695.521C635.354 695.521 636.718 697.614 636.718 700.249V708.269H634.742V700.813C634.742 698.508 633.966 697.261 632.085 697.261C630.109 697.261 628.792 698.508 628.792 700.813V708.269H626.816V695.803ZM647.312 699.661C647.029 698.249 645.642 697.403 644.254 697.403C642.866 697.403 641.737 698.108 641.737 699.308C641.737 700.531 643.36 701.025 644.725 701.307C647.547 701.848 649.617 702.624 649.617 705.094C649.617 707.516 647.124 708.551 644.748 708.551C641.808 708.551 639.55 706.928 639.362 704.341L641.432 704.2C641.69 705.705 642.89 706.669 644.748 706.669C645.971 706.669 647.547 706.27 647.547 704.976C647.547 703.494 645.783 703.33 644.372 703C642.09 702.483 639.668 701.824 639.668 699.402C639.668 697.026 641.596 695.521 644.466 695.521C646.935 695.521 648.982 697.097 649.381 699.519L647.312 699.661Z" fill="#212023"/>
<circle cx="474.05" cy="700.245" r="7.84" fill="#FF6163"/>
<path d="M1048.64 696.233C1049.02 693.665 1050.84 691.764 1053.62 691.764C1056.17 691.764 1058.05 693.449 1058.05 695.723C1058.05 697.742 1056.44 699.114 1054.35 700.427C1053.23 701.054 1050.54 702.955 1050.49 704.347H1058.17V705.993H1048.39C1048.39 701.838 1051.37 700.329 1053.74 698.82C1055.21 697.879 1056.29 696.801 1056.29 695.723C1056.29 694.371 1055.19 693.41 1053.62 693.41C1051.94 693.41 1050.78 694.469 1050.41 696.35L1048.64 696.233ZM1060.27 703.857H1062.37V705.993H1060.27V703.857ZM1073.42 692.077V693.724H1067.27L1066.7 697.938C1067.35 697.154 1068.58 696.723 1069.78 696.723C1072.46 696.723 1074.36 698.741 1074.36 701.525C1074.36 704.327 1072.33 706.307 1069.52 706.307C1066.74 706.307 1064.66 704.7 1064.47 702.407L1066.23 702.289C1066.45 703.798 1067.86 704.661 1069.52 704.661C1071.37 704.661 1072.6 703.367 1072.6 701.525C1072.6 699.565 1071.35 698.33 1069.35 698.33C1068.05 698.33 1066.98 698.918 1066.52 699.898H1064.7L1065.78 692.077H1073.42ZM1087.28 691.764H1089.14L1078.99 706.229H1077.13L1087.28 691.764ZM1076.48 695.449C1076.48 693.547 1077.74 692.058 1079.3 692.058C1080.87 692.058 1082.13 693.547 1082.13 695.449C1082.13 697.33 1080.87 698.82 1079.3 698.82C1077.74 698.82 1076.48 697.33 1076.48 695.449ZM1077.97 695.449C1077.97 696.605 1078.48 697.33 1079.3 697.33C1080.13 697.33 1080.66 696.605 1080.66 695.449C1080.66 694.292 1080.13 693.547 1079.3 693.547C1078.48 693.547 1077.97 694.292 1077.97 695.449ZM1084.05 702.603C1084.05 700.721 1085.3 699.231 1086.87 699.231C1088.44 699.231 1089.69 700.721 1089.69 702.603C1089.69 704.504 1088.44 705.993 1086.87 705.993C1085.3 705.993 1084.05 704.504 1084.05 702.603ZM1085.54 702.603C1085.54 703.759 1086.05 704.504 1086.87 704.504C1087.69 704.504 1088.22 703.759 1088.22 702.603C1088.22 701.446 1087.69 700.721 1086.87 700.721C1086.05 700.721 1085.54 701.446 1085.54 702.603Z" fill="#212023"/>
</g>
<rect x="445.778" y="419.289" width="658.262" height="311.342" rx="10.631" stroke="#E6E6E6" stroke-width="2.25792"/>
<rect x="756.289" y="308.4" width="348.88" height="58.8" rx="11.76" fill="#EEEEEE"/>
<rect x="756.289" y="308.4" width="348.88" height="58.8" rx="11.76" fill="#EEEEEE"/>
<rect x="760.209" y="312.321" width="176.4" height="50.96" rx="11.76" fill="white"/>
<path d="M790.036 343.567C786.547 343.567 784.43 341.18 784.43 337.302C784.43 333.39 786.547 331.002 790.036 331.002C793.558 331.002 795.658 333.39 795.658 337.302C795.658 341.18 793.558 343.567 790.036 343.567ZM786.344 337.302C786.344 340.163 787.733 341.891 790.036 341.891C792.373 341.891 793.761 340.163 793.761 337.302C793.761 334.423 792.373 332.678 790.036 332.678C787.733 332.678 786.344 334.423 786.344 337.302ZM804.609 334.321L806.607 341.264L808.605 334.321H810.434L807.657 343.296H805.659L803.762 336.861L801.882 343.296H799.884L797.124 334.321H798.936L800.917 341.264L802.915 334.321H804.609ZM812.626 334.321H814.269L814.32 335.828C814.777 334.626 815.827 334.118 817.046 334.118C819.061 334.118 820.094 335.557 820.094 337.522V343.296H818.299V338.081C818.299 336.489 817.808 335.625 816.555 335.625C815.251 335.625 814.421 336.489 814.421 338.081V343.296H812.626V334.321ZM822.439 338.809C822.439 335.964 824.116 334.118 826.724 334.118C828.874 334.118 830.686 335.557 830.771 338.741L830.788 339.317H824.336C824.455 340.993 825.318 341.975 826.724 341.975C827.604 341.975 828.417 341.45 828.773 340.587L830.653 340.722C830.128 342.433 828.553 343.5 826.724 343.5C824.116 343.5 822.439 341.654 822.439 338.809ZM824.37 337.979H828.891C828.688 336.269 827.74 335.642 826.724 335.642C825.42 335.642 824.573 336.506 824.37 337.979ZM833.269 334.321H834.912L834.963 336.015C835.285 334.863 835.962 334.321 837.113 334.321H837.977V335.794H837.097C835.691 335.794 835.064 336.573 835.064 338.064V343.296H833.269V334.321ZM845.252 337.149C845.065 336.184 844.168 335.608 843.236 335.608C842.322 335.608 841.577 336.082 841.577 336.878C841.594 337.691 842.627 338.013 843.575 338.199C845.81 338.605 847.233 339.198 847.233 340.959C847.233 342.721 845.472 343.5 843.558 343.5C841.272 343.5 839.629 342.348 839.494 340.468L841.34 340.35C841.526 341.366 842.305 342.009 843.541 342.009C844.354 342.009 845.37 341.721 845.37 340.875C845.353 339.909 844.219 339.791 843.253 339.571C841.34 339.164 839.714 338.639 839.714 336.929C839.714 335.185 841.137 334.118 843.372 334.118C845.319 334.118 846.81 335.252 847.097 337.048L845.252 337.149ZM849.514 331.273H851.309V335.54C851.834 334.541 852.85 334.118 853.95 334.118C855.813 334.118 856.982 335.456 856.982 337.522V343.296H855.187V338.165C855.187 336.54 854.645 335.71 853.442 335.71C852.138 335.71 851.309 336.573 851.309 338.165V343.296H849.514V331.273ZM860.083 334.321H861.878V343.296H860.083V334.321ZM860.049 333V331.29H861.929V333H860.049ZM864.766 345.836V334.321H866.442L866.493 335.659C866.984 334.66 867.932 334.118 869.219 334.118C871.844 334.118 873.08 336.285 873.08 338.809C873.08 341.332 871.844 343.5 869.219 343.5C868 343.5 867.069 342.992 866.561 342.043V345.836H864.766ZM866.408 338.809C866.408 340.417 867.136 341.959 868.796 341.959C870.489 341.959 871.201 340.451 871.201 338.809C871.201 337.183 870.472 335.659 868.796 335.659C867.136 335.659 866.408 337.2 866.408 338.809ZM879.137 330.596C876.309 335.456 876.309 340.299 879.137 345.159H877.495C874.396 340.451 874.396 335.303 877.495 330.596H879.137ZM881.907 331.273H889.714V332.949H883.736V336.607H889.409V338.233H883.736V343.296H881.907V331.273ZM896.404 331.273C900.164 331.273 902.28 333.441 902.28 337.302C902.28 341.146 900.214 343.296 896.506 343.296H892.543V331.273H896.404ZM894.372 341.62H896.404C899.08 341.62 900.401 340.197 900.401 337.302C900.401 334.372 899.08 332.949 896.404 332.949H894.372V341.62ZM906.029 330.596C909.128 335.303 909.128 340.451 906.029 345.159H904.386C907.214 340.299 907.214 335.456 904.386 330.596H906.029Z" fill="black"/>
<path d="M970.797 339.3C971.085 340.824 972.152 341.84 973.913 341.84C975.335 341.84 976.284 341.281 976.267 340.18C976.267 339.08 975.318 338.402 973.083 337.843C970.915 337.318 969.171 336.319 969.171 334.389C969.171 332.306 970.865 331.002 973.303 331.002C975.911 331.002 977.672 332.628 977.926 334.914L976.063 335.015C975.86 333.593 974.81 332.661 973.269 332.661C971.982 332.661 971.051 333.339 971.068 334.406C971.068 335.71 972.626 336.099 974.082 336.489C976.436 337.081 978.163 338.199 978.163 340.045C978.163 342.297 976.131 343.499 973.811 343.499C971.085 343.499 969.12 341.891 968.917 339.418L970.797 339.3ZM980.536 331.273H982.331V335.54C982.856 334.541 983.872 334.118 984.973 334.118C986.836 334.118 988.004 335.456 988.004 337.522V343.296H986.209V338.165C986.209 336.539 985.667 335.71 984.465 335.71C983.161 335.71 982.331 336.573 982.331 338.165V343.296H980.536V331.273ZM990.551 337.014C990.907 335.202 992.329 334.118 994.395 334.118C996.834 334.118 998.172 335.472 998.172 337.928V341.264C998.172 341.721 998.375 341.891 998.731 341.891H999.086V343.296H998.527C997.715 343.313 996.614 343.178 996.529 341.908C996.123 342.771 995.124 343.499 993.633 343.499C991.821 343.499 990.399 342.534 990.399 340.942C990.399 339.147 991.737 338.622 993.803 338.233L996.377 337.725C996.36 336.285 995.699 335.574 994.395 335.574C993.346 335.574 992.651 336.116 992.414 337.132L990.551 337.014ZM992.262 340.908C992.262 341.569 992.837 342.111 994.023 342.111C995.361 342.094 996.411 341.146 996.411 339.215V339.096L994.497 339.435C993.261 339.655 992.262 339.774 992.262 340.908ZM1001.36 334.321H1003L1003.05 336.014C1003.38 334.863 1004.05 334.321 1005.21 334.321H1006.07V335.794H1005.19C1003.78 335.794 1003.16 336.573 1003.16 338.063V343.296H1001.36V334.321ZM1007.59 338.809C1007.59 335.964 1009.26 334.118 1011.87 334.118C1014.02 334.118 1015.83 335.557 1015.92 338.741L1015.93 339.317H1009.48C1009.6 340.993 1010.46 341.975 1011.87 341.975C1012.75 341.975 1013.56 341.45 1013.92 340.587L1015.8 340.722C1015.27 342.433 1013.7 343.499 1011.87 343.499C1009.26 343.499 1007.59 341.654 1007.59 338.809ZM1009.52 337.979H1014.04C1013.83 336.268 1012.89 335.642 1011.87 335.642C1010.57 335.642 1009.72 336.505 1009.52 337.979ZM1033.26 339.215C1032.8 341.857 1031.07 343.567 1028.26 343.567C1024.77 343.567 1022.71 340.824 1022.71 337.301C1022.71 333.779 1024.77 331.002 1028.26 331.002C1030.89 331.002 1032.65 332.611 1033.17 335.117L1031.24 335.218C1030.89 333.593 1029.8 332.678 1028.24 332.678C1025.72 332.678 1024.6 334.778 1024.6 337.301C1024.6 339.808 1025.74 341.891 1028.24 341.891C1029.89 341.891 1030.99 340.891 1031.31 339.113L1033.26 339.215ZM1035.78 331.273H1037.58V341.213C1037.58 341.62 1037.8 341.823 1038.19 341.823H1038.92V343.296H1037.8C1036.6 343.296 1035.78 342.517 1035.78 341.298V331.273ZM1041 337.014C1041.36 335.202 1042.78 334.118 1044.85 334.118C1047.29 334.118 1048.62 335.472 1048.62 337.928V341.264C1048.62 341.721 1048.83 341.891 1049.18 341.891H1049.54V343.296H1048.98C1048.17 343.313 1047.07 343.178 1046.98 341.908C1046.58 342.771 1045.58 343.499 1044.09 343.499C1042.27 343.499 1040.85 342.534 1040.85 340.942C1040.85 339.147 1042.19 338.622 1044.26 338.233L1046.83 337.725C1046.81 336.285 1046.15 335.574 1044.85 335.574C1043.8 335.574 1043.1 336.116 1042.87 337.132L1041 337.014ZM1042.71 340.908C1042.71 341.569 1043.29 342.111 1044.48 342.111C1045.81 342.094 1046.86 341.146 1046.86 339.215V339.096L1044.95 339.435C1043.71 339.655 1042.71 339.774 1042.71 340.908ZM1057.01 337.149C1056.83 336.184 1055.93 335.608 1055 335.608C1054.08 335.608 1053.34 336.082 1053.34 336.878C1053.36 337.691 1054.39 338.013 1055.34 338.199C1057.57 338.605 1058.99 339.198 1058.99 340.959C1058.99 342.72 1057.23 343.499 1055.32 343.499C1053.03 343.499 1051.39 342.348 1051.26 340.468L1053.1 340.35C1053.29 341.366 1054.07 342.009 1055.3 342.009C1056.12 342.009 1057.13 341.721 1057.13 340.875C1057.12 339.909 1055.98 339.791 1055.02 339.571C1053.1 339.164 1051.48 338.639 1051.48 336.929C1051.48 335.185 1052.9 334.118 1055.13 334.118C1057.08 334.118 1058.57 335.252 1058.86 337.047L1057.01 337.149ZM1066.81 337.149C1066.62 336.184 1065.72 335.608 1064.79 335.608C1063.88 335.608 1063.13 336.082 1063.13 336.878C1063.15 337.691 1064.18 338.013 1065.13 338.199C1067.36 338.605 1068.79 339.198 1068.79 340.959C1068.79 342.72 1067.03 343.499 1065.11 343.499C1062.83 343.499 1061.18 342.348 1061.05 340.468L1062.89 340.35C1063.08 341.366 1063.86 342.009 1065.1 342.009C1065.91 342.009 1066.92 341.721 1066.92 340.875C1066.91 339.909 1065.77 339.791 1064.81 339.571C1062.89 339.164 1061.27 338.639 1061.27 336.929C1061.27 335.185 1062.69 334.118 1064.93 334.118C1066.87 334.118 1068.36 335.252 1068.65 337.047L1066.81 337.149Z" fill="#9E9E9E"/>
</g>
<rect width="1200" height="272" transform="translate(0 664)" fill="url(#paint0_linear_2420_204)"/>
</g>
<defs>
<filter id="filter0_d_2420_204" x="-183" y="45" width="1565.92" height="975.96" filterUnits="userSpaceOnUse" color-interpolation-filters="sRGB">
<feFlood flood-opacity="0" result="BackgroundImageFix"/>
<feColorMatrix in="SourceAlpha" type="matrix" values="0 0 0 0 0 0 0 0 0 0 0 0 0 0 0 0 0 0 127 0" result="hardAlpha"/>
<feOffset dy="8"/>
<feGaussianBlur stdDeviation="121"/>
<feComposite in2="hardAlpha" operator="out"/>
<feColorMatrix type="matrix" values="0 0 0 0 0 0 0 0 0 0 0 0 0 0 0 0 0 0 0.12 0"/>
<feBlend mode="normal" in2="BackgroundImageFix" result="effect1_dropShadow_2420_204"/>
<feBlend mode="normal" in="SourceGraphic" in2="effect1_dropShadow_2420_204" result="shape"/>
</filter>
<linearGradient id="paint0_linear_2420_204" x1="600" y1="68" x2="600" y2="0" gradientUnits="userSpaceOnUse">
<stop stop-color="#E2E4DF"/>
<stop offset="1" stop-color="#CCD8D9" stop-opacity="0"/>
</linearGradient>
<clipPath id="clip0_2420_204">
<rect width="1200" height="936" rx="8" fill="white"/>
</clipPath>
<clipPath id="clip1_2420_204">
<rect x="444.649" y="418.16" width="660.52" height="313.6" rx="11.76" fill="white"/>
</clipPath>
</defs>
</svg>
