<svg width="1200" height="936" viewBox="0 0 1200 936" fill="none" xmlns="http://www.w3.org/2000/svg">
<g clip-path="url(#clip0_2425_161)">
<rect width="1200" height="936" rx="8" fill="#D0CBD5"/>
<g filter="url(#filter0_d_2425_161)">
<g clip-path="url(#clip1_2425_161)">
<rect x="220" y="48" width="760" height="840" rx="24" fill="white"/>
<path d="M248.616 105L255.784 85.12H259.648L266.816 105H263.568L261.776 99.82H253.656L251.836 105H248.616ZM254.608 97.076H260.824L257.716 88.004L254.608 97.076ZM281.647 85.12V105H278.875L278.791 102.872C277.951 104.384 276.215 105.336 274.171 105.336C270.307 105.336 267.899 102.34 267.899 97.58C267.899 92.82 270.307 89.824 274.171 89.824C276.103 89.824 277.839 90.72 278.679 92.148V85.12H281.647ZM270.979 97.58C270.979 100.772 272.547 102.788 274.927 102.788C277.363 102.788 278.903 100.772 278.903 97.58C278.903 94.332 277.363 92.288 274.927 92.288C272.519 92.288 270.979 94.332 270.979 97.58ZM298.345 85.12V105H295.573L295.489 102.872C294.649 104.384 292.913 105.336 290.869 105.336C287.005 105.336 284.597 102.34 284.597 97.58C284.597 92.82 287.005 89.824 290.869 89.824C292.801 89.824 294.537 90.72 295.377 92.148V85.12H298.345ZM287.677 97.58C287.677 100.772 289.245 102.788 291.625 102.788C294.061 102.788 295.601 100.772 295.601 97.58C295.601 94.332 294.061 92.288 291.625 92.288C289.217 92.288 287.677 94.332 287.677 97.58ZM311.155 98.392C311.631 100.912 313.395 102.592 316.307 102.592C318.659 102.592 320.227 101.668 320.199 99.848C320.199 98.028 318.631 96.908 314.935 95.984C311.351 95.116 308.467 93.464 308.467 90.272C308.467 86.828 311.267 84.672 315.299 84.672C319.611 84.672 322.523 87.36 322.943 91.14L319.863 91.308C319.527 88.956 317.791 87.416 315.243 87.416C313.115 87.416 311.575 88.536 311.603 90.3C311.603 92.456 314.179 93.1 316.587 93.744C320.479 94.724 323.335 96.572 323.335 99.624C323.335 103.348 319.975 105.336 316.139 105.336C311.631 105.336 308.383 102.676 308.047 98.588L311.155 98.392ZM338.825 105H336.053L336.025 102.564C335.213 104.524 333.533 105.336 331.601 105.336C328.325 105.336 326.617 102.956 326.617 99.708V90.16H329.585V98.784C329.585 101.416 330.369 102.844 332.385 102.844C334.513 102.844 335.857 101.416 335.857 98.784V90.16H338.825V105ZM342.275 85.12H345.243V92.148C346.083 90.72 347.819 89.824 349.751 89.824C353.615 89.824 356.023 92.82 356.023 97.58C356.023 102.34 353.615 105.336 349.751 105.336C347.707 105.336 345.971 104.384 345.131 102.872L345.047 105H342.275V85.12ZM345.019 97.58C345.019 100.772 346.559 102.788 348.995 102.788C351.375 102.788 352.943 100.772 352.943 97.58C352.943 94.332 351.403 92.288 348.995 92.288C346.559 92.288 345.019 94.332 345.019 97.58ZM367.653 94.836C367.345 93.24 365.861 92.288 364.321 92.288C362.809 92.288 361.577 93.072 361.577 94.388C361.605 95.732 363.313 96.264 364.881 96.572C368.577 97.244 370.929 98.224 370.929 101.136C370.929 104.048 368.017 105.336 364.853 105.336C361.073 105.336 358.357 103.432 358.133 100.324L361.185 100.128C361.493 101.808 362.781 102.872 364.825 102.872C366.169 102.872 367.849 102.396 367.849 100.996C367.821 99.4 365.945 99.204 364.349 98.84C361.185 98.168 358.497 97.3 358.497 94.472C358.497 91.588 360.849 89.824 364.545 89.824C367.765 89.824 370.229 91.7 370.705 94.668L367.653 94.836ZM383.526 95.368C383.218 93.492 381.762 92.4 380.082 92.4C377.562 92.4 376.078 94.332 376.078 97.58C376.078 100.828 377.562 102.76 380.082 102.76C381.846 102.76 383.302 101.612 383.61 99.54L386.718 99.708C386.27 103.18 383.498 105.336 380.082 105.336C375.77 105.336 372.998 102.284 372.998 97.58C372.998 92.876 375.77 89.824 380.082 89.824C383.386 89.824 386.214 91.868 386.606 95.2L383.526 95.368ZM389.252 90.16H391.968L392.052 92.96C392.584 91.056 393.704 90.16 395.608 90.16H397.036V92.596H395.58C393.256 92.596 392.22 93.884 392.22 96.348V105H389.252V90.16ZM399.989 90.16H402.957V105H399.989V90.16ZM399.933 87.976V85.148H403.041V87.976H399.933ZM406.405 109.2V90.16H409.177L409.261 92.372C410.073 90.72 411.641 89.824 413.769 89.824C418.109 89.824 420.153 93.408 420.153 97.58C420.153 101.752 418.109 105.336 413.769 105.336C411.753 105.336 410.213 104.496 409.373 102.928V109.2H406.405ZM409.121 97.58C409.121 100.24 410.325 102.788 413.069 102.788C415.869 102.788 417.045 100.296 417.045 97.58C417.045 94.892 415.841 92.372 413.069 92.372C410.325 92.372 409.121 94.92 409.121 97.58ZM423.878 86.8H426.846V90.16H430.766V92.568H426.846V100.744C426.846 101.948 427.434 102.564 428.582 102.564H430.738V105H428.274C425.418 105 423.878 103.516 423.878 100.744V92.568H421.61V90.16H423.878V86.8ZM433.457 90.16H436.425V105H433.457V90.16ZM433.401 87.976V85.148H436.509V87.976H433.401ZM446.445 105.336C442.161 105.336 439.361 102.312 439.361 97.58C439.361 92.848 442.161 89.824 446.445 89.824C450.701 89.824 453.501 92.848 453.501 97.58C453.501 102.312 450.701 105.336 446.445 105.336ZM442.441 97.58C442.441 100.828 443.925 102.76 446.445 102.76C448.965 102.76 450.421 100.828 450.421 97.58C450.421 94.332 448.965 92.4 446.445 92.4C443.925 92.4 442.441 94.332 442.441 97.58ZM456.271 90.16H458.987L459.071 92.652C459.827 90.664 461.563 89.824 463.579 89.824C466.911 89.824 468.619 92.204 468.619 95.452V105H465.651V96.376C465.651 93.744 464.839 92.316 462.767 92.316C460.611 92.316 459.239 93.744 459.239 96.376V105H456.271V90.16Z" fill="black"/>
<path d="M248.51 139L253.63 124.8H255.95L261.07 139H259.19L257.77 134.96H251.81L250.39 139H248.51ZM252.39 133.28H257.19L254.79 126.3L252.39 133.28ZM271.163 124.8V139H269.643L269.583 137.48C268.983 138.56 267.703 139.24 266.223 139.24C263.463 139.24 261.743 137.1 261.743 133.7C261.743 130.3 263.463 128.16 266.223 128.16C267.643 128.16 268.903 128.8 269.483 129.8V124.8H271.163ZM263.503 133.7C263.503 136.12 264.703 137.64 266.563 137.64C268.443 137.64 269.643 136.12 269.643 133.7C269.643 131.24 268.443 129.68 266.563 129.68C264.703 129.68 263.503 131.24 263.503 133.7ZM282.724 124.8V139H281.204L281.144 137.48C280.544 138.56 279.264 139.24 277.784 139.24C275.024 139.24 273.304 137.1 273.304 133.7C273.304 130.3 275.024 128.16 277.784 128.16C279.204 128.16 280.464 128.8 281.044 129.8V124.8H282.724ZM275.064 133.7C275.064 136.12 276.264 137.64 278.124 137.64C280.004 137.64 281.204 136.12 281.204 133.7C281.204 131.24 280.004 129.68 278.124 129.68C276.264 129.68 275.064 131.24 275.064 133.7ZM289.654 131.52C290.074 129.46 291.734 128.16 293.994 128.16C296.714 128.16 298.254 129.76 298.254 132.6V136.86C298.254 137.3 298.454 137.52 298.894 137.52H299.334V139H298.614C297.534 139 296.594 138.66 296.594 137.36C296.134 138.34 294.974 139.24 293.294 139.24C291.174 139.24 289.474 138.12 289.474 136.22C289.474 134.04 291.114 133.48 293.474 133.04L296.574 132.42C296.554 130.64 295.694 129.76 293.994 129.76C292.654 129.76 291.754 130.44 291.434 131.66L289.654 131.52ZM291.234 136.22C291.234 137.06 291.954 137.76 293.514 137.76C295.234 137.74 296.614 136.54 296.614 134.06V133.92L294.114 134.36C292.534 134.64 291.234 134.74 291.234 136.22ZM305.853 128.4H307.393L307.433 130.24C307.973 128.8 309.233 128.16 310.693 128.16C313.113 128.16 314.273 129.94 314.273 132.18V139H312.593V132.66C312.593 130.7 311.933 129.64 310.333 129.64C308.653 129.64 307.533 130.7 307.533 132.66V139H305.853V128.4ZM316.13 133.7C316.13 130.34 318.03 128.16 320.99 128.16C323.33 128.16 325.41 129.7 325.57 133.46L325.59 134.22H317.91C318.07 136.38 319.17 137.64 320.99 137.64C322.11 137.64 323.15 136.98 323.63 135.86L325.43 136C324.81 138 323.01 139.24 320.99 139.24C318.03 139.24 316.13 137.06 316.13 133.7ZM317.95 132.74H323.75C323.47 130.52 322.27 129.76 320.99 129.76C319.31 129.76 318.23 130.86 317.95 132.74ZM334.717 128.4L337.237 137.14L339.777 128.4H341.577L338.297 139H336.177L333.817 130.94L331.457 139H329.357L326.077 128.4H327.877L330.397 137.14L332.917 128.4H334.717ZM347.84 128.4H349.52V139H347.84V128.4ZM347.8 126.74V124.82H349.56V126.74H347.8ZM352.038 128.4H353.578L353.618 130.24C354.158 128.8 355.418 128.16 356.878 128.16C359.298 128.16 360.458 129.94 360.458 132.18V139H358.778V132.66C358.778 130.7 358.118 129.64 356.518 129.64C354.838 129.64 353.718 130.7 353.718 132.66V139H352.038V128.4ZM371.556 128.4L367.696 139H365.576L361.716 128.4H363.516L366.636 137.24L369.756 128.4H371.556ZM372.039 133.7C372.039 130.34 373.939 128.16 376.899 128.16C379.239 128.16 381.319 129.7 381.479 133.46L381.499 134.22H373.819C373.979 136.38 375.079 137.64 376.899 137.64C378.019 137.64 379.059 136.98 379.539 135.86L381.339 136C380.719 138 378.919 139.24 376.899 139.24C373.939 139.24 372.039 137.06 372.039 133.7ZM373.859 132.74H379.659C379.379 130.52 378.179 129.76 376.899 129.76C375.219 129.76 374.139 130.86 373.859 132.74ZM389.755 131.68C389.515 130.48 388.335 129.76 387.155 129.76C385.975 129.76 385.015 130.36 385.015 131.38C385.015 132.42 386.395 132.84 387.555 133.08C389.955 133.54 391.715 134.2 391.715 136.3C391.715 138.36 389.595 139.24 387.575 139.24C385.075 139.24 383.155 137.86 382.995 135.66L384.755 135.54C384.975 136.82 385.995 137.64 387.575 137.64C388.615 137.64 389.955 137.3 389.955 136.2C389.955 134.94 388.455 134.8 387.255 134.52C385.315 134.08 383.255 133.52 383.255 131.46C383.255 129.44 384.895 128.16 387.335 128.16C389.435 128.16 391.175 129.5 391.515 131.56L389.755 131.68ZM394.323 126H396.003V128.4H398.823V129.88H396.003V136.18C396.003 137.06 396.423 137.52 397.263 137.52H398.783V139H397.263C395.363 139 394.323 137.98 394.323 136.18V129.88H392.763V128.4H394.323V126ZM404.669 139.24C401.729 139.24 399.809 137.08 399.809 133.7C399.809 130.32 401.729 128.16 404.669 128.16C407.589 128.16 409.509 130.32 409.509 133.7C409.509 137.08 407.589 139.24 404.669 139.24ZM401.569 133.7C401.569 136.16 402.709 137.64 404.669 137.64C406.609 137.64 407.749 136.16 407.749 133.7C407.749 131.24 406.609 129.76 404.669 129.76C402.709 129.76 401.569 131.24 401.569 133.7ZM411.561 128.4H413.041L413.101 130.34C413.461 129.02 414.241 128.4 415.621 128.4H416.661V129.88H415.621C414.001 129.88 413.241 130.86 413.241 132.68V139H411.561V128.4ZM429.514 131.68C429.274 130.48 428.094 129.76 426.914 129.76C425.734 129.76 424.774 130.36 424.774 131.38C424.774 132.42 426.154 132.84 427.314 133.08C429.714 133.54 431.474 134.2 431.474 136.3C431.474 138.36 429.354 139.24 427.334 139.24C424.834 139.24 422.914 137.86 422.754 135.66L424.514 135.54C424.734 136.82 425.754 137.64 427.334 137.64C428.374 137.64 429.714 137.3 429.714 136.2C429.714 134.94 428.214 134.8 427.014 134.52C425.074 134.08 423.014 133.52 423.014 131.46C423.014 129.44 424.654 128.16 427.094 128.16C429.194 128.16 430.934 129.5 431.274 131.56L429.514 131.68ZM441.732 139H440.132V137.24C439.572 138.62 438.352 139.24 436.952 139.24C434.592 139.24 433.432 137.46 433.432 135.22V128.4H435.112V134.72C435.112 136.7 435.772 137.76 437.312 137.76C438.952 137.76 440.052 136.7 440.052 134.72V128.4H441.732V139ZM444.251 124.8H445.931V129.8C446.511 128.8 447.771 128.16 449.191 128.16C451.951 128.16 453.671 130.3 453.671 133.7C453.671 137.1 451.951 139.24 449.191 139.24C447.711 139.24 446.431 138.56 445.831 137.48L445.771 139H444.251V124.8ZM445.771 133.7C445.771 136.12 446.971 137.64 448.851 137.64C450.711 137.64 451.911 136.12 451.911 133.7C451.911 131.24 450.711 129.68 448.851 129.68C446.971 129.68 445.771 131.24 445.771 133.7ZM461.912 131.68C461.672 130.48 460.492 129.76 459.312 129.76C458.132 129.76 457.172 130.36 457.172 131.38C457.172 132.42 458.552 132.84 459.712 133.08C462.112 133.54 463.872 134.2 463.872 136.3C463.872 138.36 461.752 139.24 459.732 139.24C457.232 139.24 455.312 137.86 455.152 135.66L456.912 135.54C457.132 136.82 458.152 137.64 459.732 137.64C460.772 137.64 462.112 137.3 462.112 136.2C462.112 134.94 460.612 134.8 459.412 134.52C457.472 134.08 455.412 133.52 455.412 131.46C455.412 129.44 457.052 128.16 459.492 128.16C461.592 128.16 463.332 129.5 463.672 131.56L461.912 131.68ZM472.865 131.96C472.645 130.58 471.485 129.76 470.225 129.76C468.265 129.76 467.125 131.24 467.125 133.7C467.125 136.16 468.265 137.64 470.225 137.64C471.545 137.64 472.705 136.76 472.945 135.24L474.725 135.36C474.385 137.76 472.465 139.24 470.225 139.24C467.265 139.24 465.365 137.06 465.365 133.7C465.365 130.34 467.265 128.16 470.225 128.16C472.385 128.16 474.345 129.56 474.625 131.84L472.865 131.96ZM476.571 128.4H478.051L478.111 130.34C478.471 129.02 479.251 128.4 480.631 128.4H481.671V129.88H480.631C479.011 129.88 478.251 130.86 478.251 132.68V139H476.571V128.4ZM483.816 128.4H485.496V139H483.816V128.4ZM483.776 126.74V124.82H485.536V126.74H483.776ZM488.013 142V128.4H489.533L489.593 129.98C490.173 128.8 491.313 128.16 492.853 128.16C496.013 128.16 497.433 130.78 497.433 133.7C497.433 136.62 496.013 139.24 492.853 139.24C491.373 139.24 490.293 138.66 489.693 137.56V142H488.013ZM489.513 133.7C489.513 135.68 490.413 137.64 492.573 137.64C494.753 137.64 495.633 135.72 495.633 133.7C495.633 131.68 494.753 129.76 492.573 129.76C490.413 129.76 489.513 131.72 489.513 133.7ZM500.029 126H501.709V128.4H504.529V129.88H501.709V136.18C501.709 137.06 502.129 137.52 502.969 137.52H504.489V139H502.969C501.069 139 500.029 137.98 500.029 136.18V129.88H498.469V128.4H500.029V126ZM506.468 128.4H508.148V139H506.468V128.4ZM506.428 126.74V124.82H508.188V126.74H506.428ZM515.159 139.24C512.219 139.24 510.299 137.08 510.299 133.7C510.299 130.32 512.219 128.16 515.159 128.16C518.079 128.16 519.999 130.32 519.999 133.7C519.999 137.08 518.079 139.24 515.159 139.24ZM512.059 133.7C512.059 136.16 513.199 137.64 515.159 137.64C517.099 137.64 518.239 136.16 518.239 133.7C518.239 131.24 517.099 129.76 515.159 129.76C513.199 129.76 512.059 131.24 512.059 133.7ZM522.051 128.4H523.591L523.631 130.24C524.171 128.8 525.431 128.16 526.891 128.16C529.311 128.16 530.471 129.94 530.471 132.18V139H528.791V132.66C528.791 130.7 528.131 129.64 526.531 129.64C524.851 129.64 523.731 130.7 523.731 132.66V139H522.051V128.4ZM538.928 127.72C538.928 125.94 539.808 124.8 541.768 124.8H543.408V126.28H541.768C541.088 126.28 540.608 126.82 540.608 127.72V128.4H543.268V129.88H540.608V139H538.928V129.88H537.488V128.4H538.928V127.72ZM549.059 139.24C546.119 139.24 544.199 137.08 544.199 133.7C544.199 130.32 546.119 128.16 549.059 128.16C551.979 128.16 553.899 130.32 553.899 133.7C553.899 137.08 551.979 139.24 549.059 139.24ZM545.959 133.7C545.959 136.16 547.099 137.64 549.059 137.64C550.999 137.64 552.139 136.16 552.139 133.7C552.139 131.24 550.999 129.76 549.059 129.76C547.099 129.76 545.959 131.24 545.959 133.7ZM555.952 128.4H557.432L557.492 130.34C557.852 129.02 558.632 128.4 560.012 128.4H561.052V129.88H560.012C558.392 129.88 557.632 130.86 557.632 132.68V139H555.952V128.4ZM568.864 126H570.544V128.4H573.364V129.88H570.544V136.18C570.544 137.06 570.964 137.52 571.804 137.52H573.324V139H571.804C569.904 139 568.864 137.98 568.864 136.18V129.88H567.304V128.4H568.864V126ZM575.303 124.8H576.983V129.84C577.583 128.68 578.823 128.16 580.143 128.16C582.343 128.16 583.723 129.72 583.723 132.18V139H582.043V132.78C582.043 130.76 581.303 129.76 579.783 129.76C578.103 129.76 576.983 130.82 576.983 132.78V139H575.303V124.8ZM586.532 128.4H588.212V139H586.532V128.4ZM586.492 126.74V124.82H588.252V126.74H586.492ZM597.123 131.68C596.883 130.48 595.703 129.76 594.523 129.76C593.343 129.76 592.383 130.36 592.383 131.38C592.383 132.42 593.763 132.84 594.923 133.08C597.323 133.54 599.083 134.2 599.083 136.3C599.083 138.36 596.963 139.24 594.943 139.24C592.443 139.24 590.523 137.86 590.363 135.66L592.123 135.54C592.343 136.82 593.363 137.64 594.943 137.64C595.983 137.64 597.323 137.3 597.323 136.2C597.323 134.94 595.823 134.8 594.623 134.52C592.683 134.08 590.623 133.52 590.623 131.46C590.623 129.44 592.263 128.16 594.703 128.16C596.803 128.16 598.543 129.5 598.883 131.56L597.123 131.68ZM606.884 127.72C606.884 125.94 607.764 124.8 609.724 124.8H611.364V126.28H609.724C609.044 126.28 608.564 126.82 608.564 127.72V128.4H611.224V129.88H608.564V139H606.884V129.88H605.444V128.4H606.884V127.72ZM621.721 139H620.121V137.24C619.561 138.62 618.341 139.24 616.941 139.24C614.581 139.24 613.421 137.46 613.421 135.22V128.4H615.101V134.72C615.101 136.7 615.761 137.76 617.301 137.76C618.941 137.76 620.041 136.7 620.041 134.72V128.4H621.721V139ZM624.533 128.4H626.073L626.113 130.24C626.653 128.8 627.913 128.16 629.373 128.16C631.793 128.16 632.953 129.94 632.953 132.18V139H631.273V132.66C631.273 130.7 630.613 129.64 629.013 129.64C627.333 129.64 626.213 130.7 626.213 132.66V139H624.533V128.4ZM644.229 124.8V139H642.709L642.649 137.48C642.049 138.56 640.769 139.24 639.289 139.24C636.529 139.24 634.809 137.1 634.809 133.7C634.809 130.3 636.529 128.16 639.289 128.16C640.709 128.16 641.969 128.8 642.549 129.8V124.8H644.229ZM636.569 133.7C636.569 136.12 637.769 137.64 639.629 137.64C641.509 137.64 642.709 136.12 642.709 133.7C642.709 131.24 641.509 129.68 639.629 129.68C637.769 129.68 636.569 131.24 636.569 133.7ZM646.425 128.4H648.105V139H646.425V128.4ZM646.385 126.74V124.82H648.145V126.74H646.385ZM650.623 128.4H652.163L652.203 130.24C652.743 128.8 654.003 128.16 655.463 128.16C657.883 128.16 659.043 129.94 659.043 132.18V139H657.363V132.66C657.363 130.7 656.703 129.64 655.103 129.64C653.423 129.64 652.303 130.7 652.303 132.66V139H650.623V128.4ZM665.579 138.44C662.839 138.44 660.899 136.32 660.899 133.3C660.899 130.28 662.819 128.16 665.559 128.16C666.999 128.16 668.219 128.9 668.699 130.08V128.4H670.299V137.96C670.299 140.76 668.379 142.24 665.619 142.24C663.359 142.24 661.679 141.02 661.199 139.16L662.959 139.04C663.379 140.04 664.299 140.64 665.619 140.64C667.479 140.64 668.619 139.84 668.619 138.34V136.6C668.099 137.72 666.919 138.44 665.579 138.44ZM662.659 133.3C662.659 135.48 663.819 136.84 665.679 136.84C667.459 136.84 668.619 135.48 668.639 133.3C668.679 131.12 667.519 129.76 665.679 129.76C663.819 129.76 662.659 131.12 662.659 133.3ZM677.708 128.4H679.188L679.248 130.34C679.608 129.02 680.388 128.4 681.768 128.4H682.808V129.88H681.768C680.148 129.88 679.388 130.86 679.388 132.68V139H677.708V128.4ZM688.548 139.24C685.608 139.24 683.688 137.08 683.688 133.7C683.688 130.32 685.608 128.16 688.548 128.16C691.468 128.16 693.388 130.32 693.388 133.7C693.388 137.08 691.468 139.24 688.548 139.24ZM685.448 133.7C685.448 136.16 686.588 137.64 688.548 137.64C690.488 137.64 691.628 136.16 691.628 133.7C691.628 131.24 690.488 129.76 688.548 129.76C686.588 129.76 685.448 131.24 685.448 133.7ZM703.642 139H702.042V137.24C701.482 138.62 700.262 139.24 698.862 139.24C696.502 139.24 695.342 137.46 695.342 135.22V128.4H697.022V134.72C697.022 136.7 697.682 137.76 699.222 137.76C700.862 137.76 701.962 136.7 701.962 134.72V128.4H703.642V139ZM706.454 128.4H707.994L708.034 130.24C708.574 128.8 709.834 128.16 711.294 128.16C713.714 128.16 714.874 129.94 714.874 132.18V139H713.194V132.66C713.194 130.7 712.534 129.64 710.934 129.64C709.254 129.64 708.134 130.7 708.134 132.66V139H706.454V128.4ZM726.15 124.8V139H724.63L724.57 137.48C723.97 138.56 722.69 139.24 721.21 139.24C718.45 139.24 716.73 137.1 716.73 133.7C716.73 130.3 718.45 128.16 721.21 128.16C722.63 128.16 723.89 128.8 724.47 129.8V124.8H726.15ZM718.49 133.7C718.49 136.12 719.69 137.64 721.55 137.64C723.43 137.64 724.63 136.12 724.63 133.7C724.63 131.24 723.43 129.68 721.55 129.68C719.69 129.68 718.49 131.24 718.49 133.7ZM728.292 136.82H730.432V139H728.292V136.82Z" fill="#707070"/>
<g clip-path="url(#clip2_2425_161)">
<path d="M281.22 200.8C284.2 200.8 286.06 202.46 286.06 205.1C286.06 206.76 284.92 208.02 283.66 208.38C285.04 208.6 285.66 209.32 285.8 210.82L286.2 215H284.46L284.1 211C283.98 209.7 283.12 209.28 281.04 209.28H277.56V215H275.84V200.8H281.22ZM277.56 207.6H281.22C283.16 207.6 284.26 206.7 284.26 205.06C284.26 203.42 283.18 202.48 281.22 202.48H277.56V207.6ZM292.553 215.24C289.613 215.24 287.693 213.08 287.693 209.7C287.693 206.32 289.613 204.16 292.553 204.16C295.473 204.16 297.393 206.32 297.393 209.7C297.393 213.08 295.473 215.24 292.553 215.24ZM289.453 209.7C289.453 212.16 290.593 213.64 292.553 213.64C294.493 213.64 295.633 212.16 295.633 209.7C295.633 207.24 294.493 205.76 292.553 205.76C290.593 205.76 289.453 207.24 289.453 209.7ZM306.515 204.4L309.035 213.14L311.575 204.4H313.375L310.095 215H307.975L305.615 206.94L303.255 215H301.155L297.875 204.4H299.675L302.195 213.14L304.715 204.4H306.515ZM329.097 200.8V202.48H324.677V215H322.957V202.48H318.537V200.8H329.097ZM329.453 204.4H331.253L334.433 213.2L337.533 204.4H339.313L335.013 216.34C334.613 217.48 333.853 218 332.653 218H331.273V216.52H332.493C333.013 216.52 333.313 216.3 333.513 215.78L333.893 214.8H333.333L329.453 204.4ZM340.963 218V204.4H342.483L342.543 205.98C343.123 204.8 344.263 204.16 345.803 204.16C348.963 204.16 350.383 206.78 350.383 209.7C350.383 212.62 348.963 215.24 345.803 215.24C344.323 215.24 343.243 214.66 342.643 213.56V218H340.963ZM342.463 209.7C342.463 211.68 343.363 213.64 345.523 213.64C347.703 213.64 348.583 211.72 348.583 209.7C348.583 207.68 347.703 205.76 345.523 205.76C343.363 205.76 342.463 207.72 342.463 209.7ZM351.864 209.7C351.864 206.34 353.764 204.16 356.724 204.16C359.064 204.16 361.144 205.7 361.304 209.46L361.324 210.22H353.644C353.804 212.38 354.904 213.64 356.724 213.64C357.844 213.64 358.884 212.98 359.364 211.86L361.164 212C360.544 214 358.744 215.24 356.724 215.24C353.764 215.24 351.864 213.06 351.864 209.7ZM353.684 208.74H359.484C359.204 206.52 358.004 205.76 356.724 205.76C355.044 205.76 353.964 206.86 353.684 208.74Z" fill="black"/>
<g filter="url(#filter1_d_2425_161)">
<rect x="273" y="233" width="654" height="58" rx="15" stroke="#E4E4E4" stroke-width="2" shape-rendering="crispEdges"/>
<path d="M910 260L904 266L898 260" stroke="#AFAFAF" stroke-width="2.43" stroke-linecap="round" stroke-linejoin="round"/>
<path d="M293.84 254.8H302.76V256.48H295.56V261.06H302.52V262.7H295.56V267.32H302.92V269H293.84V254.8ZM314.019 272H312.339V267.56C311.739 268.66 310.659 269.24 309.179 269.24C306.019 269.24 304.599 266.62 304.599 263.7C304.599 260.78 306.019 258.16 309.179 258.16C310.719 258.16 311.859 258.8 312.439 259.98L312.499 258.4H314.019V272ZM306.399 263.7C306.399 265.72 307.279 267.64 309.459 267.64C311.619 267.64 312.519 265.68 312.519 263.7C312.519 261.72 311.619 259.76 309.459 259.76C307.279 259.76 306.399 261.68 306.399 263.7ZM324.729 269H323.129V267.24C322.569 268.62 321.349 269.24 319.949 269.24C317.589 269.24 316.429 267.46 316.429 265.22V258.4H318.109V264.72C318.109 266.7 318.769 267.76 320.309 267.76C321.949 267.76 323.049 266.7 323.049 264.72V258.4H324.729V269ZM327.248 258.4H328.928V269H327.248V258.4ZM327.208 256.74V254.82H328.968V256.74H327.208ZM331.998 256H333.678V258.4H336.498V259.88H333.678V266.18C333.678 267.06 334.098 267.52 334.938 267.52H336.458V269H334.938C333.038 269 331.998 267.98 331.998 266.18V259.88H330.438V258.4H331.998V256ZM337.277 258.4H339.077L342.257 267.2L345.357 258.4H347.137L342.837 270.34C342.437 271.48 341.677 272 340.477 272H339.097V270.52H340.317C340.837 270.52 341.137 270.3 341.337 269.78L341.717 268.8H341.157L337.277 258.4Z" fill="black"/>
</g>
<path d="M280.94 320.8C284.1 320.8 285.96 322.4 285.96 325.1C285.96 327.84 284.1 329.48 280.94 329.48H277.56V335H275.84V320.8H280.94ZM277.56 327.8H280.94C283.08 327.8 284.16 326.88 284.16 325.1C284.16 323.36 283.08 322.48 280.94 322.48H277.56V327.8ZM288.02 324.4H289.501L289.56 326.34C289.921 325.02 290.701 324.4 292.081 324.4H293.12V325.88H292.081C290.46 325.88 289.7 326.86 289.7 328.68V335H288.02V324.4ZM294 329.7C294 326.34 295.9 324.16 298.86 324.16C301.2 324.16 303.28 325.7 303.44 329.46L303.46 330.22H295.78C295.94 332.38 297.04 333.64 298.86 333.64C299.98 333.64 301.02 332.98 301.5 331.86L303.3 332C302.68 334 300.88 335.24 298.86 335.24C295.9 335.24 294 333.06 294 329.7ZM295.82 328.74H301.62C301.34 326.52 300.14 325.76 298.86 325.76C297.18 325.76 296.1 326.86 295.82 328.74ZM304.955 328.38H311.575V329.96H304.955V328.38ZM313.959 320.8H316.359L320.899 333.12L325.419 320.8H327.819V335H326.1V324.24L322.039 335H319.739L315.679 324.24V335H313.959V320.8ZM334.676 335.24C331.736 335.24 329.816 333.08 329.816 329.7C329.816 326.32 331.736 324.16 334.676 324.16C337.596 324.16 339.516 326.32 339.516 329.7C339.516 333.08 337.596 335.24 334.676 335.24ZM331.576 329.7C331.576 332.16 332.716 333.64 334.676 333.64C336.616 333.64 337.756 332.16 337.756 329.7C337.756 327.24 336.616 325.76 334.676 325.76C332.716 325.76 331.576 327.24 331.576 329.7ZM341.568 324.4H343.108L343.148 326.24C343.688 324.8 344.948 324.16 346.408 324.16C348.828 324.16 349.988 325.94 349.988 328.18V335H348.308V328.66C348.308 326.7 347.648 325.64 346.048 325.64C344.368 325.64 343.248 326.7 343.248 328.66V335H341.568V324.4ZM351.844 329.7C351.844 326.34 353.744 324.16 356.704 324.16C359.044 324.16 361.124 325.7 361.284 329.46L361.304 330.22H353.624C353.784 332.38 354.884 333.64 356.704 333.64C357.824 333.64 358.864 332.98 359.344 331.86L361.144 332C360.524 334 358.724 335.24 356.704 335.24C353.744 335.24 351.844 333.06 351.844 329.7ZM353.664 328.74H359.464C359.184 326.52 357.984 325.76 356.704 325.76C355.024 325.76 353.944 326.86 353.664 328.74ZM361.792 324.4H363.592L366.772 333.2L369.872 324.4H371.652L367.352 336.34C366.952 337.48 366.192 338 364.992 338H363.612V336.52H364.832C365.352 336.52 365.652 336.3 365.852 335.78L366.232 334.8H365.672L361.792 324.4ZM376.73 320.8H378.61L383.01 333.08L387.37 320.8H389.27L384.13 335H381.87L376.73 320.8ZM390.027 327.52C390.447 325.46 392.107 324.16 394.367 324.16C397.087 324.16 398.627 325.76 398.627 328.6V332.86C398.627 333.3 398.827 333.52 399.267 333.52H399.707V335H398.987C397.907 335 396.967 334.66 396.967 333.36C396.507 334.34 395.347 335.24 393.667 335.24C391.547 335.24 389.847 334.12 389.847 332.22C389.847 330.04 391.487 329.48 393.847 329.04L396.947 328.42C396.927 326.64 396.067 325.76 394.367 325.76C393.027 325.76 392.127 326.44 391.807 327.66L390.027 327.52ZM391.607 332.22C391.607 333.06 392.327 333.76 393.887 333.76C395.607 333.74 396.987 332.54 396.987 330.06V329.92L394.487 330.36C392.907 330.64 391.607 330.74 391.607 332.22ZM401.619 320.8H403.299V332.86C403.299 333.3 403.519 333.52 403.959 333.52H404.879V335H403.699C402.459 335 401.619 334.16 401.619 332.94V320.8ZM414.995 335H413.395V333.24C412.835 334.62 411.615 335.24 410.215 335.24C407.855 335.24 406.695 333.46 406.695 331.22V324.4H408.375V330.72C408.375 332.7 409.035 333.76 410.575 333.76C412.215 333.76 413.315 332.7 413.315 330.72V324.4H414.995V335ZM417.327 327.52C417.747 325.46 419.407 324.16 421.667 324.16C424.387 324.16 425.927 325.76 425.927 328.6V332.86C425.927 333.3 426.127 333.52 426.567 333.52H427.007V335H426.287C425.207 335 424.267 334.66 424.267 333.36C423.807 334.34 422.647 335.24 420.967 335.24C418.847 335.24 417.147 334.12 417.147 332.22C417.147 330.04 418.787 329.48 421.147 329.04L424.247 328.42C424.227 326.64 423.367 325.76 421.667 325.76C420.327 325.76 419.427 326.44 419.107 327.66L417.327 327.52ZM418.907 332.22C418.907 333.06 419.627 333.76 421.187 333.76C422.907 333.74 424.287 332.54 424.287 330.06V329.92L421.787 330.36C420.207 330.64 418.907 330.74 418.907 332.22ZM428.983 322H430.663V324.4H433.483V325.88H430.663V332.18C430.663 333.06 431.083 333.52 431.923 333.52H433.443V335H431.923C430.023 335 428.983 333.98 428.983 332.18V325.88H427.423V324.4H428.983V322ZM435.422 324.4H437.102V335H435.422V324.4ZM435.382 322.74V320.82H437.142V322.74H435.382ZM444.113 335.24C441.173 335.24 439.253 333.08 439.253 329.7C439.253 326.32 441.173 324.16 444.113 324.16C447.033 324.16 448.953 326.32 448.953 329.7C448.953 333.08 447.033 335.24 444.113 335.24ZM441.013 329.7C441.013 332.16 442.153 333.64 444.113 333.64C446.053 333.64 447.193 332.16 447.193 329.7C447.193 327.24 446.053 325.76 444.113 325.76C442.153 325.76 441.013 327.24 441.013 329.7ZM451.005 324.4H452.545L452.585 326.24C453.125 324.8 454.385 324.16 455.845 324.16C458.265 324.16 459.425 325.94 459.425 328.18V335H457.745V328.66C457.745 326.7 457.085 325.64 455.485 325.64C453.805 325.64 452.685 326.7 452.685 328.66V335H451.005V324.4ZM470.522 320C467.142 325.74 467.142 331.46 470.522 337.2H468.962C465.262 331.68 465.262 325.52 468.962 320H470.522ZM477.781 320.54C478.274 320.54 478.734 320.573 479.161 320.64C479.588 320.707 479.981 320.8 480.341 320.92C480.701 321.04 481.028 321.173 481.321 321.32L480.701 322.7C480.288 322.513 479.834 322.353 479.341 322.22C478.861 322.087 478.348 322.02 477.801 322.02C477.094 322.02 476.528 322.213 476.101 322.6C475.688 322.987 475.481 323.62 475.481 324.5V326.26H479.521V327.56H475.481V329.12H479.521V330.44H475.461C475.461 331.013 475.401 331.493 475.281 331.88C475.174 332.267 475.014 332.58 474.801 332.82C474.601 333.06 474.368 333.253 474.101 333.4H481.781V335H471.721V333.52C472.134 333.427 472.488 333.26 472.781 333.02C473.088 332.78 473.321 332.447 473.481 332.02C473.641 331.593 473.721 331.067 473.721 330.44H471.781V329.12H473.721V327.56H471.781V326.26H473.721V324.94C473.721 324.02 473.861 323.233 474.141 322.58C474.421 321.927 474.854 321.427 475.441 321.08C476.041 320.72 476.821 320.54 477.781 320.54ZM484.614 320C488.314 325.52 488.314 331.68 484.614 337.2H483.054C486.434 331.46 486.434 325.74 483.054 320H484.614Z" fill="black"/>
<g filter="url(#filter2_d_2425_161)">
<rect x="273" y="353" width="654" height="58" rx="15" stroke="#E4E4E4" stroke-width="2" shape-rendering="crispEdges"/>
<path d="M293.94 377C295.46 377 296.12 376.34 296.12 374.8H297.48V389H295.74V378.48H292.8V377H293.94ZM305.984 389.32C302.544 389.32 300.364 386.46 300.364 381.92C300.364 377.34 302.544 374.48 305.984 374.48C309.444 374.48 311.624 377.34 311.624 381.92C311.624 386.46 309.444 389.32 305.984 389.32ZM302.164 381.92C302.164 385.58 303.544 387.64 305.984 387.64C308.444 387.64 309.824 385.58 309.824 381.92C309.824 378.24 308.444 376.16 305.984 376.16C303.544 376.16 302.164 378.24 302.164 381.92ZM319.01 389.32C315.57 389.32 313.39 386.46 313.39 381.92C313.39 377.34 315.57 374.48 319.01 374.48C322.47 374.48 324.65 377.34 324.65 381.92C324.65 386.46 322.47 389.32 319.01 389.32ZM315.19 381.92C315.19 385.58 316.57 387.64 319.01 387.64C321.47 387.64 322.85 385.58 322.85 381.92C322.85 378.24 321.47 376.16 319.01 376.16C316.57 376.16 315.19 378.24 315.19 381.92ZM332.036 389.32C328.596 389.32 326.416 386.46 326.416 381.92C326.416 377.34 328.596 374.48 332.036 374.48C335.496 374.48 337.676 377.34 337.676 381.92C337.676 386.46 335.496 389.32 332.036 389.32ZM328.216 381.92C328.216 385.58 329.596 387.64 332.036 387.64C334.496 387.64 335.876 385.58 335.876 381.92C335.876 378.24 334.496 376.16 332.036 376.16C329.596 376.16 328.216 378.24 328.216 381.92ZM345.062 389.32C341.622 389.32 339.442 386.46 339.442 381.92C339.442 377.34 341.622 374.48 345.062 374.48C348.522 374.48 350.702 377.34 350.702 381.92C350.702 386.46 348.522 389.32 345.062 389.32ZM341.242 381.92C341.242 385.58 342.622 387.64 345.062 387.64C347.522 387.64 348.902 385.58 348.902 381.92C348.902 378.24 347.522 376.16 345.062 376.16C342.622 376.16 341.242 378.24 341.242 381.92ZM358.088 389.32C354.648 389.32 352.468 386.46 352.468 381.92C352.468 377.34 354.648 374.48 358.088 374.48C361.548 374.48 363.728 377.34 363.728 381.92C363.728 386.46 361.548 389.32 358.088 389.32ZM354.268 381.92C354.268 385.58 355.648 387.64 358.088 387.64C360.548 387.64 361.928 385.58 361.928 381.92C361.928 378.24 360.548 376.16 358.088 376.16C355.648 376.16 354.268 378.24 354.268 381.92ZM367.123 389L365.983 392.08H365.003L365.783 389H364.963V386.82H367.103V389H367.123ZM373.983 389.32C370.543 389.32 368.363 386.46 368.363 381.92C368.363 377.34 370.543 374.48 373.983 374.48C377.443 374.48 379.623 377.34 379.623 381.92C379.623 386.46 377.443 389.32 373.983 389.32ZM370.163 381.92C370.163 385.58 371.543 387.64 373.983 387.64C376.443 387.64 377.823 385.58 377.823 381.92C377.823 378.24 376.443 376.16 373.983 376.16C371.543 376.16 370.163 378.24 370.163 381.92ZM387.009 389.32C383.569 389.32 381.389 386.46 381.389 381.92C381.389 377.34 383.569 374.48 387.009 374.48C390.469 374.48 392.649 377.34 392.649 381.92C392.649 386.46 390.469 389.32 387.009 389.32ZM383.189 381.92C383.189 385.58 384.569 387.64 387.009 387.64C389.469 387.64 390.849 385.58 390.849 381.92C390.849 378.24 389.469 376.16 387.009 376.16C384.569 376.16 383.189 378.24 383.189 381.92Z" fill="black"/>
</g>
<path d="M280.94 674.8C284.1 674.8 285.96 676.4 285.96 679.1C285.96 681.84 284.1 683.48 280.94 683.48H277.56V689H275.84V674.8H280.94ZM277.56 681.8H280.94C283.08 681.8 284.16 680.88 284.16 679.1C284.16 677.36 283.08 676.48 280.94 676.48H277.56V681.8ZM288.02 678.4H289.501L289.56 680.34C289.921 679.02 290.701 678.4 292.081 678.4H293.12V679.88H292.081C290.46 679.88 289.7 680.86 289.7 682.68V689H288.02V678.4ZM295.265 678.4H296.945V689H295.265V678.4ZM295.225 676.74V674.82H296.985V676.74H295.225ZM306.596 681.96C306.376 680.58 305.216 679.76 303.956 679.76C301.996 679.76 300.856 681.24 300.856 683.7C300.856 686.16 301.996 687.64 303.956 687.64C305.276 687.64 306.436 686.76 306.676 685.24L308.456 685.36C308.116 687.76 306.196 689.24 303.956 689.24C300.996 689.24 299.096 687.06 299.096 683.7C299.096 680.34 300.996 678.16 303.956 678.16C306.116 678.16 308.076 679.56 308.356 681.84L306.596 681.96ZM309.739 683.7C309.739 680.34 311.639 678.16 314.599 678.16C316.939 678.16 319.019 679.7 319.179 683.46L319.199 684.22H311.519C311.679 686.38 312.779 687.64 314.599 687.64C315.719 687.64 316.759 686.98 317.239 685.86L319.039 686C318.419 688 316.619 689.24 314.599 689.24C311.639 689.24 309.739 687.06 309.739 683.7ZM311.559 682.74H317.359C317.079 680.52 315.879 679.76 314.599 679.76C312.919 679.76 311.839 680.86 311.559 682.74ZM331.303 674.8C334.463 674.8 336.323 676.4 336.323 679.1C336.323 681.84 334.463 683.48 331.303 683.48H327.923V689H326.203V674.8H331.303ZM327.923 681.8H331.303C333.443 681.8 334.523 680.88 334.523 679.1C334.523 677.36 333.443 676.48 331.303 676.48H327.923V681.8ZM337.411 683.7C337.411 680.34 339.311 678.16 342.271 678.16C344.611 678.16 346.691 679.7 346.851 683.46L346.871 684.22H339.191C339.351 686.38 340.451 687.64 342.271 687.64C343.391 687.64 344.431 686.98 344.911 685.86L346.711 686C346.091 688 344.291 689.24 342.271 689.24C339.311 689.24 337.411 687.06 337.411 683.7ZM339.231 682.74H345.031C344.751 680.52 343.551 679.76 342.271 679.76C340.591 679.76 339.511 680.86 339.231 682.74ZM348.929 678.4H350.409L350.469 680.34C350.829 679.02 351.609 678.4 352.989 678.4H354.029V679.88H352.989C351.369 679.88 350.609 680.86 350.609 682.68V689H348.929V678.4ZM362.162 684.34C362.522 686.26 363.882 687.56 366.122 687.56C367.942 687.56 369.162 686.84 369.162 685.42C369.162 683.98 367.922 683.1 365.082 682.38C362.762 681.8 360.662 680.66 360.662 678.38C360.662 675.98 362.582 674.48 365.302 674.48C368.342 674.48 370.362 676.38 370.662 679L368.862 679.12C368.602 677.34 367.242 676.16 365.282 676.16C363.662 676.16 362.462 677.02 362.462 678.38C362.462 680.1 364.522 680.58 366.322 681.08C368.902 681.8 370.962 683.08 370.962 685.24C370.962 687.88 368.562 689.24 365.982 689.24C362.882 689.24 360.602 687.34 360.362 684.46L362.162 684.34ZM372.851 674.8H374.531V679.84C375.131 678.68 376.371 678.16 377.691 678.16C379.891 678.16 381.271 679.72 381.271 682.18V689H379.591V682.78C379.591 680.76 378.851 679.76 377.331 679.76C375.651 679.76 374.531 680.82 374.531 682.78V689H372.851V674.8ZM383.404 681.52C383.824 679.46 385.484 678.16 387.744 678.16C390.464 678.16 392.004 679.76 392.004 682.6V686.86C392.004 687.3 392.204 687.52 392.644 687.52H393.084V689H392.364C391.284 689 390.344 688.66 390.344 687.36C389.884 688.34 388.724 689.24 387.044 689.24C384.924 689.24 383.224 688.12 383.224 686.22C383.224 684.04 384.864 683.48 387.224 683.04L390.324 682.42C390.304 680.64 389.444 679.76 387.744 679.76C386.404 679.76 385.504 680.44 385.184 681.66L383.404 681.52ZM384.984 686.22C384.984 687.06 385.704 687.76 387.264 687.76C388.984 687.74 390.364 686.54 390.364 684.06V683.92L387.864 684.36C386.284 684.64 384.984 684.74 384.984 686.22ZM394.84 678.4H396.32L396.38 680.34C396.74 679.02 397.52 678.4 398.9 678.4H399.94V679.88H398.9C397.28 679.88 396.52 680.86 396.52 682.68V689H394.84V678.4ZM400.819 683.7C400.819 680.34 402.719 678.16 405.679 678.16C408.019 678.16 410.099 679.7 410.259 683.46L410.279 684.22H402.599C402.759 686.38 403.859 687.64 405.679 687.64C406.799 687.64 407.839 686.98 408.319 685.86L410.119 686C409.499 688 407.699 689.24 405.679 689.24C402.719 689.24 400.819 687.06 400.819 683.7ZM402.639 682.74H408.439C408.159 680.52 406.959 679.76 405.679 679.76C403.999 679.76 402.919 680.86 402.639 682.74ZM420.723 674C417.343 679.74 417.343 685.46 420.723 691.2H419.163C415.463 685.68 415.463 679.52 419.163 674H420.723ZM427.982 674.54C428.475 674.54 428.935 674.573 429.362 674.64C429.788 674.707 430.182 674.8 430.542 674.92C430.902 675.04 431.228 675.173 431.522 675.32L430.902 676.7C430.488 676.513 430.035 676.353 429.542 676.22C429.062 676.087 428.548 676.02 428.002 676.02C427.295 676.02 426.728 676.213 426.302 676.6C425.888 676.987 425.682 677.62 425.682 678.5V680.26H429.722V681.56H425.682V683.12H429.722V684.44H425.662C425.662 685.013 425.602 685.493 425.482 685.88C425.375 686.267 425.215 686.58 425.002 686.82C424.802 687.06 424.568 687.253 424.302 687.4H431.982V689H421.922V687.52C422.335 687.427 422.688 687.26 422.982 687.02C423.288 686.78 423.522 686.447 423.682 686.02C423.842 685.593 423.922 685.067 423.922 684.44H421.982V683.12H423.922V681.56H421.982V680.26H423.922V678.94C423.922 678.02 424.062 677.233 424.342 676.58C424.622 675.927 425.055 675.427 425.642 675.08C426.242 674.72 427.022 674.54 427.982 674.54ZM434.815 674C438.515 679.52 438.515 685.68 434.815 691.2H433.255C436.635 685.46 436.635 679.74 433.255 674H434.815Z" fill="black"/>
<g filter="url(#filter3_d_2425_161)">
<rect x="273" y="705" width="654" height="58" rx="15" stroke="#E4E4E4" stroke-width="2" shape-rendering="crispEdges"/>
<path d="M293.94 729C295.46 729 296.12 728.34 296.12 726.8H297.48V741H295.74V730.48H292.8V729H293.94ZM300.224 738.82H302.364V741H300.224V738.82ZM309.225 741.32C305.785 741.32 303.605 738.46 303.605 733.92C303.605 729.34 305.785 726.48 309.225 726.48C312.685 726.48 314.865 729.34 314.865 733.92C314.865 738.46 312.685 741.32 309.225 741.32ZM305.405 733.92C305.405 737.58 306.785 739.64 309.225 739.64C311.685 739.64 313.065 737.58 313.065 733.92C313.065 730.24 311.685 728.16 309.225 728.16C306.785 728.16 305.405 730.24 305.405 733.92ZM322.251 741.32C318.811 741.32 316.631 738.46 316.631 733.92C316.631 729.34 318.811 726.48 322.251 726.48C325.711 726.48 327.891 729.34 327.891 733.92C327.891 738.46 325.711 741.32 322.251 741.32ZM318.431 733.92C318.431 737.58 319.811 739.64 322.251 739.64C324.711 739.64 326.091 737.58 326.091 733.92C326.091 730.24 324.711 728.16 322.251 728.16C319.811 728.16 318.431 730.24 318.431 733.92Z" fill="black"/>
</g>
<path d="M275.84 440.8H277.56V455H275.84V440.8ZM280.306 444.4H281.846L281.886 446.24C282.426 444.8 283.686 444.16 285.146 444.16C287.566 444.16 288.726 445.94 288.726 448.18V455H287.046V448.66C287.046 446.7 286.386 445.64 284.786 445.64C283.106 445.64 281.986 446.7 281.986 448.66V455H280.306V444.4ZM299.824 444.4L295.964 455H293.844L289.984 444.4H291.784L294.904 453.24L298.024 444.4H299.824ZM300.307 449.7C300.307 446.34 302.207 444.16 305.167 444.16C307.507 444.16 309.587 445.7 309.747 449.46L309.767 450.22H302.087C302.247 452.38 303.347 453.64 305.167 453.64C306.287 453.64 307.327 452.98 307.807 451.86L309.607 452C308.987 454 307.187 455.24 305.167 455.24C302.207 455.24 300.307 453.06 300.307 449.7ZM302.127 448.74H307.927C307.647 446.52 306.447 445.76 305.167 445.76C303.487 445.76 302.407 446.86 302.127 448.74ZM318.023 447.68C317.783 446.48 316.603 445.76 315.423 445.76C314.243 445.76 313.283 446.36 313.283 447.38C313.283 448.42 314.663 448.84 315.823 449.08C318.223 449.54 319.983 450.2 319.983 452.3C319.983 454.36 317.863 455.24 315.843 455.24C313.343 455.24 311.423 453.86 311.263 451.66L313.023 451.54C313.243 452.82 314.263 453.64 315.843 453.64C316.883 453.64 318.223 453.3 318.223 452.2C318.223 450.94 316.723 450.8 315.523 450.52C313.583 450.08 311.523 449.52 311.523 447.46C311.523 445.44 313.163 444.16 315.603 444.16C317.703 444.16 319.443 445.5 319.783 447.56L318.023 447.68ZM322.591 442H324.271V444.4H327.091V445.88H324.271V452.18C324.271 453.06 324.691 453.52 325.531 453.52H327.051V455H325.531C323.631 455 322.591 453.98 322.591 452.18V445.88H321.031V444.4H322.591V442ZM332.936 455.24C329.996 455.24 328.076 453.08 328.076 449.7C328.076 446.32 329.996 444.16 332.936 444.16C335.856 444.16 337.776 446.32 337.776 449.7C337.776 453.08 335.856 455.24 332.936 455.24ZM329.836 449.7C329.836 452.16 330.976 453.64 332.936 453.64C334.876 453.64 336.016 452.16 336.016 449.7C336.016 447.24 334.876 445.76 332.936 445.76C330.976 445.76 329.836 447.24 329.836 449.7ZM339.829 444.4H341.309L341.369 446.34C341.729 445.02 342.509 444.4 343.889 444.4H344.929V445.88H343.889C342.269 445.88 341.509 446.86 341.509 448.68V455H339.829V444.4ZM351.921 440.8H354.321L361.281 452.96V440.8H363.001V455H360.501L353.641 443.04V455H351.921V440.8ZM365.477 447.52C365.897 445.46 367.557 444.16 369.817 444.16C372.537 444.16 374.077 445.76 374.077 448.6V452.86C374.077 453.3 374.277 453.52 374.717 453.52H375.157V455H374.437C373.357 455 372.417 454.66 372.417 453.36C371.957 454.34 370.797 455.24 369.117 455.24C366.997 455.24 365.297 454.12 365.297 452.22C365.297 450.04 366.937 449.48 369.297 449.04L372.397 448.42C372.377 446.64 371.517 445.76 369.817 445.76C368.477 445.76 367.577 446.44 367.257 447.66L365.477 447.52ZM367.057 452.22C367.057 453.06 367.777 453.76 369.337 453.76C371.057 453.74 372.437 452.54 372.437 450.06V449.92L369.937 450.36C368.357 450.64 367.057 450.74 367.057 452.22ZM376.913 444.4H378.453L378.493 446.18C378.993 444.9 380.093 444.16 381.553 444.16C383.093 444.16 384.193 444.96 384.653 446.38C385.113 444.96 386.213 444.16 387.873 444.16C390.013 444.16 391.253 445.62 391.253 448.18V455H389.573V448.66C389.573 446.74 388.813 445.64 387.533 445.64C385.873 445.64 384.913 446.76 384.913 448.66V455H383.233V448.66C383.233 446.78 382.473 445.64 381.213 445.64C379.573 445.64 378.593 446.78 378.593 448.66V455H376.913V444.4ZM393.107 449.7C393.107 446.34 395.007 444.16 397.967 444.16C400.307 444.16 402.387 445.7 402.547 449.46L402.567 450.22H394.887C395.047 452.38 396.147 453.64 397.967 453.64C399.087 453.64 400.127 452.98 400.607 451.86L402.407 452C401.787 454 399.987 455.24 397.967 455.24C395.007 455.24 393.107 453.06 393.107 449.7ZM394.927 448.74H400.727C400.447 446.52 399.247 445.76 397.967 445.76C396.287 445.76 395.207 446.86 394.927 448.74Z" fill="black"/>
<g filter="url(#filter4_d_2425_161)">
<rect x="273" y="473" width="310" height="58" rx="15" stroke="#E4E4E4" stroke-width="2" shape-rendering="crispEdges"/>
<path d="M293.84 494.8H296.24L300.78 507.12L305.3 494.8H307.7V509H305.98V498.24L301.92 509H299.62L295.56 498.24V509H293.84V494.8ZM310.747 498.4H312.427V509H310.747V498.4ZM310.707 496.74V494.82H312.467V496.74H310.707ZM322.078 501.96C321.858 500.58 320.698 499.76 319.438 499.76C317.478 499.76 316.338 501.24 316.338 503.7C316.338 506.16 317.478 507.64 319.438 507.64C320.758 507.64 321.918 506.76 322.158 505.24L323.938 505.36C323.598 507.76 321.678 509.24 319.438 509.24C316.478 509.24 314.578 507.06 314.578 503.7C314.578 500.34 316.478 498.16 319.438 498.16C321.598 498.16 323.558 499.56 323.838 501.84L322.078 501.96ZM325.49 494.8H327.17V499.84C327.77 498.68 329.01 498.16 330.33 498.16C332.53 498.16 333.91 499.72 333.91 502.18V509H332.23V502.78C332.23 500.76 331.49 499.76 329.97 499.76C328.29 499.76 327.17 500.82 327.17 502.78V509H325.49V494.8ZM336.044 501.52C336.464 499.46 338.124 498.16 340.384 498.16C343.104 498.16 344.644 499.76 344.644 502.6V506.86C344.644 507.3 344.844 507.52 345.284 507.52H345.724V509H345.004C343.924 509 342.984 508.66 342.984 507.36C342.524 508.34 341.364 509.24 339.684 509.24C337.564 509.24 335.864 508.12 335.864 506.22C335.864 504.04 337.504 503.48 339.864 503.04L342.964 502.42C342.944 500.64 342.084 499.76 340.384 499.76C339.044 499.76 338.144 500.44 337.824 501.66L336.044 501.52ZM337.624 506.22C337.624 507.06 338.344 507.76 339.904 507.76C341.624 507.74 343.004 506.54 343.004 504.06V503.92L340.504 504.36C338.924 504.64 337.624 504.74 337.624 506.22ZM346.781 503.7C346.781 500.34 348.681 498.16 351.641 498.16C353.981 498.16 356.061 499.7 356.221 503.46L356.241 504.22H348.561C348.721 506.38 349.821 507.64 351.641 507.64C352.761 507.64 353.801 506.98 354.281 505.86L356.081 506C355.461 508 353.661 509.24 351.641 509.24C348.681 509.24 346.781 507.06 346.781 503.7ZM348.601 502.74H354.401C354.121 500.52 352.921 499.76 351.641 499.76C349.961 499.76 348.881 500.86 348.601 502.74ZM358.396 494.8H360.076V506.86C360.076 507.3 360.296 507.52 360.736 507.52H361.656V509H360.476C359.236 509 358.396 508.16 358.396 506.94V494.8ZM377.736 494.8V496.48H373.316V509H371.596V496.48H367.176V494.8H377.736ZM386.868 509H385.268V507.24C384.708 508.62 383.488 509.24 382.088 509.24C379.728 509.24 378.568 507.46 378.568 505.22V498.4H380.248V504.72C380.248 506.7 380.908 507.76 382.448 507.76C384.088 507.76 385.188 506.7 385.188 504.72V498.4H386.868V509ZM389.68 498.4H391.16L391.22 500.34C391.58 499.02 392.36 498.4 393.74 498.4H394.78V499.88H393.74C392.12 499.88 391.36 500.86 391.36 502.68V509H389.68V498.4ZM396.339 498.4H397.879L397.919 500.24C398.459 498.8 399.719 498.16 401.179 498.16C403.599 498.16 404.759 499.94 404.759 502.18V509H403.079V502.66C403.079 500.7 402.419 499.64 400.819 499.64C399.139 499.64 398.019 500.7 398.019 502.66V509H396.339V498.4ZM406.615 503.7C406.615 500.34 408.515 498.16 411.475 498.16C413.815 498.16 415.895 499.7 416.055 503.46L416.075 504.22H408.395C408.555 506.38 409.655 507.64 411.475 507.64C412.595 507.64 413.635 506.98 414.115 505.86L415.915 506C415.295 508 413.495 509.24 411.475 509.24C408.515 509.24 406.615 507.06 406.615 503.7ZM408.435 502.74H414.235C413.955 500.52 412.755 499.76 411.475 499.76C409.795 499.76 408.715 500.86 408.435 502.74ZM418.133 498.4H419.613L419.673 500.34C420.033 499.02 420.813 498.4 422.193 498.4H423.233V499.88H422.193C420.573 499.88 419.813 500.86 419.813 502.68V509H418.133V498.4Z" fill="black"/>
</g>
<path d="M276.98 570.34C277.34 572.26 278.7 573.56 280.94 573.56C282.76 573.56 283.98 572.84 283.98 571.42C283.98 569.98 282.74 569.1 279.9 568.38C277.58 567.8 275.48 566.66 275.48 564.38C275.48 561.98 277.4 560.48 280.12 560.48C283.16 560.48 285.18 562.38 285.48 565L283.68 565.12C283.42 563.34 282.06 562.16 280.1 562.16C278.48 562.16 277.28 563.02 277.28 564.38C277.28 566.1 279.34 566.58 281.14 567.08C283.72 567.8 285.78 569.08 285.78 571.24C285.78 573.88 283.38 575.24 280.8 575.24C277.7 575.24 275.42 573.34 275.18 570.46L276.98 570.34ZM287.669 560.8H289.349V565.84C289.949 564.68 291.189 564.16 292.509 564.16C294.709 564.16 296.089 565.72 296.089 568.18V575H294.409V568.78C294.409 566.76 293.669 565.76 292.149 565.76C290.469 565.76 289.349 566.82 289.349 568.78V575H287.669V560.8ZM298.223 567.52C298.643 565.46 300.303 564.16 302.563 564.16C305.283 564.16 306.823 565.76 306.823 568.6V572.86C306.823 573.3 307.023 573.52 307.463 573.52H307.903V575H307.183C306.103 575 305.163 574.66 305.163 573.36C304.703 574.34 303.543 575.24 301.863 575.24C299.743 575.24 298.043 574.12 298.043 572.22C298.043 570.04 299.683 569.48 302.043 569.04L305.143 568.42C305.123 566.64 304.263 565.76 302.563 565.76C301.223 565.76 300.323 566.44 300.003 567.66L298.223 567.52ZM299.803 572.22C299.803 573.06 300.523 573.76 302.083 573.76C303.803 573.74 305.183 572.54 305.183 570.06V569.92L302.683 570.36C301.103 570.64 299.803 570.74 299.803 572.22ZM309.658 564.4H311.138L311.198 566.34C311.558 565.02 312.338 564.4 313.718 564.4H314.758V565.88H313.718C312.098 565.88 311.338 566.86 311.338 568.68V575H309.658V564.4ZM315.638 569.7C315.638 566.34 317.538 564.16 320.498 564.16C322.838 564.16 324.918 565.7 325.078 569.46L325.098 570.22H317.418C317.578 572.38 318.678 573.64 320.498 573.64C321.618 573.64 322.658 572.98 323.138 571.86L324.938 572C324.318 574 322.518 575.24 320.498 575.24C317.538 575.24 315.638 573.06 315.638 569.7ZM317.458 568.74H323.258C322.978 566.52 321.778 565.76 320.498 565.76C318.818 565.76 317.738 566.86 317.458 568.74ZM343.401 570.32C342.881 573.3 340.941 575.32 337.661 575.32C333.581 575.32 331.241 572.04 331.241 567.92C331.241 563.78 333.561 560.48 337.661 560.48C340.681 560.48 342.661 562.36 343.281 565.16L341.461 565.28C341.001 563.28 339.621 562.16 337.661 562.16C334.421 562.16 333.041 564.84 333.041 567.92C333.041 570.98 334.441 573.64 337.661 573.64C339.741 573.64 341.141 572.4 341.561 570.2L343.401 570.32ZM345.493 560.8H347.173V572.86C347.173 573.3 347.393 573.52 347.833 573.52H348.753V575H347.573C346.333 575 345.493 574.16 345.493 572.94V560.8ZM350.285 567.52C350.705 565.46 352.365 564.16 354.625 564.16C357.345 564.16 358.885 565.76 358.885 568.6V572.86C358.885 573.3 359.085 573.52 359.525 573.52H359.965V575H359.245C358.165 575 357.225 574.66 357.225 573.36C356.765 574.34 355.605 575.24 353.925 575.24C351.805 575.24 350.105 574.12 350.105 572.22C350.105 570.04 351.745 569.48 354.105 569.04L357.205 568.42C357.185 566.64 356.325 565.76 354.625 565.76C353.285 565.76 352.385 566.44 352.065 567.66L350.285 567.52ZM351.865 572.22C351.865 573.06 352.585 573.76 354.145 573.76C355.865 573.74 357.245 572.54 357.245 570.06V569.92L354.745 570.36C353.165 570.64 351.865 570.74 351.865 572.22ZM367.781 567.68C367.541 566.48 366.361 565.76 365.181 565.76C364.001 565.76 363.041 566.36 363.041 567.38C363.041 568.42 364.421 568.84 365.581 569.08C367.981 569.54 369.741 570.2 369.741 572.3C369.741 574.36 367.621 575.24 365.601 575.24C363.101 575.24 361.181 573.86 361.021 571.66L362.781 571.54C363.001 572.82 364.021 573.64 365.601 573.64C366.641 573.64 367.981 573.3 367.981 572.2C367.981 570.94 366.481 570.8 365.281 570.52C363.341 570.08 361.281 569.52 361.281 567.46C361.281 565.44 362.921 564.16 365.361 564.16C367.461 564.16 369.201 565.5 369.541 567.56L367.781 567.68ZM377.995 567.68C377.755 566.48 376.575 565.76 375.395 565.76C374.215 565.76 373.255 566.36 373.255 567.38C373.255 568.42 374.635 568.84 375.795 569.08C378.195 569.54 379.955 570.2 379.955 572.3C379.955 574.36 377.835 575.24 375.815 575.24C373.315 575.24 371.395 573.86 371.235 571.66L372.995 571.54C373.215 572.82 374.235 573.64 375.815 573.64C376.855 573.64 378.195 573.3 378.195 572.2C378.195 570.94 376.695 570.8 375.495 570.52C373.555 570.08 371.495 569.52 371.495 567.46C371.495 565.44 373.135 564.16 375.575 564.16C377.675 564.16 379.415 565.5 379.755 567.56L377.995 567.68Z" fill="black"/>
<g filter="url(#filter5_d_2425_161)">
<rect x="273" y="593" width="310" height="58" rx="15" stroke="#E4E4E4" stroke-width="2" shape-rendering="crispEdges"/>
<path d="M562 622L556 628L550 622" stroke="#AFAFAF" stroke-width="2.43" stroke-linecap="round" stroke-linejoin="round"/>
<path d="M299.46 629.32C295.42 629.32 292.98 626.5 292.98 621.92C292.98 617.3 295.42 614.48 299.46 614.48C303.52 614.48 305.96 617.3 305.96 621.92C305.96 626.5 303.52 629.32 299.46 629.32ZM294.78 621.92C294.78 625.46 296.54 627.64 299.46 627.64C302.4 627.64 304.16 625.46 304.16 621.92C304.16 618.34 302.4 616.16 299.46 616.16C296.54 616.16 294.78 618.34 294.78 621.92ZM307.759 618.4H309.239L309.299 620.34C309.659 619.02 310.439 618.4 311.819 618.4H312.859V619.88H311.819C310.199 619.88 309.439 620.86 309.439 622.68V629H307.759V618.4ZM323.158 614.8V629H321.638L321.578 627.48C320.978 628.56 319.698 629.24 318.218 629.24C315.458 629.24 313.738 627.1 313.738 623.7C313.738 620.3 315.458 618.16 318.218 618.16C319.638 618.16 320.898 618.8 321.478 619.8V614.8H323.158ZM315.498 623.7C315.498 626.12 316.698 627.64 318.558 627.64C320.438 627.64 321.638 626.12 321.638 623.7C321.638 621.24 320.438 619.68 318.558 619.68C316.698 619.68 315.498 621.24 315.498 623.7ZM325.354 618.4H327.034V629H325.354V618.4ZM325.314 616.74V614.82H327.074V616.74H325.314ZM329.552 618.4H331.092L331.132 620.24C331.672 618.8 332.932 618.16 334.392 618.16C336.812 618.16 337.972 619.94 337.972 622.18V629H336.292V622.66C336.292 620.7 335.632 619.64 334.032 619.64C332.352 619.64 331.232 620.7 331.232 622.66V629H329.552V618.4ZM340.105 621.52C340.525 619.46 342.185 618.16 344.445 618.16C347.165 618.16 348.705 619.76 348.705 622.6V626.86C348.705 627.3 348.905 627.52 349.345 627.52H349.785V629H349.065C347.985 629 347.045 628.66 347.045 627.36C346.585 628.34 345.425 629.24 343.745 629.24C341.625 629.24 339.925 628.12 339.925 626.22C339.925 624.04 341.565 623.48 343.925 623.04L347.025 622.42C347.005 620.64 346.145 619.76 344.445 619.76C343.105 619.76 342.205 620.44 341.885 621.66L340.105 621.52ZM341.685 626.22C341.685 627.06 342.405 627.76 343.965 627.76C345.685 627.74 347.065 626.54 347.065 624.06V623.92L344.565 624.36C342.985 624.64 341.685 624.74 341.685 626.22ZM351.541 618.4H353.021L353.081 620.34C353.441 619.02 354.221 618.4 355.601 618.4H356.641V619.88H355.601C353.981 619.88 353.221 620.86 353.221 622.68V629H351.541V618.4ZM357.626 618.4H359.426L362.606 627.2L365.706 618.4H367.486L363.186 630.34C362.786 631.48 362.026 632 360.826 632H359.446V630.52H360.666C361.186 630.52 361.486 630.3 361.686 629.78L362.066 628.8H361.506L357.626 618.4Z" fill="black"/>
</g>
<path d="M619.84 440.8H621.56V455H619.84V440.8ZM624.306 444.4H625.846L625.886 446.24C626.426 444.8 627.686 444.16 629.146 444.16C631.566 444.16 632.726 445.94 632.726 448.18V455H631.046V448.66C631.046 446.7 630.386 445.64 628.786 445.64C627.106 445.64 625.986 446.7 625.986 448.66V455H624.306V444.4ZM643.824 444.4L639.964 455H637.844L633.984 444.4H635.784L638.904 453.24L642.024 444.4H643.824ZM644.307 449.7C644.307 446.34 646.207 444.16 649.167 444.16C651.507 444.16 653.587 445.7 653.747 449.46L653.767 450.22H646.087C646.247 452.38 647.347 453.64 649.167 453.64C650.287 453.64 651.327 452.98 651.807 451.86L653.607 452C652.987 454 651.187 455.24 649.167 455.24C646.207 455.24 644.307 453.06 644.307 449.7ZM646.127 448.74H651.927C651.647 446.52 650.447 445.76 649.167 445.76C647.487 445.76 646.407 446.86 646.127 448.74ZM662.023 447.68C661.783 446.48 660.603 445.76 659.423 445.76C658.243 445.76 657.283 446.36 657.283 447.38C657.283 448.42 658.663 448.84 659.823 449.08C662.223 449.54 663.983 450.2 663.983 452.3C663.983 454.36 661.863 455.24 659.843 455.24C657.343 455.24 655.423 453.86 655.263 451.66L657.023 451.54C657.243 452.82 658.263 453.64 659.843 453.64C660.883 453.64 662.223 453.3 662.223 452.2C662.223 450.94 660.723 450.8 659.523 450.52C657.583 450.08 655.523 449.52 655.523 447.46C655.523 445.44 657.163 444.16 659.603 444.16C661.703 444.16 663.443 445.5 663.783 447.56L662.023 447.68ZM666.591 442H668.271V444.4H671.091V445.88H668.271V452.18C668.271 453.06 668.691 453.52 669.531 453.52H671.051V455H669.531C667.631 455 666.591 453.98 666.591 452.18V445.88H665.031V444.4H666.591V442ZM673.029 444.4H674.569L674.609 446.18C675.109 444.9 676.209 444.16 677.669 444.16C679.209 444.16 680.309 444.96 680.769 446.38C681.229 444.96 682.329 444.16 683.989 444.16C686.129 444.16 687.369 445.62 687.369 448.18V455H685.689V448.66C685.689 446.74 684.929 445.64 683.649 445.64C681.989 445.64 681.029 446.76 681.029 448.66V455H679.349V448.66C679.349 446.78 678.589 445.64 677.329 445.64C675.689 445.64 674.709 446.78 674.709 448.66V455H673.029V444.4ZM689.223 449.7C689.223 446.34 691.123 444.16 694.083 444.16C696.423 444.16 698.503 445.7 698.663 449.46L698.683 450.22H691.003C691.163 452.38 692.263 453.64 694.083 453.64C695.203 453.64 696.243 452.98 696.723 451.86L698.523 452C697.903 454 696.103 455.24 694.083 455.24C691.123 455.24 689.223 453.06 689.223 449.7ZM691.043 448.74H696.843C696.563 446.52 695.363 445.76 694.083 445.76C692.403 445.76 691.323 446.86 691.043 448.74ZM700.741 444.4H702.281L702.321 446.24C702.861 444.8 704.121 444.16 705.581 444.16C708.001 444.16 709.161 445.94 709.161 448.18V455H707.481V448.66C707.481 446.7 706.821 445.64 705.221 445.64C703.541 445.64 702.421 446.7 702.421 448.66V455H700.741V444.4ZM712.523 442H714.203V444.4H717.023V445.88H714.203V452.18C714.203 453.06 714.623 453.52 715.463 453.52H716.983V455H715.463C713.563 455 712.523 453.98 712.523 452.18V445.88H710.963V444.4H712.523V442ZM722.389 455L727.509 440.8H729.829L734.949 455H733.069L731.649 450.96H725.689L724.269 455H722.389ZM726.269 449.28H731.069L728.669 442.3L726.269 449.28ZM736.38 444.4H737.92L737.96 446.18C738.46 444.9 739.56 444.16 741.02 444.16C742.56 444.16 743.66 444.96 744.12 446.38C744.58 444.96 745.68 444.16 747.34 444.16C749.48 444.16 750.72 445.62 750.72 448.18V455H749.04V448.66C749.04 446.74 748.28 445.64 747 445.64C745.34 445.64 744.38 446.76 744.38 448.66V455H742.7V448.66C742.7 446.78 741.94 445.64 740.68 445.64C739.04 445.64 738.06 446.78 738.06 448.66V455H736.38V444.4ZM757.434 455.24C754.494 455.24 752.574 453.08 752.574 449.7C752.574 446.32 754.494 444.16 757.434 444.16C760.354 444.16 762.274 446.32 762.274 449.7C762.274 453.08 760.354 455.24 757.434 455.24ZM754.334 449.7C754.334 452.16 755.474 453.64 757.434 453.64C759.374 453.64 760.514 452.16 760.514 449.7C760.514 447.24 759.374 445.76 757.434 445.76C755.474 445.76 754.334 447.24 754.334 449.7ZM772.529 455H770.929V453.24C770.369 454.62 769.149 455.24 767.749 455.24C765.389 455.24 764.229 453.46 764.229 451.22V444.4H765.909V450.72C765.909 452.7 766.569 453.76 768.109 453.76C769.749 453.76 770.849 452.7 770.849 450.72V444.4H772.529V455ZM775.341 444.4H776.881L776.921 446.24C777.461 444.8 778.721 444.16 780.181 444.16C782.601 444.16 783.761 445.94 783.761 448.18V455H782.081V448.66C782.081 446.7 781.421 445.64 779.821 445.64C778.141 445.64 777.021 446.7 777.021 448.66V455H775.341V444.4ZM787.122 442H788.802V444.4H791.622V445.88H788.802V452.18C788.802 453.06 789.222 453.52 790.062 453.52H791.582V455H790.062C788.162 455 787.122 453.98 787.122 452.18V445.88H785.562V444.4H787.122V442ZM801.849 440C798.469 445.74 798.469 451.46 801.849 457.2H800.289C796.589 451.68 796.589 445.52 800.289 440H801.849ZM809.108 440.54C809.601 440.54 810.061 440.573 810.488 440.64C810.915 440.707 811.308 440.8 811.668 440.92C812.028 441.04 812.355 441.173 812.648 441.32L812.028 442.7C811.615 442.513 811.161 442.353 810.668 442.22C810.188 442.087 809.675 442.02 809.128 442.02C808.421 442.02 807.855 442.213 807.428 442.6C807.015 442.987 806.808 443.62 806.808 444.5V446.26H810.848V447.56H806.808V449.12H810.848V450.44H806.788C806.788 451.013 806.728 451.493 806.608 451.88C806.501 452.267 806.341 452.58 806.128 452.82C805.928 453.06 805.695 453.253 805.428 453.4H813.108V455H803.048V453.52C803.461 453.427 803.815 453.26 804.108 453.02C804.415 452.78 804.648 452.447 804.808 452.02C804.968 451.593 805.048 451.067 805.048 450.44H803.108V449.12H805.048V447.56H803.108V446.26H805.048V444.94C805.048 444.02 805.188 443.233 805.468 442.58C805.748 441.927 806.181 441.427 806.768 441.08C807.368 440.72 808.148 440.54 809.108 440.54ZM815.941 440C819.641 445.52 819.641 451.68 815.941 457.2H814.381C817.761 451.46 817.761 445.74 814.381 440H815.941Z" fill="black"/>
<g filter="url(#filter6_d_2425_161)">
<rect x="617" y="473" width="310" height="58" rx="15" stroke="#E4E4E4" stroke-width="2" shape-rendering="crispEdges"/>
<path d="M635.46 497.04C635.84 494.42 637.7 492.48 640.54 492.48C643.14 492.48 645.06 494.2 645.06 496.52C645.06 498.58 643.42 499.98 641.28 501.32C640.14 501.96 637.4 503.9 637.34 505.32H645.18V507H635.2C635.2 502.76 638.24 501.22 640.66 499.68C642.16 498.72 643.26 497.62 643.26 496.52C643.26 495.14 642.14 494.16 640.54 494.16C638.82 494.16 637.64 495.24 637.26 497.16L635.46 497.04ZM649.091 507L647.951 510.08H646.971L647.751 507H646.931V504.82H649.071V507H649.091ZM659.982 492.8V494.48H653.702L653.122 498.78C653.782 497.98 655.042 497.54 656.262 497.54C659.002 497.54 660.942 499.6 660.942 502.44C660.942 505.3 658.862 507.32 656.002 507.32C653.162 507.32 651.042 505.68 650.842 503.34L652.642 503.22C652.862 504.76 654.302 505.64 656.002 505.64C657.882 505.64 659.142 504.32 659.142 502.44C659.142 500.44 657.862 499.18 655.822 499.18C654.502 499.18 653.402 499.78 652.942 500.78H651.082L652.182 492.8H659.982ZM668.469 507.32C665.029 507.32 662.849 504.46 662.849 499.92C662.849 495.34 665.029 492.48 668.469 492.48C671.929 492.48 674.109 495.34 674.109 499.92C674.109 504.46 671.929 507.32 668.469 507.32ZM664.649 499.92C664.649 503.58 666.029 505.64 668.469 505.64C670.929 505.64 672.309 503.58 672.309 499.92C672.309 496.24 670.929 494.16 668.469 494.16C666.029 494.16 664.649 496.24 664.649 499.92ZM681.495 507.32C678.055 507.32 675.875 504.46 675.875 499.92C675.875 495.34 678.055 492.48 681.495 492.48C684.955 492.48 687.135 495.34 687.135 499.92C687.135 504.46 684.955 507.32 681.495 507.32ZM677.675 499.92C677.675 503.58 679.055 505.64 681.495 505.64C683.955 505.64 685.335 503.58 685.335 499.92C685.335 496.24 683.955 494.16 681.495 494.16C679.055 494.16 677.675 496.24 677.675 499.92Z" fill="black"/>
</g>
<path d="M629.06 560.8V562.48H624.64V575H622.92V562.48H618.5V560.8H629.06ZM633.564 575.24C630.624 575.24 628.704 573.08 628.704 569.7C628.704 566.32 630.624 564.16 633.564 564.16C636.484 564.16 638.404 566.32 638.404 569.7C638.404 573.08 636.484 575.24 633.564 575.24ZM630.464 569.7C630.464 572.16 631.604 573.64 633.564 573.64C635.504 573.64 636.644 572.16 636.644 569.7C636.644 567.24 635.504 565.76 633.564 565.76C631.604 565.76 630.464 567.24 630.464 569.7ZM641.009 562H642.689V564.4H645.509V565.88H642.689V572.18C642.689 573.06 643.109 573.52 643.949 573.52H645.469V575H643.949C642.049 575 641.009 573.98 641.009 572.18V565.88H639.449V564.4H641.009V562ZM646.967 567.52C647.387 565.46 649.047 564.16 651.307 564.16C654.027 564.16 655.567 565.76 655.567 568.6V572.86C655.567 573.3 655.767 573.52 656.207 573.52H656.647V575H655.927C654.847 575 653.907 574.66 653.907 573.36C653.447 574.34 652.287 575.24 650.607 575.24C648.487 575.24 646.787 574.12 646.787 572.22C646.787 570.04 648.427 569.48 650.787 569.04L653.887 568.42C653.867 566.64 653.007 565.76 651.307 565.76C649.967 565.76 649.067 566.44 648.747 567.66L646.967 567.52ZM648.547 572.22C648.547 573.06 649.267 573.76 650.827 573.76C652.547 573.74 653.927 572.54 653.927 570.06V569.92L651.427 570.36C649.847 570.64 648.547 570.74 648.547 572.22ZM658.559 560.8H660.239V572.86C660.239 573.3 660.459 573.52 660.899 573.52H661.819V575H660.639C659.399 575 658.559 574.16 658.559 572.94V560.8ZM668.679 560.8H677.599V562.48H670.399V567.24H677.239V568.88H670.399V575H668.679V560.8ZM688.144 575H686.544V573.24C685.984 574.62 684.764 575.24 683.364 575.24C681.004 575.24 679.844 573.46 679.844 571.22V564.4H681.524V570.72C681.524 572.7 682.184 573.76 683.724 573.76C685.364 573.76 686.464 572.7 686.464 570.72V564.4H688.144V575ZM690.956 560.8H692.636V572.86C692.636 573.3 692.856 573.52 693.296 573.52H694.216V575H693.036C691.796 575 690.956 574.16 690.956 572.94V560.8ZM696.228 560.8H697.908V572.86C697.908 573.3 698.128 573.52 698.568 573.52H699.488V575H698.308C697.068 575 696.228 574.16 696.228 572.94V560.8ZM699.833 564.4H701.633L704.813 573.2L707.913 564.4H709.693L705.393 576.34C704.993 577.48 704.233 578 703.033 578H701.653V576.52H702.873C703.393 576.52 703.693 576.3 703.893 575.78L704.273 574.8H703.713L699.833 564.4ZM720.591 560.8C724.951 560.8 727.411 563.36 727.411 567.92C727.411 572.46 725.011 575 720.711 575H716.191V560.8H720.591ZM717.911 573.32H720.591C723.931 573.32 725.611 571.52 725.611 567.92C725.611 564.28 723.931 562.48 720.591 562.48H717.911V573.32ZM729.094 564.4H730.774V575H729.094V564.4ZM729.054 562.74V560.82H730.814V562.74H729.054ZM733.585 560.8H735.265V572.86C735.265 573.3 735.485 573.52 735.925 573.52H736.845V575H735.665C734.425 575 733.585 574.16 733.585 572.94V560.8ZM746.961 575H745.361V573.24C744.801 574.62 743.581 575.24 742.181 575.24C739.821 575.24 738.661 573.46 738.661 571.22V564.4H740.341V570.72C740.341 572.7 741.001 573.76 742.541 573.76C744.181 573.76 745.281 572.7 745.281 570.72V564.4H746.961V575ZM750.462 562H752.142V564.4H754.962V565.88H752.142V572.18C752.142 573.06 752.562 573.52 753.402 573.52H754.922V575H753.402C751.502 575 750.462 573.98 750.462 572.18V565.88H748.902V564.4H750.462V562ZM755.948 569.7C755.948 566.34 757.848 564.16 760.808 564.16C763.148 564.16 765.228 565.7 765.388 569.46L765.408 570.22H757.728C757.888 572.38 758.988 573.64 760.808 573.64C761.928 573.64 762.968 572.98 763.448 571.86L765.248 572C764.628 574 762.828 575.24 760.808 575.24C757.848 575.24 755.948 573.06 755.948 569.7ZM757.768 568.74H763.568C763.288 566.52 762.088 565.76 760.808 565.76C759.128 565.76 758.048 566.86 757.768 568.74ZM776.324 560.8V575H774.804L774.744 573.48C774.144 574.56 772.864 575.24 771.384 575.24C768.624 575.24 766.904 573.1 766.904 569.7C766.904 566.3 768.624 564.16 771.384 564.16C772.804 564.16 774.064 564.8 774.644 565.8V560.8H776.324ZM768.664 569.7C768.664 572.12 769.864 573.64 771.724 573.64C773.604 573.64 774.804 572.12 774.804 569.7C774.804 567.24 773.604 565.68 771.724 565.68C769.864 565.68 768.664 567.24 768.664 569.7ZM785.113 570.34C785.473 572.26 786.833 573.56 789.073 573.56C790.893 573.56 792.113 572.84 792.113 571.42C792.113 569.98 790.873 569.1 788.033 568.38C785.713 567.8 783.613 566.66 783.613 564.38C783.613 561.98 785.533 560.48 788.253 560.48C791.293 560.48 793.313 562.38 793.613 565L791.813 565.12C791.553 563.34 790.193 562.16 788.233 562.16C786.613 562.16 785.413 563.02 785.413 564.38C785.413 566.1 787.473 566.58 789.273 567.08C791.853 567.8 793.913 569.08 793.913 571.24C793.913 573.88 791.513 575.24 788.933 575.24C785.833 575.24 783.553 573.34 783.313 570.46L785.113 570.34ZM795.802 560.8H797.482V565.84C798.082 564.68 799.322 564.16 800.642 564.16C802.842 564.16 804.222 565.72 804.222 568.18V575H802.542V568.78C802.542 566.76 801.802 565.76 800.282 565.76C798.602 565.76 797.482 566.82 797.482 568.78V575H795.802V560.8ZM806.355 567.52C806.775 565.46 808.435 564.16 810.695 564.16C813.415 564.16 814.955 565.76 814.955 568.6V572.86C814.955 573.3 815.155 573.52 815.595 573.52H816.035V575H815.315C814.235 575 813.295 574.66 813.295 573.36C812.835 574.34 811.675 575.24 809.995 575.24C807.875 575.24 806.175 574.12 806.175 572.22C806.175 570.04 807.815 569.48 810.175 569.04L813.275 568.42C813.255 566.64 812.395 565.76 810.695 565.76C809.355 565.76 808.455 566.44 808.135 567.66L806.355 567.52ZM807.935 572.22C807.935 573.06 808.655 573.76 810.215 573.76C811.935 573.74 813.315 572.54 813.315 570.06V569.92L810.815 570.36C809.235 570.64 807.935 570.74 807.935 572.22ZM817.791 564.4H819.271L819.331 566.34C819.691 565.02 820.471 564.4 821.851 564.4H822.891V565.88H821.851C820.231 565.88 819.471 566.86 819.471 568.68V575H817.791V564.4ZM823.77 569.7C823.77 566.34 825.67 564.16 828.63 564.16C830.97 564.16 833.05 565.7 833.21 569.46L833.23 570.22H825.55C825.71 572.38 826.81 573.64 828.63 573.64C829.75 573.64 830.79 572.98 831.27 571.86L833.07 572C832.45 574 830.65 575.24 828.63 575.24C825.67 575.24 823.77 573.06 823.77 569.7ZM825.59 568.74H831.39C831.11 566.52 829.91 565.76 828.63 565.76C826.95 565.76 825.87 566.86 825.59 568.74ZM841.486 567.68C841.246 566.48 840.066 565.76 838.886 565.76C837.706 565.76 836.746 566.36 836.746 567.38C836.746 568.42 838.126 568.84 839.286 569.08C841.686 569.54 843.446 570.2 843.446 572.3C843.446 574.36 841.326 575.24 839.306 575.24C836.806 575.24 834.886 573.86 834.726 571.66L836.486 571.54C836.706 572.82 837.726 573.64 839.306 573.64C840.346 573.64 841.686 573.3 841.686 572.2C841.686 570.94 840.186 570.8 838.986 570.52C837.046 570.08 834.986 569.52 834.986 567.46C834.986 565.44 836.626 564.16 839.066 564.16C841.166 564.16 842.906 565.5 843.246 567.56L841.486 567.68Z" fill="black"/>
<g filter="url(#filter7_d_2425_161)">
<rect x="617" y="593" width="310" height="58" rx="15" stroke="#E4E4E4" stroke-width="2" shape-rendering="crispEdges"/>
<path d="M635.94 617C637.46 617 638.12 616.34 638.12 614.8H639.48V629H637.74V618.48H634.8V617H635.94ZM647.984 629.32C644.544 629.32 642.364 626.46 642.364 621.92C642.364 617.34 644.544 614.48 647.984 614.48C651.444 614.48 653.624 617.34 653.624 621.92C653.624 626.46 651.444 629.32 647.984 629.32ZM644.164 621.92C644.164 625.58 645.544 627.64 647.984 627.64C650.444 627.64 651.824 625.58 651.824 621.92C651.824 618.24 650.444 616.16 647.984 616.16C645.544 616.16 644.164 618.24 644.164 621.92ZM661.01 629.32C657.57 629.32 655.39 626.46 655.39 621.92C655.39 617.34 657.57 614.48 661.01 614.48C664.47 614.48 666.65 617.34 666.65 621.92C666.65 626.46 664.47 629.32 661.01 629.32ZM657.19 621.92C657.19 625.58 658.57 627.64 661.01 627.64C663.47 627.64 664.85 625.58 664.85 621.92C664.85 618.24 663.47 616.16 661.01 616.16C658.57 616.16 657.19 618.24 657.19 621.92ZM670.045 629L668.905 632.08H667.925L668.705 629H667.885V626.82H670.025V629H670.045ZM676.905 629.32C673.465 629.32 671.285 626.46 671.285 621.92C671.285 617.34 673.465 614.48 676.905 614.48C680.365 614.48 682.545 617.34 682.545 621.92C682.545 626.46 680.365 629.32 676.905 629.32ZM673.085 621.92C673.085 625.58 674.465 627.64 676.905 627.64C679.365 627.64 680.745 625.58 680.745 621.92C680.745 618.24 679.365 616.16 676.905 616.16C674.465 616.16 673.085 618.24 673.085 621.92ZM689.931 629.32C686.491 629.32 684.311 626.46 684.311 621.92C684.311 617.34 686.491 614.48 689.931 614.48C693.391 614.48 695.571 617.34 695.571 621.92C695.571 626.46 693.391 629.32 689.931 629.32ZM686.111 621.92C686.111 625.58 687.491 627.64 689.931 627.64C692.391 627.64 693.771 625.58 693.771 621.92C693.771 618.24 692.391 616.16 689.931 616.16C687.491 616.16 686.111 618.24 686.111 621.92ZM702.957 629.32C699.517 629.32 697.337 626.46 697.337 621.92C697.337 617.34 699.517 614.48 702.957 614.48C706.417 614.48 708.597 617.34 708.597 621.92C708.597 626.46 706.417 629.32 702.957 629.32ZM699.137 621.92C699.137 625.58 700.517 627.64 702.957 627.64C705.417 627.64 706.797 625.58 706.797 621.92C706.797 618.24 705.417 616.16 702.957 616.16C700.517 616.16 699.137 618.24 699.137 621.92Z" fill="black"/>
</g>
</g>
<rect x="247" y="177" width="706" height="608" rx="23" stroke="#E2E2E2" stroke-width="2"/>
<rect x="246" y="806" width="708" height="60" rx="30" fill="#1C1C1C"/>
<path d="M574.718 839.698C574.124 843.13 571.88 845.352 568.228 845.352C563.696 845.352 561.012 841.788 561.012 837.212C561.012 832.636 563.696 829.028 568.228 829.028C571.638 829.028 573.926 831.118 574.608 834.374L572.1 834.506C571.638 832.394 570.23 831.206 568.206 831.206C564.928 831.206 563.476 833.934 563.476 837.212C563.476 840.468 564.95 843.174 568.206 843.174C570.34 843.174 571.77 841.876 572.188 839.566L574.718 839.698ZM581.761 845.264C578.395 845.264 576.195 842.888 576.195 839.17C576.195 835.452 578.395 833.076 581.761 833.076C585.105 833.076 587.305 835.452 587.305 839.17C587.305 842.888 585.105 845.264 581.761 845.264ZM578.615 839.17C578.615 841.722 579.781 843.24 581.761 843.24C583.741 843.24 584.885 841.722 584.885 839.17C584.885 836.618 583.741 835.1 581.761 835.1C579.781 835.1 578.615 836.618 578.615 839.17ZM589.397 833.34H591.531L591.597 835.298C592.191 833.736 593.555 833.076 595.139 833.076C597.757 833.076 599.099 834.946 599.099 837.498V845H596.767V838.224C596.767 836.156 596.129 835.034 594.501 835.034C592.807 835.034 591.729 836.156 591.729 838.224V845H589.397V833.34ZM611.782 833.34L607.514 845H604.676L600.408 833.34H602.85L606.084 842.602L609.318 833.34H611.782ZM612.252 839.17C612.252 835.474 614.43 833.076 617.818 833.076C620.612 833.076 622.966 834.946 623.076 839.082L623.098 839.83H614.716C614.87 842.008 615.992 843.284 617.818 843.284C618.962 843.284 620.018 842.602 620.48 841.48L622.922 841.656C622.24 843.878 620.194 845.264 617.818 845.264C614.43 845.264 612.252 842.866 612.252 839.17ZM614.76 838.092H620.634C620.37 835.87 619.138 835.056 617.818 835.056C616.124 835.056 615.024 836.178 614.76 838.092ZM625.196 833.34H627.33L627.396 835.54C627.814 834.044 628.694 833.34 630.19 833.34H631.312V835.254H630.168C628.342 835.254 627.528 836.266 627.528 838.202V845H625.196V833.34ZM634.479 830.7H636.811V833.34H639.891V835.232H636.811V841.656C636.811 842.602 637.273 843.086 638.175 843.086H639.869V845H637.933C635.689 845 634.479 843.834 634.479 841.656V835.232H632.697V833.34H634.479V830.7Z" fill="white"/>
<g filter="url(#filter8_d_2425_161)">
<path d="M829.706 859.468C830.99 858.969 831.631 858.719 831.811 858.367C831.967 858.061 831.963 857.698 831.799 857.397C831.609 857.049 830.961 856.816 829.665 856.351L796.615 844.487C795.555 844.106 795.025 843.916 794.678 844.036C794.377 844.14 794.14 844.377 794.036 844.678C793.916 845.025 794.106 845.555 794.487 846.615L806.351 879.666C806.816 880.961 807.049 881.609 807.396 881.799C807.698 881.963 808.061 881.967 808.367 881.811C808.719 881.631 808.969 880.99 809.468 879.706L814.869 865.817C814.967 865.566 815.016 865.44 815.091 865.334C815.158 865.24 815.24 865.158 815.334 865.091C815.44 865.016 815.566 864.967 815.817 864.869L829.706 859.468Z" fill="black"/>
<path d="M829.706 859.468C830.99 858.969 831.631 858.719 831.811 858.367C831.967 858.061 831.963 857.698 831.799 857.397C831.609 857.049 830.961 856.816 829.665 856.351L796.615 844.487C795.555 844.106 795.025 843.916 794.678 844.036C794.377 844.14 794.14 844.377 794.036 844.678C793.916 845.025 794.106 845.555 794.487 846.615L806.351 879.666C806.816 880.961 807.049 881.609 807.396 881.799C807.698 881.963 808.061 881.967 808.367 881.811C808.719 881.631 808.969 880.99 809.468 879.706L814.869 865.817C814.967 865.566 815.016 865.44 815.091 865.334C815.158 865.24 815.24 865.158 815.334 865.091C815.44 865.016 815.566 864.967 815.817 864.869L829.706 859.468Z" stroke="white" stroke-width="2.88" stroke-linecap="round" stroke-linejoin="round"/>
</g>
</g>
</g>
</g>
<defs>
<filter id="filter0_d_2425_161" x="65.6" y="-98.4" width="1068.8" height="1148.8" filterUnits="userSpaceOnUse" color-interpolation-filters="sRGB">
<feFlood flood-opacity="0" result="BackgroundImageFix"/>
<feColorMatrix in="SourceAlpha" type="matrix" values="0 0 0 0 0 0 0 0 0 0 0 0 0 0 0 0 0 0 127 0" result="hardAlpha"/>
<feOffset dy="8"/>
<feGaussianBlur stdDeviation="77.2"/>
<feComposite in2="hardAlpha" operator="out"/>
<feColorMatrix type="matrix" values="0 0 0 0 0 0 0 0 0 0 0 0 0 0 0 0 0 0 0.25 0"/>
<feBlend mode="normal" in2="BackgroundImageFix" result="effect1_dropShadow_2425_161"/>
<feBlend mode="normal" in="SourceGraphic" in2="effect1_dropShadow_2425_161" result="shape"/>
</filter>
<filter id="filter1_d_2425_161" x="236" y="196" width="728" height="132" filterUnits="userSpaceOnUse" color-interpolation-filters="sRGB">
<feFlood flood-opacity="0" result="BackgroundImageFix"/>
<feColorMatrix in="SourceAlpha" type="matrix" values="0 0 0 0 0 0 0 0 0 0 0 0 0 0 0 0 0 0 127 0" result="hardAlpha"/>
<feOffset/>
<feGaussianBlur stdDeviation="18"/>
<feComposite in2="hardAlpha" operator="out"/>
<feColorMatrix type="matrix" values="0 0 0 0 0 0 0 0 0 0 0 0 0 0 0 0 0 0 0.14 0"/>
<feBlend mode="normal" in2="BackgroundImageFix" result="effect1_dropShadow_2425_161"/>
<feBlend mode="normal" in="SourceGraphic" in2="effect1_dropShadow_2425_161" result="shape"/>
</filter>
<filter id="filter2_d_2425_161" x="236" y="316" width="728" height="132" filterUnits="userSpaceOnUse" color-interpolation-filters="sRGB">
<feFlood flood-opacity="0" result="BackgroundImageFix"/>
<feColorMatrix in="SourceAlpha" type="matrix" values="0 0 0 0 0 0 0 0 0 0 0 0 0 0 0 0 0 0 127 0" result="hardAlpha"/>
<feOffset/>
<feGaussianBlur stdDeviation="18"/>
<feComposite in2="hardAlpha" operator="out"/>
<feColorMatrix type="matrix" values="0 0 0 0 0 0 0 0 0 0 0 0 0 0 0 0 0 0 0.14 0"/>
<feBlend mode="normal" in2="BackgroundImageFix" result="effect1_dropShadow_2425_161"/>
<feBlend mode="normal" in="SourceGraphic" in2="effect1_dropShadow_2425_161" result="shape"/>
</filter>
<filter id="filter3_d_2425_161" x="236" y="668" width="728" height="132" filterUnits="userSpaceOnUse" color-interpolation-filters="sRGB">
<feFlood flood-opacity="0" result="BackgroundImageFix"/>
<feColorMatrix in="SourceAlpha" type="matrix" values="0 0 0 0 0 0 0 0 0 0 0 0 0 0 0 0 0 0 127 0" result="hardAlpha"/>
<feOffset/>
<feGaussianBlur stdDeviation="18"/>
<feComposite in2="hardAlpha" operator="out"/>
<feColorMatrix type="matrix" values="0 0 0 0 0 0 0 0 0 0 0 0 0 0 0 0 0 0 0.14 0"/>
<feBlend mode="normal" in2="BackgroundImageFix" result="effect1_dropShadow_2425_161"/>
<feBlend mode="normal" in="SourceGraphic" in2="effect1_dropShadow_2425_161" result="shape"/>
</filter>
<filter id="filter4_d_2425_161" x="236" y="436" width="384" height="132" filterUnits="userSpaceOnUse" color-interpolation-filters="sRGB">
<feFlood flood-opacity="0" result="BackgroundImageFix"/>
<feColorMatrix in="SourceAlpha" type="matrix" values="0 0 0 0 0 0 0 0 0 0 0 0 0 0 0 0 0 0 127 0" result="hardAlpha"/>
<feOffset/>
<feGaussianBlur stdDeviation="18"/>
<feComposite in2="hardAlpha" operator="out"/>
<feColorMatrix type="matrix" values="0 0 0 0 0 0 0 0 0 0 0 0 0 0 0 0 0 0 0.14 0"/>
<feBlend mode="normal" in2="BackgroundImageFix" result="effect1_dropShadow_2425_161"/>
<feBlend mode="normal" in="SourceGraphic" in2="effect1_dropShadow_2425_161" result="shape"/>
</filter>
<filter id="filter5_d_2425_161" x="236" y="556" width="384" height="132" filterUnits="userSpaceOnUse" color-interpolation-filters="sRGB">
<feFlood flood-opacity="0" result="BackgroundImageFix"/>
<feColorMatrix in="SourceAlpha" type="matrix" values="0 0 0 0 0 0 0 0 0 0 0 0 0 0 0 0 0 0 127 0" result="hardAlpha"/>
<feOffset/>
<feGaussianBlur stdDeviation="18"/>
<feComposite in2="hardAlpha" operator="out"/>
<feColorMatrix type="matrix" values="0 0 0 0 0 0 0 0 0 0 0 0 0 0 0 0 0 0 0.14 0"/>
<feBlend mode="normal" in2="BackgroundImageFix" result="effect1_dropShadow_2425_161"/>
<feBlend mode="normal" in="SourceGraphic" in2="effect1_dropShadow_2425_161" result="shape"/>
</filter>
<filter id="filter6_d_2425_161" x="580" y="436" width="384" height="132" filterUnits="userSpaceOnUse" color-interpolation-filters="sRGB">
<feFlood flood-opacity="0" result="BackgroundImageFix"/>
<feColorMatrix in="SourceAlpha" type="matrix" values="0 0 0 0 0 0 0 0 0 0 0 0 0 0 0 0 0 0 127 0" result="hardAlpha"/>
<feOffset/>
<feGaussianBlur stdDeviation="18"/>
<feComposite in2="hardAlpha" operator="out"/>
<feColorMatrix type="matrix" values="0 0 0 0 0 0 0 0 0 0 0 0 0 0 0 0 0 0 0.14 0"/>
<feBlend mode="normal" in2="BackgroundImageFix" result="effect1_dropShadow_2425_161"/>
<feBlend mode="normal" in="SourceGraphic" in2="effect1_dropShadow_2425_161" result="shape"/>
</filter>
<filter id="filter7_d_2425_161" x="580" y="556" width="384" height="132" filterUnits="userSpaceOnUse" color-interpolation-filters="sRGB">
<feFlood flood-opacity="0" result="BackgroundImageFix"/>
<feColorMatrix in="SourceAlpha" type="matrix" values="0 0 0 0 0 0 0 0 0 0 0 0 0 0 0 0 0 0 127 0" result="hardAlpha"/>
<feOffset/>
<feGaussianBlur stdDeviation="18"/>
<feComposite in2="hardAlpha" operator="out"/>
<feColorMatrix type="matrix" values="0 0 0 0 0 0 0 0 0 0 0 0 0 0 0 0 0 0 0.14 0"/>
<feBlend mode="normal" in2="BackgroundImageFix" result="effect1_dropShadow_2425_161"/>
<feBlend mode="normal" in="SourceGraphic" in2="effect1_dropShadow_2425_161" result="shape"/>
</filter>
<filter id="filter8_d_2425_161" x="786.161" y="842.56" width="53.6047" height="53.6049" filterUnits="userSpaceOnUse" color-interpolation-filters="sRGB">
<feFlood flood-opacity="0" result="BackgroundImageFix"/>
<feColorMatrix in="SourceAlpha" type="matrix" values="0 0 0 0 0 0 0 0 0 0 0 0 0 0 0 0 0 0 127 0" result="hardAlpha"/>
<feOffset dy="6.4"/>
<feGaussianBlur stdDeviation="3.2"/>
<feComposite in2="hardAlpha" operator="out"/>
<feColorMatrix type="matrix" values="0 0 0 0 0 0 0 0 0 0 0 0 0 0 0 0 0 0 0.25 0"/>
<feBlend mode="normal" in2="BackgroundImageFix" result="effect1_dropShadow_2425_161"/>
<feBlend mode="normal" in="SourceGraphic" in2="effect1_dropShadow_2425_161" result="shape"/>
</filter>
<clipPath id="clip0_2425_161">
<rect width="1200" height="936" rx="8" fill="white"/>
</clipPath>
<clipPath id="clip1_2425_161">
<rect x="220" y="48" width="760" height="840" rx="24" fill="white"/>
</clipPath>
<clipPath id="clip2_2425_161">
<rect x="246" y="176" width="708" height="610" rx="24" fill="white"/>
</clipPath>
</defs>
</svg>
