<svg width="361" height="322" viewBox="0 0 361 322" fill="none" xmlns="http://www.w3.org/2000/svg">
<g clip-path="url(#clip0_2510_738)">
<rect width="361" height="322" rx="2.7572" fill="#E6E9E7"/>
<rect x="8.05737" y="97.4224" width="343.67" height="6.3525" rx="3.17625" fill="white"/>
<rect x="8.05737" y="97.4224" width="343.67" height="6.3525" rx="3.17625" fill="white"/>
<rect x="8.05737" y="97.4224" width="247.777" height="6.3525" rx="3.17625" fill="white"/>
<rect x="8.05737" y="97.4224" width="247.777" height="6.3525" rx="3.17625" fill="black"/>
<path d="M127.036 81.2346V82.035H124.931V88H124.111V82.035H122.005V81.2346H127.036ZM128.165 81.2346H128.966V83.6358C129.251 83.0832 129.842 82.8354 130.471 82.8354C131.519 82.8354 132.177 83.5787 132.177 84.7507V88H131.376V85.0366C131.376 84.0742 131.024 83.5977 130.3 83.5977C129.499 83.5977 128.966 84.1027 128.966 85.0366V88H128.165V81.2346ZM133.375 85.4749C133.375 83.8741 134.28 82.8354 135.69 82.8354C136.805 82.8354 137.796 83.5691 137.872 85.3605L137.882 85.7226H134.223C134.299 86.7517 134.823 87.352 135.69 87.352C136.224 87.352 136.719 87.0376 136.948 86.504L137.806 86.5707C137.51 87.5236 136.653 88.1143 135.69 88.1143C134.28 88.1143 133.375 87.0757 133.375 85.4749ZM134.242 85.0175H137.005C136.872 83.9598 136.3 83.5977 135.69 83.5977C134.89 83.5977 134.375 84.1218 134.242 85.0175ZM144.991 84.6459C144.886 83.9884 144.333 83.5977 143.733 83.5977C142.799 83.5977 142.256 84.3028 142.256 85.4749C142.256 86.6469 142.799 87.352 143.733 87.352C144.362 87.352 144.915 86.9328 145.029 86.2086L145.877 86.2658C145.715 87.4092 144.8 88.1143 143.733 88.1143C142.323 88.1143 141.418 87.0757 141.418 85.4749C141.418 83.8741 142.323 82.8354 143.733 82.8354C144.762 82.8354 145.696 83.5024 145.829 84.5887L144.991 84.6459ZM146.935 84.4362C147.135 83.4548 147.925 82.8354 149.002 82.8354C150.298 82.8354 151.032 83.5977 151.032 84.9508V86.9804C151.032 87.1901 151.127 87.2949 151.337 87.2949H151.546V88H151.203C150.689 88 150.241 87.838 150.241 87.2186C150.022 87.6856 149.469 88.1143 148.669 88.1143C147.659 88.1143 146.849 87.5807 146.849 86.6755C146.849 85.6369 147.63 85.3701 148.754 85.1604L150.231 84.865C150.222 84.017 149.812 83.5977 149.002 83.5977C148.364 83.5977 147.935 83.9217 147.783 84.5029L146.935 84.4362ZM147.687 86.6755C147.687 87.0757 148.03 87.4092 148.774 87.4092C149.593 87.3997 150.251 86.828 150.251 85.6464V85.5797L149.059 85.7893C148.307 85.9227 147.687 85.9704 147.687 86.6755ZM152.697 89.4293V82.9498H153.421L153.449 83.7025C153.726 83.1403 154.269 82.8354 155.003 82.8354C156.508 82.8354 157.185 84.0837 157.185 85.4749C157.185 86.8661 156.508 88.1143 155.003 88.1143C154.298 88.1143 153.783 87.838 153.497 87.3139V89.4293H152.697ZM153.411 85.4749C153.411 86.4182 153.84 87.352 154.869 87.352C155.908 87.352 156.327 86.4373 156.327 85.4749C156.327 84.5125 155.908 83.5977 154.869 83.5977C153.84 83.5977 153.411 84.5315 153.411 85.4749ZM161.533 81.8063H162.333V82.9498H163.677V83.6549H162.333V86.6564C162.333 87.0757 162.533 87.2949 162.934 87.2949H163.658V88H162.934C162.028 88 161.533 87.514 161.533 86.6564V83.6549H160.79V82.9498H161.533V81.8063ZM164.686 84.4362C164.886 83.4548 165.677 82.8354 166.753 82.8354C168.049 82.8354 168.783 83.5977 168.783 84.9508V86.9804C168.783 87.1901 168.878 87.2949 169.088 87.2949H169.298V88H168.955C168.44 88 167.992 87.838 167.992 87.2186C167.773 87.6856 167.22 88.1143 166.42 88.1143C165.41 88.1143 164.6 87.5807 164.6 86.6755C164.6 85.6369 165.381 85.3701 166.506 85.1604L167.983 84.865C167.973 84.017 167.563 83.5977 166.753 83.5977C166.115 83.5977 165.686 83.9217 165.534 84.5029L164.686 84.4362ZM165.438 86.6755C165.438 87.0757 165.781 87.4092 166.525 87.4092C167.344 87.3997 168.002 86.828 168.002 85.6464V85.5797L166.811 85.7893C166.058 85.9227 165.438 85.9704 165.438 86.6755ZM170.522 81.2346H171.323V83.6168C171.599 83.1403 172.199 82.8354 172.876 82.8354C174.191 82.8354 175.01 83.855 175.01 85.4749C175.01 87.0948 174.191 88.1143 172.876 88.1143C172.171 88.1143 171.561 87.7904 171.275 87.2758L171.246 88H170.522V81.2346ZM171.246 85.4749C171.246 86.6279 171.818 87.352 172.714 87.352C173.6 87.352 174.172 86.6279 174.172 85.4749C174.172 84.3028 173.6 83.5596 172.714 83.5596C171.818 83.5596 171.246 84.3028 171.246 85.4749ZM176.344 81.2346H177.145V86.9804C177.145 87.1901 177.249 87.2949 177.459 87.2949H177.897V88H177.335C176.744 88 176.344 87.5998 176.344 87.0185V81.2346ZM178.762 85.4749C178.762 83.8741 179.668 82.8354 181.078 82.8354C182.193 82.8354 183.184 83.5691 183.26 85.3605L183.269 85.7226H179.61C179.687 86.7517 180.211 87.352 181.078 87.352C181.611 87.352 182.107 87.0376 182.336 86.504L183.193 86.5707C182.898 87.5236 182.04 88.1143 181.078 88.1143C179.668 88.1143 178.762 87.0757 178.762 85.4749ZM179.629 85.0175H182.393C182.259 83.9598 181.688 83.5977 181.078 83.5977C180.277 83.5977 179.763 84.1218 179.629 85.0175ZM187.12 82.9498H187.92V88H187.12V82.9498ZM187.1 82.1589V81.2441H187.939V82.1589H187.1ZM192.479 84.5125C192.365 83.9408 191.803 83.5977 191.24 83.5977C190.678 83.5977 190.221 83.8836 190.221 84.3695C190.221 84.865 190.878 85.0651 191.431 85.1795C192.575 85.3987 193.413 85.7131 193.413 86.7136C193.413 87.6951 192.403 88.1143 191.441 88.1143C190.249 88.1143 189.335 87.4569 189.259 86.4087L190.097 86.3515C190.202 86.9614 190.688 87.352 191.441 87.352C191.936 87.352 192.575 87.1901 192.575 86.666C192.575 86.0657 191.86 85.999 191.288 85.8656C190.364 85.6559 189.382 85.3891 189.382 84.4077C189.382 83.4453 190.164 82.8354 191.326 82.8354C192.327 82.8354 193.156 83.4738 193.318 84.4553L192.479 84.5125ZM197.262 81.2346H198.063V86.9804C198.063 87.1901 198.167 87.2949 198.377 87.2949H198.815V88H198.253C197.662 88 197.262 87.5998 197.262 87.0185V81.2346ZM201.996 88.1143C200.595 88.1143 199.68 87.0852 199.68 85.4749C199.68 83.8645 200.595 82.8354 201.996 82.8354C203.387 82.8354 204.302 83.8645 204.302 85.4749C204.302 87.0852 203.387 88.1143 201.996 88.1143ZM200.519 85.4749C200.519 86.6469 201.062 87.352 201.996 87.352C202.92 87.352 203.463 86.6469 203.463 85.4749C203.463 84.3028 202.92 83.5977 201.996 83.5977C201.062 83.5977 200.519 84.3028 200.519 85.4749ZM205.458 84.4362C205.658 83.4548 206.449 82.8354 207.525 82.8354C208.821 82.8354 209.555 83.5977 209.555 84.9508V86.9804C209.555 87.1901 209.65 87.2949 209.86 87.2949H210.07V88H209.727C209.212 88 208.764 87.838 208.764 87.2186C208.545 87.6856 207.992 88.1143 207.192 88.1143C206.182 88.1143 205.372 87.5807 205.372 86.6755C205.372 85.6369 206.153 85.3701 207.278 85.1604L208.755 84.865C208.745 84.017 208.335 83.5977 207.525 83.5977C206.887 83.5977 206.458 83.9217 206.306 84.5029L205.458 84.4362ZM206.21 86.6755C206.21 87.0757 206.553 87.4092 207.297 87.4092C208.116 87.3997 208.774 86.828 208.774 85.6464V85.5797L207.583 85.7893C206.83 85.9227 206.21 85.9704 206.21 86.6755ZM215.375 81.2346V88H214.651L214.622 87.2758C214.336 87.7904 213.726 88.1143 213.021 88.1143C211.706 88.1143 210.887 87.0948 210.887 85.4749C210.887 83.855 211.706 82.8354 213.021 82.8354C213.698 82.8354 214.298 83.1403 214.574 83.6168V81.2346H215.375ZM211.725 85.4749C211.725 86.6279 212.297 87.352 213.183 87.352C214.079 87.352 214.651 86.6279 214.651 85.4749C214.651 84.3028 214.079 83.5596 213.183 83.5596C212.297 83.5596 211.725 84.3028 211.725 85.4749ZM216.735 82.9498H217.535V88H216.735V82.9498ZM216.716 82.1589V81.2441H217.554V82.1589H216.716ZM219.049 82.9498H219.782L219.801 83.8264C220.059 83.1403 220.659 82.8354 221.355 82.8354C222.507 82.8354 223.06 83.6835 223.06 84.7507V88H222.26V84.9794C222.26 84.0456 221.945 83.5405 221.183 83.5405C220.383 83.5405 219.849 84.0456 219.849 84.9794V88H219.049V82.9498ZM226.488 87.7332C225.183 87.7332 224.258 86.7231 224.258 85.2843C224.258 83.8455 225.173 82.8354 226.478 82.8354C227.165 82.8354 227.746 83.188 227.975 83.7502V82.9498H228.737V87.5045C228.737 88.8385 227.822 89.5437 226.507 89.5437C225.43 89.5437 224.63 88.9624 224.401 88.0762L225.24 88.0191C225.44 88.4955 225.878 88.7814 226.507 88.7814C227.393 88.7814 227.936 88.4002 227.936 87.6856V86.8566C227.689 87.3902 227.126 87.7332 226.488 87.7332ZM225.097 85.2843C225.097 86.3229 225.649 86.9709 226.536 86.9709C227.384 86.9709 227.936 86.3229 227.946 85.2843C227.965 84.2457 227.412 83.5977 226.536 83.5977C225.649 83.5977 225.097 84.2457 225.097 85.2843ZM230.071 86.9614H231.091V88H230.071V86.9614ZM232.115 86.9614H233.135V88H232.115V86.9614ZM234.159 86.9614H235.178V88H234.159V86.9614Z" fill="black"/>
<g filter="url(#filter0_d_2510_738)">
<rect x="8.05737" y="115.209" width="343.645" height="156.259" rx="7.17172" fill="white"/>
<path d="M18.7937 133.771C18.9842 134.779 19.6902 135.452 20.8556 135.452C21.7969 135.452 22.4244 135.082 22.4132 134.353C22.4132 133.625 21.7857 133.177 20.3065 132.807C18.8722 132.46 17.718 131.798 17.718 130.521C17.718 129.143 18.8386 128.28 20.4522 128.28C22.1779 128.28 23.3433 129.356 23.5114 130.868L22.2787 130.936C22.1443 129.994 21.4495 129.378 20.4298 129.378C19.5781 129.378 18.9618 129.826 18.973 130.532C18.973 131.395 20.004 131.653 20.9677 131.911C22.5253 132.303 23.6683 133.042 23.6683 134.264C23.6683 135.754 22.3236 136.55 20.7884 136.55C18.9842 136.55 17.6844 135.485 17.5499 133.849L18.7937 133.771ZM24.7404 128.459H25.9282V131.283C26.2756 130.622 26.948 130.342 27.6763 130.342C28.909 130.342 29.6822 131.227 29.6822 132.594V136.415H28.4944V133.02C28.4944 131.944 28.1358 131.395 27.3402 131.395C26.4773 131.395 25.9282 131.967 25.9282 133.02V136.415H24.7404V128.459ZM30.8696 132.258C31.1049 131.059 32.0462 130.342 33.4133 130.342C35.027 130.342 35.9122 131.238 35.9122 132.863V135.071C35.9122 135.373 36.0467 135.485 36.282 135.485H36.5173V136.415H36.1476C35.6097 136.426 34.8813 136.337 34.8253 135.496C34.5563 136.068 33.8952 136.55 32.9091 136.55C31.7101 136.55 30.7688 135.911 30.7688 134.858C30.7688 133.67 31.654 133.322 33.0211 133.065L34.7244 132.729C34.7132 131.776 34.2762 131.305 33.4133 131.305C32.7186 131.305 32.2591 131.664 32.1023 132.336L30.8696 132.258ZM32.0014 134.835C32.0014 135.272 32.3824 135.631 33.1668 135.631C34.0521 135.62 34.7468 134.992 34.7468 133.715V133.636L33.4806 133.86C32.6625 134.006 32.0014 134.084 32.0014 134.835ZM37.5247 130.476H38.6117L38.6453 131.597C38.8582 130.835 39.3064 130.476 40.0684 130.476H40.6399V131.451H40.0572C39.1271 131.451 38.7125 131.967 38.7125 132.953V136.415H37.5247V130.476ZM41.1456 133.446C41.1456 131.563 42.2549 130.342 43.9806 130.342C45.4038 130.342 46.6028 131.294 46.6588 133.401L46.67 133.782H42.4006C42.4791 134.891 43.0506 135.541 43.9806 135.541C44.5633 135.541 45.1012 135.194 45.3365 134.622L46.5804 134.712C46.233 135.844 45.1909 136.55 43.9806 136.55C42.2549 136.55 41.1456 135.328 41.1456 133.446ZM42.423 132.897H45.415C45.2805 131.765 44.653 131.35 43.9806 131.35C43.1178 131.35 42.5575 131.922 42.423 132.897ZM53.1582 128.459C55.6458 128.459 57.0466 129.894 57.0466 132.448C57.0466 134.992 55.6795 136.415 53.2254 136.415H50.6032V128.459H53.1582ZM51.8135 135.306H53.1582C54.9287 135.306 55.8027 134.365 55.8027 132.448C55.8027 130.51 54.9287 129.569 53.1582 129.569H51.8135V135.306ZM58.0157 130.476H59.2035V136.415H58.0157V130.476ZM57.9933 129.602V128.47H59.2371V129.602H57.9933ZM64.2209 132.348C64.0976 131.709 63.5037 131.328 62.8874 131.328C62.2823 131.328 61.7892 131.642 61.7892 132.168C61.8004 132.706 62.484 132.919 63.1115 133.042C64.5907 133.311 65.532 133.703 65.532 134.869C65.532 136.034 64.3666 136.55 63.1003 136.55C61.5875 136.55 60.5005 135.788 60.4109 134.544L61.6323 134.465C61.7556 135.138 62.2711 135.564 63.0891 135.564C63.627 135.564 64.2993 135.373 64.2993 134.813C64.2881 134.174 63.5373 134.096 62.8986 133.95C61.6323 133.681 60.5566 133.334 60.5566 132.202C60.5566 131.048 61.4979 130.342 62.977 130.342C64.2657 130.342 65.2518 131.093 65.4423 132.28L64.2209 132.348ZM67.0393 129.132H68.2271V130.476H69.7959V131.44H68.2271V134.712C68.2271 135.194 68.4624 135.44 68.9219 135.44H69.7847V136.415H68.7986C67.6556 136.415 67.0393 135.821 67.0393 134.712V131.44H66.1316V130.476H67.0393V129.132ZM70.9053 130.476H71.9922L72.0259 131.597C72.2388 130.835 72.687 130.476 73.449 130.476H74.0205V131.451H73.4378C72.5077 131.451 72.0931 131.967 72.0931 132.953V136.415H70.9053V130.476ZM75.2346 130.476H76.4225V136.415H75.2346V130.476ZM75.2122 129.602V128.47H76.4561V129.602H75.2122ZM77.6599 128.459H78.8477V131.272C79.1839 130.7 79.8786 130.342 80.6518 130.342C82.1982 130.342 83.1619 131.541 83.1619 133.446C83.1619 135.351 82.1982 136.55 80.6518 136.55C79.8338 136.55 79.1391 136.169 78.8029 135.564L78.7693 136.415H77.6599V128.459ZM78.7581 133.446C78.7581 134.723 79.3744 135.53 80.3493 135.53C81.3018 135.53 81.9293 134.723 81.9293 133.446C81.9293 132.146 81.313 131.328 80.3493 131.328C79.3744 131.328 78.7581 132.146 78.7581 133.446ZM89.1512 136.415H88.0418L88.0306 135.44C87.7056 136.225 87.0333 136.55 86.2601 136.55C84.949 136.55 84.2654 135.597 84.2654 134.297V130.476H85.4533V133.928C85.4533 134.981 85.767 135.552 86.5738 135.552C87.4255 135.552 87.9634 134.981 87.9634 133.928V130.476H89.1512V136.415ZM91.1593 129.132H92.3471V130.476H93.9159V131.44H92.3471V134.712C92.3471 135.194 92.5824 135.44 93.0418 135.44H93.9047V136.415H92.9186C91.7756 136.415 91.1593 135.821 91.1593 134.712V131.44H90.2516V130.476H91.1593V129.132ZM95.0253 130.476H96.2131V136.415H95.0253V130.476ZM95.0028 129.602V128.47H96.2467V129.602H95.0028ZM100.256 136.55C98.5411 136.55 97.4205 135.34 97.4205 133.446C97.4205 131.552 98.5411 130.342 100.256 130.342C101.959 130.342 103.079 131.552 103.079 133.446C103.079 135.34 101.959 136.55 100.256 136.55ZM98.6531 133.446C98.6531 134.746 99.247 135.519 100.256 135.519C101.264 135.519 101.847 134.746 101.847 133.446C101.847 132.146 101.264 131.373 100.256 131.373C99.247 131.373 98.6531 132.146 98.6531 133.446ZM104.22 130.476H105.307L105.341 131.474C105.643 130.678 106.338 130.342 107.145 130.342C108.478 130.342 109.162 131.294 109.162 132.594V136.415H107.974V132.964C107.974 131.911 107.649 131.339 106.82 131.339C105.957 131.339 105.408 131.911 105.408 132.964V136.415H104.22V130.476Z" fill="black"/>
<path d="M90.413 251.921C88.1892 253.018 85.8826 253.939 83.5146 254.674L80.7064 245.634C82.6008 245.045 84.4461 244.309 86.2251 243.431L90.413 251.921Z" fill="#FF6163"/>
<path d="M98.1281 247.146C96.1545 248.647 94.0659 249.991 91.8817 251.165L87.4001 242.826C89.1475 241.887 90.8183 240.812 92.3972 239.611L98.1281 247.146Z" fill="#00BF6D"/>
<path d="M109.726 234.375C107.113 238.599 103.851 242.385 100.061 245.595L93.9432 238.37C96.9757 235.802 99.5851 232.773 101.676 229.394L109.726 234.375Z" fill="#E3A4EE"/>
<path d="M88.5325 166.145C94.5788 168.804 100.002 172.7 104.452 177.582C108.902 182.463 112.282 188.222 114.373 194.487C116.464 200.753 117.22 207.387 116.593 213.963C115.967 220.539 113.97 226.91 110.733 232.668L102.481 228.029C105.071 223.422 106.668 218.325 107.169 213.065C107.671 207.804 107.066 202.497 105.393 197.484C103.72 192.472 101.016 187.865 97.4562 183.96C93.896 180.054 89.5578 176.938 84.7207 174.81L88.5325 166.145Z" fill="#FDDF8D"/>
<path d="M81.1296 255.347C73.89 257.187 66.3177 257.287 59.0321 255.639C51.7464 253.991 44.9541 250.642 39.2106 245.866C33.4671 241.091 28.9354 235.023 25.9861 228.16C23.0368 221.298 21.7535 213.834 22.2413 206.381C22.7291 198.927 24.974 191.694 28.7926 185.274C32.6111 178.855 37.8948 173.43 44.2117 169.443C50.5287 165.456 57.6994 163.021 65.1377 162.337C72.576 161.653 80.0706 162.739 87.0088 165.506L83.5018 174.299C77.9512 172.085 71.9555 171.217 66.0049 171.764C60.0542 172.311 54.3176 174.259 49.2641 177.449C44.2106 180.638 39.9836 184.978 36.9288 190.114C33.8739 195.25 32.078 201.036 31.6878 206.999C31.2976 212.962 32.3241 218.932 34.6836 224.423C37.0431 229.913 40.6684 234.767 45.2632 238.587C49.858 242.408 55.2918 245.087 61.1204 246.405C66.9489 247.724 73.0067 247.644 78.7984 246.172L81.1296 255.347Z" fill="#1A6FE0"/>
<g clip-path="url(#clip1_2510_738)">
<rect x="130.325" y="159.136" width="210.246" height="20.3697" stroke="#E6E6E6" stroke-width="0.448232"/>
<path d="M149.627 171.341L151.54 166.036H152.406L154.319 171.341H153.617L153.086 169.832H150.86L150.33 171.341H149.627ZM151.077 169.204H152.87L151.973 166.597L151.077 169.204ZM155.073 166.036H155.7V170.541C155.7 170.706 155.782 170.788 155.947 170.788H156.29V171.341H155.85C155.387 171.341 155.073 171.027 155.073 170.571V166.036ZM156.869 169.361C156.869 168.106 157.579 167.292 158.684 167.292C159.558 167.292 160.335 167.867 160.395 169.271L160.403 169.555H157.534C157.594 170.362 158.004 170.833 158.684 170.833C159.103 170.833 159.491 170.586 159.67 170.168L160.343 170.22C160.111 170.967 159.439 171.43 158.684 171.43C157.579 171.43 156.869 170.616 156.869 169.361ZM157.549 169.002H159.715C159.611 168.173 159.162 167.889 158.684 167.889C158.057 167.889 157.653 168.3 157.549 169.002ZM163.567 167.381H164.336L162.969 169.316L164.404 171.341H163.642L162.573 169.802L161.505 171.341H160.736L162.185 169.309L160.81 167.381H161.58L162.573 168.83L163.567 167.381ZM167.309 166.036H168.206L169.902 170.638L171.59 166.036H172.486V171.341H171.844V167.321L170.327 171.341H169.468L167.952 167.321V171.341H167.309V166.036ZM175.194 171.43C174.096 171.43 173.379 170.623 173.379 169.361C173.379 168.098 174.096 167.292 175.194 167.292C176.285 167.292 177.002 168.098 177.002 169.361C177.002 170.623 176.285 171.43 175.194 171.43ZM174.036 169.361C174.036 170.28 174.462 170.833 175.194 170.833C175.919 170.833 176.344 170.28 176.344 169.361C176.344 168.442 175.919 167.889 175.194 167.889C174.462 167.889 174.036 168.442 174.036 169.361ZM177.915 167.381H178.468L178.49 168.106C178.625 167.613 178.916 167.381 179.431 167.381H179.82V167.934H179.431C178.826 167.934 178.542 168.3 178.542 168.98V171.341H177.915V167.381ZM182.043 171.131C181.019 171.131 180.295 170.34 180.295 169.211C180.295 168.083 181.012 167.292 182.035 167.292C182.573 167.292 183.029 167.568 183.208 168.009V167.381H183.806V170.952C183.806 171.998 183.089 172.551 182.058 172.551C181.214 172.551 180.586 172.095 180.407 171.4L181.064 171.356C181.221 171.729 181.565 171.953 182.058 171.953C182.752 171.953 183.178 171.654 183.178 171.094V170.444C182.984 170.862 182.543 171.131 182.043 171.131ZM180.952 169.211C180.952 170.026 181.385 170.534 182.08 170.534C182.745 170.534 183.178 170.026 183.186 169.211C183.201 168.397 182.767 167.889 182.08 167.889C181.385 167.889 180.952 168.397 180.952 169.211ZM184.819 168.547C184.976 167.777 185.596 167.292 186.441 167.292C187.456 167.292 188.032 167.889 188.032 168.95V170.541C188.032 170.706 188.106 170.788 188.271 170.788H188.435V171.341H188.166C187.763 171.341 187.412 171.214 187.412 170.728C187.24 171.094 186.807 171.43 186.179 171.43C185.387 171.43 184.752 171.012 184.752 170.302C184.752 169.488 185.365 169.279 186.246 169.114L187.404 168.883C187.397 168.218 187.076 167.889 186.441 167.889C185.94 167.889 185.604 168.143 185.484 168.599L184.819 168.547ZM185.41 170.302C185.41 170.616 185.679 170.877 186.261 170.877C186.904 170.87 187.419 170.422 187.419 169.495V169.443L186.485 169.607C185.895 169.712 185.41 169.749 185.41 170.302ZM189.237 167.381H189.813L189.828 168.068C190.029 167.531 190.5 167.292 191.045 167.292C191.949 167.292 192.382 167.956 192.382 168.793V171.341H191.755V168.972C191.755 168.24 191.508 167.844 190.911 167.844C190.283 167.844 189.865 168.24 189.865 168.972V171.341H189.237V167.381Z" fill="#212023"/>
<path d="M326.001 167.583C325.871 167.222 325.559 167.016 325.148 167.016C324.488 167.016 324.078 167.589 323.997 168.635C324.233 168.23 324.632 168 325.117 168C325.989 168 326.58 168.635 326.58 169.544C326.58 170.509 325.939 171.113 325.024 171.113C324.638 171.113 324.246 170.976 323.922 170.64C323.604 170.316 323.449 169.756 323.449 169.065C323.449 167.739 323.872 166.494 325.148 166.494C325.821 166.494 326.362 166.861 326.562 167.539L326.001 167.583ZM324.034 169.544C324.022 170.154 324.439 170.59 325.036 170.59C325.615 170.59 326.02 170.154 326.02 169.544C326.02 168.946 325.634 168.529 325.08 168.529C324.476 168.529 324.04 168.946 324.034 169.544ZM329.046 171.113C327.975 171.113 327.296 170.223 327.296 168.809C327.296 167.384 327.975 166.494 329.046 166.494C330.123 166.494 330.801 167.384 330.801 168.809C330.801 170.223 330.123 171.113 329.046 171.113ZM327.857 168.809C327.857 169.949 328.286 170.59 329.046 170.59C329.811 170.59 330.241 169.949 330.241 168.809C330.241 167.664 329.811 167.016 329.046 167.016C328.286 167.016 327.857 167.664 327.857 168.809ZM334.86 166.494H335.451L332.226 171.088H331.635L334.86 166.494ZM331.429 167.664C331.429 167.06 331.828 166.587 332.326 166.587C332.824 166.587 333.222 167.06 333.222 167.664C333.222 168.262 332.824 168.735 332.326 168.735C331.828 168.735 331.429 168.262 331.429 167.664ZM331.902 167.664C331.902 168.031 332.064 168.262 332.326 168.262C332.587 168.262 332.755 168.031 332.755 167.664C332.755 167.297 332.587 167.06 332.326 167.06C332.064 167.06 331.902 167.297 331.902 167.664ZM333.832 169.936C333.832 169.339 334.231 168.865 334.729 168.865C335.227 168.865 335.625 169.339 335.625 169.936C335.625 170.54 335.227 171.013 334.729 171.013C334.231 171.013 333.832 170.54 333.832 169.936ZM334.306 169.936C334.306 170.303 334.467 170.54 334.729 170.54C334.99 170.54 335.158 170.303 335.158 169.936C335.158 169.569 334.99 169.339 334.729 169.339C334.467 169.339 334.306 169.569 334.306 169.936Z" fill="#212023"/>
<circle cx="139.887" cy="169.321" r="2.49018" fill="#1A6FE0"/>
<rect x="130.325" y="179.058" width="210.246" height="19.7471" stroke="#E6E6E6" stroke-width="0.448232"/>
<path d="M151.083 185.884C152.711 185.884 153.63 186.841 153.63 188.544C153.63 190.24 152.734 191.188 151.128 191.188H149.439V185.884H151.083ZM150.082 190.561H151.083C152.33 190.561 152.958 189.889 152.958 188.544C152.958 187.184 152.33 186.512 151.083 186.512H150.082V190.561ZM154.416 188.394C154.573 187.625 155.193 187.139 156.037 187.139C157.053 187.139 157.628 187.737 157.628 188.798V190.389C157.628 190.553 157.703 190.636 157.867 190.636H158.031V191.188H157.763C157.359 191.188 157.008 191.061 157.008 190.576C156.836 190.942 156.403 191.278 155.775 191.278C154.983 191.278 154.348 190.86 154.348 190.15C154.348 189.336 154.961 189.127 155.843 188.962L157.001 188.731C156.993 188.066 156.672 187.737 156.037 187.737C155.536 187.737 155.2 187.991 155.081 188.447L154.416 188.394ZM155.006 190.15C155.006 190.464 155.275 190.725 155.858 190.725C156.5 190.718 157.015 190.27 157.015 189.343V189.291L156.082 189.455C155.491 189.56 155.006 189.597 155.006 190.15ZM158.834 187.229H159.409L159.424 187.916C159.626 187.379 160.096 187.139 160.642 187.139C161.545 187.139 161.979 187.804 161.979 188.641V191.188H161.351V188.82C161.351 188.088 161.105 187.692 160.507 187.692C159.88 187.692 159.461 188.088 159.461 188.82V191.188H158.834V187.229ZM163.174 187.229H163.802V191.188H163.174V187.229ZM163.16 186.609V185.892H163.817V186.609H163.16ZM164.752 189.209C164.752 187.954 165.462 187.139 166.567 187.139C167.441 187.139 168.218 187.715 168.278 189.119L168.285 189.403H165.417C165.476 190.21 165.887 190.68 166.567 190.68C166.985 190.68 167.374 190.434 167.553 190.016L168.226 190.068C167.994 190.815 167.322 191.278 166.567 191.278C165.462 191.278 164.752 190.464 164.752 189.209ZM165.432 188.85H167.598C167.493 188.021 167.045 187.737 166.567 187.737C165.94 187.737 165.536 188.148 165.432 188.85ZM169.237 185.884H169.865V190.389C169.865 190.553 169.947 190.636 170.111 190.636H170.455V191.188H170.014C169.551 191.188 169.237 190.875 169.237 190.419V185.884ZM177.531 189.44C177.337 190.553 176.612 191.308 175.387 191.308C173.863 191.308 172.989 190.083 172.989 188.544C172.989 186.998 173.855 185.765 175.387 185.765C176.515 185.765 177.254 186.467 177.486 187.513L176.806 187.558C176.634 186.811 176.119 186.392 175.387 186.392C174.177 186.392 173.661 187.393 173.661 188.544C173.661 189.687 174.184 190.68 175.387 190.68C176.164 190.68 176.687 190.217 176.844 189.396L177.531 189.44ZM178.279 188.394C178.436 187.625 179.056 187.139 179.9 187.139C180.916 187.139 181.491 187.737 181.491 188.798V190.389C181.491 190.553 181.566 190.636 181.731 190.636H181.895V191.188H181.626C181.223 191.188 180.871 191.061 180.871 190.576C180.7 190.942 180.266 191.278 179.639 191.278C178.847 191.278 178.212 190.86 178.212 190.15C178.212 189.336 178.824 189.127 179.706 188.962L180.864 188.731C180.856 188.066 180.535 187.737 179.9 187.737C179.4 187.737 179.064 187.991 178.944 188.447L178.279 188.394ZM178.869 190.15C178.869 190.464 179.138 190.725 179.721 190.725C180.363 190.718 180.879 190.27 180.879 189.343V189.291L179.945 189.455C179.355 189.56 178.869 189.597 178.869 190.15ZM182.697 187.229H183.25L183.272 187.954C183.407 187.461 183.698 187.229 184.214 187.229H184.602V187.782H184.214C183.609 187.782 183.325 188.148 183.325 188.828V191.188H182.697V187.229ZM185.836 186.333H186.464V187.229H187.517V187.782H186.464V190.135C186.464 190.464 186.621 190.636 186.934 190.636H187.502V191.188H186.934C186.225 191.188 185.836 190.807 185.836 190.135V187.782H185.253V187.229H185.836V186.333ZM188.032 189.209C188.032 187.954 188.741 187.139 189.847 187.139C190.721 187.139 191.498 187.715 191.558 189.119L191.565 189.403H188.696C188.756 190.21 189.167 190.68 189.847 190.68C190.265 190.68 190.654 190.434 190.833 190.016L191.505 190.068C191.274 190.815 190.601 191.278 189.847 191.278C188.741 191.278 188.032 190.464 188.032 189.209ZM188.711 188.85H190.878C190.773 188.021 190.325 187.737 189.847 187.737C189.219 187.737 188.816 188.148 188.711 188.85ZM192.48 187.229H193.033L193.056 187.954C193.19 187.461 193.481 187.229 193.997 187.229H194.385V187.782H193.997C193.392 187.782 193.108 188.148 193.108 188.828V191.188H192.48V187.229Z" fill="#212023"/>
<circle cx="139.887" cy="188.621" r="2.49018" fill="#FDDF8D"/>
<path d="M325.016 188.128C325.433 188.134 325.931 187.941 325.931 187.368C325.931 186.982 325.583 186.739 325.016 186.739C324.555 186.739 324.232 186.963 324.176 187.318L323.615 187.281C323.696 186.658 324.275 186.216 325.016 186.216C325.888 186.216 326.498 186.69 326.498 187.368C326.498 187.86 326.218 188.19 325.682 188.346C326.298 188.526 326.647 188.949 326.647 189.522C326.647 190.294 325.975 190.836 325.016 190.836C324.132 190.836 323.491 190.325 323.453 189.597L324.008 189.559C324.057 190.101 324.574 190.313 325.016 190.313C325.539 190.313 326.087 190.076 326.087 189.479C326.087 188.887 325.539 188.632 325.016 188.644L324.674 188.651V188.121L325.016 188.128ZM329.046 190.836C327.975 190.836 327.296 189.945 327.296 188.532C327.296 187.107 327.975 186.216 329.046 186.216C330.123 186.216 330.801 187.107 330.801 188.532C330.801 189.945 330.123 190.836 329.046 190.836ZM327.857 188.532C327.857 189.672 328.286 190.313 329.046 190.313C329.811 190.313 330.241 189.672 330.241 188.532C330.241 187.387 329.811 186.739 329.046 186.739C328.286 186.739 327.857 187.387 327.857 188.532ZM334.86 186.216H335.451L332.226 190.811H331.635L334.86 186.216ZM331.429 187.387C331.429 186.783 331.828 186.31 332.326 186.31C332.824 186.31 333.222 186.783 333.222 187.387C333.222 187.984 332.824 188.458 332.326 188.458C331.828 188.458 331.429 187.984 331.429 187.387ZM331.902 187.387C331.902 187.754 332.064 187.984 332.326 187.984C332.587 187.984 332.755 187.754 332.755 187.387C332.755 187.019 332.587 186.783 332.326 186.783C332.064 186.783 331.902 187.019 331.902 187.387ZM333.832 189.659C333.832 189.061 334.231 188.588 334.729 188.588C335.227 188.588 335.625 189.061 335.625 189.659C335.625 190.263 335.227 190.736 334.729 190.736C334.231 190.736 333.832 190.263 333.832 189.659ZM334.306 189.659C334.306 190.026 334.467 190.263 334.729 190.263C334.99 190.263 335.158 190.026 335.158 189.659C335.158 189.292 334.99 189.061 334.729 189.061C334.467 189.061 334.306 189.292 334.306 189.659Z" fill="#212023"/>
<rect x="130.325" y="198.357" width="210.246" height="20.9922" stroke="#E6E6E6" stroke-width="0.448232"/>
<path d="M150.087 209.891C150.222 210.609 150.73 211.094 151.567 211.094C152.246 211.094 152.702 210.825 152.702 210.295C152.702 209.757 152.239 209.428 151.178 209.159C150.312 208.943 149.527 208.517 149.527 207.665C149.527 206.769 150.244 206.208 151.26 206.208C152.396 206.208 153.15 206.918 153.262 207.897L152.59 207.942C152.493 207.277 151.985 206.836 151.253 206.836C150.648 206.836 150.199 207.157 150.199 207.665C150.199 208.308 150.969 208.487 151.641 208.674C152.605 208.943 153.374 209.421 153.374 210.228C153.374 211.214 152.478 211.722 151.514 211.722C150.356 211.722 149.505 211.012 149.415 209.936L150.087 209.891ZM155.985 211.722C154.887 211.722 154.17 210.915 154.17 209.652C154.17 208.39 154.887 207.583 155.985 207.583C157.076 207.583 157.793 208.39 157.793 209.652C157.793 210.915 157.076 211.722 155.985 211.722ZM154.827 209.652C154.827 210.571 155.253 211.124 155.985 211.124C156.71 211.124 157.135 210.571 157.135 209.652C157.135 208.734 156.71 208.181 155.985 208.181C155.253 208.181 154.827 208.734 154.827 209.652ZM158.706 212.753V207.673H159.274L159.296 208.263C159.513 207.822 159.938 207.583 160.514 207.583C161.694 207.583 162.224 208.562 162.224 209.652C162.224 210.743 161.694 211.722 160.514 211.722C159.961 211.722 159.557 211.505 159.333 211.094V212.753H158.706ZM159.266 209.652C159.266 210.392 159.602 211.124 160.409 211.124C161.223 211.124 161.552 210.407 161.552 209.652C161.552 208.898 161.223 208.181 160.409 208.181C159.602 208.181 159.266 208.913 159.266 209.652ZM163.025 206.328H163.652V208.211C163.876 207.777 164.34 207.583 164.833 207.583C165.654 207.583 166.17 208.166 166.17 209.085V211.632H165.542V209.309C165.542 208.554 165.266 208.181 164.698 208.181C164.071 208.181 163.652 208.577 163.652 209.309V211.632H163.025V206.328ZM167.366 207.673H167.993V211.632H167.366V207.673ZM167.351 207.053V206.335H168.008V207.053H167.351ZM169.01 208.838C169.167 208.069 169.787 207.583 170.631 207.583C171.647 207.583 172.222 208.181 172.222 209.242V210.833C172.222 210.997 172.297 211.079 172.461 211.079H172.626V211.632H172.357C171.953 211.632 171.602 211.505 171.602 211.019C171.431 211.386 170.997 211.722 170.37 211.722C169.578 211.722 168.943 211.303 168.943 210.594C168.943 209.779 169.555 209.57 170.437 209.406L171.595 209.174C171.587 208.509 171.266 208.181 170.631 208.181C170.131 208.181 169.794 208.435 169.675 208.89L169.01 208.838ZM169.6 210.594C169.6 210.907 169.869 211.169 170.452 211.169C171.094 211.161 171.61 210.713 171.61 209.787V209.735L170.676 209.899C170.086 210.004 169.6 210.041 169.6 210.594ZM177.453 206.328C178.566 206.328 179.261 206.948 179.261 207.934C179.261 208.554 178.835 209.025 178.365 209.159C178.88 209.242 179.112 209.51 179.164 210.071L179.313 211.632H178.663L178.529 210.138C178.484 209.652 178.163 209.496 177.386 209.496H176.086V211.632H175.444V206.328H177.453ZM176.086 208.868H177.453C178.178 208.868 178.589 208.532 178.589 207.919C178.589 207.307 178.185 206.956 177.453 206.956H176.086V208.868ZM180.017 209.652C180.017 208.397 180.727 207.583 181.833 207.583C182.707 207.583 183.484 208.158 183.543 209.563L183.551 209.847H180.682C180.742 210.653 181.153 211.124 181.833 211.124C182.251 211.124 182.64 210.878 182.819 210.459L183.491 210.511C183.26 211.259 182.587 211.722 181.833 211.722C180.727 211.722 180.017 210.907 180.017 209.652ZM180.697 209.294H182.864C182.759 208.465 182.311 208.181 181.833 208.181C181.205 208.181 180.802 208.592 180.697 209.294ZM183.88 207.673H184.552L185.74 210.96L186.898 207.673H187.563L185.956 212.133C185.807 212.558 185.523 212.753 185.075 212.753H184.559V212.2H185.015C185.209 212.2 185.321 212.118 185.396 211.923L185.538 211.557H185.329L183.88 207.673ZM188.325 207.673H188.901L188.916 208.36C189.117 207.822 189.588 207.583 190.133 207.583C191.037 207.583 191.47 208.248 191.47 209.085V211.632H190.843V209.264C190.843 208.532 190.596 208.136 189.999 208.136C189.371 208.136 188.953 208.532 188.953 209.264V211.632H188.325V207.673ZM194.126 211.722C193.027 211.722 192.31 210.915 192.31 209.652C192.31 208.39 193.027 207.583 194.126 207.583C195.216 207.583 195.933 208.39 195.933 209.652C195.933 210.915 195.216 211.722 194.126 211.722ZM192.968 209.652C192.968 210.571 193.393 211.124 194.126 211.124C194.85 211.124 195.276 210.571 195.276 209.652C195.276 208.734 194.85 208.181 194.126 208.181C193.393 208.181 192.968 208.734 192.968 209.652ZM196.883 206.328H197.51V210.833C197.51 210.997 197.593 211.079 197.757 211.079H198.101V211.632H197.66C197.197 211.632 196.883 211.318 196.883 210.863V206.328ZM202.198 206.328V211.632H201.63L201.608 211.064C201.383 211.468 200.905 211.722 200.353 211.722C199.322 211.722 198.679 210.922 198.679 209.652C198.679 208.382 199.322 207.583 200.353 207.583C200.883 207.583 201.354 207.822 201.57 208.196V206.328H202.198ZM199.337 209.652C199.337 210.556 199.785 211.124 200.48 211.124C201.182 211.124 201.63 210.556 201.63 209.652C201.63 208.734 201.182 208.151 200.48 208.151C199.785 208.151 199.337 208.734 199.337 209.652ZM205.669 208.898C205.579 208.45 205.139 208.181 204.698 208.181C204.257 208.181 203.898 208.405 203.898 208.786C203.898 209.174 204.414 209.331 204.847 209.421C205.744 209.593 206.401 209.839 206.401 210.624C206.401 211.393 205.609 211.722 204.855 211.722C203.921 211.722 203.204 211.206 203.144 210.384L203.801 210.34C203.884 210.818 204.265 211.124 204.855 211.124C205.243 211.124 205.744 210.997 205.744 210.586C205.744 210.116 205.183 210.063 204.735 209.959C204.011 209.794 203.241 209.585 203.241 208.816C203.241 208.061 203.854 207.583 204.765 207.583C205.549 207.583 206.199 208.084 206.326 208.853L205.669 208.898Z" fill="#212023"/>
<circle cx="139.887" cy="209.164" r="2.49018" fill="#E3A4EE"/>
<path d="M330.941 206.933V207.456H328.986L328.805 208.795C329.011 208.546 329.403 208.409 329.783 208.409C330.636 208.409 331.239 209.05 331.239 209.934C331.239 210.824 330.592 211.453 329.702 211.453C328.818 211.453 328.158 210.943 328.096 210.214L328.656 210.177C328.724 210.656 329.173 210.93 329.702 210.93C330.287 210.93 330.679 210.519 330.679 209.934C330.679 209.312 330.281 208.919 329.646 208.919C329.235 208.919 328.892 209.106 328.749 209.417H328.17L328.513 206.933H330.941ZM335.342 206.834H335.933L332.709 211.428H332.117L335.342 206.834ZM331.912 208.004C331.912 207.4 332.31 206.927 332.808 206.927C333.306 206.927 333.705 207.4 333.705 208.004C333.705 208.602 333.306 209.075 332.808 209.075C332.31 209.075 331.912 208.602 331.912 208.004ZM332.385 208.004C332.385 208.372 332.547 208.602 332.808 208.602C333.07 208.602 333.238 208.372 333.238 208.004C333.238 207.637 333.07 207.4 332.808 207.4C332.547 207.4 332.385 207.637 332.385 208.004ZM334.315 210.277C334.315 209.679 334.713 209.206 335.211 209.206C335.709 209.206 336.108 209.679 336.108 210.277C336.108 210.88 335.709 211.354 335.211 211.354C334.713 211.354 334.315 210.88 334.315 210.277ZM334.788 210.277C334.788 210.644 334.95 210.88 335.211 210.88C335.473 210.88 335.641 210.644 335.641 210.277C335.641 209.909 335.473 209.679 335.211 209.679C334.95 209.679 334.788 209.909 334.788 210.277Z" fill="#212023"/>
<rect x="130.325" y="218.901" width="210.246" height="20.3697" stroke="#E6E6E6" stroke-width="0.448232"/>
<path d="M149.439 226.224H150.336L152.032 230.826L153.72 226.224H154.616V231.529H153.974V227.509L152.457 231.529H151.598L150.082 227.509V231.529H149.439V226.224ZM155.901 227.569H156.528V231.529H155.901V227.569ZM155.886 226.949V226.232H156.543V226.949H155.886ZM160.28 228.899C160.198 228.383 159.764 228.077 159.294 228.077C158.561 228.077 158.136 228.63 158.136 229.549C158.136 230.468 158.561 231.021 159.294 231.021C159.787 231.021 160.22 230.692 160.31 230.124L160.974 230.169C160.847 231.065 160.13 231.618 159.294 231.618C158.188 231.618 157.478 230.804 157.478 229.549C157.478 228.294 158.188 227.48 159.294 227.48C160.1 227.48 160.833 228.002 160.937 228.854L160.28 228.899ZM161.701 226.224H162.328V228.107C162.552 227.674 163.016 227.48 163.509 227.48C164.33 227.48 164.846 228.062 164.846 228.981V231.529H164.218V229.205C164.218 228.451 163.942 228.077 163.374 228.077C162.747 228.077 162.328 228.473 162.328 229.205V231.529H161.701V226.224ZM165.789 228.735C165.946 227.965 166.566 227.48 167.41 227.48C168.426 227.48 169.002 228.077 169.002 229.138V230.729C169.002 230.894 169.076 230.976 169.241 230.976H169.405V231.529H169.136C168.733 231.529 168.382 231.402 168.382 230.916C168.21 231.282 167.777 231.618 167.149 231.618C166.357 231.618 165.722 231.2 165.722 230.49C165.722 229.676 166.335 229.467 167.216 229.302L168.374 229.071C168.367 228.406 168.045 228.077 167.41 228.077C166.91 228.077 166.574 228.331 166.454 228.787L165.789 228.735ZM166.38 230.49C166.38 230.804 166.648 231.065 167.231 231.065C167.874 231.058 168.389 230.61 168.389 229.683V229.631L167.455 229.795C166.865 229.9 166.38 229.937 166.38 230.49ZM169.946 229.549C169.946 228.294 170.656 227.48 171.762 227.48C172.636 227.48 173.412 228.055 173.472 229.459L173.48 229.743H170.611C170.671 230.55 171.082 231.021 171.762 231.021C172.18 231.021 172.568 230.774 172.748 230.356L173.42 230.408C173.188 231.155 172.516 231.618 171.762 231.618C170.656 231.618 169.946 230.804 169.946 229.549ZM170.626 229.19H172.792C172.688 228.361 172.24 228.077 171.762 228.077C171.134 228.077 170.731 228.488 170.626 229.19ZM174.431 226.224H175.059V230.729C175.059 230.894 175.141 230.976 175.305 230.976H175.649V231.529H175.208C174.745 231.529 174.431 231.215 174.431 230.759V226.224ZM181.948 226.224V226.852H180.297V231.529H179.655V226.852H178.004V226.224H181.948ZM185.506 231.529H184.908V230.871C184.699 231.387 184.243 231.618 183.72 231.618C182.839 231.618 182.405 230.953 182.405 230.117V227.569H183.033V229.93C183.033 230.669 183.279 231.065 183.855 231.065C184.467 231.065 184.878 230.669 184.878 229.93V227.569H185.506V231.529ZM186.702 227.569H187.255L187.278 228.294C187.412 227.801 187.703 227.569 188.219 227.569H188.607V228.122H188.219C187.614 228.122 187.33 228.488 187.33 229.168V231.529H186.702V227.569ZM189.336 227.569H189.911L189.926 228.256C190.128 227.719 190.598 227.48 191.144 227.48C192.048 227.48 192.481 228.144 192.481 228.981V231.529H191.854V229.16C191.854 228.428 191.607 228.032 191.009 228.032C190.382 228.032 189.963 228.428 189.963 229.16V231.529H189.336V227.569ZM193.321 229.549C193.321 228.294 194.03 227.48 195.136 227.48C196.01 227.48 196.787 228.055 196.847 229.459L196.854 229.743H193.986C194.045 230.55 194.456 231.021 195.136 231.021C195.554 231.021 195.943 230.774 196.122 230.356L196.795 230.408C196.563 231.155 195.891 231.618 195.136 231.618C194.03 231.618 193.321 230.804 193.321 229.549ZM194.001 229.19H196.167C196.062 228.361 195.614 228.077 195.136 228.077C194.509 228.077 194.105 228.488 194.001 229.19ZM197.769 227.569H198.322L198.345 228.294C198.479 227.801 198.771 227.569 199.286 227.569H199.674V228.122H199.286C198.681 228.122 198.397 228.488 198.397 229.168V231.529H197.769V227.569Z" fill="#212023"/>
<circle cx="139.887" cy="229.708" r="2.49018" fill="#00BF6D"/>
<path d="M322.417 227.976C322.536 227.161 323.115 226.557 323.999 226.557C324.808 226.557 325.405 227.092 325.405 227.814C325.405 228.456 324.895 228.891 324.229 229.308C323.874 229.508 323.021 230.111 323.002 230.553H325.443V231.076H322.336C322.336 229.757 323.283 229.277 324.036 228.798C324.503 228.499 324.845 228.157 324.845 227.814C324.845 227.385 324.497 227.08 323.999 227.08C323.463 227.08 323.096 227.416 322.978 228.013L322.417 227.976ZM326.11 230.398H326.776V231.076H326.11V230.398ZM330.288 226.656V227.179H328.333L328.153 228.518C328.358 228.269 328.75 228.132 329.13 228.132C329.983 228.132 330.587 228.773 330.587 229.657C330.587 230.547 329.94 231.176 329.049 231.176C328.165 231.176 327.505 230.666 327.443 229.937L328.003 229.9C328.072 230.379 328.52 230.653 329.049 230.653C329.634 230.653 330.027 230.242 330.027 229.657C330.027 229.034 329.628 228.642 328.993 228.642C328.582 228.642 328.24 228.829 328.097 229.14H327.518L327.86 226.656H330.288ZM334.689 226.557H335.281L332.056 231.151H331.465L334.689 226.557ZM331.259 227.727C331.259 227.123 331.658 226.65 332.156 226.65C332.654 226.65 333.052 227.123 333.052 227.727C333.052 228.325 332.654 228.798 332.156 228.798C331.658 228.798 331.259 228.325 331.259 227.727ZM331.732 227.727C331.732 228.094 331.894 228.325 332.156 228.325C332.417 228.325 332.585 228.094 332.585 227.727C332.585 227.36 332.417 227.123 332.156 227.123C331.894 227.123 331.732 227.36 331.732 227.727ZM333.662 229.999C333.662 229.402 334.061 228.929 334.559 228.929C335.057 228.929 335.455 229.402 335.455 229.999C335.455 230.603 335.057 231.076 334.559 231.076C334.061 231.076 333.662 230.603 333.662 229.999ZM334.135 229.999C334.135 230.367 334.297 230.603 334.559 230.603C334.82 230.603 334.988 230.367 334.988 229.999C334.988 229.632 334.82 229.402 334.559 229.402C334.297 229.402 334.135 229.632 334.135 229.999Z" fill="#212023"/>
<rect x="130.325" y="238.822" width="210.246" height="20.3697" stroke="#E6E6E6" stroke-width="0.448232"/>
<path d="M149.439 245.946H152.771V246.574H150.082V248.285H152.681V248.897H150.082V250.623H152.831V251.25H149.439V245.946ZM153.851 247.291H154.426L154.441 247.956C154.628 247.478 155.039 247.201 155.584 247.201C156.159 247.201 156.57 247.5 156.742 248.031C156.914 247.5 157.325 247.201 157.945 247.201C158.744 247.201 159.207 247.747 159.207 248.703V251.25H158.58V248.882C158.58 248.165 158.296 247.754 157.818 247.754C157.198 247.754 156.839 248.173 156.839 248.882V251.25H156.212V248.882C156.212 248.18 155.928 247.754 155.457 247.754C154.844 247.754 154.478 248.18 154.478 248.882V251.25H153.851V247.291ZM160.256 247.291H160.832L160.846 247.956C161.033 247.478 161.444 247.201 161.989 247.201C162.565 247.201 162.976 247.5 163.147 248.031C163.319 247.5 163.73 247.201 164.35 247.201C165.149 247.201 165.613 247.747 165.613 248.703V251.25H164.985V248.882C164.985 248.165 164.701 247.754 164.223 247.754C163.603 247.754 163.245 248.173 163.245 248.882V251.25H162.617V248.882C162.617 248.18 162.333 247.754 161.862 247.754C161.25 247.754 160.884 248.18 160.884 248.882V251.25H160.256V247.291ZM166.555 248.457C166.712 247.687 167.332 247.201 168.176 247.201C169.192 247.201 169.768 247.799 169.768 248.86V250.451C169.768 250.615 169.842 250.698 170.007 250.698H170.171V251.25H169.902C169.499 251.25 169.148 251.123 169.148 250.638C168.976 251.004 168.543 251.34 167.915 251.34C167.123 251.34 166.488 250.922 166.488 250.212C166.488 249.398 167.101 249.189 167.982 249.024L169.14 248.793C169.133 248.128 168.811 247.799 168.176 247.799C167.676 247.799 167.34 248.053 167.22 248.509L166.555 248.457ZM167.146 250.212C167.146 250.526 167.414 250.787 167.997 250.787C168.64 250.78 169.155 250.332 169.155 249.405V249.353L168.221 249.517C167.631 249.622 167.146 249.659 167.146 250.212ZM177.21 249.502C177.016 250.615 176.291 251.37 175.066 251.37C173.542 251.37 172.668 250.145 172.668 248.606C172.668 247.06 173.534 245.827 175.066 245.827C176.194 245.827 176.933 246.529 177.165 247.575L176.485 247.62C176.313 246.873 175.798 246.454 175.066 246.454C173.856 246.454 173.34 247.455 173.34 248.606C173.34 249.749 173.863 250.742 175.066 250.742C175.843 250.742 176.366 250.279 176.523 249.458L177.21 249.502ZM179.706 251.34C178.608 251.34 177.891 250.533 177.891 249.271C177.891 248.008 178.608 247.201 179.706 247.201C180.797 247.201 181.514 248.008 181.514 249.271C181.514 250.533 180.797 251.34 179.706 251.34ZM178.548 249.271C178.548 250.19 178.974 250.742 179.706 250.742C180.431 250.742 180.857 250.19 180.857 249.271C180.857 248.352 180.431 247.799 179.706 247.799C178.974 247.799 178.548 248.352 178.548 249.271ZM182.464 245.946H183.091V250.451C183.091 250.615 183.173 250.698 183.338 250.698H183.681V251.25H183.241C182.777 251.25 182.464 250.937 182.464 250.481V245.946ZM184.579 245.946H185.207V250.451C185.207 250.615 185.289 250.698 185.453 250.698H185.797V251.25H185.356C184.893 251.25 184.579 250.937 184.579 250.481V245.946ZM186.695 247.291H187.323V251.25H186.695V247.291ZM186.68 246.671V245.954H187.337V246.671H186.68ZM188.409 247.291H188.985L189 247.978C189.201 247.441 189.672 247.201 190.217 247.201C191.121 247.201 191.555 247.866 191.555 248.703V251.25H190.927V248.882C190.927 248.15 190.68 247.754 190.083 247.754C189.455 247.754 189.037 248.15 189.037 248.882V251.25H188.409V247.291ZM194.919 248.516C194.83 248.068 194.389 247.799 193.948 247.799C193.507 247.799 193.149 248.023 193.149 248.404C193.149 248.793 193.664 248.95 194.098 249.039C194.994 249.211 195.651 249.458 195.651 250.242C195.651 251.011 194.86 251.34 194.105 251.34C193.171 251.34 192.454 250.825 192.394 250.003L193.052 249.958C193.134 250.436 193.515 250.742 194.105 250.742C194.493 250.742 194.994 250.615 194.994 250.205C194.994 249.734 194.434 249.682 193.985 249.577C193.261 249.413 192.491 249.204 192.491 248.434C192.491 247.68 193.104 247.201 194.015 247.201C194.8 247.201 195.45 247.702 195.577 248.471L194.919 248.516Z" fill="#212023"/>
<circle cx="139.887" cy="249.007" r="2.49018" fill="#FF6163"/>
<path d="M322.417 247.698C322.536 246.883 323.115 246.279 323.999 246.279C324.808 246.279 325.405 246.814 325.405 247.536C325.405 248.177 324.895 248.613 324.229 249.03C323.874 249.23 323.021 249.833 323.002 250.275H325.443V250.798H322.336C322.336 249.479 323.283 248.999 324.036 248.52C324.503 248.221 324.845 247.879 324.845 247.536C324.845 247.107 324.497 246.802 323.999 246.802C323.463 246.802 323.096 247.138 322.978 247.735L322.417 247.698ZM326.11 250.12H326.776V250.798H326.11V250.12ZM330.288 246.378V246.901H328.333L328.153 248.24C328.358 247.991 328.75 247.854 329.13 247.854C329.983 247.854 330.587 248.495 330.587 249.379C330.587 250.269 329.94 250.898 329.049 250.898C328.165 250.898 327.505 250.387 327.443 249.659L328.003 249.622C328.072 250.101 328.52 250.375 329.049 250.375C329.634 250.375 330.027 249.964 330.027 249.379C330.027 248.756 329.628 248.364 328.993 248.364C328.582 248.364 328.24 248.551 328.097 248.862H327.518L327.86 246.378H330.288ZM334.689 246.279H335.281L332.056 250.873H331.465L334.689 246.279ZM331.259 247.449C331.259 246.845 331.658 246.372 332.156 246.372C332.654 246.372 333.052 246.845 333.052 247.449C333.052 248.047 332.654 248.52 332.156 248.52C331.658 248.52 331.259 248.047 331.259 247.449ZM331.732 247.449C331.732 247.816 331.894 248.047 332.156 248.047C332.417 248.047 332.585 247.816 332.585 247.449C332.585 247.082 332.417 246.845 332.156 246.845C331.894 246.845 331.732 247.082 331.732 247.449ZM333.662 249.721C333.662 249.124 334.061 248.651 334.559 248.651C335.057 248.651 335.455 249.124 335.455 249.721C335.455 250.325 335.057 250.798 334.559 250.798C334.061 250.798 333.662 250.325 333.662 249.721ZM334.135 249.721C334.135 250.089 334.297 250.325 334.559 250.325C334.82 250.325 334.988 250.089 334.988 249.721C334.988 249.354 334.82 249.124 334.559 249.124C334.297 249.124 334.135 249.354 334.135 249.721Z" fill="#212023"/>
</g>
<rect x="130.908" y="159.768" width="209.081" height="98.89" rx="3.37668" stroke="#E6E6E6" stroke-width="0.717172"/>
<rect x="229.534" y="124.547" width="110.813" height="18.6764" rx="3.73527" fill="#EEEEEE"/>
<rect x="229.534" y="124.547" width="110.813" height="18.6764" rx="3.73527" fill="#EEEEEE"/>
<rect x="230.779" y="125.792" width="56.029" height="16.1862" rx="3.73527" fill="white"/>
<path d="M240.253 135.635C239.145 135.635 238.472 134.877 238.472 133.645C238.472 132.403 239.145 131.644 240.253 131.644C241.372 131.644 242.039 132.403 242.039 133.645C242.039 134.877 241.372 135.635 240.253 135.635ZM239.08 133.645C239.08 134.554 239.521 135.103 240.253 135.103C240.995 135.103 241.436 134.554 241.436 133.645C241.436 132.731 240.995 132.177 240.253 132.177C239.521 132.177 239.08 132.731 239.08 133.645ZM244.882 132.699L245.516 134.904L246.151 132.699H246.732L245.85 135.549H245.215L244.613 133.505L244.016 135.549H243.381L242.504 132.699H243.08L243.709 134.904L244.344 132.699H244.882ZM247.428 132.699H247.95L247.966 133.177C248.111 132.795 248.445 132.634 248.832 132.634C249.472 132.634 249.8 133.091 249.8 133.715V135.549H249.23V133.893C249.23 133.387 249.074 133.113 248.676 133.113C248.262 133.113 247.998 133.387 247.998 133.893V135.549H247.428V132.699ZM250.545 134.124C250.545 133.22 251.078 132.634 251.906 132.634C252.589 132.634 253.164 133.091 253.191 134.102L253.197 134.285H251.147C251.185 134.818 251.459 135.13 251.906 135.13C252.186 135.13 252.444 134.963 252.557 134.689L253.154 134.732C252.987 135.275 252.487 135.614 251.906 135.614C251.078 135.614 250.545 135.028 250.545 134.124ZM251.158 133.86H252.594C252.53 133.317 252.229 133.118 251.906 133.118C251.492 133.118 251.223 133.392 251.158 133.86ZM253.985 132.699H254.507L254.523 133.236C254.625 132.871 254.84 132.699 255.206 132.699H255.48V133.167H255.201C254.754 133.167 254.555 133.414 254.555 133.887V135.549H253.985V132.699ZM257.791 133.597C257.732 133.29 257.447 133.107 257.151 133.107C256.86 133.107 256.624 133.258 256.624 133.511C256.629 133.769 256.957 133.871 257.258 133.93C257.968 134.059 258.42 134.248 258.42 134.807C258.42 135.366 257.861 135.614 257.253 135.614C256.527 135.614 256.005 135.248 255.962 134.651L256.548 134.613C256.607 134.936 256.855 135.141 257.247 135.141C257.506 135.141 257.828 135.049 257.828 134.78C257.823 134.474 257.463 134.436 257.156 134.366C256.548 134.237 256.032 134.07 256.032 133.527C256.032 132.973 256.484 132.634 257.194 132.634C257.812 132.634 258.286 132.994 258.377 133.565L257.791 133.597ZM259.144 131.73H259.715V133.086C259.881 132.768 260.204 132.634 260.554 132.634C261.145 132.634 261.517 133.059 261.517 133.715V135.549H260.946V133.92C260.946 133.403 260.774 133.14 260.392 133.14C259.978 133.14 259.715 133.414 259.715 133.92V135.549H259.144V131.73ZM262.502 132.699H263.072V135.549H262.502V132.699ZM262.491 132.279V131.736H263.088V132.279H262.491ZM263.989 136.356V132.699H264.521L264.538 133.123C264.694 132.806 264.995 132.634 265.404 132.634C266.237 132.634 266.63 133.322 266.63 134.124C266.63 134.925 266.237 135.614 265.404 135.614C265.016 135.614 264.72 135.452 264.559 135.151V136.356H263.989ZM264.511 134.124C264.511 134.635 264.742 135.124 265.269 135.124C265.807 135.124 266.033 134.646 266.033 134.124C266.033 133.608 265.802 133.123 265.269 133.123C264.742 133.123 264.511 133.613 264.511 134.124ZM268.554 131.515C267.655 133.059 267.655 134.597 268.554 136.141H268.032C267.048 134.646 267.048 133.011 268.032 131.515H268.554ZM269.433 131.73H271.913V132.263H270.014V133.425H271.816V133.941H270.014V135.549H269.433V131.73ZM274.038 131.73C275.232 131.73 275.904 132.419 275.904 133.645C275.904 134.866 275.248 135.549 274.07 135.549H272.812V131.73H274.038ZM273.393 135.017H274.038C274.888 135.017 275.307 134.565 275.307 133.645C275.307 132.715 274.888 132.263 274.038 132.263H273.393V135.017ZM277.095 131.515C278.079 133.011 278.079 134.646 277.095 136.141H276.573C277.472 134.597 277.472 133.059 276.573 131.515H277.095Z" fill="black"/>
<path d="M297.668 134.28C297.759 134.764 298.098 135.087 298.657 135.087C299.109 135.087 299.41 134.909 299.405 134.56C299.405 134.21 299.104 133.995 298.394 133.817C297.705 133.651 297.151 133.333 297.151 132.72C297.151 132.058 297.689 131.644 298.464 131.644C299.292 131.644 299.851 132.161 299.932 132.887L299.34 132.919C299.276 132.467 298.942 132.171 298.453 132.171C298.044 132.171 297.748 132.387 297.754 132.725C297.754 133.14 298.248 133.263 298.711 133.387C299.459 133.575 300.007 133.93 300.007 134.517C300.007 135.232 299.362 135.614 298.625 135.614C297.759 135.614 297.135 135.103 297.07 134.318L297.668 134.28ZM300.761 131.73H301.331V133.086C301.498 132.768 301.821 132.634 302.17 132.634C302.762 132.634 303.133 133.059 303.133 133.715V135.549H302.563V133.92C302.563 133.403 302.391 133.14 302.009 133.14C301.595 133.14 301.331 133.414 301.331 133.92V135.549H300.761V131.73ZM303.942 133.554C304.055 132.978 304.507 132.634 305.163 132.634C305.938 132.634 306.363 133.064 306.363 133.844V134.904C306.363 135.049 306.427 135.103 306.54 135.103H306.653V135.549H306.475C306.217 135.555 305.868 135.512 305.841 135.108C305.712 135.383 305.394 135.614 304.921 135.614C304.345 135.614 303.894 135.307 303.894 134.802C303.894 134.232 304.319 134.065 304.975 133.941L305.792 133.78C305.787 133.322 305.577 133.097 305.163 133.097C304.83 133.097 304.609 133.269 304.534 133.591L303.942 133.554ZM304.485 134.791C304.485 135.001 304.668 135.173 305.045 135.173C305.47 135.167 305.803 134.866 305.803 134.253V134.215L305.195 134.323C304.803 134.393 304.485 134.431 304.485 134.791ZM307.376 132.699H307.897L307.913 133.236C308.016 132.871 308.231 132.699 308.597 132.699H308.871V133.167H308.591C308.145 133.167 307.946 133.414 307.946 133.887V135.549H307.376V132.699ZM309.353 134.124C309.353 133.22 309.885 132.634 310.713 132.634C311.397 132.634 311.972 133.091 311.999 134.102L312.004 134.285H309.955C309.993 134.818 310.267 135.13 310.713 135.13C310.993 135.13 311.251 134.963 311.364 134.689L311.961 134.732C311.795 135.275 311.294 135.614 310.713 135.614C309.885 135.614 309.353 135.028 309.353 134.124ZM309.966 133.86H311.402C311.337 133.317 311.036 133.118 310.713 133.118C310.299 133.118 310.03 133.392 309.966 133.86ZM317.506 134.253C317.361 135.092 316.812 135.635 315.92 135.635C314.812 135.635 314.155 134.764 314.155 133.645C314.155 132.526 314.812 131.644 315.92 131.644C316.753 131.644 317.313 132.155 317.479 132.951L316.866 132.984C316.753 132.467 316.409 132.177 315.914 132.177C315.113 132.177 314.758 132.844 314.758 133.645C314.758 134.441 315.118 135.103 315.914 135.103C316.436 135.103 316.786 134.786 316.888 134.221L317.506 134.253ZM318.309 131.73H318.879V134.888C318.879 135.017 318.949 135.081 319.073 135.081H319.304V135.549H318.949C318.567 135.549 318.309 135.302 318.309 134.915V131.73ZM319.967 133.554C320.08 132.978 320.532 132.634 321.188 132.634C321.963 132.634 322.388 133.064 322.388 133.844V134.904C322.388 135.049 322.452 135.103 322.565 135.103H322.678V135.549H322.5C322.242 135.555 321.893 135.512 321.866 135.108C321.737 135.383 321.419 135.614 320.946 135.614C320.37 135.614 319.919 135.307 319.919 134.802C319.919 134.232 320.344 134.065 321 133.941L321.817 133.78C321.812 133.322 321.602 133.097 321.188 133.097C320.855 133.097 320.634 133.269 320.559 133.591L319.967 133.554ZM320.51 134.791C320.51 135.001 320.693 135.173 321.07 135.173C321.495 135.167 321.828 134.866 321.828 134.253V134.215L321.22 134.323C320.828 134.393 320.51 134.431 320.51 134.791ZM325.052 133.597C324.993 133.29 324.708 133.107 324.412 133.107C324.122 133.107 323.885 133.258 323.885 133.511C323.89 133.769 324.218 133.871 324.52 133.93C325.23 134.059 325.681 134.248 325.681 134.807C325.681 135.366 325.122 135.614 324.514 135.614C323.788 135.614 323.266 135.248 323.223 134.651L323.81 134.613C323.869 134.936 324.116 135.141 324.509 135.141C324.767 135.141 325.09 135.049 325.09 134.78C325.084 134.474 324.724 134.436 324.417 134.366C323.81 134.237 323.293 134.07 323.293 133.527C323.293 132.973 323.745 132.634 324.455 132.634C325.074 132.634 325.547 132.994 325.638 133.565L325.052 133.597ZM328.162 133.597C328.103 133.29 327.818 133.107 327.522 133.107C327.232 133.107 326.995 133.258 326.995 133.511C327.001 133.769 327.329 133.871 327.63 133.93C328.34 134.059 328.792 134.248 328.792 134.807C328.792 135.366 328.232 135.614 327.625 135.614C326.898 135.614 326.377 135.248 326.334 134.651L326.92 134.613C326.979 134.936 327.227 135.141 327.619 135.141C327.877 135.141 328.2 135.049 328.2 134.78C328.195 134.474 327.834 134.436 327.528 134.366C326.92 134.237 326.404 134.07 326.404 133.527C326.404 132.973 326.855 132.634 327.565 132.634C328.184 132.634 328.657 132.994 328.749 133.565L328.162 133.597Z" fill="#9E9E9E"/>
</g>
<rect width="381.15" height="86.394" transform="translate(-11 235.907)" fill="url(#paint0_linear_2510_738)"/>
</g>
<defs>
<filter id="filter0_d_2510_738" x="-68.8079" y="40.885" width="497.375" height="309.989" filterUnits="userSpaceOnUse" color-interpolation-filters="sRGB">
<feFlood flood-opacity="0" result="BackgroundImageFix"/>
<feColorMatrix in="SourceAlpha" type="matrix" values="0 0 0 0 0 0 0 0 0 0 0 0 0 0 0 0 0 0 127 0" result="hardAlpha"/>
<feOffset dy="2.541"/>
<feGaussianBlur stdDeviation="38.4326"/>
<feComposite in2="hardAlpha" operator="out"/>
<feColorMatrix type="matrix" values="0 0 0 0 0 0 0 0 0 0 0 0 0 0 0 0 0 0 0.12 0"/>
<feBlend mode="normal" in2="BackgroundImageFix" result="effect1_dropShadow_2510_738"/>
<feBlend mode="normal" in="SourceGraphic" in2="effect1_dropShadow_2510_738" result="shape"/>
</filter>
<linearGradient id="paint0_linear_2510_738" x1="190.575" y1="21.5985" x2="190.575" y2="0" gradientUnits="userSpaceOnUse">
<stop stop-color="#E2E4DF"/>
<stop offset="1" stop-color="#CCD8D9" stop-opacity="0"/>
</linearGradient>
<clipPath id="clip0_2510_738">
<rect width="361" height="322" rx="2.7572" fill="white"/>
</clipPath>
<clipPath id="clip1_2510_738">
<rect x="130.549" y="159.41" width="209.798" height="99.6072" rx="3.73527" fill="white"/>
</clipPath>
</defs>
</svg>
