<svg width="361" height="322" viewBox="0 0 361 322" fill="none" xmlns="http://www.w3.org/2000/svg">
<g clip-path="url(#clip0_2510_300)">
<rect width="361" height="322" rx="2.7572" fill="#C7C2CC"/>
<g filter="url(#filter0_d_2510_300)">
<g clip-path="url(#clip1_2510_300)">
<rect x="44.15" y="11" width="271.7" height="300.3" rx="8.58" fill="white"/>
<path d="M54.3805 31.7249L56.9431 24.6178H58.3244L60.887 31.7249H59.7258L59.0852 29.873H56.1823L55.5316 31.7249H54.3805ZM56.5226 28.892H58.7449L57.6337 25.6488L56.5226 28.892ZM66.1892 24.6178V31.7249H65.1982L65.1682 30.9641C64.8679 31.5046 64.2472 31.845 63.5165 31.845C62.1351 31.845 61.2743 30.7739 61.2743 29.0722C61.2743 27.3705 62.1351 26.2994 63.5165 26.2994C64.2072 26.2994 64.8278 26.6198 65.1281 27.1303V24.6178H66.1892ZM62.3754 29.0722C62.3754 30.2133 62.9359 30.9341 63.7868 30.9341C64.6576 30.9341 65.2082 30.2133 65.2082 29.0722C65.2082 27.911 64.6576 27.1803 63.7868 27.1803C62.9259 27.1803 62.3754 27.911 62.3754 29.0722ZM72.1586 24.6178V31.7249H71.1677L71.1376 30.9641C70.8373 31.5046 70.2167 31.845 69.486 31.845C68.1046 31.845 67.2437 30.7739 67.2437 29.0722C67.2437 27.3705 68.1046 26.2994 69.486 26.2994C70.1767 26.2994 70.7973 26.6198 71.0976 27.1303V24.6178H72.1586ZM68.3448 29.0722C68.3448 30.2133 68.9054 30.9341 69.7562 30.9341C70.6271 30.9341 71.1777 30.2133 71.1777 29.0722C71.1777 27.911 70.6271 27.1803 69.7562 27.1803C68.8954 27.1803 68.3448 27.911 68.3448 29.0722ZM76.7381 29.3625C76.9083 30.2634 77.5389 30.864 78.58 30.864C79.4208 30.864 79.9814 30.5337 79.9714 29.883C79.9714 29.2324 79.4108 28.832 78.0895 28.5016C76.8082 28.1913 75.7772 27.6007 75.7772 26.4596C75.7772 25.2284 76.7782 24.4576 78.2196 24.4576C79.7612 24.4576 80.8022 25.4186 80.9524 26.7699L79.8513 26.83C79.7311 25.9891 79.1105 25.4386 78.1996 25.4386C77.4388 25.4386 76.8883 25.839 76.8983 26.4696C76.8983 27.2404 77.8192 27.4706 78.6801 27.7008C80.0715 28.0512 81.0925 28.7118 81.0925 29.8029C81.0925 31.1343 79.8913 31.845 78.5199 31.845C76.9083 31.845 75.7472 30.894 75.627 29.4326L76.7381 29.3625ZM86.6301 31.7249H85.6391L85.6291 30.854C85.3388 31.5547 84.7382 31.845 84.0475 31.845C82.8763 31.845 82.2657 30.9941 82.2657 29.833V26.4196H83.3268V29.5026C83.3268 30.4436 83.607 30.9541 84.3278 30.9541C85.0885 30.9541 85.569 30.4436 85.569 29.5026V26.4196H86.6301V31.7249ZM87.8637 24.6178H88.9248V27.1303C89.2251 26.6198 89.8457 26.2994 90.5364 26.2994C91.9178 26.2994 92.7786 27.3705 92.7786 29.0722C92.7786 30.7739 91.9178 31.845 90.5364 31.845C89.8057 31.845 89.185 31.5046 88.8847 30.9641L88.8547 31.7249H87.8637V24.6178ZM88.8447 29.0722C88.8447 30.2133 89.3952 30.9341 90.2661 30.9341C91.117 30.9341 91.6775 30.2133 91.6775 29.0722C91.6775 27.911 91.127 27.1803 90.2661 27.1803C89.3952 27.1803 88.8447 27.911 88.8447 29.0722ZM96.9361 28.0912C96.826 27.5207 96.2954 27.1803 95.7449 27.1803C95.2043 27.1803 94.7639 27.4606 94.7639 27.9311C94.7739 28.4115 95.3845 28.6017 95.9451 28.7118C97.2664 28.9521 98.1072 29.3024 98.1072 30.3435C98.1072 31.3845 97.0662 31.845 95.9351 31.845C94.5837 31.845 93.6127 31.1643 93.5327 30.0532L94.6238 29.9831C94.7339 30.5837 95.1943 30.9641 95.9251 30.9641C96.4055 30.9641 97.0061 30.7939 97.0061 30.2934C96.9961 29.7229 96.3255 29.6528 95.7549 29.5227C94.6238 29.2824 93.6628 28.9721 93.6628 27.9611C93.6628 26.9301 94.5036 26.2994 95.825 26.2994C96.9761 26.2994 97.857 26.9701 98.0272 28.0312L96.9361 28.0912ZM102.611 28.2814C102.501 27.6107 101.98 27.2204 101.38 27.2204C100.479 27.2204 99.9483 27.911 99.9483 29.0722C99.9483 30.2334 100.479 30.9241 101.38 30.9241C102.01 30.9241 102.531 30.5136 102.641 29.7729L103.752 29.833C103.592 31.0742 102.601 31.845 101.38 31.845C99.8382 31.845 98.8472 30.7539 98.8472 29.0722C98.8472 27.3905 99.8382 26.2994 101.38 26.2994C102.561 26.2994 103.572 27.0302 103.712 28.2214L102.611 28.2814ZM104.658 26.4196H105.629L105.659 27.4206C105.849 26.7399 106.249 26.4196 106.93 26.4196H107.441V27.2904H106.92C106.089 27.2904 105.719 27.7509 105.719 28.6318V31.7249H104.658V26.4196ZM108.496 26.4196H109.557V31.7249H108.496V26.4196ZM108.476 25.6388V24.6278H109.587V25.6388H108.476ZM110.79 33.2264V26.4196H111.781L111.811 27.2103C112.101 26.6198 112.662 26.2994 113.423 26.2994C114.974 26.2994 115.705 27.5807 115.705 29.0722C115.705 30.5637 114.974 31.845 113.423 31.845C112.702 31.845 112.151 31.5447 111.851 30.9841V33.2264H110.79ZM111.761 29.0722C111.761 30.0232 112.192 30.9341 113.173 30.9341C114.174 30.9341 114.594 30.0432 114.594 29.0722C114.594 28.1112 114.164 27.2103 113.173 27.2103C112.192 27.2103 111.761 28.1213 111.761 29.0722ZM117.037 25.2184H118.098V26.4196H119.499V27.2804H118.098V30.2033C118.098 30.6338 118.308 30.854 118.718 30.854H119.489V31.7249H118.608C117.587 31.7249 117.037 31.1943 117.037 30.2033V27.2804H116.226V26.4196H117.037V25.2184ZM120.461 26.4196H121.522V31.7249H120.461V26.4196ZM120.441 25.6388V24.6278H121.552V25.6388H120.441ZM125.104 31.845C123.573 31.845 122.572 30.7639 122.572 29.0722C122.572 27.3805 123.573 26.2994 125.104 26.2994C126.626 26.2994 127.627 27.3805 127.627 29.0722C127.627 30.7639 126.626 31.845 125.104 31.845ZM123.673 29.0722C123.673 30.2334 124.204 30.9241 125.104 30.9241C126.005 30.9241 126.526 30.2334 126.526 29.0722C126.526 27.911 126.005 27.2204 125.104 27.2204C124.204 27.2204 123.673 27.911 123.673 29.0722ZM128.617 26.4196H129.588L129.618 27.3104C129.888 26.5997 130.509 26.2994 131.23 26.2994C132.421 26.2994 133.031 27.1503 133.031 28.3114V31.7249H131.97V28.6418C131.97 27.7008 131.68 27.1903 130.939 27.1903C130.169 27.1903 129.678 27.7008 129.678 28.6418V31.7249H128.617V26.4196Z" fill="black"/>
<path d="M54.3423 43.7397L56.1727 38.6632H57.0021L58.8325 43.7397H58.1604L57.6527 42.2954H55.522L55.0144 43.7397H54.3423ZM55.7294 41.6948H57.4454L56.5874 39.1995L55.7294 41.6948ZM62.4409 38.6632V43.7397H61.8975L61.8761 43.1963C61.6616 43.5824 61.204 43.8255 60.6749 43.8255C59.6882 43.8255 59.0733 43.0605 59.0733 41.845C59.0733 40.6295 59.6882 39.8644 60.6749 39.8644C61.1825 39.8644 61.633 40.0932 61.8403 40.4507V38.6632H62.4409ZM59.7025 41.845C59.7025 42.7101 60.1315 43.2535 60.7964 43.2535C61.4685 43.2535 61.8975 42.7101 61.8975 41.845C61.8975 40.9655 61.4685 40.4078 60.7964 40.4078C60.1315 40.4078 59.7025 40.9655 59.7025 41.845ZM66.574 38.6632V43.7397H66.0306L66.0092 43.1963C65.7947 43.5824 65.3371 43.8255 64.808 43.8255C63.8213 43.8255 63.2064 43.0605 63.2064 41.845C63.2064 40.6295 63.8213 39.8644 64.808 39.8644C65.3156 39.8644 65.7661 40.0932 65.9734 40.4507V38.6632H66.574ZM63.8356 41.845C63.8356 42.7101 64.2646 43.2535 64.9295 43.2535C65.6016 43.2535 66.0306 42.7101 66.0306 41.845C66.0306 40.9655 65.6016 40.4078 64.9295 40.4078C64.2646 40.4078 63.8356 40.9655 63.8356 41.845ZM69.0512 41.0656C69.2013 40.3292 69.7948 39.8644 70.6027 39.8644C71.5751 39.8644 72.1257 40.4364 72.1257 41.4517V42.9747C72.1257 43.132 72.1972 43.2106 72.3545 43.2106H72.5118V43.7397H72.2544C71.8683 43.7397 71.5322 43.6182 71.5322 43.1534C71.3678 43.5038 70.9531 43.8255 70.3525 43.8255C69.5946 43.8255 68.9868 43.4251 68.9868 42.7459C68.9868 41.9665 69.5731 41.7663 70.4168 41.609L71.5251 41.3874C71.5179 40.751 71.2105 40.4364 70.6027 40.4364C70.1237 40.4364 69.8019 40.6795 69.6875 41.1157L69.0512 41.0656ZM69.616 42.7459C69.616 43.0462 69.8734 43.2964 70.4311 43.2964C71.046 43.2893 71.5394 42.8603 71.5394 41.9737V41.9236L70.6456 42.0809C70.0808 42.181 69.616 42.2168 69.616 42.7459ZM74.8426 39.9502H75.3932L75.4075 40.608C75.6005 40.0932 76.051 39.8644 76.5729 39.8644C77.4381 39.8644 77.8528 40.5008 77.8528 41.3016V43.7397H77.2522V41.4732C77.2522 40.7725 77.0162 40.3935 76.4442 40.3935C75.8436 40.3935 75.4432 40.7725 75.4432 41.4732V43.7397H74.8426V39.9502ZM78.5164 41.845C78.5164 40.6438 79.1956 39.8644 80.2538 39.8644C81.0904 39.8644 81.834 40.415 81.8912 41.7592L81.8983 42.0309H79.1527C79.2099 42.8031 79.6032 43.2535 80.2538 43.2535C80.6542 43.2535 81.026 43.0176 81.1976 42.6172L81.8411 42.6672C81.6195 43.3822 80.976 43.8255 80.2538 43.8255C79.1956 43.8255 78.5164 43.0462 78.5164 41.845ZM79.167 41.5018H81.2405C81.1404 40.7081 80.7114 40.4364 80.2538 40.4364C79.6532 40.4364 79.2671 40.8297 79.167 41.5018ZM85.1615 39.9502L86.0624 43.0748L86.9705 39.9502H87.614L86.4414 43.7397H85.6835L84.8398 40.8583L83.9961 43.7397H83.2453L82.0727 39.9502H82.7162L83.6171 43.0748L84.518 39.9502H85.1615ZM89.8529 39.9502H90.4535V43.7397H89.8529V39.9502ZM89.8386 39.3568V38.6704H90.4678V39.3568H89.8386ZM91.3536 39.9502H91.9042L91.9185 40.608C92.1115 40.0932 92.562 39.8644 93.0839 39.8644C93.9491 39.8644 94.3638 40.5008 94.3638 41.3016V43.7397H93.7632V41.4732C93.7632 40.7725 93.5272 40.3935 92.9552 40.3935C92.3546 40.3935 91.9542 40.7725 91.9542 41.4732V43.7397H91.3536V39.9502ZM98.3315 39.9502L96.9515 43.7397H96.1936L94.8137 39.9502H95.4572L96.5726 43.1105L97.688 39.9502H98.3315ZM98.5041 41.845C98.5041 40.6438 99.1833 39.8644 100.242 39.8644C101.078 39.8644 101.822 40.415 101.879 41.7592L101.886 42.0309H99.1404C99.1976 42.8031 99.5909 43.2535 100.242 43.2535C100.642 43.2535 101.014 43.0176 101.185 42.6172L101.829 42.6672C101.607 43.3822 100.964 43.8255 100.242 43.8255C99.1833 43.8255 98.5041 43.0462 98.5041 41.845ZM99.1547 41.5018H101.228C101.128 40.7081 100.699 40.4364 100.242 40.4364C99.6409 40.4364 99.2548 40.8297 99.1547 41.5018ZM104.837 41.1228C104.752 40.6938 104.33 40.4364 103.908 40.4364C103.486 40.4364 103.143 40.6509 103.143 41.0156C103.143 41.3874 103.636 41.5375 104.051 41.6233C104.909 41.7878 105.538 42.0237 105.538 42.7745C105.538 43.5109 104.78 43.8255 104.058 43.8255C103.164 43.8255 102.478 43.3322 102.421 42.5457L103.05 42.5028C103.129 42.9604 103.493 43.2535 104.058 43.2535C104.43 43.2535 104.909 43.132 104.909 42.7387C104.909 42.2883 104.373 42.2382 103.944 42.1381C103.25 41.9808 102.514 41.7806 102.514 41.0442C102.514 40.322 103.1 39.8644 103.972 39.8644C104.723 39.8644 105.345 40.3435 105.467 41.0799L104.837 41.1228ZM106.47 39.0922H107.071V39.9502H108.079V40.4793H107.071V42.7316C107.071 43.0462 107.221 43.2106 107.522 43.2106H108.065V43.7397H107.522C106.842 43.7397 106.47 43.3751 106.47 42.7316V40.4793H105.913V39.9502H106.47V39.0922ZM110.169 43.8255C109.118 43.8255 108.432 43.0533 108.432 41.845C108.432 40.6366 109.118 39.8644 110.169 39.8644C111.213 39.8644 111.899 40.6366 111.899 41.845C111.899 43.0533 111.213 43.8255 110.169 43.8255ZM109.061 41.845C109.061 42.7244 109.468 43.2535 110.169 43.2535C110.863 43.2535 111.27 42.7244 111.27 41.845C111.27 40.9655 110.863 40.4364 110.169 40.4364C109.468 40.4364 109.061 40.9655 109.061 41.845ZM112.633 39.9502H113.162L113.184 40.6438C113.312 40.1719 113.591 39.9502 114.085 39.9502H114.456V40.4793H114.085C113.505 40.4793 113.234 40.8297 113.234 41.4803V43.7397H112.633V39.9502ZM119.051 41.1228C118.965 40.6938 118.544 40.4364 118.122 40.4364C117.7 40.4364 117.357 40.6509 117.357 41.0156C117.357 41.3874 117.85 41.5375 118.265 41.6233C119.123 41.7878 119.752 42.0237 119.752 42.7745C119.752 43.5109 118.994 43.8255 118.272 43.8255C117.378 43.8255 116.692 43.3322 116.634 42.5457L117.264 42.5028C117.342 42.9604 117.707 43.2535 118.272 43.2535C118.644 43.2535 119.123 43.132 119.123 42.7387C119.123 42.2883 118.586 42.2382 118.157 42.1381C117.464 41.9808 116.727 41.7806 116.727 41.0442C116.727 40.322 117.314 39.8644 118.186 39.8644C118.937 39.8644 119.559 40.3435 119.68 41.0799L119.051 41.1228ZM123.419 43.7397H122.847V43.1105C122.647 43.6039 122.211 43.8255 121.71 43.8255C120.867 43.8255 120.452 43.1892 120.452 42.3884V39.9502H121.053V42.2096C121.053 42.9175 121.288 43.2964 121.839 43.2964C122.425 43.2964 122.819 42.9175 122.819 42.2096V39.9502H123.419V43.7397ZM124.32 38.6632H124.92V40.4507C125.128 40.0932 125.578 39.8644 126.086 39.8644C127.072 39.8644 127.687 40.6295 127.687 41.845C127.687 43.0605 127.072 43.8255 126.086 43.8255C125.557 43.8255 125.099 43.5824 124.885 43.1963L124.863 43.7397H124.32V38.6632ZM124.863 41.845C124.863 42.7101 125.292 43.2535 125.964 43.2535C126.629 43.2535 127.058 42.7101 127.058 41.845C127.058 40.9655 126.629 40.4078 125.964 40.4078C125.292 40.4078 124.863 40.9655 124.863 41.845ZM130.634 41.1228C130.548 40.6938 130.126 40.4364 129.704 40.4364C129.282 40.4364 128.939 40.6509 128.939 41.0156C128.939 41.3874 129.432 41.5375 129.847 41.6233C130.705 41.7878 131.334 42.0237 131.334 42.7745C131.334 43.5109 130.576 43.8255 129.854 43.8255C128.96 43.8255 128.274 43.3322 128.217 42.5457L128.846 42.5028C128.925 42.9604 129.289 43.2535 129.854 43.2535C130.226 43.2535 130.705 43.132 130.705 42.7387C130.705 42.2883 130.169 42.2382 129.74 42.1381C129.046 41.9808 128.31 41.7806 128.31 41.0442C128.31 40.322 128.896 39.8644 129.768 39.8644C130.519 39.8644 131.141 40.3435 131.263 41.0799L130.634 41.1228ZM134.549 41.2229C134.471 40.7296 134.056 40.4364 133.606 40.4364C132.905 40.4364 132.497 40.9655 132.497 41.845C132.497 42.7244 132.905 43.2535 133.606 43.2535C134.078 43.2535 134.492 42.9389 134.578 42.3955L135.214 42.4384C135.093 43.2964 134.406 43.8255 133.606 43.8255C132.547 43.8255 131.868 43.0462 131.868 41.845C131.868 40.6438 132.547 39.8644 133.606 39.8644C134.378 39.8644 135.079 40.3649 135.179 41.18L134.549 41.2229ZM135.874 39.9502H136.403L136.425 40.6438C136.553 40.1719 136.832 39.9502 137.326 39.9502H137.697V40.4793H137.326C136.746 40.4793 136.475 40.8297 136.475 41.4803V43.7397H135.874V39.9502ZM138.464 39.9502H139.065V43.7397H138.464V39.9502ZM138.45 39.3568V38.6704H139.079V39.3568H138.45ZM139.965 44.8122V39.9502H140.508L140.53 40.5151C140.737 40.0932 141.145 39.8644 141.695 39.8644C142.825 39.8644 143.332 40.8011 143.332 41.845C143.332 42.8889 142.825 43.8255 141.695 43.8255C141.166 43.8255 140.78 43.6182 140.565 43.2249V44.8122H139.965ZM140.501 41.845C140.501 42.5528 140.823 43.2535 141.595 43.2535C142.374 43.2535 142.689 42.5671 142.689 41.845C142.689 41.1228 142.374 40.4364 141.595 40.4364C140.823 40.4364 140.501 41.1371 140.501 41.845ZM144.26 39.0922H144.861V39.9502H145.869V40.4793H144.861V42.7316C144.861 43.0462 145.011 43.2106 145.311 43.2106H145.855V43.7397H145.311C144.632 43.7397 144.26 43.3751 144.26 42.7316V40.4793H143.703V39.9502H144.26V39.0922ZM146.562 39.9502H147.163V43.7397H146.562V39.9502ZM146.548 39.3568V38.6704H147.177V39.3568H146.548ZM149.669 43.8255C148.618 43.8255 147.932 43.0533 147.932 41.845C147.932 40.6366 148.618 39.8644 149.669 39.8644C150.713 39.8644 151.4 40.6366 151.4 41.845C151.4 43.0533 150.713 43.8255 149.669 43.8255ZM148.561 41.845C148.561 42.7244 148.969 43.2535 149.669 43.2535C150.363 43.2535 150.77 42.7244 150.77 41.845C150.77 40.9655 150.363 40.4364 149.669 40.4364C148.969 40.4364 148.561 40.9655 148.561 41.845ZM152.133 39.9502H152.684L152.698 40.608C152.891 40.0932 153.342 39.8644 153.864 39.8644C154.729 39.8644 155.143 40.5008 155.143 41.3016V43.7397H154.543V41.4732C154.543 40.7725 154.307 40.3935 153.735 40.3935C153.134 40.3935 152.734 40.7725 152.734 41.4732V43.7397H152.133V39.9502ZM158.167 39.7071C158.167 39.0708 158.481 38.6632 159.182 38.6632H159.768V39.1923H159.182C158.939 39.1923 158.767 39.3854 158.767 39.7071V39.9502H159.718V40.4793H158.767V43.7397H158.167V40.4793H157.652V39.9502H158.167V39.7071ZM161.789 43.8255C160.738 43.8255 160.051 43.0533 160.051 41.845C160.051 40.6366 160.738 39.8644 161.789 39.8644C162.833 39.8644 163.519 40.6366 163.519 41.845C163.519 43.0533 162.833 43.8255 161.789 43.8255ZM160.68 41.845C160.68 42.7244 161.088 43.2535 161.789 43.2535C162.482 43.2535 162.89 42.7244 162.89 41.845C162.89 40.9655 162.482 40.4364 161.789 40.4364C161.088 40.4364 160.68 40.9655 160.68 41.845ZM164.253 39.9502H164.782L164.803 40.6438C164.932 40.1719 165.211 39.9502 165.704 39.9502H166.076V40.4793H165.704C165.125 40.4793 164.853 40.8297 164.853 41.4803V43.7397H164.253V39.9502ZM168.869 39.0922H169.47V39.9502H170.478V40.4793H169.47V42.7316C169.47 43.0462 169.62 43.2106 169.92 43.2106H170.464V43.7397H169.92C169.241 43.7397 168.869 43.3751 168.869 42.7316V40.4793H168.311V39.9502H168.869V39.0922ZM171.171 38.6632H171.771V40.465C171.986 40.0503 172.429 39.8644 172.901 39.8644C173.688 39.8644 174.181 40.4221 174.181 41.3016V43.7397H173.58V41.5161C173.58 40.7939 173.316 40.4364 172.772 40.4364C172.172 40.4364 171.771 40.8154 171.771 41.5161V43.7397H171.171V38.6632ZM175.185 39.9502H175.786V43.7397H175.185V39.9502ZM175.171 39.3568V38.6704H175.8V39.3568H175.171ZM178.971 41.1228C178.886 40.6938 178.464 40.4364 178.042 40.4364C177.62 40.4364 177.277 40.6509 177.277 41.0156C177.277 41.3874 177.77 41.5375 178.185 41.6233C179.043 41.7878 179.672 42.0237 179.672 42.7745C179.672 43.5109 178.914 43.8255 178.192 43.8255C177.298 43.8255 176.612 43.3322 176.555 42.5457L177.184 42.5028C177.263 42.9604 177.627 43.2535 178.192 43.2535C178.564 43.2535 179.043 43.132 179.043 42.7387C179.043 42.2883 178.507 42.2382 178.078 42.1381C177.384 41.9808 176.648 41.7806 176.648 41.0442C176.648 40.322 177.234 39.8644 178.106 39.8644C178.857 39.8644 179.479 40.3435 179.601 41.0799L178.971 41.1228ZM182.461 39.7071C182.461 39.0708 182.776 38.6632 183.477 38.6632H184.063V39.1923H183.477C183.233 39.1923 183.062 39.3854 183.062 39.7071V39.9502H184.013V40.4793H183.062V43.7397H182.461V40.4793H181.946V39.9502H182.461V39.7071ZM187.765 43.7397H187.193V43.1105C186.993 43.6039 186.557 43.8255 186.056 43.8255C185.213 43.8255 184.798 43.1892 184.798 42.3884V39.9502H185.399V42.2096C185.399 42.9175 185.635 43.2964 186.185 43.2964C186.771 43.2964 187.165 42.9175 187.165 42.2096V39.9502H187.765V43.7397ZM188.771 39.9502H189.321L189.335 40.608C189.528 40.0932 189.979 39.8644 190.501 39.8644C191.366 39.8644 191.781 40.5008 191.781 41.3016V43.7397H191.18V41.4732C191.18 40.7725 190.944 40.3935 190.372 40.3935C189.772 40.3935 189.371 40.7725 189.371 41.4732V43.7397H188.771V39.9502ZM195.812 38.6632V43.7397H195.269L195.247 43.1963C195.033 43.5824 194.575 43.8255 194.046 43.8255C193.059 43.8255 192.444 43.0605 192.444 41.845C192.444 40.6295 193.059 39.8644 194.046 39.8644C194.554 39.8644 195.004 40.0932 195.211 40.4507V38.6632H195.812ZM193.074 41.845C193.074 42.7101 193.503 43.2535 194.167 43.2535C194.84 43.2535 195.269 42.7101 195.269 41.845C195.269 40.9655 194.84 40.4078 194.167 40.4078C193.503 40.4078 193.074 40.9655 193.074 41.845ZM196.597 39.9502H197.198V43.7397H196.597V39.9502ZM196.583 39.3568V38.6704H197.212V39.3568H196.583ZM198.098 39.9502H198.648L198.662 40.608C198.856 40.0932 199.306 39.8644 199.828 39.8644C200.693 39.8644 201.108 40.5008 201.108 41.3016V43.7397H200.507V41.4732C200.507 40.7725 200.271 40.3935 199.699 40.3935C199.099 40.3935 198.698 40.7725 198.698 41.4732V43.7397H198.098V39.9502ZM203.444 43.5395C202.465 43.5395 201.771 42.7816 201.771 41.702C201.771 40.6223 202.458 39.8644 203.437 39.8644C203.952 39.8644 204.388 40.129 204.56 40.5508V39.9502H205.132V43.3679C205.132 44.3689 204.445 44.898 203.459 44.898C202.651 44.898 202.05 44.4619 201.879 43.7969L202.508 43.754C202.658 44.1115 202.987 44.326 203.459 44.326C204.124 44.326 204.531 44.04 204.531 43.5038V42.8817C204.345 43.2821 203.924 43.5395 203.444 43.5395ZM202.401 41.702C202.401 42.4813 202.815 42.9675 203.48 42.9675C204.117 42.9675 204.531 42.4813 204.538 41.702C204.553 40.9226 204.138 40.4364 203.48 40.4364C202.815 40.4364 202.401 40.9226 202.401 41.702ZM207.781 39.9502H208.31L208.331 40.6438C208.46 40.1719 208.739 39.9502 209.232 39.9502H209.604V40.4793H209.232C208.653 40.4793 208.381 40.8297 208.381 41.4803V43.7397H207.781V39.9502ZM211.656 43.8255C210.605 43.8255 209.918 43.0533 209.918 41.845C209.918 40.6366 210.605 39.8644 211.656 39.8644C212.7 39.8644 213.386 40.6366 213.386 41.845C213.386 43.0533 212.7 43.8255 211.656 43.8255ZM210.548 41.845C210.548 42.7244 210.955 43.2535 211.656 43.2535C212.349 43.2535 212.757 42.7244 212.757 41.845C212.757 40.9655 212.349 40.4364 211.656 40.4364C210.955 40.4364 210.548 40.9655 210.548 41.845ZM217.052 43.7397H216.48V43.1105C216.28 43.6039 215.844 43.8255 215.343 43.8255C214.5 43.8255 214.085 43.1892 214.085 42.3884V39.9502H214.686V42.2096C214.686 42.9175 214.921 43.2964 215.472 43.2964C216.058 43.2964 216.452 42.9175 216.452 42.2096V39.9502H217.052V43.7397ZM218.057 39.9502H218.608L218.622 40.608C218.815 40.0932 219.266 39.8644 219.788 39.8644C220.653 39.8644 221.068 40.5008 221.068 41.3016V43.7397H220.467V41.4732C220.467 40.7725 220.231 40.3935 219.659 40.3935C219.058 40.3935 218.658 40.7725 218.658 41.4732V43.7397H218.057V39.9502ZM225.099 38.6632V43.7397H224.555L224.534 43.1963C224.319 43.5824 223.862 43.8255 223.333 43.8255C222.346 43.8255 221.731 43.0605 221.731 41.845C221.731 40.6295 222.346 39.8644 223.333 39.8644C223.84 39.8644 224.291 40.0932 224.498 40.4507V38.6632H225.099ZM222.36 41.845C222.36 42.7101 222.789 43.2535 223.454 43.2535C224.126 43.2535 224.555 42.7101 224.555 41.845C224.555 40.9655 224.126 40.4078 223.454 40.4078C222.789 40.4078 222.36 40.9655 222.36 41.845ZM225.864 42.9604H226.629V43.7397H225.864V42.9604Z" fill="#707070"/>
<g clip-path="url(#clip2_2510_300)">
<path d="M66.0364 65.8334C67.1017 65.8334 67.7667 66.4269 67.7667 67.3707C67.7667 67.9641 67.3591 68.4146 66.9087 68.5433C67.402 68.6219 67.6237 68.8793 67.6737 69.4156L67.8167 70.9099H67.1947L67.066 69.4799C67.0231 69.0152 66.7156 68.865 65.972 68.865H64.7279V70.9099H64.113V65.8334H66.0364ZM64.7279 68.2644H66.0364C66.7299 68.2644 67.1232 67.9427 67.1232 67.3564C67.1232 66.7701 66.7371 66.434 66.0364 66.434H64.7279V68.2644ZM70.0877 70.9957C69.0367 70.9957 68.3503 70.2235 68.3503 69.0152C68.3503 67.8068 69.0367 67.0346 70.0877 67.0346C71.1316 67.0346 71.818 67.8068 71.818 69.0152C71.818 70.2235 71.1316 70.9957 70.0877 70.9957ZM68.9795 69.0152C68.9795 69.8946 69.387 70.4237 70.0877 70.4237C70.7813 70.4237 71.1888 69.8946 71.1888 69.0152C71.1888 68.1357 70.7813 67.6066 70.0877 67.6066C69.387 67.6066 68.9795 68.1357 68.9795 69.0152ZM75.0792 67.1204L75.9801 70.245L76.8882 67.1204H77.5317L76.3591 70.9099H75.6012L74.7575 68.0285L73.9138 70.9099H73.163L71.9904 67.1204H72.6339L73.5348 70.245L74.4357 67.1204H75.0792ZM83.1525 65.8334V66.434H81.5724V70.9099H80.9575V66.434H79.3773V65.8334H83.1525ZM83.2795 67.1204H83.923L85.0599 70.2664L86.1681 67.1204H86.8045L85.2672 71.389C85.1242 71.7965 84.8525 71.9824 84.4235 71.9824H83.9302V71.4533H84.3663C84.5522 71.4533 84.6595 71.3747 84.731 71.1888L84.8668 70.8384H84.6666L83.2795 67.1204ZM87.3944 71.9824V67.1204H87.9378L87.9593 67.6853C88.1666 67.2634 88.5742 67.0346 89.1247 67.0346C90.2544 67.0346 90.7621 67.9713 90.7621 69.0152C90.7621 70.0591 90.2544 70.9957 89.1247 70.9957C88.5956 70.9957 88.2095 70.7884 87.995 70.3951V71.9824H87.3944ZM87.9307 69.0152C87.9307 69.723 88.2524 70.4237 89.0246 70.4237C89.804 70.4237 90.1186 69.7373 90.1186 69.0152C90.1186 68.293 89.804 67.6066 89.0246 67.6066C88.2524 67.6066 87.9307 68.3073 87.9307 69.0152ZM91.2916 69.0152C91.2916 67.814 91.9708 67.0346 93.029 67.0346C93.8656 67.0346 94.6092 67.5852 94.6664 68.9294L94.6735 69.2011H91.9279C91.9851 69.9733 92.3784 70.4237 93.029 70.4237C93.4294 70.4237 93.8012 70.1878 93.9728 69.7874L94.6163 69.8374C94.3947 70.5524 93.7512 70.9957 93.029 70.9957C91.9708 70.9957 91.2916 70.2164 91.2916 69.0152ZM91.9422 68.672H94.0157C93.9156 67.8783 93.4866 67.6066 93.029 67.6066C92.4284 67.6066 92.0423 67.9999 91.9422 68.672Z" fill="black"/>
<g filter="url(#filter1_d_2510_300)">
<rect x="63.0975" y="77.1375" width="233.805" height="20.735" rx="5.3625" stroke="#E4E4E4" stroke-width="0.715" shape-rendering="crispEdges"/>
<path d="M290.825 86.7898L288.68 88.9348L286.535 86.7898" stroke="#AFAFAF" stroke-width="0.868725" stroke-linecap="round" stroke-linejoin="round"/>
<path d="M70.5477 85.1383H73.7366V85.7389H71.1626V87.3763H73.6508V87.9626H71.1626V89.6142H73.7938V90.2148H70.5477V85.1383ZM77.7616 91.2873H77.161V89.7C76.9465 90.0933 76.5604 90.3006 76.0313 90.3006C74.9016 90.3006 74.394 89.364 74.394 88.3201C74.394 87.2762 74.9016 86.3395 76.0313 86.3395C76.5819 86.3395 76.9894 86.5683 77.1968 86.9902L77.2182 86.4253H77.7616V91.2873ZM75.0375 88.3201C75.0375 89.0422 75.3521 89.7286 76.1314 89.7286C76.9036 89.7286 77.2254 89.0279 77.2254 88.3201C77.2254 87.6122 76.9036 86.9115 76.1314 86.9115C75.3521 86.9115 75.0375 87.5979 75.0375 88.3201ZM81.5906 90.2148H81.0186V89.5856C80.8184 90.079 80.3823 90.3006 79.8818 90.3006C79.0381 90.3006 78.6234 89.6643 78.6234 88.8635V86.4253H79.224V88.6847C79.224 89.3926 79.4599 89.7715 80.0105 89.7715C80.5968 89.7715 80.99 89.3926 80.99 88.6847V86.4253H81.5906V90.2148ZM82.4911 86.4253H83.0917V90.2148H82.4911V86.4253ZM82.4768 85.8319V85.1455H83.106V85.8319H82.4768ZM84.1893 85.5673H84.7899V86.4253H85.798V86.9544H84.7899V89.2067C84.7899 89.5213 84.94 89.6857 85.2403 89.6857H85.7837V90.2148H85.2403C84.5611 90.2148 84.1893 89.8502 84.1893 89.2067V86.9544H83.6316V86.4253H84.1893V85.5673ZM86.0764 86.4253H86.7199L87.8567 89.5713L88.965 86.4253H89.6013L88.0641 90.6939C87.9211 91.1014 87.6494 91.2873 87.2204 91.2873H86.727V90.7582H87.1632C87.3491 90.7582 87.4563 90.6796 87.5278 90.4937L87.6637 90.1433H87.4635L86.0764 86.4253Z" fill="black"/>
</g>
<path d="M65.9363 108.734C67.066 108.734 67.7309 109.306 67.7309 110.271C67.7309 111.25 67.066 111.837 65.9363 111.837H64.7279V113.81H64.113V108.734H65.9363ZM64.7279 111.236H65.9363C66.7013 111.236 67.0874 110.907 67.0874 110.271C67.0874 109.649 66.7013 109.334 65.9363 109.334H64.7279V111.236ZM68.4675 110.021H68.9966L69.0181 110.714C69.1468 110.242 69.4256 110.021 69.919 110.021H70.2908V110.55H69.919C69.3398 110.55 69.0681 110.9 69.0681 111.551V113.81H68.4675V110.021ZM70.6051 111.915C70.6051 110.714 71.2844 109.935 72.3426 109.935C73.1791 109.935 73.9227 110.485 73.9799 111.83L73.9871 112.101H71.2415C71.2987 112.873 71.6919 113.324 72.3426 113.324C72.743 113.324 73.1148 113.088 73.2864 112.688L73.9299 112.738C73.7082 113.453 73.0647 113.896 72.3426 113.896C71.2844 113.896 70.6051 113.117 70.6051 111.915ZM71.2558 111.572H73.3293C73.2292 110.778 72.8002 110.507 72.3426 110.507C71.742 110.507 71.3559 110.9 71.2558 111.572ZM74.5218 111.443H76.8884V112.008H74.5218V111.443ZM77.7407 108.734H78.5987L80.2218 113.138L81.8377 108.734H82.6957V113.81H82.0808V109.963L80.6293 113.81H79.8071L78.3556 109.963V113.81H77.7407V108.734ZM85.1468 113.896C84.0958 113.896 83.4094 113.124 83.4094 111.915C83.4094 110.707 84.0958 109.935 85.1468 109.935C86.1907 109.935 86.8771 110.707 86.8771 111.915C86.8771 113.124 86.1907 113.896 85.1468 113.896ZM84.0386 111.915C84.0386 112.795 84.4461 113.324 85.1468 113.324C85.8404 113.324 86.2479 112.795 86.2479 111.915C86.2479 111.036 85.8404 110.507 85.1468 110.507C84.4461 110.507 84.0386 111.036 84.0386 111.915ZM87.6109 110.021H88.1614L88.1757 110.678C88.3688 110.164 88.8192 109.935 89.3412 109.935C90.2063 109.935 90.621 110.571 90.621 111.372V113.81H90.0204V111.544C90.0204 110.843 89.7845 110.464 89.2125 110.464C88.6119 110.464 88.2115 110.843 88.2115 111.544V113.81H87.6109V110.021ZM91.2846 111.915C91.2846 110.714 91.9638 109.935 93.022 109.935C93.8586 109.935 94.6022 110.485 94.6594 111.83L94.6665 112.101H91.9209C91.9781 112.873 92.3714 113.324 93.022 113.324C93.4224 113.324 93.7942 113.088 93.9658 112.688L94.6093 112.738C94.3877 113.453 93.7442 113.896 93.022 113.896C91.9638 113.896 91.2846 113.117 91.2846 111.915ZM91.9352 111.572H94.0087C93.9086 110.778 93.4796 110.507 93.022 110.507C92.4214 110.507 92.0353 110.9 91.9352 111.572ZM94.8409 110.021H95.4844L96.6213 113.167L97.7295 110.021H98.3659L96.8286 114.289C96.6856 114.697 96.4139 114.883 95.9849 114.883H95.4916V114.353H95.9277C96.1136 114.353 96.2209 114.275 96.2924 114.089L96.4282 113.739H96.228L94.8409 110.021ZM100.181 108.734H100.853L102.426 113.124L103.985 108.734H104.664L102.827 113.81H102.019L100.181 108.734ZM104.935 111.136C105.085 110.4 105.678 109.935 106.486 109.935C107.459 109.935 108.009 110.507 108.009 111.522V113.045C108.009 113.202 108.081 113.281 108.238 113.281H108.395V113.81H108.138C107.752 113.81 107.416 113.689 107.416 113.224C107.251 113.574 106.837 113.896 106.236 113.896C105.478 113.896 104.87 113.495 104.87 112.816C104.87 112.037 105.457 111.837 106.3 111.679L107.409 111.458C107.402 110.821 107.094 110.507 106.486 110.507C106.007 110.507 105.686 110.75 105.571 111.186L104.935 111.136ZM105.5 112.816C105.5 113.117 105.757 113.367 106.315 113.367C106.93 113.36 107.423 112.931 107.423 112.044V111.994L106.529 112.151C105.964 112.251 105.5 112.287 105.5 112.816ZM109.079 108.734H109.679V113.045C109.679 113.202 109.758 113.281 109.915 113.281H110.244V113.81H109.822C109.379 113.81 109.079 113.51 109.079 113.074V108.734ZM113.861 113.81H113.289V113.181C113.089 113.674 112.653 113.896 112.152 113.896C111.309 113.896 110.894 113.26 110.894 112.459V110.021H111.494V112.28C111.494 112.988 111.73 113.367 112.281 113.367C112.867 113.367 113.26 112.988 113.26 112.28V110.021H113.861V113.81ZM114.695 111.136C114.845 110.4 115.438 109.935 116.246 109.935C117.219 109.935 117.769 110.507 117.769 111.522V113.045C117.769 113.202 117.841 113.281 117.998 113.281H118.155V113.81H117.898C117.512 113.81 117.176 113.689 117.176 113.224C117.011 113.574 116.597 113.896 115.996 113.896C115.238 113.896 114.63 113.495 114.63 112.816C114.63 112.037 115.217 111.837 116.06 111.679L117.169 111.458C117.161 110.821 116.854 110.507 116.246 110.507C115.767 110.507 115.445 110.75 115.331 111.186L114.695 111.136ZM115.26 112.816C115.26 113.117 115.517 113.367 116.075 113.367C116.69 113.36 117.183 112.931 117.183 112.044V111.994L116.289 112.151C115.724 112.251 115.26 112.287 115.26 112.816ZM118.862 109.163H119.462V110.021H120.47V110.55H119.462V112.802C119.462 113.117 119.612 113.281 119.913 113.281H120.456V113.81H119.913C119.233 113.81 118.862 113.445 118.862 112.802V110.55H118.304V110.021H118.862V109.163ZM121.163 110.021H121.764V113.81H121.163V110.021ZM121.149 109.427V108.741H121.778V109.427H121.149ZM124.27 113.896C123.219 113.896 122.533 113.124 122.533 111.915C122.533 110.707 123.219 109.935 124.27 109.935C125.314 109.935 126.001 110.707 126.001 111.915C126.001 113.124 125.314 113.896 124.27 113.896ZM123.162 111.915C123.162 112.795 123.57 113.324 124.27 113.324C124.964 113.324 125.372 112.795 125.372 111.915C125.372 111.036 124.964 110.507 124.27 110.507C123.57 110.507 123.162 111.036 123.162 111.915ZM126.734 110.021H127.285L127.299 110.678C127.492 110.164 127.943 109.935 128.465 109.935C129.33 109.935 129.745 110.571 129.745 111.372V113.81H129.144V111.544C129.144 110.843 128.908 110.464 128.336 110.464C127.735 110.464 127.335 110.843 127.335 111.544V113.81H126.734V110.021ZM133.712 108.448C132.503 110.5 132.503 112.545 133.712 114.597H133.154C131.831 112.623 131.831 110.421 133.154 108.448H133.712ZM136.307 108.641C136.483 108.641 136.648 108.653 136.8 108.676C136.953 108.7 137.093 108.734 137.222 108.776C137.351 108.819 137.468 108.867 137.572 108.919L137.351 109.413C137.203 109.346 137.041 109.289 136.865 109.241C136.693 109.194 136.509 109.17 136.314 109.17C136.061 109.17 135.859 109.239 135.706 109.377C135.559 109.515 135.485 109.742 135.485 110.056V110.686H136.929V111.15H135.485V111.708H136.929V112.18H135.478C135.478 112.385 135.456 112.556 135.413 112.695C135.375 112.833 135.318 112.945 135.242 113.031C135.17 113.117 135.087 113.186 134.991 113.238H137.737V113.81H134.14V113.281C134.288 113.248 134.415 113.188 134.519 113.102C134.629 113.016 134.712 112.897 134.77 112.745C134.827 112.592 134.855 112.404 134.855 112.18H134.162V111.708H134.855V111.15H134.162V110.686H134.855V110.214C134.855 109.885 134.906 109.603 135.006 109.37C135.106 109.136 135.261 108.958 135.47 108.834C135.685 108.705 135.964 108.641 136.307 108.641ZM138.75 108.448C140.073 110.421 140.073 112.623 138.75 114.597H138.192C139.4 112.545 139.4 110.5 138.192 108.448H138.75Z" fill="black"/>
<g filter="url(#filter2_d_2510_300)">
<rect x="63.0975" y="120.037" width="233.805" height="20.735" rx="5.3625" stroke="#E4E4E4" stroke-width="0.715" shape-rendering="crispEdges"/>
<path d="M70.5834 128.825C71.1268 128.825 71.3628 128.589 71.3628 128.038H71.849V133.115H71.2269V129.354H70.1759V128.825H70.5834ZM74.8891 133.229C73.6593 133.229 72.8799 132.207 72.8799 130.584C72.8799 128.946 73.6593 127.924 74.8891 127.924C76.126 127.924 76.9054 128.946 76.9054 130.584C76.9054 132.207 76.126 133.229 74.8891 133.229ZM73.5234 130.584C73.5234 131.892 74.0168 132.629 74.8891 132.629C75.7685 132.629 76.2619 131.892 76.2619 130.584C76.2619 129.268 75.7685 128.524 74.8891 128.524C74.0168 128.524 73.5234 129.268 73.5234 130.584ZM79.5459 133.229C78.3161 133.229 77.5367 132.207 77.5367 130.584C77.5367 128.946 78.3161 127.924 79.5459 127.924C80.7828 127.924 81.5622 128.946 81.5622 130.584C81.5622 132.207 80.7828 133.229 79.5459 133.229ZM78.1802 130.584C78.1802 131.892 78.6736 132.629 79.5459 132.629C80.4253 132.629 80.9187 131.892 80.9187 130.584C80.9187 129.268 80.4253 128.524 79.5459 128.524C78.6736 128.524 78.1802 129.268 78.1802 130.584ZM84.2027 133.229C82.9729 133.229 82.1935 132.207 82.1935 130.584C82.1935 128.946 82.9729 127.924 84.2027 127.924C85.4396 127.924 86.219 128.946 86.219 130.584C86.219 132.207 85.4396 133.229 84.2027 133.229ZM82.837 130.584C82.837 131.892 83.3304 132.629 84.2027 132.629C85.0821 132.629 85.5755 131.892 85.5755 130.584C85.5755 129.268 85.0821 128.524 84.2027 128.524C83.3304 128.524 82.837 129.268 82.837 130.584ZM88.8594 133.229C87.6296 133.229 86.8503 132.207 86.8503 130.584C86.8503 128.946 87.6296 127.924 88.8594 127.924C90.0964 127.924 90.8757 128.946 90.8757 130.584C90.8757 132.207 90.0964 133.229 88.8594 133.229ZM87.4938 130.584C87.4938 131.892 87.9871 132.629 88.8594 132.629C89.7389 132.629 90.2322 131.892 90.2322 130.584C90.2322 129.268 89.7389 128.524 88.8594 128.524C87.9871 128.524 87.4938 129.268 87.4938 130.584ZM93.5162 133.229C92.2864 133.229 91.5071 132.207 91.5071 130.584C91.5071 128.946 92.2864 127.924 93.5162 127.924C94.7532 127.924 95.5325 128.946 95.5325 130.584C95.5325 132.207 94.7532 133.229 93.5162 133.229ZM92.1506 130.584C92.1506 131.892 92.6439 132.629 93.5162 132.629C94.3957 132.629 94.889 131.892 94.889 130.584C94.889 129.268 94.3957 128.524 93.5162 128.524C92.6439 128.524 92.1506 129.268 92.1506 130.584ZM96.7464 133.115L96.3388 134.216H95.9885L96.2673 133.115H95.9742V132.335H96.7392V133.115H96.7464ZM99.1989 133.229C97.9691 133.229 97.1898 132.207 97.1898 130.584C97.1898 128.946 97.9691 127.924 99.1989 127.924C100.436 127.924 101.215 128.946 101.215 130.584C101.215 132.207 100.436 133.229 99.1989 133.229ZM97.8333 130.584C97.8333 131.892 98.3266 132.629 99.1989 132.629C100.078 132.629 100.572 131.892 100.572 130.584C100.572 129.268 100.078 128.524 99.1989 128.524C98.3266 128.524 97.8333 129.268 97.8333 130.584ZM103.856 133.229C102.626 133.229 101.847 132.207 101.847 130.584C101.847 128.946 102.626 127.924 103.856 127.924C105.093 127.924 105.872 128.946 105.872 130.584C105.872 132.207 105.093 133.229 103.856 133.229ZM102.49 130.584C102.49 131.892 102.983 132.629 103.856 132.629C104.735 132.629 105.229 131.892 105.229 130.584C105.229 129.268 104.735 128.524 103.856 128.524C102.983 128.524 102.49 129.268 102.49 130.584Z" fill="black"/>
</g>
<path d="M65.9363 235.288C67.066 235.288 67.7309 235.86 67.7309 236.825C67.7309 237.805 67.066 238.391 65.9363 238.391H64.7279V240.365H64.113V235.288H65.9363ZM64.7279 237.791H65.9363C66.7013 237.791 67.0874 237.462 67.0874 236.825C67.0874 236.203 66.7013 235.889 65.9363 235.889H64.7279V237.791ZM68.4675 236.575H68.9966L69.0181 237.269C69.1468 236.797 69.4256 236.575 69.919 236.575H70.2908V237.104H69.919C69.3398 237.104 69.0681 237.455 69.0681 238.105V240.365H68.4675V236.575ZM71.0575 236.575H71.6581V240.365H71.0575V236.575ZM71.0432 235.982V235.295H71.6724V235.982H71.0432ZM75.1083 237.848C75.0296 237.355 74.6149 237.061 74.1645 237.061C73.4638 237.061 73.0562 237.591 73.0562 238.47C73.0562 239.349 73.4638 239.879 74.1645 239.879C74.6364 239.879 75.0511 239.564 75.1369 239.021L75.7732 239.063C75.6517 239.921 74.9653 240.451 74.1645 240.451C73.1063 240.451 72.427 239.671 72.427 238.47C72.427 237.269 73.1063 236.489 74.1645 236.489C74.9367 236.489 75.6374 236.99 75.7375 237.805L75.1083 237.848ZM76.232 238.47C76.232 237.269 76.9112 236.489 77.9694 236.489C78.806 236.489 79.5496 237.04 79.6068 238.384L79.6139 238.656H76.8683C76.9255 239.428 77.3188 239.879 77.9694 239.879C78.3698 239.879 78.7416 239.643 78.9132 239.242L79.5567 239.292C79.3351 240.007 78.6916 240.451 77.9694 240.451C76.9112 240.451 76.232 239.671 76.232 238.47ZM76.8826 238.127H78.9561C78.856 237.333 78.427 237.061 77.9694 237.061C77.3688 237.061 76.9827 237.455 76.8826 238.127ZM83.941 235.288C85.0707 235.288 85.7356 235.86 85.7356 236.825C85.7356 237.805 85.0707 238.391 83.941 238.391H82.7326V240.365H82.1177V235.288H83.941ZM82.7326 237.791H83.941C84.706 237.791 85.0921 237.462 85.0921 236.825C85.0921 236.203 84.706 235.889 83.941 235.889H82.7326V237.791ZM86.1246 238.47C86.1246 237.269 86.8038 236.489 87.862 236.489C88.6986 236.489 89.4422 237.04 89.4994 238.384L89.5065 238.656H86.7609C86.8181 239.428 87.2114 239.879 87.862 239.879C88.2624 239.879 88.6342 239.643 88.8058 239.242L89.4493 239.292C89.2277 240.007 88.5842 240.451 87.862 240.451C86.8038 240.451 86.1246 239.671 86.1246 238.47ZM86.7752 238.127H88.8487C88.7486 237.333 88.3196 237.061 87.862 237.061C87.2614 237.061 86.8753 237.455 86.7752 238.127ZM90.2423 236.575H90.7714L90.7928 237.269C90.9215 236.797 91.2004 236.575 91.6937 236.575H92.0655V237.104H91.6937C91.1146 237.104 90.8429 237.455 90.8429 238.105V240.365H90.2423V236.575ZM94.973 238.699C95.1017 239.385 95.5879 239.85 96.3887 239.85C97.0393 239.85 97.4755 239.593 97.4755 239.085C97.4755 238.57 97.0322 238.255 96.0169 237.998C95.1875 237.791 94.4367 237.383 94.4367 236.568C94.4367 235.71 95.1231 235.174 96.0955 235.174C97.1823 235.174 97.9045 235.853 98.0117 236.79L97.3682 236.833C97.2753 236.196 96.7891 235.774 96.0884 235.774C95.5092 235.774 95.0802 236.082 95.0802 236.568C95.0802 237.183 95.8167 237.355 96.4602 237.533C97.3825 237.791 98.119 238.248 98.119 239.021C98.119 239.964 97.261 240.451 96.3386 240.451C95.2304 240.451 94.4153 239.771 94.3295 238.742L94.973 238.699ZM98.7943 235.288H99.3949V237.09C99.6094 236.675 100.053 236.489 100.525 236.489C101.311 236.489 101.804 237.047 101.804 237.927V240.365H101.204V238.141C101.204 237.419 100.939 237.061 100.396 237.061C99.7953 237.061 99.3949 237.44 99.3949 238.141V240.365H98.7943V235.288ZM102.567 237.691C102.717 236.954 103.311 236.489 104.119 236.489C105.091 236.489 105.642 237.061 105.642 238.077V239.6C105.642 239.757 105.713 239.836 105.871 239.836H106.028V240.365H105.77C105.384 240.365 105.048 240.243 105.048 239.778C104.884 240.129 104.469 240.451 103.869 240.451C103.111 240.451 102.503 240.05 102.503 239.371C102.503 238.592 103.089 238.391 103.933 238.234L105.041 238.012C105.034 237.376 104.727 237.061 104.119 237.061C103.64 237.061 103.318 237.305 103.204 237.741L102.567 237.691ZM103.132 239.371C103.132 239.671 103.389 239.921 103.947 239.921C104.562 239.914 105.055 239.485 105.055 238.599V238.549L104.162 238.706C103.597 238.806 103.132 238.842 103.132 239.371ZM106.655 236.575H107.185L107.206 237.269C107.335 236.797 107.614 236.575 108.107 236.575H108.479V237.104H108.107C107.528 237.104 107.256 237.455 107.256 238.105V240.365H106.655V236.575ZM108.793 238.47C108.793 237.269 109.472 236.489 110.531 236.489C111.367 236.489 112.111 237.04 112.168 238.384L112.175 238.656H109.429C109.487 239.428 109.88 239.879 110.531 239.879C110.931 239.879 111.303 239.643 111.474 239.242L112.118 239.292C111.896 240.007 111.253 240.451 110.531 240.451C109.472 240.451 108.793 239.671 108.793 238.47ZM109.444 238.127H111.517C111.417 237.333 110.988 237.061 110.531 237.061C109.93 237.061 109.544 237.455 109.444 238.127ZM115.909 235.002C114.7 237.054 114.7 239.099 115.909 241.151H115.351C114.028 239.178 114.028 236.976 115.351 235.002H115.909ZM118.504 235.195C118.68 235.195 118.845 235.207 118.997 235.231C119.15 235.255 119.29 235.288 119.419 235.331C119.548 235.374 119.664 235.422 119.769 235.474L119.548 235.967C119.4 235.901 119.238 235.844 119.061 235.796C118.89 235.748 118.706 235.724 118.511 235.724C118.258 235.724 118.056 235.794 117.903 235.932C117.755 236.07 117.681 236.296 117.681 236.611V237.24H119.126V237.705H117.681V238.263H119.126V238.735H117.674C117.674 238.94 117.653 239.111 117.61 239.249C117.572 239.388 117.515 239.5 117.438 239.585C117.367 239.671 117.283 239.74 117.188 239.793H119.934V240.365H116.337V239.836C116.485 239.802 116.611 239.743 116.716 239.657C116.826 239.571 116.909 239.452 116.966 239.299C117.024 239.147 117.052 238.959 117.052 238.735H116.359V238.263H117.052V237.705H116.359V237.24H117.052V236.768C117.052 236.439 117.102 236.158 117.202 235.925C117.302 235.691 117.457 235.512 117.667 235.388C117.882 235.26 118.16 235.195 118.504 235.195ZM120.947 235.002C122.269 236.976 122.269 239.178 120.947 241.151H120.389C121.597 239.099 121.597 237.054 120.389 235.002H120.947Z" fill="black"/>
<g filter="url(#filter3_d_2510_300)">
<rect x="63.0975" y="245.877" width="233.805" height="20.735" rx="5.3625" stroke="#E4E4E4" stroke-width="0.715" shape-rendering="crispEdges"/>
<path d="M70.5834 254.665C71.1268 254.665 71.3628 254.429 71.3628 253.879H71.849V258.955H71.2269V255.194H70.1759V254.665H70.5834ZM72.8299 258.176H73.5949V258.955H72.8299V258.176ZM76.0477 259.069C74.8179 259.069 74.0385 258.047 74.0385 256.424C74.0385 254.787 74.8179 253.764 76.0477 253.764C77.2846 253.764 78.064 254.787 78.064 256.424C78.064 258.047 77.2846 259.069 76.0477 259.069ZM74.682 256.424C74.682 257.732 75.1754 258.469 76.0477 258.469C76.9271 258.469 77.4205 257.732 77.4205 256.424C77.4205 255.108 76.9271 254.365 76.0477 254.365C75.1754 254.365 74.682 255.108 74.682 256.424ZM80.7045 259.069C79.4747 259.069 78.6953 258.047 78.6953 256.424C78.6953 254.787 79.4747 253.764 80.7045 253.764C81.9414 253.764 82.7208 254.787 82.7208 256.424C82.7208 258.047 81.9414 259.069 80.7045 259.069ZM79.3388 256.424C79.3388 257.732 79.8322 258.469 80.7045 258.469C81.5839 258.469 82.0773 257.732 82.0773 256.424C82.0773 255.108 81.5839 254.365 80.7045 254.365C79.8322 254.365 79.3388 255.108 79.3388 256.424Z" fill="black"/>
</g>
<path d="M64.113 151.633H64.7279V156.71H64.113V151.633ZM65.7095 152.92H66.26L66.2743 153.578C66.4674 153.063 66.9178 152.835 67.4398 152.835C68.3049 152.835 68.7196 153.471 68.7196 154.272V156.71H68.119V154.443C68.119 153.743 67.8831 153.364 67.3111 153.364C66.7105 153.364 66.3101 153.743 66.3101 154.443V156.71H65.7095V152.92ZM72.6873 152.92L71.3074 156.71H70.5495L69.1695 152.92H69.813L70.9284 156.081L72.0438 152.92H72.6873ZM72.8599 154.815C72.8599 153.614 73.5392 152.835 74.5974 152.835C75.4339 152.835 76.1775 153.385 76.2347 154.729L76.2419 155.001H73.4963C73.5535 155.773 73.9467 156.224 74.5974 156.224C74.9978 156.224 75.3696 155.988 75.5412 155.587L76.1847 155.637C75.963 156.352 75.3195 156.796 74.5974 156.796C73.5392 156.796 72.8599 156.016 72.8599 154.815ZM73.5106 154.472H75.5841C75.484 153.678 75.055 153.407 74.5974 153.407C73.9968 153.407 73.6107 153.8 73.5106 154.472ZM79.1933 154.093C79.1075 153.664 78.6856 153.407 78.2638 153.407C77.8419 153.407 77.4987 153.621 77.4987 153.986C77.4987 154.358 77.9921 154.508 78.4068 154.594C79.2648 154.758 79.894 154.994 79.894 155.745C79.894 156.481 79.1361 156.796 78.4139 156.796C77.5202 156.796 76.8338 156.302 76.7766 155.516L77.4058 155.473C77.4844 155.931 77.8491 156.224 78.4139 156.224C78.7857 156.224 79.2648 156.102 79.2648 155.709C79.2648 155.259 78.7285 155.208 78.2995 155.108C77.606 154.951 76.8695 154.751 76.8695 154.014C76.8695 153.292 77.4558 152.835 78.3281 152.835C79.0789 152.835 79.7009 153.314 79.8225 154.05L79.1933 154.093ZM80.8264 152.062H81.427V152.92H82.4351V153.45H81.427V155.702C81.427 156.016 81.5771 156.181 81.8774 156.181H82.4208V156.71H81.8774C81.1982 156.71 80.8264 156.345 80.8264 155.702V153.45H80.2687V152.92H80.8264V152.062ZM84.5249 156.796C83.4739 156.796 82.7875 156.024 82.7875 154.815C82.7875 153.607 83.4739 152.835 84.5249 152.835C85.5688 152.835 86.2552 153.607 86.2552 154.815C86.2552 156.024 85.5688 156.796 84.5249 156.796ZM83.4167 154.815C83.4167 155.695 83.8242 156.224 84.5249 156.224C85.2185 156.224 85.626 155.695 85.626 154.815C85.626 153.936 85.2185 153.407 84.5249 153.407C83.8242 153.407 83.4167 153.936 83.4167 154.815ZM86.9889 152.92H87.518L87.5395 153.614C87.6682 153.142 87.947 152.92 88.4404 152.92H88.8122V153.45H88.4404C87.8612 153.45 87.5895 153.8 87.5895 154.451V156.71H86.9889V152.92ZM91.3121 151.633H92.1701L94.6583 155.981V151.633H95.2732V156.71H94.3794L91.927 152.434V156.71H91.3121V151.633ZM96.1584 154.036C96.3085 153.299 96.902 152.835 97.7099 152.835C98.6823 152.835 99.2329 153.407 99.2329 154.422V155.945C99.2329 156.102 99.3044 156.181 99.4617 156.181H99.619V156.71H99.3616C98.9755 156.71 98.6394 156.588 98.6394 156.124C98.475 156.474 98.0603 156.796 97.4597 156.796C96.7018 156.796 96.094 156.395 96.094 155.716C96.094 154.937 96.6803 154.737 97.524 154.579L98.6323 154.358C98.6251 153.721 98.3177 153.407 97.7099 153.407C97.2309 153.407 96.9091 153.65 96.7947 154.086L96.1584 154.036ZM96.7232 155.716C96.7232 156.016 96.9806 156.267 97.5383 156.267C98.1532 156.26 98.6466 155.831 98.6466 154.944V154.894L97.7528 155.051C97.188 155.151 96.7232 155.187 96.7232 155.716ZM100.247 152.92H100.797L100.811 153.557C100.99 153.099 101.383 152.835 101.905 152.835C102.456 152.835 102.849 153.121 103.014 153.628C103.178 153.121 103.571 152.835 104.165 152.835C104.93 152.835 105.373 153.357 105.373 154.272V156.71H104.773V154.443C104.773 153.757 104.501 153.364 104.043 153.364C103.45 153.364 103.107 153.764 103.107 154.443V156.71H102.506V154.443C102.506 153.771 102.234 153.364 101.784 153.364C101.198 153.364 100.847 153.771 100.847 154.443V156.71H100.247V152.92ZM106.036 154.815C106.036 153.614 106.715 152.835 107.773 152.835C108.61 152.835 109.354 153.385 109.411 154.729L109.418 155.001H106.672C106.73 155.773 107.123 156.224 107.773 156.224C108.174 156.224 108.546 155.988 108.717 155.587L109.361 155.637C109.139 156.352 108.496 156.796 107.773 156.796C106.715 156.796 106.036 156.016 106.036 154.815ZM106.687 154.472H108.76C108.66 153.678 108.231 153.407 107.773 153.407C107.173 153.407 106.787 153.8 106.687 154.472Z" fill="black"/>
<g filter="url(#filter4_d_2510_300)">
<rect x="63.0975" y="162.938" width="110.825" height="20.735" rx="5.3625" stroke="#E4E4E4" stroke-width="0.715" shape-rendering="crispEdges"/>
<path d="M70.5477 170.938H71.4057L73.0287 175.343L74.6446 170.938H75.5026V176.015H74.8877V172.168L73.4363 176.015H72.614L71.1626 172.168V176.015H70.5477V170.938ZM76.592 172.225H77.1926V176.015H76.592V172.225ZM76.5777 171.632V170.946H77.2069V171.632H76.5777ZM80.6427 173.498C80.5641 173.005 80.1494 172.712 79.6989 172.712C78.9982 172.712 78.5907 173.241 78.5907 174.12C78.5907 175 78.9982 175.529 79.6989 175.529C80.1708 175.529 80.5855 175.214 80.6713 174.671L81.3077 174.714C81.1861 175.572 80.4997 176.101 79.6989 176.101C78.6407 176.101 77.9615 175.321 77.9615 174.12C77.9615 172.919 78.6407 172.14 79.6989 172.14C80.4711 172.14 81.1718 172.64 81.2719 173.455L80.6427 173.498ZM81.8627 170.938H82.4633V172.74C82.6778 172.325 83.1211 172.14 83.593 172.14C84.3795 172.14 84.8729 172.697 84.8729 173.577V176.015H84.2723V173.791C84.2723 173.069 84.0077 172.712 83.4643 172.712C82.8637 172.712 82.4633 173.091 82.4633 173.791V176.015H81.8627V170.938ZM85.6357 173.341C85.7858 172.604 86.3793 172.14 87.1872 172.14C88.1596 172.14 88.7102 172.712 88.7102 173.727V175.25C88.7102 175.407 88.7817 175.486 88.939 175.486H89.0963V176.015H88.8389C88.4528 176.015 88.1167 175.893 88.1167 175.429C87.9523 175.779 87.5376 176.101 86.937 176.101C86.1791 176.101 85.5713 175.7 85.5713 175.021C85.5713 174.242 86.1576 174.041 87.0013 173.884L88.1096 173.663C88.1024 173.026 87.795 172.712 87.1872 172.712C86.7082 172.712 86.3864 172.955 86.272 173.391L85.6357 173.341ZM86.2005 175.021C86.2005 175.321 86.4579 175.572 87.0156 175.572C87.6305 175.564 88.1239 175.135 88.1239 174.249V174.199L87.2301 174.356C86.6653 174.456 86.2005 174.492 86.2005 175.021ZM89.474 174.12C89.474 172.919 90.1533 172.14 91.2115 172.14C92.048 172.14 92.7916 172.69 92.8488 174.034L92.856 174.306H90.1104C90.1676 175.078 90.5608 175.529 91.2115 175.529C91.6119 175.529 91.9837 175.293 92.1553 174.892L92.7988 174.942C92.5771 175.657 91.9336 176.101 91.2115 176.101C90.1533 176.101 89.474 175.321 89.474 174.12ZM90.1247 173.777H92.1982C92.0981 172.983 91.6691 172.712 91.2115 172.712C90.6109 172.712 90.2248 173.105 90.1247 173.777ZM93.6266 170.938H94.2272V175.25C94.2272 175.407 94.3059 175.486 94.4632 175.486H94.7921V176.015H94.3702C93.9269 176.015 93.6266 175.715 93.6266 175.278V170.938ZM100.541 170.938V171.539H98.9605V176.015H98.3456V171.539H96.7655V170.938H100.541ZM103.805 176.015H103.233V175.386C103.033 175.879 102.597 176.101 102.096 176.101C101.253 176.101 100.838 175.464 100.838 174.664V172.225H101.439V174.485C101.439 175.193 101.675 175.572 102.225 175.572C102.811 175.572 103.205 175.193 103.205 174.485V172.225H103.805V176.015ZM104.81 172.225H105.34L105.361 172.919C105.49 172.447 105.769 172.225 106.262 172.225H106.634V172.754H106.262C105.683 172.754 105.411 173.105 105.411 173.755V176.015H104.81V172.225ZM107.191 172.225H107.742L107.756 172.883C107.949 172.368 108.399 172.14 108.921 172.14C109.786 172.14 110.201 172.776 110.201 173.577V176.015H109.601V173.748C109.601 173.048 109.365 172.669 108.793 172.669C108.192 172.669 107.792 173.048 107.792 173.748V176.015H107.191V172.225ZM110.865 174.12C110.865 172.919 111.544 172.14 112.602 172.14C113.439 172.14 114.182 172.69 114.24 174.034L114.247 174.306H111.501C111.558 175.078 111.952 175.529 112.602 175.529C113.003 175.529 113.374 175.293 113.546 174.892L114.189 174.942C113.968 175.657 113.324 176.101 112.602 176.101C111.544 176.101 110.865 175.321 110.865 174.12ZM111.515 173.777H113.589C113.489 172.983 113.06 172.712 112.602 172.712C112.002 172.712 111.615 173.105 111.515 173.777ZM114.982 172.225H115.512L115.533 172.919C115.662 172.447 115.941 172.225 116.434 172.225H116.806V172.754H116.434C115.855 172.754 115.583 173.105 115.583 173.755V176.015H114.982V172.225Z" fill="black"/>
</g>
<path d="M64.5206 197.944C64.6493 198.631 65.1355 199.095 65.9363 199.095C66.5869 199.095 67.0231 198.838 67.0231 198.33C67.0231 197.815 66.5798 197.501 65.5645 197.243C64.7351 197.036 63.9843 196.629 63.9843 195.813C63.9843 194.955 64.6707 194.419 65.6431 194.419C66.7299 194.419 67.4521 195.098 67.5593 196.035L66.9158 196.078C66.8229 195.442 66.3367 195.02 65.636 195.02C65.0568 195.02 64.6278 195.327 64.6278 195.813C64.6278 196.428 65.3643 196.6 66.0078 196.779C66.9301 197.036 67.6666 197.494 67.6666 198.266C67.6666 199.21 66.8086 199.696 65.8862 199.696C64.778 199.696 63.9629 199.017 63.8771 197.987L64.5206 197.944ZM68.3418 194.534H68.9424V196.335C69.1569 195.921 69.6002 195.735 70.0721 195.735C70.8586 195.735 71.352 196.293 71.352 197.172V199.61H70.7514V197.386C70.7514 196.664 70.4868 196.307 69.9434 196.307C69.3428 196.307 68.9424 196.686 68.9424 197.386V199.61H68.3418V194.534ZM72.1148 196.936C72.265 196.2 72.8584 195.735 73.6664 195.735C74.6388 195.735 75.1893 196.307 75.1893 197.322V198.845C75.1893 199.002 75.2608 199.081 75.4181 199.081H75.5754V199.61H75.318C74.9319 199.61 74.5959 199.489 74.5959 199.024C74.4314 199.374 74.0167 199.696 73.4161 199.696C72.6582 199.696 72.0505 199.296 72.0505 198.616C72.0505 197.837 72.6368 197.637 73.4805 197.479L74.5887 197.258C74.5816 196.621 74.2741 196.307 73.6664 196.307C73.1873 196.307 72.8656 196.55 72.7512 196.986L72.1148 196.936ZM72.6797 198.616C72.6797 198.917 72.9371 199.167 73.4948 199.167C74.1097 199.16 74.603 198.731 74.603 197.844V197.794L73.7093 197.951C73.1444 198.051 72.6797 198.087 72.6797 198.616ZM76.2031 195.821H76.7322L76.7536 196.514C76.8823 196.042 77.1612 195.821 77.6545 195.821H78.0263V196.35H77.6545C77.0754 196.35 76.8037 196.7 76.8037 197.351V199.61H76.2031V195.821ZM78.3407 197.715C78.3407 196.514 79.0199 195.735 80.0781 195.735C80.9147 195.735 81.6583 196.285 81.7155 197.63L81.7226 197.901H78.977C79.0342 198.673 79.4275 199.124 80.0781 199.124C80.4785 199.124 80.8503 198.888 81.0219 198.488L81.6654 198.538C81.4438 199.253 80.8003 199.696 80.0781 199.696C79.0199 199.696 78.3407 198.917 78.3407 197.715ZM78.9913 197.372H81.0648C80.9647 196.579 80.5357 196.307 80.0781 196.307C79.4775 196.307 79.0914 196.7 78.9913 197.372ZM88.2662 197.937C88.0803 199.002 87.3867 199.725 86.2141 199.725C84.7555 199.725 83.919 198.552 83.919 197.079C83.919 195.599 84.7484 194.419 86.2141 194.419C87.2938 194.419 88.0016 195.091 88.2233 196.092L87.5726 196.135C87.4082 195.42 86.9148 195.02 86.2141 195.02C85.0558 195.02 84.5625 195.978 84.5625 197.079C84.5625 198.173 85.063 199.124 86.2141 199.124C86.9577 199.124 87.4582 198.681 87.6084 197.894L88.2662 197.937ZM89.0138 194.534H89.6144V198.845C89.6144 199.002 89.6931 199.081 89.8504 199.081H90.1793V199.61H89.7574C89.3141 199.61 89.0138 199.31 89.0138 198.874V194.534ZM90.727 196.936C90.8772 196.2 91.4706 195.735 92.2786 195.735C93.251 195.735 93.8015 196.307 93.8015 197.322V198.845C93.8015 199.002 93.873 199.081 94.0303 199.081H94.1876V199.61H93.9302C93.5441 199.61 93.2081 199.489 93.2081 199.024C93.0436 199.374 92.6289 199.696 92.0283 199.696C91.2704 199.696 90.6627 199.296 90.6627 198.616C90.6627 197.837 91.249 197.637 92.0927 197.479L93.2009 197.258C93.1938 196.621 92.8863 196.307 92.2786 196.307C91.7995 196.307 91.4778 196.55 91.3634 196.986L90.727 196.936ZM91.2919 198.616C91.2919 198.917 91.5493 199.167 92.107 199.167C92.7219 199.16 93.2152 198.731 93.2152 197.844V197.794L92.3215 197.951C91.7566 198.051 91.2919 198.087 91.2919 198.616ZM96.982 196.993C96.8962 196.564 96.4744 196.307 96.0525 196.307C95.6307 196.307 95.2875 196.521 95.2875 196.886C95.2875 197.258 95.7808 197.408 96.1955 197.494C97.0535 197.658 97.6827 197.894 97.6827 198.645C97.6827 199.381 96.9248 199.696 96.2027 199.696C95.3089 199.696 94.6225 199.203 94.5653 198.416L95.1945 198.373C95.2732 198.831 95.6378 199.124 96.2027 199.124C96.5745 199.124 97.0535 199.002 97.0535 198.609C97.0535 198.159 96.5173 198.109 96.0883 198.009C95.3947 197.851 94.6583 197.651 94.6583 196.915C94.6583 196.192 95.2446 195.735 96.1169 195.735C96.8676 195.735 97.4897 196.214 97.6112 196.95L96.982 196.993ZM100.633 196.993C100.548 196.564 100.126 196.307 99.7039 196.307C99.282 196.307 98.9388 196.521 98.9388 196.886C98.9388 197.258 99.4322 197.408 99.8469 197.494C100.705 197.658 101.334 197.894 101.334 198.645C101.334 199.381 100.576 199.696 99.854 199.696C98.9603 199.696 98.2739 199.203 98.2167 198.416L98.8459 198.373C98.9245 198.831 99.2892 199.124 99.854 199.124C100.226 199.124 100.705 199.002 100.705 198.609C100.705 198.159 100.169 198.109 99.7396 198.009C99.0461 197.851 98.3096 197.651 98.3096 196.915C98.3096 196.192 98.8959 195.735 99.7682 195.735C100.519 195.735 101.141 196.214 101.263 196.95L100.633 196.993Z" fill="black"/>
<g filter="url(#filter5_d_2510_300)">
<rect x="63.0975" y="205.837" width="110.825" height="20.735" rx="5.3625" stroke="#E4E4E4" stroke-width="0.715" shape-rendering="crispEdges"/>
<path d="M166.415 216.205L164.27 218.35L162.125 216.205" stroke="#AFAFAF" stroke-width="0.868725" stroke-linecap="round" stroke-linejoin="round"/>
<path d="M72.5568 219.029C71.1125 219.029 70.2402 218.021 70.2402 216.384C70.2402 214.732 71.1125 213.724 72.5568 213.724C74.0083 213.724 74.8806 214.732 74.8806 216.384C74.8806 218.021 74.0083 219.029 72.5568 219.029ZM70.8837 216.384C70.8837 217.649 71.5129 218.429 72.5568 218.429C73.6079 218.429 74.2371 217.649 74.2371 216.384C74.2371 215.104 73.6079 214.324 72.5568 214.324C71.5129 214.324 70.8837 215.104 70.8837 216.384ZM75.5237 215.125H76.0528L76.0742 215.819C76.2029 215.347 76.4818 215.125 76.9751 215.125H77.3469V215.654H76.9751C76.396 215.654 76.1243 216.005 76.1243 216.655V218.915H75.5237V215.125ZM81.0289 213.838V218.915H80.4855L80.464 218.371C80.2495 218.757 79.7919 219.001 79.2628 219.001C78.2761 219.001 77.6612 218.236 77.6612 217.02C77.6612 215.805 78.2761 215.039 79.2628 215.039C79.7705 215.039 80.2209 215.268 80.4283 215.626V213.838H81.0289ZM78.2904 217.02C78.2904 217.885 78.7194 218.429 79.3844 218.429C80.0565 218.429 80.4855 217.885 80.4855 217.02C80.4855 216.141 80.0565 215.583 79.3844 215.583C78.7194 215.583 78.2904 216.141 78.2904 217.02ZM81.8138 215.125H82.4144V218.915H81.8138V215.125ZM81.7995 214.532V213.845H82.4287V214.532H81.7995ZM83.3146 215.125H83.8651L83.8794 215.783C84.0725 215.268 84.5229 215.039 85.0449 215.039C85.91 215.039 86.3247 215.676 86.3247 216.477V218.915H85.7241V216.648C85.7241 215.948 85.4882 215.569 84.9162 215.569C84.3156 215.569 83.9152 215.948 83.9152 216.648V218.915H83.3146V215.125ZM87.0875 216.241C87.2377 215.504 87.8311 215.039 88.6391 215.039C89.6115 215.039 90.162 215.611 90.162 216.627V218.15C90.162 218.307 90.2335 218.386 90.3908 218.386H90.5481V218.915H90.2907C89.9046 218.915 89.5686 218.793 89.5686 218.328C89.4041 218.679 88.9894 219.001 88.3888 219.001C87.6309 219.001 87.0232 218.6 87.0232 217.921C87.0232 217.142 87.6095 216.941 88.4532 216.784L89.5614 216.562C89.5543 215.926 89.2468 215.611 88.6391 215.611C88.16 215.611 87.8383 215.855 87.7239 216.291L87.0875 216.241ZM87.6524 217.921C87.6524 218.221 87.9098 218.471 88.4675 218.471C89.0824 218.464 89.5757 218.035 89.5757 217.149V217.099L88.682 217.256C88.1171 217.356 87.6524 217.392 87.6524 217.921ZM91.1758 215.125H91.7049L91.7263 215.819C91.855 215.347 92.1339 215.125 92.6272 215.125H92.999V215.654H92.6272C92.0481 215.654 91.7764 216.005 91.7764 216.655V218.915H91.1758V215.125ZM93.3511 215.125H93.9946L95.1314 218.271L96.2397 215.125H96.876L95.3388 219.394C95.1958 219.801 94.9241 219.987 94.4951 219.987H94.0017V219.458H94.4379C94.6238 219.458 94.731 219.38 94.8025 219.194L94.9384 218.843H94.7382L93.3511 215.125Z" fill="black"/>
</g>
<path d="M187.093 151.633H187.708V156.71H187.093V151.633ZM188.69 152.92H189.24L189.254 153.578C189.448 153.063 189.898 152.835 190.42 152.835C191.285 152.835 191.7 153.471 191.7 154.272V156.71H191.099V154.443C191.099 153.743 190.863 153.364 190.291 153.364C189.691 153.364 189.29 153.743 189.29 154.443V156.71H188.69V152.92ZM195.667 152.92L194.288 156.71H193.53L192.15 152.92H192.793L193.909 156.081L195.024 152.92H195.667ZM195.84 154.815C195.84 153.614 196.519 152.835 197.578 152.835C198.414 152.835 199.158 153.385 199.215 154.729L199.222 155.001H196.476C196.534 155.773 196.927 156.224 197.578 156.224C197.978 156.224 198.35 155.988 198.521 155.587L199.165 155.637C198.943 156.352 198.3 156.796 197.578 156.796C196.519 156.796 195.84 156.016 195.84 154.815ZM196.491 154.472H198.564C198.464 153.678 198.035 153.407 197.578 153.407C196.977 153.407 196.591 153.8 196.491 154.472ZM202.173 154.093C202.088 153.664 201.666 153.407 201.244 153.407C200.822 153.407 200.479 153.621 200.479 153.986C200.479 154.358 200.972 154.508 201.387 154.594C202.245 154.758 202.874 154.994 202.874 155.745C202.874 156.481 202.116 156.796 201.394 156.796C200.5 156.796 199.814 156.302 199.757 155.516L200.386 155.473C200.465 155.931 200.829 156.224 201.394 156.224C201.766 156.224 202.245 156.102 202.245 155.709C202.245 155.259 201.709 155.208 201.28 155.108C200.586 154.951 199.85 154.751 199.85 154.014C199.85 153.292 200.436 152.835 201.308 152.835C202.059 152.835 202.681 153.314 202.803 154.05L202.173 154.093ZM203.807 152.062H204.407V152.92H205.415V153.45H204.407V155.702C204.407 156.016 204.557 156.181 204.858 156.181H205.401V156.71H204.858C204.178 156.71 203.807 156.345 203.807 155.702V153.45H203.249V152.92H203.807V152.062ZM206.108 152.92H206.659L206.673 153.557C206.852 153.099 207.245 152.835 207.767 152.835C208.318 152.835 208.711 153.121 208.875 153.628C209.04 153.121 209.433 152.835 210.027 152.835C210.792 152.835 211.235 153.357 211.235 154.272V156.71H210.634V154.443C210.634 153.757 210.363 153.364 209.905 153.364C209.312 153.364 208.968 153.764 208.968 154.443V156.71H208.368V154.443C208.368 153.771 208.096 153.364 207.646 153.364C207.059 153.364 206.709 153.771 206.709 154.443V156.71H206.108V152.92ZM211.898 154.815C211.898 153.614 212.577 152.835 213.635 152.835C214.472 152.835 215.215 153.385 215.273 154.729L215.28 155.001H212.534C212.591 155.773 212.985 156.224 213.635 156.224C214.036 156.224 214.407 155.988 214.579 155.587L215.222 155.637C215.001 156.352 214.357 156.796 213.635 156.796C212.577 156.796 211.898 156.016 211.898 154.815ZM212.548 154.472H214.622C214.522 153.678 214.093 153.407 213.635 153.407C213.035 153.407 212.648 153.8 212.548 154.472ZM216.015 152.92H216.566L216.58 153.578C216.773 153.063 217.224 152.835 217.746 152.835C218.611 152.835 219.026 153.471 219.026 154.272V156.71H218.425V154.443C218.425 153.743 218.189 153.364 217.617 153.364C217.016 153.364 216.616 153.743 216.616 154.443V156.71H216.015V152.92ZM220.227 152.062H220.828V152.92H221.836V153.45H220.828V155.702C220.828 156.016 220.978 156.181 221.278 156.181H221.822V156.71H221.278C220.599 156.71 220.227 156.345 220.227 155.702V153.45H219.67V152.92H220.227V152.062ZM223.755 156.71L225.585 151.633H226.414L228.245 156.71H227.573L227.065 155.266H224.934L224.427 156.71H223.755ZM225.142 154.665H226.858L226 152.17L225.142 154.665ZM228.756 152.92H229.307L229.321 153.557C229.5 153.099 229.893 152.835 230.415 152.835C230.966 152.835 231.359 153.121 231.523 153.628C231.688 153.121 232.081 152.835 232.675 152.835C233.44 152.835 233.883 153.357 233.883 154.272V156.71H233.282V154.443C233.282 153.757 233.011 153.364 232.553 153.364C231.96 153.364 231.616 153.764 231.616 154.443V156.71H231.016V154.443C231.016 153.771 230.744 153.364 230.294 153.364C229.707 153.364 229.357 153.771 229.357 154.443V156.71H228.756V152.92ZM236.283 156.796C235.232 156.796 234.546 156.024 234.546 154.815C234.546 153.607 235.232 152.835 236.283 152.835C237.327 152.835 238.013 153.607 238.013 154.815C238.013 156.024 237.327 156.796 236.283 156.796ZM235.175 154.815C235.175 155.695 235.582 156.224 236.283 156.224C236.977 156.224 237.384 155.695 237.384 154.815C237.384 153.936 236.977 153.407 236.283 153.407C235.582 153.407 235.175 153.936 235.175 154.815ZM241.68 156.71H241.108V156.081C240.907 156.574 240.471 156.796 239.971 156.796C239.127 156.796 238.712 156.159 238.712 155.359V152.92H239.313V155.18C239.313 155.888 239.549 156.267 240.099 156.267C240.686 156.267 241.079 155.888 241.079 155.18V152.92H241.68V156.71ZM242.685 152.92H243.235L243.25 153.578C243.443 153.063 243.893 152.835 244.415 152.835C245.28 152.835 245.695 153.471 245.695 154.272V156.71H245.094V154.443C245.094 153.743 244.858 153.364 244.286 153.364C243.686 153.364 243.285 153.743 243.285 154.443V156.71H242.685V152.92ZM246.897 152.062H247.497V152.92H248.505V153.45H247.497V155.702C247.497 156.016 247.647 156.181 247.948 156.181H248.491V156.71H247.948C247.268 156.71 246.897 156.345 246.897 155.702V153.45H246.339V152.92H246.897V152.062ZM252.161 151.347C250.953 153.4 250.953 155.444 252.161 157.496H251.604C250.281 155.523 250.281 153.321 251.604 151.347H252.161ZM254.756 151.541C254.933 151.541 255.097 151.552 255.25 151.576C255.402 151.6 255.543 151.633 255.672 151.676C255.8 151.719 255.917 151.767 256.022 151.819L255.8 152.313C255.653 152.246 255.491 152.189 255.314 152.141C255.143 152.093 254.959 152.07 254.764 152.07C254.511 152.07 254.308 152.139 254.156 152.277C254.008 152.415 253.934 152.642 253.934 152.956V153.585H255.379V154.05H253.934V154.608H255.379V155.08H253.927C253.927 155.285 253.906 155.456 253.863 155.595C253.825 155.733 253.767 155.845 253.691 155.931C253.62 156.016 253.536 156.086 253.441 156.138H256.186V156.71H252.59V156.181C252.738 156.147 252.864 156.088 252.969 156.002C253.079 155.916 253.162 155.797 253.219 155.645C253.276 155.492 253.305 155.304 253.305 155.08H252.611V154.608H253.305V154.05H252.611V153.585H253.305V153.114C253.305 152.785 253.355 152.503 253.455 152.27C253.555 152.036 253.71 151.857 253.92 151.734C254.134 151.605 254.413 151.541 254.756 151.541ZM257.199 151.347C258.522 153.321 258.522 155.523 257.199 157.496H256.642C257.85 155.444 257.85 153.4 256.642 151.347H257.199Z" fill="black"/>
<g filter="url(#filter6_d_2510_300)">
<rect x="186.078" y="162.938" width="110.825" height="20.735" rx="5.3625" stroke="#E4E4E4" stroke-width="0.715" shape-rendering="crispEdges"/>
<path d="M192.677 171.739C192.813 170.802 193.478 170.109 194.493 170.109C195.423 170.109 196.109 170.724 196.109 171.553C196.109 172.29 195.523 172.79 194.758 173.269C194.35 173.498 193.371 174.192 193.349 174.699H196.152V175.3H192.584C192.584 173.784 193.671 173.233 194.536 172.683C195.072 172.34 195.466 171.946 195.466 171.553C195.466 171.06 195.065 170.71 194.493 170.71C193.878 170.71 193.457 171.096 193.321 171.782L192.677 171.739ZM197.55 175.3L197.143 176.401H196.792L197.071 175.3H196.778V174.52H197.543V175.3H197.55ZM201.444 170.223V170.824H199.199L198.991 172.361C199.227 172.075 199.678 171.918 200.114 171.918C201.093 171.918 201.787 172.654 201.787 173.67C201.787 174.692 201.043 175.414 200.021 175.414C199.006 175.414 198.248 174.828 198.176 173.991L198.82 173.948C198.898 174.499 199.413 174.814 200.021 174.814C200.693 174.814 201.143 174.342 201.143 173.67C201.143 172.955 200.686 172.504 199.957 172.504C199.485 172.504 199.091 172.719 198.927 173.076H198.262L198.655 170.223H201.444ZM204.478 175.414C203.248 175.414 202.469 174.392 202.469 172.769C202.469 171.131 203.248 170.109 204.478 170.109C205.715 170.109 206.494 171.131 206.494 172.769C206.494 174.392 205.715 175.414 204.478 175.414ZM203.112 172.769C203.112 174.077 203.606 174.814 204.478 174.814C205.358 174.814 205.851 174.077 205.851 172.769C205.851 171.453 205.358 170.71 204.478 170.71C203.606 170.71 203.112 171.453 203.112 172.769ZM209.135 175.414C207.905 175.414 207.126 174.392 207.126 172.769C207.126 171.131 207.905 170.109 209.135 170.109C210.372 170.109 211.151 171.131 211.151 172.769C211.151 174.392 210.372 175.414 209.135 175.414ZM207.769 172.769C207.769 174.077 208.263 174.814 209.135 174.814C210.014 174.814 210.508 174.077 210.508 172.769C210.508 171.453 210.014 170.71 209.135 170.71C208.263 170.71 207.769 171.453 207.769 172.769Z" fill="black"/>
</g>
<path d="M190.389 194.534V195.134H188.809V199.61H188.194V195.134H186.614V194.534H190.389ZM192 199.696C190.949 199.696 190.262 198.924 190.262 197.715C190.262 196.507 190.949 195.735 192 195.735C193.043 195.735 193.73 196.507 193.73 197.715C193.73 198.924 193.043 199.696 192 199.696ZM190.891 197.715C190.891 198.595 191.299 199.124 192 199.124C192.693 199.124 193.101 198.595 193.101 197.715C193.101 196.836 192.693 196.307 192 196.307C191.299 196.307 190.891 196.836 190.891 197.715ZM194.661 194.963H195.262V195.821H196.27V196.35H195.262V198.602C195.262 198.917 195.412 199.081 195.712 199.081H196.255V199.61H195.712C195.033 199.61 194.661 199.245 194.661 198.602V196.35H194.103V195.821H194.661V194.963ZM196.791 196.936C196.941 196.2 197.535 195.735 198.343 195.735C199.315 195.735 199.866 196.307 199.866 197.322V198.845C199.866 199.002 199.937 199.081 200.095 199.081H200.252V199.61H199.994C199.608 199.61 199.272 199.489 199.272 199.024C199.108 199.374 198.693 199.696 198.093 199.696C197.335 199.696 196.727 199.296 196.727 198.616C196.727 197.837 197.313 197.637 198.157 197.479L199.265 197.258C199.258 196.621 198.951 196.307 198.343 196.307C197.864 196.307 197.542 196.55 197.428 196.986L196.791 196.936ZM197.356 198.616C197.356 198.917 197.613 199.167 198.171 199.167C198.786 199.16 199.279 198.731 199.279 197.844V197.794L198.386 197.951C197.821 198.051 197.356 198.087 197.356 198.616ZM200.935 194.534H201.536V198.845C201.536 199.002 201.615 199.081 201.772 199.081H202.101V199.61H201.679C201.236 199.61 200.935 199.31 200.935 198.874V194.534ZM204.553 194.534H207.742V195.134H205.168V196.836H207.613V197.422H205.168V199.61H204.553V194.534ZM211.512 199.61H210.94V198.981C210.74 199.474 210.304 199.696 209.803 199.696C208.959 199.696 208.545 199.06 208.545 198.259V195.821H209.145V198.08C209.145 198.788 209.381 199.167 209.932 199.167C210.518 199.167 210.911 198.788 210.911 198.08V195.821H211.512V199.61ZM212.517 194.534H213.118V198.845C213.118 199.002 213.196 199.081 213.354 199.081H213.683V199.61H213.261C212.818 199.61 212.517 199.31 212.517 198.874V194.534ZM214.402 194.534H215.003V198.845C215.003 199.002 215.081 199.081 215.239 199.081H215.567V199.61H215.146C214.702 199.61 214.402 199.31 214.402 198.874V194.534ZM215.69 195.821H216.334L217.471 198.967L218.579 195.821H219.215L217.678 200.089C217.535 200.497 217.263 200.683 216.834 200.683H216.341V200.154H216.777C216.963 200.154 217.07 200.075 217.142 199.889L217.278 199.539H217.078L215.69 195.821ZM223.112 194.534C224.67 194.534 225.55 195.449 225.55 197.079C225.55 198.702 224.692 199.61 223.154 199.61H221.539V194.534H223.112ZM222.153 199.01H223.112C224.306 199.01 224.906 198.366 224.906 197.079C224.906 195.778 224.306 195.134 223.112 195.134H222.153V199.01ZM226.151 195.821H226.752V199.61H226.151V195.821ZM226.137 195.227V194.541H226.766V195.227H226.137ZM227.757 194.534H228.357V198.845C228.357 199.002 228.436 199.081 228.593 199.081H228.922V199.61H228.5C228.057 199.61 227.757 199.31 227.757 198.874V194.534ZM232.539 199.61H231.967V198.981C231.767 199.474 231.331 199.696 230.83 199.696C229.987 199.696 229.572 199.06 229.572 198.259V195.821H230.172V198.08C230.172 198.788 230.408 199.167 230.959 199.167C231.545 199.167 231.938 198.788 231.938 198.08V195.821H232.539V199.61ZM233.791 194.963H234.391V195.821H235.399V196.35H234.391V198.602C234.391 198.917 234.541 199.081 234.842 199.081H235.385V199.61H234.842C234.162 199.61 233.791 199.245 233.791 198.602V196.35H233.233V195.821H233.791V194.963ZM235.752 197.715C235.752 196.514 236.431 195.735 237.489 195.735C238.326 195.735 239.069 196.285 239.127 197.63L239.134 197.901H236.388C236.445 198.673 236.839 199.124 237.489 199.124C237.89 199.124 238.261 198.888 238.433 198.488L239.076 198.538C238.855 199.253 238.211 199.696 237.489 199.696C236.431 199.696 235.752 198.917 235.752 197.715ZM236.402 197.372H238.476C238.376 196.579 237.947 196.307 237.489 196.307C236.889 196.307 236.502 196.7 236.402 197.372ZM243.036 194.534V199.61H242.493L242.471 199.067C242.257 199.453 241.799 199.696 241.27 199.696C240.283 199.696 239.668 198.931 239.668 197.715C239.668 196.5 240.283 195.735 241.27 195.735C241.778 195.735 242.228 195.964 242.435 196.321V194.534H243.036ZM240.298 197.715C240.298 198.581 240.727 199.124 241.392 199.124C242.064 199.124 242.493 198.581 242.493 197.715C242.493 196.836 242.064 196.278 241.392 196.278C240.727 196.278 240.298 196.836 240.298 197.715ZM246.178 197.944C246.307 198.631 246.793 199.095 247.594 199.095C248.244 199.095 248.681 198.838 248.681 198.33C248.681 197.815 248.237 197.501 247.222 197.243C246.393 197.036 245.642 196.629 245.642 195.813C245.642 194.955 246.328 194.419 247.301 194.419C248.387 194.419 249.11 195.098 249.217 196.035L248.573 196.078C248.48 195.442 247.994 195.02 247.294 195.02C246.714 195.02 246.285 195.327 246.285 195.813C246.285 196.428 247.022 196.6 247.665 196.779C248.588 197.036 249.324 197.494 249.324 198.266C249.324 199.21 248.466 199.696 247.544 199.696C246.436 199.696 245.62 199.017 245.535 197.987L246.178 197.944ZM249.999 194.534H250.6V196.335C250.815 195.921 251.258 195.735 251.73 195.735C252.516 195.735 253.01 196.293 253.01 197.172V199.61H252.409V197.386C252.409 196.664 252.144 196.307 251.601 196.307C251 196.307 250.6 196.686 250.6 197.386V199.61H249.999V194.534ZM253.772 196.936C253.923 196.2 254.516 195.735 255.324 195.735C256.296 195.735 256.847 196.307 256.847 197.322V198.845C256.847 199.002 256.918 199.081 257.076 199.081H257.233V199.61H256.976C256.59 199.61 256.253 199.489 256.253 199.024C256.089 199.374 255.674 199.696 255.074 199.696C254.316 199.696 253.708 199.296 253.708 198.616C253.708 197.837 254.294 197.637 255.138 197.479L256.246 197.258C256.239 196.621 255.932 196.307 255.324 196.307C254.845 196.307 254.523 196.55 254.409 196.986L253.772 196.936ZM254.337 198.616C254.337 198.917 254.595 199.167 255.152 199.167C255.767 199.16 256.261 198.731 256.261 197.844V197.794L255.367 197.951C254.802 198.051 254.337 198.087 254.337 198.616ZM257.861 195.821H258.39L258.411 196.514C258.54 196.042 258.819 195.821 259.312 195.821H259.684V196.35H259.312C258.733 196.35 258.461 196.7 258.461 197.351V199.61H257.861V195.821ZM259.998 197.715C259.998 196.514 260.677 195.735 261.736 195.735C262.572 195.735 263.316 196.285 263.373 197.63L263.38 197.901H260.635C260.692 198.673 261.085 199.124 261.736 199.124C262.136 199.124 262.508 198.888 262.679 198.488L263.323 198.538C263.101 199.253 262.458 199.696 261.736 199.696C260.677 199.696 259.998 198.917 259.998 197.715ZM260.649 197.372H262.722C262.622 196.579 262.193 196.307 261.736 196.307C261.135 196.307 260.749 196.7 260.649 197.372ZM266.332 196.993C266.246 196.564 265.824 196.307 265.402 196.307C264.98 196.307 264.637 196.521 264.637 196.886C264.637 197.258 265.13 197.408 265.545 197.494C266.403 197.658 267.032 197.894 267.032 198.645C267.032 199.381 266.274 199.696 265.552 199.696C264.658 199.696 263.972 199.203 263.915 198.416L264.544 198.373C264.623 198.831 264.987 199.124 265.552 199.124C265.924 199.124 266.403 199.002 266.403 198.609C266.403 198.159 265.867 198.109 265.438 198.009C264.744 197.851 264.008 197.651 264.008 196.915C264.008 196.192 264.594 195.735 265.466 195.735C266.217 195.735 266.839 196.214 266.961 196.95L266.332 196.993Z" fill="black"/>
<g filter="url(#filter7_d_2510_300)">
<rect x="186.078" y="205.837" width="110.825" height="20.735" rx="5.3625" stroke="#E4E4E4" stroke-width="0.715" shape-rendering="crispEdges"/>
<path d="M192.849 214.625C193.392 214.625 193.628 214.389 193.628 213.838H194.114V218.915H193.492V215.154H192.441V214.625H192.849ZM197.154 219.029C195.925 219.029 195.145 218.007 195.145 216.384C195.145 214.746 195.925 213.724 197.154 213.724C198.391 213.724 199.171 214.746 199.171 216.384C199.171 218.007 198.391 219.029 197.154 219.029ZM195.789 216.384C195.789 217.692 196.282 218.429 197.154 218.429C198.034 218.429 198.527 217.692 198.527 216.384C198.527 215.068 198.034 214.324 197.154 214.324C196.282 214.324 195.789 215.068 195.789 216.384ZM201.811 219.029C200.581 219.029 199.802 218.007 199.802 216.384C199.802 214.746 200.581 213.724 201.811 213.724C203.048 213.724 203.828 214.746 203.828 216.384C203.828 218.007 203.048 219.029 201.811 219.029ZM200.446 216.384C200.446 217.692 200.939 218.429 201.811 218.429C202.691 218.429 203.184 217.692 203.184 216.384C203.184 215.068 202.691 214.324 201.811 214.324C200.939 214.324 200.446 215.068 200.446 216.384ZM205.041 218.915L204.634 220.016H204.283L204.562 218.915H204.269V218.135H205.034V218.915H205.041ZM207.494 219.029C206.264 219.029 205.485 218.007 205.485 216.384C205.485 214.746 206.264 213.724 207.494 213.724C208.731 213.724 209.51 214.746 209.51 216.384C209.51 218.007 208.731 219.029 207.494 219.029ZM206.128 216.384C206.128 217.692 206.622 218.429 207.494 218.429C208.373 218.429 208.867 217.692 208.867 216.384C208.867 215.068 208.373 214.324 207.494 214.324C206.622 214.324 206.128 215.068 206.128 216.384ZM212.151 219.029C210.921 219.029 210.142 218.007 210.142 216.384C210.142 214.746 210.921 213.724 212.151 213.724C213.388 213.724 214.167 214.746 214.167 216.384C214.167 218.007 213.388 219.029 212.151 219.029ZM210.785 216.384C210.785 217.692 211.278 218.429 212.151 218.429C213.03 218.429 213.524 217.692 213.524 216.384C213.524 215.068 213.03 214.324 212.151 214.324C211.278 214.324 210.785 215.068 210.785 216.384ZM216.808 219.029C215.578 219.029 214.798 218.007 214.798 216.384C214.798 214.746 215.578 213.724 216.808 213.724C218.044 213.724 218.824 214.746 218.824 216.384C218.824 218.007 218.044 219.029 216.808 219.029ZM215.442 216.384C215.442 217.692 215.935 218.429 216.808 218.429C217.687 218.429 218.18 217.692 218.18 216.384C218.18 215.068 217.687 214.324 216.808 214.324C215.935 214.324 215.442 215.068 215.442 216.384Z" fill="black"/>
</g>
</g>
<rect x="53.8026" y="57.1175" width="252.395" height="217.36" rx="8.2225" stroke="#E2E2E2" stroke-width="0.715"/>
<rect x="53.4451" y="281.985" width="253.11" height="21.45" rx="10.725" fill="#1C1C1C"/>
<path d="M170.962 294.24C170.75 295.466 169.947 296.261 168.642 296.261C167.022 296.261 166.062 294.987 166.062 293.351C166.062 291.715 167.022 290.425 168.642 290.425C169.861 290.425 170.679 291.172 170.923 292.336L170.026 292.383C169.861 291.628 169.357 291.204 168.634 291.204C167.462 291.204 166.943 292.179 166.943 293.351C166.943 294.515 167.47 295.482 168.634 295.482C169.397 295.482 169.908 295.018 170.057 294.192L170.962 294.24ZM173.48 296.229C172.277 296.229 171.49 295.38 171.49 294.051C171.49 292.722 172.277 291.872 173.48 291.872C174.675 291.872 175.462 292.722 175.462 294.051C175.462 295.38 174.675 296.229 173.48 296.229ZM172.355 294.051C172.355 294.963 172.772 295.506 173.48 295.506C174.188 295.506 174.597 294.963 174.597 294.051C174.597 293.138 174.188 292.596 173.48 292.596C172.772 292.596 172.355 293.138 172.355 294.051ZM176.21 291.967H176.973L176.996 292.667C177.209 292.108 177.696 291.872 178.263 291.872C179.198 291.872 179.678 292.541 179.678 293.453V296.135H178.845V293.713C178.845 292.973 178.616 292.572 178.034 292.572C177.429 292.572 177.043 292.973 177.043 293.713V296.135H176.21V291.967ZM184.212 291.967L182.686 296.135H181.672L180.146 291.967H181.019L182.175 295.278L183.331 291.967H184.212ZM184.38 294.051C184.38 292.729 185.159 291.872 186.37 291.872C187.369 291.872 188.21 292.541 188.25 294.019L188.258 294.287H185.261C185.316 295.065 185.717 295.522 186.37 295.522C186.779 295.522 187.157 295.278 187.322 294.877L188.195 294.94C187.951 295.734 187.219 296.229 186.37 296.229C185.159 296.229 184.38 295.372 184.38 294.051ZM185.277 293.665H187.377C187.282 292.871 186.842 292.58 186.37 292.58C185.764 292.58 185.371 292.981 185.277 293.665ZM189.008 291.967H189.771L189.794 292.753C189.944 292.218 190.258 291.967 190.793 291.967H191.194V292.651H190.785C190.132 292.651 189.841 293.013 189.841 293.705V296.135H189.008V291.967ZM192.327 291.023H193.16V291.967H194.261V292.643H193.16V294.94C193.16 295.278 193.325 295.451 193.648 295.451H194.254V296.135H193.561C192.759 296.135 192.327 295.718 192.327 294.94V292.643H191.69V291.967H192.327V291.023Z" fill="white"/>
<g filter="url(#filter8_d_2510_300)">
<path d="M262.12 301.1C262.579 300.921 262.808 300.832 262.873 300.706C262.928 300.597 262.927 300.467 262.868 300.359C262.8 300.235 262.569 300.152 262.106 299.985L250.29 295.744C249.911 295.608 249.721 295.54 249.598 295.583C249.49 295.62 249.405 295.705 249.368 295.812C249.325 295.936 249.393 296.126 249.529 296.505L253.771 308.32C253.937 308.784 254.02 309.015 254.144 309.083C254.252 309.141 254.382 309.143 254.491 309.087C254.617 309.023 254.707 308.794 254.885 308.335L256.816 303.369C256.851 303.28 256.868 303.235 256.895 303.197C256.919 303.163 256.949 303.134 256.982 303.11C257.02 303.083 257.065 303.066 257.155 303.031L262.12 301.1Z" fill="black"/>
<path d="M262.12 301.1C262.579 300.921 262.808 300.832 262.873 300.706C262.928 300.597 262.927 300.467 262.868 300.359C262.8 300.235 262.569 300.152 262.106 299.985L250.29 295.744C249.911 295.608 249.721 295.54 249.598 295.583C249.49 295.62 249.405 295.705 249.368 295.812C249.325 295.936 249.393 296.126 249.529 296.505L253.771 308.32C253.937 308.784 254.02 309.015 254.144 309.083C254.252 309.141 254.382 309.143 254.491 309.087C254.617 309.023 254.707 308.794 254.885 308.335L256.816 303.369C256.851 303.28 256.868 303.235 256.895 303.197C256.919 303.163 256.949 303.134 256.982 303.11C257.02 303.083 257.065 303.066 257.155 303.031L262.12 301.1Z" stroke="white" stroke-width="1.0296" stroke-linecap="round" stroke-linejoin="round"/>
</g>
</g>
</g>
</g>
<defs>
<filter id="filter0_d_2510_300" x="-11.048" y="-41.338" width="382.096" height="410.696" filterUnits="userSpaceOnUse" color-interpolation-filters="sRGB">
<feFlood flood-opacity="0" result="BackgroundImageFix"/>
<feColorMatrix in="SourceAlpha" type="matrix" values="0 0 0 0 0 0 0 0 0 0 0 0 0 0 0 0 0 0 127 0" result="hardAlpha"/>
<feOffset dy="2.86"/>
<feGaussianBlur stdDeviation="27.599"/>
<feComposite in2="hardAlpha" operator="out"/>
<feColorMatrix type="matrix" values="0 0 0 0 0 0 0 0 0 0 0 0 0 0 0 0 0 0 0.25 0"/>
<feBlend mode="normal" in2="BackgroundImageFix" result="effect1_dropShadow_2510_300"/>
<feBlend mode="normal" in="SourceGraphic" in2="effect1_dropShadow_2510_300" result="shape"/>
</filter>
<filter id="filter1_d_2510_300" x="49.87" y="63.91" width="260.26" height="47.19" filterUnits="userSpaceOnUse" color-interpolation-filters="sRGB">
<feFlood flood-opacity="0" result="BackgroundImageFix"/>
<feColorMatrix in="SourceAlpha" type="matrix" values="0 0 0 0 0 0 0 0 0 0 0 0 0 0 0 0 0 0 127 0" result="hardAlpha"/>
<feOffset/>
<feGaussianBlur stdDeviation="6.435"/>
<feComposite in2="hardAlpha" operator="out"/>
<feColorMatrix type="matrix" values="0 0 0 0 0 0 0 0 0 0 0 0 0 0 0 0 0 0 0.14 0"/>
<feBlend mode="normal" in2="BackgroundImageFix" result="effect1_dropShadow_2510_300"/>
<feBlend mode="normal" in="SourceGraphic" in2="effect1_dropShadow_2510_300" result="shape"/>
</filter>
<filter id="filter2_d_2510_300" x="49.87" y="106.81" width="260.26" height="47.19" filterUnits="userSpaceOnUse" color-interpolation-filters="sRGB">
<feFlood flood-opacity="0" result="BackgroundImageFix"/>
<feColorMatrix in="SourceAlpha" type="matrix" values="0 0 0 0 0 0 0 0 0 0 0 0 0 0 0 0 0 0 127 0" result="hardAlpha"/>
<feOffset/>
<feGaussianBlur stdDeviation="6.435"/>
<feComposite in2="hardAlpha" operator="out"/>
<feColorMatrix type="matrix" values="0 0 0 0 0 0 0 0 0 0 0 0 0 0 0 0 0 0 0.14 0"/>
<feBlend mode="normal" in2="BackgroundImageFix" result="effect1_dropShadow_2510_300"/>
<feBlend mode="normal" in="SourceGraphic" in2="effect1_dropShadow_2510_300" result="shape"/>
</filter>
<filter id="filter3_d_2510_300" x="49.87" y="232.65" width="260.26" height="47.19" filterUnits="userSpaceOnUse" color-interpolation-filters="sRGB">
<feFlood flood-opacity="0" result="BackgroundImageFix"/>
<feColorMatrix in="SourceAlpha" type="matrix" values="0 0 0 0 0 0 0 0 0 0 0 0 0 0 0 0 0 0 127 0" result="hardAlpha"/>
<feOffset/>
<feGaussianBlur stdDeviation="6.435"/>
<feComposite in2="hardAlpha" operator="out"/>
<feColorMatrix type="matrix" values="0 0 0 0 0 0 0 0 0 0 0 0 0 0 0 0 0 0 0.14 0"/>
<feBlend mode="normal" in2="BackgroundImageFix" result="effect1_dropShadow_2510_300"/>
<feBlend mode="normal" in="SourceGraphic" in2="effect1_dropShadow_2510_300" result="shape"/>
</filter>
<filter id="filter4_d_2510_300" x="49.87" y="149.71" width="137.28" height="47.19" filterUnits="userSpaceOnUse" color-interpolation-filters="sRGB">
<feFlood flood-opacity="0" result="BackgroundImageFix"/>
<feColorMatrix in="SourceAlpha" type="matrix" values="0 0 0 0 0 0 0 0 0 0 0 0 0 0 0 0 0 0 127 0" result="hardAlpha"/>
<feOffset/>
<feGaussianBlur stdDeviation="6.435"/>
<feComposite in2="hardAlpha" operator="out"/>
<feColorMatrix type="matrix" values="0 0 0 0 0 0 0 0 0 0 0 0 0 0 0 0 0 0 0.14 0"/>
<feBlend mode="normal" in2="BackgroundImageFix" result="effect1_dropShadow_2510_300"/>
<feBlend mode="normal" in="SourceGraphic" in2="effect1_dropShadow_2510_300" result="shape"/>
</filter>
<filter id="filter5_d_2510_300" x="49.87" y="192.61" width="137.28" height="47.19" filterUnits="userSpaceOnUse" color-interpolation-filters="sRGB">
<feFlood flood-opacity="0" result="BackgroundImageFix"/>
<feColorMatrix in="SourceAlpha" type="matrix" values="0 0 0 0 0 0 0 0 0 0 0 0 0 0 0 0 0 0 127 0" result="hardAlpha"/>
<feOffset/>
<feGaussianBlur stdDeviation="6.435"/>
<feComposite in2="hardAlpha" operator="out"/>
<feColorMatrix type="matrix" values="0 0 0 0 0 0 0 0 0 0 0 0 0 0 0 0 0 0 0.14 0"/>
<feBlend mode="normal" in2="BackgroundImageFix" result="effect1_dropShadow_2510_300"/>
<feBlend mode="normal" in="SourceGraphic" in2="effect1_dropShadow_2510_300" result="shape"/>
</filter>
<filter id="filter6_d_2510_300" x="172.85" y="149.71" width="137.28" height="47.19" filterUnits="userSpaceOnUse" color-interpolation-filters="sRGB">
<feFlood flood-opacity="0" result="BackgroundImageFix"/>
<feColorMatrix in="SourceAlpha" type="matrix" values="0 0 0 0 0 0 0 0 0 0 0 0 0 0 0 0 0 0 127 0" result="hardAlpha"/>
<feOffset/>
<feGaussianBlur stdDeviation="6.435"/>
<feComposite in2="hardAlpha" operator="out"/>
<feColorMatrix type="matrix" values="0 0 0 0 0 0 0 0 0 0 0 0 0 0 0 0 0 0 0.14 0"/>
<feBlend mode="normal" in2="BackgroundImageFix" result="effect1_dropShadow_2510_300"/>
<feBlend mode="normal" in="SourceGraphic" in2="effect1_dropShadow_2510_300" result="shape"/>
</filter>
<filter id="filter7_d_2510_300" x="172.85" y="192.61" width="137.28" height="47.19" filterUnits="userSpaceOnUse" color-interpolation-filters="sRGB">
<feFlood flood-opacity="0" result="BackgroundImageFix"/>
<feColorMatrix in="SourceAlpha" type="matrix" values="0 0 0 0 0 0 0 0 0 0 0 0 0 0 0 0 0 0 127 0" result="hardAlpha"/>
<feOffset/>
<feGaussianBlur stdDeviation="6.435"/>
<feComposite in2="hardAlpha" operator="out"/>
<feColorMatrix type="matrix" values="0 0 0 0 0 0 0 0 0 0 0 0 0 0 0 0 0 0 0.14 0"/>
<feBlend mode="normal" in2="BackgroundImageFix" result="effect1_dropShadow_2510_300"/>
<feBlend mode="normal" in="SourceGraphic" in2="effect1_dropShadow_2510_300" result="shape"/>
</filter>
<filter id="filter8_d_2510_300" x="246.552" y="295.055" width="19.1637" height="19.1636" filterUnits="userSpaceOnUse" color-interpolation-filters="sRGB">
<feFlood flood-opacity="0" result="BackgroundImageFix"/>
<feColorMatrix in="SourceAlpha" type="matrix" values="0 0 0 0 0 0 0 0 0 0 0 0 0 0 0 0 0 0 127 0" result="hardAlpha"/>
<feOffset dy="2.288"/>
<feGaussianBlur stdDeviation="1.144"/>
<feComposite in2="hardAlpha" operator="out"/>
<feColorMatrix type="matrix" values="0 0 0 0 0 0 0 0 0 0 0 0 0 0 0 0 0 0 0.25 0"/>
<feBlend mode="normal" in2="BackgroundImageFix" result="effect1_dropShadow_2510_300"/>
<feBlend mode="normal" in="SourceGraphic" in2="effect1_dropShadow_2510_300" result="shape"/>
</filter>
<clipPath id="clip0_2510_300">
<rect width="361" height="322" rx="2.7572" fill="white"/>
</clipPath>
<clipPath id="clip1_2510_300">
<rect x="44.15" y="11" width="271.7" height="300.3" rx="8.58" fill="white"/>
</clipPath>
<clipPath id="clip2_2510_300">
<rect x="53.4451" y="56.76" width="253.11" height="218.075" rx="8.58" fill="white"/>
</clipPath>
</defs>
</svg>
