<svg width="24" height="17" viewBox="0 0 24 17" fill="none" xmlns="http://www.w3.org/2000/svg">
<path d="M1.122 16.896L0 15.312C2.376 13.904 3.96 12.496 4.752 11.088C5.588 9.636 6.006 8.074 6.006 6.402L7.524 3.63C7.524 4.686 7.172 5.566 6.468 6.27C5.808 6.93 4.972 7.26 3.96 7.26C2.992 7.26 2.156 6.93 1.452 6.27C0.748 5.61 0.396 4.752 0.396 3.696C0.396 2.64 0.77 1.76 1.518 1.056C2.266 0.352001 3.234 0 4.422 0C5.83 0 6.952 0.528 7.788 1.584C8.668 2.596 9.108 4.004 9.108 5.808C9.108 7.832 8.47 9.834 7.194 11.814C5.918 13.75 3.894 15.444 1.122 16.896Z" fill="white"/>
<path d="M15.495 16.896L14.373 15.312C16.749 13.904 18.333 12.496 19.125 11.088C19.961 9.636 20.379 8.074 20.379 6.402L21.897 3.63C21.897 4.686 21.545 5.566 20.841 6.27C20.181 6.93 19.345 7.26 18.333 7.26C17.365 7.26 16.529 6.93 15.825 6.27C15.121 5.61 14.769 4.752 14.769 3.696C14.769 2.64 15.143 1.76 15.891 1.056C16.639 0.352001 17.607 0 18.795 0C20.203 0 21.325 0.528 22.161 1.584C23.041 2.596 23.481 4.004 23.481 5.808C23.481 7.832 22.843 9.834 21.567 11.814C20.291 13.75 18.267 15.444 15.495 16.896Z" fill="white"/>
</svg>