<svg width="79" height="42" viewBox="0 0 79 42" fill="none" xmlns="http://www.w3.org/2000/svg">
<path d="M14.9606 6.64293C14.8134 5.39602 14.2142 4.42947 13.1645 3.74073C12.1147 3.05198 10.8281 2.70761 9.30214 2.70761C8.18709 2.70761 7.21286 2.88812 6.38073 3.24914C5.54861 3.61015 4.90083 4.10559 4.4374 4.738C3.97397 5.36914 3.74225 6.08733 3.74225 6.89001C3.74225 7.56211 3.90356 8.1382 4.22745 8.61827C4.55134 9.09835 4.9674 9.4952 5.47564 9.81141C5.98388 10.1276 6.51644 10.3849 7.0746 10.5859C7.63277 10.7869 8.14485 10.9482 8.61212 11.0711L11.1699 11.7599C11.8254 11.9327 12.5577 12.1695 13.3655 12.4729C14.1733 12.7763 14.9478 13.1886 15.6903 13.7096C16.4328 14.2307 17.0448 14.8964 17.5287 15.708C18.0126 16.5196 18.2545 17.5156 18.2545 18.6972C18.2545 20.0581 17.8999 21.2884 17.1907 22.3868C16.4815 23.4852 15.4484 24.3596 14.0914 25.0061C12.7343 25.6538 11.088 25.9777 9.15236 25.9777C7.34857 25.9777 5.78801 25.6871 4.47197 25.1046C3.15593 24.5221 2.12281 23.7105 1.37261 22.6697C0.622418 21.6289 0.197392 20.4191 0.100098 19.0416H3.24938C3.33131 19.9928 3.65264 20.7776 4.21465 21.3972C4.77665 22.0168 5.48972 22.4751 6.35513 22.7747C7.22054 23.0742 8.15253 23.224 9.15364 23.224C10.3173 23.224 11.3633 23.0333 12.2901 22.6518C13.217 22.2703 13.9505 21.7377 14.492 21.0528C15.0336 20.3679 15.3037 19.5665 15.3037 18.6486C15.3037 17.8126 15.0694 17.1316 14.6022 16.6067C14.1349 16.0818 13.5204 15.6555 12.7574 15.3278C11.9944 15 11.1712 14.7133 10.2853 14.4662L7.18598 13.5803C5.21832 13.0145 3.66032 12.2067 2.51199 11.1569C1.36365 10.1071 0.790125 8.73349 0.790125 7.03595C0.790125 5.62518 1.1729 4.39363 1.93974 3.34003C2.70658 2.28643 3.73969 1.46582 5.03909 0.879493C6.33849 0.293164 7.79279 0 9.39944 0C11.0061 0 12.4668 0.289323 13.7291 0.866691C14.9913 1.44534 15.9937 2.23394 16.7362 3.23505C17.4787 4.23616 17.8692 5.3717 17.9115 6.64165H14.9593L14.9606 6.64293Z" fill="#1C1C1C"/>
<path d="M36.8071 16.0088C36.8071 17.5348 36.4717 18.8188 35.8008 19.8634C35.13 20.9081 34.2749 21.7005 33.2366 22.2408C32.1984 22.7823 31.1166 23.0524 29.9913 23.0524C28.1952 23.0524 26.7243 22.4597 25.5772 21.2755C24.4302 20.0913 23.8566 18.5244 23.8566 16.5772V0.608032H20.9685V16.7551C20.9685 18.7241 21.3206 20.3845 22.0234 21.7376C22.7262 23.0895 23.6953 24.115 24.9281 24.8127C26.161 25.5104 27.573 25.8599 29.1643 25.8599C30.9924 25.8599 32.5402 25.4349 33.805 24.5861C35.0711 23.7373 35.9954 22.6735 36.5805 21.3971H36.8071V25.536H39.6952V0.609314H36.8071V16.0101V16.0088Z" fill="#1C1C1C"/>
<path d="M47.5211 0.577393H44.4871V25.5348H56.0651V22.808H47.5211V0.577393Z" fill="#1C1C1C"/>
<path d="M78.0729 12.5037C78.0729 10.4157 77.7811 8.60677 77.196 7.07565C76.6122 5.54454 75.8185 4.27331 74.8187 3.26196C73.8176 2.2506 72.6897 1.49912 71.4351 1.00625C70.1805 0.514654 68.876 0.267578 67.5241 0.267578C65.3708 0.267578 63.4749 0.821901 61.8362 1.93055C60.1976 3.0392 58.9148 4.57032 57.9905 6.52261C57.0662 8.47619 56.6028 10.7076 56.6028 13.2168C56.6028 15.7259 57.0649 17.9637 57.9905 19.8943C58.9161 21.8261 60.227 23.3341 61.9258 24.4223C63.6247 25.5092 65.6371 26.0533 67.9632 26.0533C69.6288 26.0533 71.1036 25.7857 72.385 25.2506C73.6665 24.7155 74.738 24.0037 75.5983 23.1165C76.4586 22.2293 77.0782 21.2615 77.4572 20.2117L74.715 19.3194C74.4013 20.0658 73.9379 20.7507 73.3273 21.3716C72.7153 21.9938 71.9638 22.4892 71.0715 22.8566C70.1793 23.224 69.1423 23.4084 67.9645 23.4084C66.2337 23.4084 64.7346 23.0026 63.4698 22.1909C62.2036 21.3793 61.2268 20.2348 60.5407 18.7587C59.8954 17.371 59.5536 15.7618 59.514 13.9311H78.0755V12.5024L78.0729 12.5037ZM59.5306 11.3835C59.6176 9.9945 59.9531 8.7015 60.5381 7.50452C61.2141 6.11935 62.1524 5.00558 63.3533 4.16193C64.5541 3.31828 65.9444 2.89582 67.5241 2.89582C69.0168 2.89582 70.3342 3.26964 71.4761 4.01599C72.618 4.76234 73.5103 5.77626 74.1543 7.05901C74.7982 8.34049 75.1195 9.78327 75.1195 11.3835H59.5319H59.5306Z" fill="#1C1C1C"/>
<path d="M0 30.1104H1.47189L4.91673 39.8432L8.33025 30.1104H9.81779L5.79359 41.3649H4.0242L0 30.1104Z" fill="#1C1C1C"/>
<path d="M9.05795 37.1643C9.05795 34.5012 10.5455 32.7734 12.8629 32.7734C14.695 32.7734 16.3234 33.994 16.4487 36.9741L16.4644 37.5764H10.4515C10.5768 39.2884 11.438 40.287 12.8629 40.287C13.7398 40.287 14.554 39.7639 14.9298 38.8762L16.3391 38.9872C15.8537 40.5723 14.4444 41.5551 12.8629 41.5551C10.5455 41.5551 9.05795 39.8273 9.05795 37.1643ZM10.4829 36.4034H15.0238C14.8046 34.6439 13.8651 34.0415 12.8629 34.0415C11.5476 34.0415 10.7021 34.9134 10.4829 36.4034Z" fill="#1C1C1C"/>
<path d="M17.3386 32.9636H18.5443L18.5756 34.422C18.9984 33.2807 19.9849 32.7734 21.1279 32.7734C23.0226 32.7734 23.9308 34.1842 23.9308 35.9596V41.3649H22.6155V36.34C22.6155 34.7865 22.0988 33.9464 20.8461 33.9464C19.5308 33.9464 18.6539 34.7865 18.6539 36.34V41.3649H17.3386V32.9636Z" fill="#1C1C1C"/>
<path d="M25.8254 31.0614H27.1407V32.9636H29.3485V34.1366H27.1407V39.1299C27.1407 39.8273 27.4695 40.1919 28.1272 40.1919H29.3172V41.3649H28.1272C26.6396 41.3649 25.8254 40.5565 25.8254 39.1299V34.1366H24.6041V32.9636H25.8254V31.0614Z" fill="#1C1C1C"/>
<path d="M36.6276 41.3649H35.3749V39.97C34.9365 41.0637 33.9813 41.5551 32.8852 41.5551C31.0375 41.5551 30.1293 40.1444 30.1293 38.369V32.9636H31.4446V37.9727C31.4446 39.542 31.9614 40.3821 33.1671 40.3821C34.451 40.3821 35.3123 39.542 35.3123 37.9727V32.9636H36.6276V41.3649Z" fill="#1C1C1C"/>
<path d="M38.0921 32.9636H39.2508L39.2978 34.5012C39.5796 33.455 40.1903 32.9636 41.2707 32.9636H42.0849V34.1366H41.2707C40.0024 34.1366 39.4074 34.9134 39.4074 36.3558V41.3649H38.0921V32.9636Z" fill="#1C1C1C"/>
<path d="M42.0363 37.1643C42.0363 34.5012 43.5239 32.7734 45.8413 32.7734C47.6733 32.7734 49.3018 33.994 49.4271 36.9741L49.4427 37.5764H43.4299C43.5552 39.2884 44.4164 40.287 45.8413 40.287C46.7182 40.287 47.5324 39.7639 47.9082 38.8762L49.3175 38.9872C48.8321 40.5723 47.4228 41.5551 45.8413 41.5551C43.5239 41.5551 42.0363 39.8273 42.0363 37.1643ZM43.4612 36.4034H48.0022C47.783 34.6439 46.8435 34.0415 45.8413 34.0415C44.526 34.0415 43.6805 34.9134 43.4612 36.4034Z" fill="#1C1C1C"/>
<path d="M53.4521 41.3649V30.1104H54.7987V35.0402H60.2321V30.1104H61.5787V41.3649H60.2321V36.3717H54.7987V41.3649H53.4521Z" fill="#1C1C1C"/>
<path d="M69.4224 41.3649H68.1698V39.97C67.7313 41.0637 66.7762 41.5551 65.6801 41.5551C63.8324 41.5551 62.9242 40.1444 62.9242 38.369V32.9636H64.2395V37.9727C64.2395 39.542 64.7563 40.3821 65.9619 40.3821C67.2459 40.3821 68.1071 39.542 68.1071 37.9727V32.9636H69.4224V41.3649Z" fill="#1C1C1C"/>
<path d="M70.6576 30.1104H71.9729V34.0732C72.427 33.2807 73.4135 32.7734 74.5252 32.7734C76.6861 32.7734 78.0327 34.4695 78.0327 37.1643C78.0327 39.859 76.6861 41.5551 74.5252 41.5551C73.3665 41.5551 72.3643 41.0162 71.8946 40.1602L71.8476 41.3649H70.6576V30.1104ZM71.8476 37.1643C71.8476 39.0823 72.7871 40.287 74.259 40.287C75.7152 40.287 76.6547 39.0823 76.6547 37.1643C76.6547 35.2145 75.7152 33.9781 74.259 33.9781C72.7871 33.9781 71.8476 35.2145 71.8476 37.1643Z" fill="#1C1C1C"/>
</svg>
